<svg xmlns="http://www.w3.org/2000/svg" xmlns:xlink="http://www.w3.org/1999/xlink" viewBox="0 0 69.41 82.07"><defs><style>.cls-1{mask:url(#mask);filter:url(#luminosity-noclip-2);}.cls-2{mix-blend-mode:multiply;fill:url(#linear-gradient);}.cls-3{fill:#004b80;}.cls-4{clip-path:url(#clip-path);}.cls-5{fill:#e22723;}.cls-6{fill:#cc1b1b;}.cls-7{fill:#f9b973;}.cls-8{fill:url(#linear-gradient-2);}.cls-9{fill:url(#linear-gradient-3);}.cls-10{fill:#ffc988;}.cls-11{fill:#471a14;}.cls-12{fill:#db8b3b;}.cls-13{fill:url(#linear-gradient-4);}.cls-14{fill:url(#linear-gradient-5);}.cls-15,.cls-23{fill:#fff;}.cls-16{fill:#2d1900;}.cls-17{fill:url(#linear-gradient-6);}.cls-18{fill:url(#linear-gradient-7);}.cls-19{fill:url(#linear-gradient-8);}.cls-20,.cls-22{opacity:0.26;}.cls-20{fill:url(#linear-gradient-9);}.cls-21{mask:url(#mask-2);}.cls-22{fill:url(#linear-gradient-10);}.cls-23{opacity:0.36;}.cls-24{fill:#8e653c;}.cls-25{filter:url(#luminosity-noclip);}</style><filter id="luminosity-noclip" x="34.25" y="-8177.19" width="2.99" height="32766" filterUnits="userSpaceOnUse" color-interpolation-filters="sRGB"><feFlood flood-color="#fff" result="bg"/><feBlend in="SourceGraphic" in2="bg"/></filter><mask id="mask" x="34.25" y="-8177.19" width="2.99" height="32766" maskUnits="userSpaceOnUse"><g class="cls-25"/></mask><linearGradient id="linear-gradient" x1="35.43" y1="35" x2="36.14" y2="28.36" gradientUnits="userSpaceOnUse"><stop offset="0" stop-color="#fff"/><stop offset="1"/></linearGradient><clipPath id="clip-path"><path class="cls-3" d="M69.41,34.7A34.71,34.71,0,1,1,34.7,0,34.71,34.71,0,0,1,69.41,34.7Z"/></clipPath><linearGradient id="linear-gradient-2" x1="17.9" y1="27.04" x2="22.83" y2="16.05" gradientUnits="userSpaceOnUse"><stop offset="0" stop-color="#c88f54"/><stop offset="1" stop-color="#916e37"/></linearGradient><linearGradient id="linear-gradient-3" x1="49.04" y1="24.87" x2="44.1" y2="17.35" xlink:href="#linear-gradient-2"/><linearGradient id="linear-gradient-4" x1="32.83" y1="38.68" x2="35.54" y2="37.39" xlink:href="#linear-gradient-2"/><linearGradient id="linear-gradient-5" x1="42.47" y1="40.07" x2="38.01" y2="37.95" xlink:href="#linear-gradient-2"/><linearGradient id="linear-gradient-6" x1="36.61" y1="34.46" x2="36.61" y2="26.59" gradientUnits="userSpaceOnUse"><stop offset="0" stop-color="#e5523e"/><stop offset="1" stop-color="#ff986b"/></linearGradient><linearGradient id="linear-gradient-7" x1="24.42" y1="27.32" x2="18.43" y2="29.03" gradientUnits="userSpaceOnUse"><stop offset="0" stop-color="#ffd399"/><stop offset="0.22" stop-color="#ffc98f"/><stop offset="1" stop-color="#ffa46d"/></linearGradient><linearGradient id="linear-gradient-8" x1="20.08" y1="28.13" x2="18.67" y2="28.13" xlink:href="#linear-gradient-6"/><linearGradient id="linear-gradient-9" x1="51.51" y1="18.05" x2="41.4" y2="14.29" gradientUnits="userSpaceOnUse"><stop offset="0" stop-color="#e5bd6d"/><stop offset="0.16" stop-color="#d8ae5b"/><stop offset="1" stop-color="#966200"/></linearGradient><filter id="luminosity-noclip-2" x="34.25" y="23.86" width="2.99" height="12.6" filterUnits="userSpaceOnUse" color-interpolation-filters="sRGB"><feFlood flood-color="#fff" result="bg"/><feBlend in="SourceGraphic" in2="bg"/></filter><mask id="mask-2" x="34.25" y="23.86" width="2.99" height="12.6" maskUnits="userSpaceOnUse"><g class="cls-1"><path class="cls-2" d="M34.77,27.74c-.28,2.17-.37,4.66-.51,7a2.69,2.69,0,0,0,.41,1.7,2,2,0,0,0,1.23-.62c1.34-1.38,1.57-4.89,1.16-7.71A31.29,31.29,0,0,1,36.73,24l-1.36-.1S35,25.57,34.77,27.74Z"/></g></mask><linearGradient id="linear-gradient-10" x1="35.43" y1="35" x2="36.14" y2="28.36" gradientUnits="userSpaceOnUse"><stop offset="0" stop-color="#fff"/><stop offset="1" stop-color="#ff986b"/></linearGradient></defs><g id="Layer_2" data-name="Layer 2"><g id="Layer_7" data-name="Layer 7"><path class="cls-3" d="M69.41,34.7A34.71,34.71,0,1,1,34.7,0,34.71,34.71,0,0,1,69.41,34.7Z"/><g class="cls-4"><path class="cls-5" d="M60,63.53c.91-4.07-8.67-8.68-21.28-8.88s-20.64-1-28.41,6.8S8.78,76.74,18.59,80.63,56,81.14,60,63.53Z"/><path class="cls-6" d="M41.33,63.82c2.33-2.68,2.54-7.87-2.73-8S27.81,54.39,24.84,57.7s.74,8.06,4.27,8.84S37.87,67.8,41.33,63.82Z"/><path class="cls-7" d="M41,46.2s-.84,6-.13,9.89a7,7,0,0,1-4.73,8.08c-3.63.91-9.16.58-9.27-4.82S30.09,46.2,30.09,46.2Z"/><path class="cls-8" d="M21,28a9.17,9.17,0,0,1,.46-6.6,7.77,7.77,0,0,1,3.84-3.56l-2.59-3.74a6,6,0,0,0-3.92,3.33,8.14,8.14,0,0,0-.46,7c.78,2.21,1.52,4.06,1.52,4.06Z"/><path class="cls-9" d="M44.69,15.41a4.52,4.52,0,0,1,3.19,3.32c.55,2.31-.05,7.16-.37,7.21a4.17,4.17,0,0,1-1.3-.47s.47-2.95-.46-4.66a21.33,21.33,0,0,0-2.49-3.46Z"/><path class="cls-10" d="M19.84,28C19.45,22.64,21,16.38,30.43,15.58S44.77,15.7,46.25,21s1,11.88,1.1,16-2.27,12-7.75,13S25.87,51.77,23,41.43,20.15,32.2,19.84,28Z"/><polygon class="cls-11" points="18.99 26.77 20.64 25.8 21.31 26.83 20.73 27.33 18.99 26.77"/><path class="cls-12" d="M22.21,16.93c-.9-2.35-.21-5.14,2.92-6.79,3.81-2,5-2.11,8-2.15s5.88,1,8,.7c4.55-.66,5.05-1.92,5.58-2.56.38-.45.61-1,.74-.41a29.64,29.64,0,0,1-.25,5.79c-.37,3.23-2.92,8.18-8.18,8.5s-10,.25-12.16-.21S22.81,18.5,22.21,16.93Z"/><path class="cls-13" d="M29.56,37.25C29.7,37,30,38.88,32,38.56s1.64-2.33,3.05-2.68a1.1,1.1,0,0,1,1.39,1c0,.64.27,2.41-1.07,3.52a4.17,4.17,0,0,1-4.82-.12A3.89,3.89,0,0,1,29.56,37.25Z"/><path class="cls-14" d="M37.54,35.33c1.13.08,1.57,1.61,2,2.54a1.72,1.72,0,0,0,2,1.06c1.16-.27,1.08-1.58,1.24-1.53a3,3,0,0,1-.59,3,4,4,0,0,1-4.67.07,3.83,3.83,0,0,1-1-4.38C36.81,35.47,36.9,35.28,37.54,35.33Z"/><path class="cls-15" d="M25.09,29.88c-1-1.87-.48-4.31.81-5.05s4.2-1.29,5.54-.09a4.2,4.2,0,0,1,.9,4.59,3.84,3.84,0,0,1-3.49,2.28C27,31.81,25.88,31.31,25.09,29.88Z"/><path class="cls-15" d="M40.29,27.65c0-.12,1.11-1.07,3.36-.9S47,27.81,47,28a2.43,2.43,0,0,1-1.79.71,10.81,10.81,0,0,1-3.26-.17C41.27,28.34,40.2,27.91,40.29,27.65Z"/><path class="cls-16" d="M36,42.33c-.06-.52.75-1.15,1.16-.56s0,.93-.28,1.06S36.06,43.06,36,42.33Z"/><path class="cls-16" d="M26.86,28.27a1.81,1.81,0,0,1,2.52-2c1.35.42,1.35,2.27.68,3A2,2,0,0,1,26.86,28.27Z"/><path class="cls-17" d="M38.41,24.08a49.07,49.07,0,0,0,.37,4.9c.42,2.82.19,6.33-1.15,7.71s-3.51.42-3.37-1.94.23-4.84.51-7,.6-3.88.6-3.88Z"/><path class="cls-16" d="M44,27.23a.74.74,0,0,1-.69,1.23c-.59-.12-.83-.43-.7-1A.85.85,0,0,1,44,27.23Z"/><path class="cls-18" d="M22.08,28c-.51-1.29-3.29-1.92-4.09-.81s.13,3,1.48,3.39S23,30.3,22.08,28Z"/><path class="cls-19" d="M18.89,28.11c0-.57.92-1,1.29-.51a.78.78,0,0,1-.09,1.2C19.72,29,18.89,28.52,18.89,28.11Z"/><path class="cls-20" d="M47.38,5.49A15.26,15.26,0,0,1,46,10.38c-2,4.46-5.33,5.71-7.83,6.66a39.42,39.42,0,0,1-8.39,1.8c-1.53.22-2.89.47-4,.67.37.11.75.2,1.14.29,2.17.46,6.89.53,12.16.21s7.81-5.27,8.18-8.5a29.64,29.64,0,0,0,.25-5.79C47.47,5.57,47.43,5.5,47.38,5.49Z"/><g class="cls-21"><path class="cls-22" d="M34.77,27.74c-.28,2.17-.37,4.66-.51,7a2.69,2.69,0,0,0,.41,1.7,2,2,0,0,0,1.23-.62c1.34-1.38,1.57-4.89,1.16-7.71A31.29,31.29,0,0,1,36.73,24l-1.36-.1S35,25.57,34.77,27.74Z"/></g><path class="cls-23" d="M34.87,35.1c-.19-.85.11-1.46.32-1.11a1.74,1.74,0,0,1,.2,1.24C35.31,35.74,35,35.68,34.87,35.1Z"/><path class="cls-16" d="M35.36,36.38a.43.43,0,0,1-.4.73c-.35-.07-.5-.25-.42-.58A.5.5,0,0,1,35.36,36.38Z"/><path class="cls-16" d="M37.91,36.5a.4.4,0,0,1-.38.66c-.32-.06-.45-.22-.38-.52A.47.47,0,0,1,37.91,36.5Z"/><path class="cls-24" d="M20.82,23.67c.07-.32.56-3.5,2.54-5.17s4.71-3.19,7.8-2.64a6.24,6.24,0,0,1,4.9,3.57c.69,1.29.78,2.21.6,2.44a9.17,9.17,0,0,1-3,1.11c-.28-.14-.69-1.52-1.62-2.63a5.07,5.07,0,0,0-5-1.06,6.58,6.58,0,0,0-2.87,2.12c-1.09,1.58-1.58,3-1.76,3S20.73,24.14,20.82,23.67Z"/><path class="cls-24" d="M39.27,22.13a3.28,3.28,0,0,1,2.84-2.33,4.11,4.11,0,0,1,4.25,3.27c0,.23-.94.86-1.17.86s-.67-1.88-2.44-1.73c-1,.08-.92,1-1.06,1S39.2,22.35,39.27,22.13Z"/><path class="cls-5" d="M49.34,26.05h0a.08.08,0,0,0,0-.05s0,0,0-.06c-.14-.33-6.83-2-9.6-2.28s-7.84-.76-12.23,0a22.7,22.7,0,0,0-6.83,2.13A2.73,2.73,0,0,0,20.83,27c.08.48.2,1.08.35,1.64.32,1.24,1.63,4.93,5.6,5.85s6.64-1.84,7.79-4.56a12.32,12.32,0,0,0,.87-5.35c.86,0,1.79.09,2.81.16a14.06,14.06,0,0,0,.39,4.67c.74,2.64,2.17,3.84,4.8,4.07a5.2,5.2,0,0,0,5.18-3.74,12.22,12.22,0,0,0,.67-2.71A2.57,2.57,0,0,0,49.34,26.05Zm-16,2.75a5.74,5.74,0,0,1-6,4c-2.95-.36-4-2.63-4.52-4.43a9.37,9.37,0,0,1-.34-1.69,33.17,33.17,0,0,1,4.72-1.54A27.17,27.17,0,0,1,34,24.56,14.66,14.66,0,0,1,33.38,28.8ZM43.66,32c-1.66-.23-2.81-.66-3.68-3a11.5,11.5,0,0,1-.67-4.17,50,50,0,0,1,8.89,2.08,7.72,7.72,0,0,1-.43,1.74C47,30.84,45.32,32.27,43.66,32Z"/></g></g></g></svg>