<svg xmlns="http://www.w3.org/2000/svg" viewBox="0 0 201.97 201.97">
    <defs>
        <style>
            .cls-1{isolation:isolate;}.cls-2{fill:#6dbcdb;}.cls-3{fill:#4ea2c4;}.cls-4{fill:#676372;}.cls-5{fill:#daaa82;}.cls-11,.cls-6{fill:#1f1e21;}.cls-6{mix-blend-mode:overlay;opacity:0.5;}.cls-7{fill:#f3bcca;}.cls-8{fill:#c73538;}.cls-9{fill:#eeb997;}.cls-10{fill:#48569c;}.cls-11{opacity:0.2;}
        </style>
    </defs>
    <g class="cls-1">
        <g id="Layer_2" data-name="Layer 2">
            <g id="OBJECTS">
                <path class="cls-2" d="M202,101a100.87,100.87,0,1,1-.23-6.93Q202,97.49,202,101Z"/>
                <path class="cls-3"
                      d="M0,101a101,101,0,0,0,81.66,99.14L101,180.79V23.33h-.29a1.52,1.52,0,0,1-1-.29l0,0s-.13,0-.31-.12c-1.05-.53-4.3-2.56-4.72-2.76-6.4-2.94-19.79,2.42-19.79,2.42L61.57,33.54.23,94.06Q0,97.49,0,101Z"/>
                <path class="cls-4"
                      d="M161.25,182a100.52,100.52,0,0,1-40.93,18.1A101.76,101.76,0,0,1,101,202h0A100.5,100.5,0,0,1,40.73,182a61.28,61.28,0,0,1,36.48-40.31A64.09,64.09,0,0,1,85.53,139q1-.25,2.1-.48A64.46,64.46,0,0,1,101,137.17h0a64.46,64.46,0,0,1,13.35,1.39l.84.18,1.27.3C138.25,144.44,155.45,161,161.25,182Z"/>
                <path class="cls-5"
                      d="M67.82,99.2a7.28,7.28,0,0,1-.93,1.82,8.25,8.25,0,0,1-2.55,2.1,8,8,0,0,1-4,1.49h-.06a5.6,5.6,0,0,1-2.71-.82,14,14,0,0,1-4.67-5.23,35.72,35.72,0,0,1-4.09-8.93,18,18,0,0,1-.18-9.71,8.58,8.58,0,0,1,1-2.3,6.72,6.72,0,0,1,3.92-2.76l.31-.08a8.25,8.25,0,0,1,3.53-.08,9.29,9.29,0,0,1,1.18.31l.59.22a9.81,9.81,0,0,1,1.14.53,14.76,14.76,0,0,1,4.32,3.67A19.3,19.3,0,0,1,67,83.17a18.69,18.69,0,0,1,.92,2.21,21.41,21.41,0,0,1,.87,3.35A20.07,20.07,0,0,1,67.82,99.2Z"/>
                <path class="cls-5"
                      d="M149.5,98.55a14.08,14.08,0,0,1-4.67,5.24,5.55,5.55,0,0,1-2.76.82,8.07,8.07,0,0,1-4-1.49,8.25,8.25,0,0,1-2.55-2.1,7.28,7.28,0,0,1-.93-1.82,20.42,20.42,0,0,1,3.23-19.77A12.88,12.88,0,0,1,145,74.7a7.56,7.56,0,0,1,7.76,2.92,8.66,8.66,0,0,1,1,2.29,18,18,0,0,1-.18,9.72A35.49,35.49,0,0,1,149.5,98.55Z"/>
                <path class="cls-5" d="M116.45,126v26A15.46,15.46,0,0,1,101,167.43h0A15.46,15.46,0,0,1,85.53,152V126Z"/>
                <path class="cls-6"
                      d="M116.45,121.88v15.47c-.4.48-.83.94-1.27,1.39A29.26,29.26,0,0,1,103,146.09q-1,.3-2,.54a30.11,30.11,0,0,1-6.83.8,27.2,27.2,0,0,1-8.62-1.37V121.88Z"/>
                <path class="cls-7"
                      d="M141.7,47.13v57.52a23.43,23.43,0,0,1-7.81,17.13c-4.33,4-9.7,9-14.08,13a24.2,24.2,0,0,1-3.36,2.56c-.68.43-1.38.84-2.11,1.21A29.29,29.29,0,0,1,101,141.72a29.83,29.83,0,0,1-10.27-1.81,27.34,27.34,0,0,1-3.08-1.35,23.83,23.83,0,0,1-2.1-1.2,25.07,25.07,0,0,1-3.38-2.57c-4.37-4-9.74-9-14.07-13a24.09,24.09,0,0,1-1.86-1.93c-.25-.27-.48-.54-.7-.82s-.58-.74-.85-1.11l-.29-.41c-.22-.32-.44-.65-.64-1l0,0L63.4,116A22.13,22.13,0,0,1,62,113.26c-.14-.33-.28-.67-.41-1a1.42,1.42,0,0,0-.05-.16l-.17-.47-.18-.57c-.06-.19-.11-.38-.17-.58s-.1-.37-.14-.56c-.1-.38-.19-.76-.26-1.15,0-.19-.07-.38-.1-.58l-.09-.58c0-.17,0-.33-.06-.5a2.58,2.58,0,0,1,0-.4c-.06-.63-.1-1.27-.1-1.91V47.13Z"/>
                <path class="cls-8"
                      d="M149,74.91a32.47,32.47,0,0,1-3,9c-.46.89-.92,1.78-1.39,2.67a9.67,9.67,0,0,1-.84,1.75l-.08.07a1.64,1.64,0,0,1-1.29.33c-.25,0-.5,0-.76,0l-1.17,0H62l-1.17,0H60.1a1.67,1.67,0,0,1-1.3-.33l-.07-.07a10.44,10.44,0,0,1-.85-1.75L56.5,83.91a32.14,32.14,0,0,1-3-9v0a72.51,72.51,0,0,1-1-18.62l.06-.67.06-.67.06-.58c0-.19.05-.39.08-.58.09-.77.21-1.54.35-2.3.06-.39.14-.77.21-1.15,1-5.14,3-10.64,6.29-14.68,0,0,0,0,0,0a15.33,15.33,0,0,1,10-5.84,15.67,15.67,0,0,1,5.45-7.26h0a18.88,18.88,0,0,1,5.46-2.86,27.15,27.15,0,0,1,15.24,0c3.53.93,6.93,2.35,10.5,3.15a56.57,56.57,0,0,0,12.61.9,18.59,18.59,0,0,0,6.89-.95c2.16-.88,4.06-2.79,4.24-5.12a7.92,7.92,0,0,1,3.39,3.92c-.4-2.52-1.22-5.53-3.58-6.34a16.94,16.94,0,0,1,10.56,22.72A16.22,16.22,0,0,1,149,41.19a22.67,22.67,0,0,0-6.92,1.21c.82-.28,4.12,6.23,4.48,7a32.28,32.28,0,0,1,2.57,8.27c.27,1.65.47,3.29.58,4.92A48.31,48.31,0,0,1,149,74.91Z"/>
                <path class="cls-9"
                      d="M141.7,47.13v57.52a22.43,22.43,0,0,1-3.24,11.51h0l-.08.13-.14.23c-.31.51-.65,1-1,1.48-.12.17-.24.34-.37.5l-.38.49-.36.44c-.3.35-.6.69-.91,1l-.4.41-.38.38-.54.52c-4.33,4-9.7,9-14.08,13a24.2,24.2,0,0,1-3.36,2.56c-.68.43-1.38.84-2.1,1.21A29.36,29.36,0,0,1,101,141.72a29.83,29.83,0,0,1-10.27-1.81,27.34,27.34,0,0,1-3.08-1.35,23.83,23.83,0,0,1-2.1-1.2,25.72,25.72,0,0,1-3.38-2.57c-4.37-4-9.74-9-14.07-13a24.09,24.09,0,0,1-1.86-1.93c-.25-.27-.48-.54-.7-.82s-.58-.74-.85-1.11l-.29-.41c-.22-.32-.44-.65-.64-1l0,0L63.4,116A22.13,22.13,0,0,1,62,113.26c-.15-.33-.28-.67-.4-1l-.06-.16-.17-.47-.18-.57c-.06-.19-.11-.38-.17-.58s-.1-.37-.14-.56c-.1-.38-.19-.76-.26-1.15,0-.19-.07-.38-.1-.58l-.09-.58c0-.17,0-.33-.06-.5s0-.26,0-.4c-.06-.63-.1-1.27-.1-1.91V47.13Z"/>
                <path class="cls-8"
                      d="M143.83,85.93V96.85a4.26,4.26,0,0,1-4.25,4.25c0-2.17,0-4.33-.05-6.49,0-1.9.26-4.12-.65-5.88a4.86,4.86,0,0,0-.33-.54,27.41,27.41,0,0,1-3.7-6.31c-1.35-3.75-.24-7.48-2.45-11.16a13.91,13.91,0,0,0-8.77-6.4c-3.92-.87-8.93.76-13,.89A79.21,79.21,0,0,1,90.93,63.4c-2.63-.58-15.55-3.47-14.15-8.13-.62,2-.93,4.22-1.92,6.14-1.21,2.35-3,3.79-5,5.5s-1.36,4.3-1.55,6.77a43.84,43.84,0,0,1-1.16,9.08c-.77,2.54-3,4.3-3.78,6.81-.52,1.62-.28,3.38-.31,5,0,2.16,0,4.32,0,6.49a4.24,4.24,0,0,1-4.25-4.25V85.93h.4V59.3c0-1.67.38-3.3.34-4.94a44.81,44.81,0,0,1,0-6.24,26.35,26.35,0,0,1,3.36-10.34A21.34,21.34,0,0,1,75.81,27.72a16.14,16.14,0,0,1,3.74-.44H123c6,0,11.47,3.43,15.07,8.13a23,23,0,0,1,1.61,2.37A26.33,26.33,0,0,1,143,48.12a44.81,44.81,0,0,1,.05,6.24c0,1.64.34,3.27.34,4.94V85.93Z"/>
                <polygon class="cls-6" points="60.27 104.61 60.27 104.79 60.25 104.61 60.27 104.61"/>
                <path class="cls-6" d="M141.7,100.53v.4l-.36.06,0-.27Z"/>
                <path class="cls-6"
                      d="M118.66,153.9v4.74A17.67,17.67,0,0,1,101,176.32V202A100.5,100.5,0,0,1,40.73,182a61.28,61.28,0,0,1,36.48-40.31A64.09,64.09,0,0,1,85.53,139v-1.68a23.83,23.83,0,0,0,2.1,1.2,27.34,27.34,0,0,0,3.08,1.35A29.83,29.83,0,0,0,101,141.72v25.71A15.46,15.46,0,0,1,85.53,152v4.15A15.46,15.46,0,0,0,101,171.58h0A17.67,17.67,0,0,0,118.66,153.9Z"/>
                <path class="cls-6"
                      d="M138.46,116.16a26,26,0,0,1-4.57,5.62c-4.33,4-9.7,9-14.07,13a24.91,24.91,0,0,1-3.37,2.56c-.68.43-1.38.84-2.1,1.21A29.36,29.36,0,0,1,101,141.72a29.82,29.82,0,0,1-10.27-1.8,27.4,27.4,0,0,1-3.08-1.36c-.72-.37-1.43-.77-2.1-1.2a25.72,25.72,0,0,1-3.38-2.57c-4.37-4-9.74-9-14.07-13a25.77,25.77,0,0,1-1.86-1.92c-.25-.28-.48-.55-.7-.83s-.58-.73-.85-1.11l-.29-.41c-.22-.32-.44-.65-.64-1l0,0L63.4,116a22.74,22.74,0,0,1-1.36-2.7c-.14-.34-.28-.68-.4-1l-.06-.16c-.06-.16-.11-.31-.16-.47s-.13-.38-.19-.56-.11-.39-.17-.58-.1-.38-.14-.56c-.1-.39-.18-.77-.26-1.16,0-.19-.07-.38-.1-.58l-.09-.58c0-.17,0-.33-.06-.5s0-.26,0-.39c-.06-.64-.1-1.28-.1-1.92l0-.18a5.6,5.6,0,0,1-2.71-.82,14,14,0,0,1-4.67-5.23,36.55,36.55,0,0,1-4.09-8.92,18,18,0,0,1-.17-9.72,8.25,8.25,0,0,1,1-2.3,6.71,6.71,0,0,1,3.93-2.76A85.36,85.36,0,0,1,52.4,62.55a55.21,55.21,0,0,1,.11-6.31l.06-.67.06-.67.06-.58c0-.19.05-.39.08-.58.09-.77.21-1.54.35-2.3.06-.39.14-.77.21-1.15a38.52,38.52,0,0,1,5.1-12.94c.38-.59.77-1.17,1.19-1.74,0,0,0,0,0,0a15.33,15.33,0,0,1,10-5.84,15.67,15.67,0,0,1,5.45-7.26h0c1-.59,4.5-2.43,5.46-2.86C76.23,23.54,76.22,31.53,77,37A27.48,27.48,0,0,0,91.75,57.62c10,5.06,21.79,3.65,32.31,6.8-2.19-.65-6.79.8-9,1.37a35.47,35.47,0,0,0-7.92,3,11.64,11.64,0,0,0-6.39,10.75c0,3.08,0,6.16.1,9.23s.12,6,.12,9q0,11.46,0,22.91v5.18a10.77,10.77,0,0,0,15.18,9.88l.31-.15c.73-.37,1.43-.78,2.11-1.21a24.2,24.2,0,0,0,3.36-2.56c4.38-4,9.75-9,14.08-13A25.92,25.92,0,0,0,138.46,116.16Z"/>
                <path class="cls-10" d="M101,56.07v.83C101,56.62,101,56.35,101,56.07Z"/>
                <path class="cls-11" d="M101,56.07v.83C101,56.62,101,56.35,101,56.07Z"/>
            </g>
        </g>
    </g>
</svg>