<svg xmlns:xlink="http://www.w3.org/1999/xlink" xmlns="http://www.w3.org/2000/svg" viewBox="0 0 55.25 72.59">
    <defs>
        <style>
            .cls-1{mask:url(#mask);filter:url(#luminosity-noclip-2);}.cls-2{mix-blend-mode:multiply;fill:url(#linear-gradient);}.cls-3{fill:none;}.cls-4{fill:#4f2605;}.cls-5{fill:#662e08;}.cls-6{fill:#f7c486;}.cls-7{fill:#724f29;}.cls-8{fill:#5b3d1e;}.cls-9{fill:#ffd399;}.cls-10,.cls-19{fill:#fff;}.cls-11{fill:url(#linear-gradient-2);}.cls-12{fill:url(#linear-gradient-3);}.cls-13{fill:#2d1900;}.cls-14{fill:url(#linear-gradient-4);}.cls-15{clip-path:url(#clip-path);}.cls-16{fill:#471a14;}.cls-17{mask:url(#mask-2);}.cls-18{opacity:0.26;fill:url(#linear-gradient-5);}.cls-19{opacity:0.36;}.cls-20{fill:url(#linear-gradient-6);}.cls-21{fill:url(#linear-gradient-7);}.cls-22{fill:url(#linear-gradient-8);}.cls-23{filter:url(#luminosity-noclip);}
        </style>
        <filter id="luminosity-noclip" x="26.18" y="-8272.26" width="4.18" height="32766" filterUnits="userSpaceOnUse"
                color-interpolation-filters="sRGB">
            <feFlood flood-color="#fff" result="bg"/>
            <feBlend in="SourceGraphic" in2="bg"/>
        </filter>
        <mask id="mask" x="26.18" y="-8272.26" width="4.18" height="32766" maskUnits="userSpaceOnUse">
            <g class="cls-23"/>
        </mask>
        <linearGradient id="linear-gradient" x1="-10.47" y1="23.63" x2="-8.81" y2="18.42"
                        gradientTransform="matrix(-1, 0, 0, 1, 18.97, 0)" gradientUnits="userSpaceOnUse">
            <stop offset="0" stop-color="#fff"/>
            <stop offset="1"/>
        </linearGradient>
        <linearGradient id="linear-gradient-2" x1="-13.79" y1="25.62" x2="-11.09" y2="24.58"
                        gradientTransform="matrix(-1, 0, 0, 1, 18.97, 0)" gradientUnits="userSpaceOnUse">
            <stop offset="0" stop-color="#c88f54"/>
            <stop offset="1" stop-color="#916e37"/>
        </linearGradient>
        <linearGradient id="linear-gradient-3" x1="-5.2" y1="25.96" x2="-7.77" y2="25.22"
                        xlink:href="#linear-gradient-2"/>
        <linearGradient id="linear-gradient-4" x1="-9.7" y1="23.25" x2="-8.1" y2="17.68"
                        gradientTransform="matrix(-1, 0, 0, 1, 18.97, 0)" gradientUnits="userSpaceOnUse">
            <stop offset="0" stop-color="#e5523e"/>
            <stop offset="1" stop-color="#ff986b"/>
        </linearGradient>
        <clipPath id="clip-path">
            <path class="cls-3"
                  d="M36.91,24c-.43-.07-1.29,2.58-4.17,3.16a23.07,23.07,0,0,1-8.9.28c-3.08-.57-4.52-1.79-4.95-1.5s-.22,4.45,1.51,6.89,4.3,3.8,6.31,3.66,6.54-.22,8.91-2.73S37.34,24.08,36.91,24Z"/>
        </clipPath>
        <filter id="luminosity-noclip-2" x="26.18" y="15.03" width="4.18" height="8.96" filterUnits="userSpaceOnUse"
                color-interpolation-filters="sRGB">
            <feFlood flood-color="#fff" result="bg"/>
            <feBlend in="SourceGraphic" in2="bg"/>
        </filter>
        <mask id="mask-2" x="26.18" y="15.03" width="4.18" height="8.96" maskUnits="userSpaceOnUse">
            <g class="cls-1">
                <path class="cls-2"
                      d="M26.23,15.17c.68-.16,1.69-.32,2,.32.53,1,2.17,5.81,2.12,7.64a2,2,0,0,1-.19.84,2.38,2.38,0,0,1-1.77-.58c-1.13-.92-1.88-3.93-2.1-5.87A8.83,8.83,0,0,1,26.23,15.17Z"/>
            </g>
        </mask>
        <linearGradient id="linear-gradient-5" x1="-10.47" y1="23.63" x2="-8.81" y2="18.42"
                        gradientTransform="matrix(-1, 0, 0, 1, 18.97, 0)" gradientUnits="userSpaceOnUse">
            <stop offset="0" stop-color="#fff"/>
            <stop offset="1" stop-color="#ff986b"/>
        </linearGradient>
        <linearGradient id="linear-gradient-6" x1="-9.23" y1="25.06" x2="-7.76" y2="15.26"
                        gradientTransform="matrix(-1, 0, 0, 1, 18.97, 0)" gradientUnits="userSpaceOnUse">
            <stop offset="0" stop-color="#6e3222"/>
            <stop offset="1" stop-color="#4a2822"/>
        </linearGradient>
        <linearGradient id="linear-gradient-7" x1="5.24" y1="25.56" x2="12.04" y2="26.05"
                        gradientTransform="matrix(-1, 0, 0, 1, 18.97, 0)" gradientUnits="userSpaceOnUse">
            <stop offset="0" stop-color="#ffd399"/>
            <stop offset="0.22" stop-color="#ffc98f"/>
            <stop offset="1" stop-color="#ffa46d"/>
        </linearGradient>
        <linearGradient id="linear-gradient-8" x1="5.4" y1="25.75" x2="10.42" y2="25.87"
                        xlink:href="#linear-gradient-4"/>
    </defs>
    <g id="Layer_2" data-name="Layer 2">
        <g id="Layer_10" data-name="Layer 10">
            <path class="cls-4"
                  d="M55.2,55.59c.91-4.06-10.68-10.54-23.29-10.73s-20.65-1-28.42,6.8S2,66.94,11.82,70.83,51.26,73.21,55.2,55.59Z"/>
            <path class="cls-5"
                  d="M34.55,54c2.33-2.68,2.54-7.87-2.73-8S21,44.6,18.06,47.9s.75,8.06,4.28,8.84S31.09,58,34.55,54Z"/>
            <path class="cls-6"
                  d="M34.27,36.4s-.84,6-.14,9.9a7,7,0,0,1-4.73,8.07c-3.63.91-9.16.58-9.26-4.82S23.31,36.4,23.31,36.4Z"/>
            <path class="cls-7"
                  d="M11.62,9.66C18.35,2.91,23.47,1.07,31.22,0S41.14,15.89,40,21.35,11.62,9.66,11.62,9.66Z"/>
            <path class="cls-8"
                  d="M11.71,24.37c.21-1,.43-4.67,1.58-7.4s4.88-5,4.81-5.53-3.3-3.94-4.6-3.3a9.4,9.4,0,0,0-4.42,8.49c.14,5,.69,7.16.91,7.59S11.49,25.37,11.71,24.37Z"/>
            <path class="cls-9"
                  d="M38.85,26.81A7,7,0,0,0,40,21.35c-.65-2.8.58-3.15-.57-6.6s-2.59-7.83-14-6.32S11.85,16,11.64,22.07s4.23,14.86,6.89,18.31,10,3.94,15.94,1.43,6.1-6.1,5.45-9.69S38.33,27.75,38.85,26.81Z"/>
            <path class="cls-7"
                  d="M39.76,25.08c-.29.43-1.52,2-1.38,2.6A13,13,0,0,1,39,33.05c-.29,2.87-1.72,4.74-3.66,5A4.07,4.07,0,0,1,32,36.69a3.81,3.81,0,0,0-2.57.67c-.37,1-.55,1.65-3.44,1.87s-4.72-.67-6.18-3c-.7-1.13-1.07-4.09-1.51-4.23a7.43,7.43,0,0,1-3.66-1.51c-1.43-1.29-1.31-4-1.52-4s-1.51.53-1.51.86A31.75,31.75,0,0,0,13.93,36c1.78,4,5.34,10.28,10.4,11.46s12.33-.26,15.77-5.38,1.56-12,1.13-13.08S39.76,25.08,39.76,25.08Z"/>
            <path class="cls-10"
                  d="M22.07,19.88A2.57,2.57,0,0,0,22,16.37a2.36,2.36,0,0,0-3.73.6c-.83,1.32-.81,2.64.32,3.3S20.86,21.21,22.07,19.88Z"/>
            <path class="cls-10"
                  d="M36.37,19.45a2.36,2.36,0,0,0-.32-3.3,2.53,2.53,0,0,0-3.89.6c-.83,1.32-.82,1.76.41,3A2.58,2.58,0,0,0,36.37,19.45Z"/>
            <path class="cls-11"
                  d="M33.7,23.83a1.61,1.61,0,0,1-1.86.87c-1.34-.32-1.78-2-2.45-1.68s-1.13.21-1.09,1.42.95,2.66,3.38,2.37A2.42,2.42,0,0,0,33.7,23.83Z"/>
            <path class="cls-12"
                  d="M23.68,24.14a1.61,1.61,0,0,0,1.86.87c1.34-.32,1.77-2,2.44-1.69s1.14.21,1.09,1.43-.94,2.65-3.37,2.37A2.41,2.41,0,0,1,23.68,24.14Z"/>
            <path class="cls-13"
                  d="M36.39,12.6c0-.23-1.27-.93-2.14-1.65s-1,0-1.3.36-.43.75.82,1.24S36.18,13.78,36.39,12.6Z"/>
            <path class="cls-13"
                  d="M21.06,12.43c.26-.56-1.14-1.58-1.5-1.36s-2.78,2-2.85,2.44.14,1.08.5,1.08S20.71,13.22,21.06,12.43Z"/>
            <path class="cls-13"
                  d="M36.91,24c-.43-.07-1.27,2.87-4.14,3.45a23.08,23.08,0,0,1-8.9.24c-3.09-.57-4.64-2.21-5.07-1.92-.24.17-.09,4.51,1.64,6.95a8,8,0,0,0,6.61,3.43c2-.15,6.25-.1,8.62-2.62S37.34,24.08,36.91,24Z"/>
            <path class="cls-14"
                  d="M28.24,15.49c.53,1,2.17,5.81,2.12,7.64S28.63,25,27.5,24s-1.88-3.93-2.1-5.87-.16-2.74.27-2.85S27.81,14.63,28.24,15.49Z"/>
            <g class="cls-15">
                <path class="cls-10"
                      d="M20.25,25.23a33.47,33.47,0,0,0-.79,7.18c.15,1,2.66,5,9.41,4.52s7.33-3,7.33-3-.56-3.42-.77-4.21.17-1.22.24-1.79.95-3.33.09-4.05S20.25,25.23,20.25,25.23Z"/>
            </g>
            <path class="cls-13"
                  d="M34.24,30c-.17-.13-.89,1.63-5.09,2a14.25,14.25,0,0,1-7-1c-2.46-1-2.91-2.71-2.91-2.15,0,1.06.83,1.87,2.77,2.8a14.7,14.7,0,0,0,7.65.87C32.2,32.15,34.94,30.56,34.24,30Z"/>
            <path class="cls-13"
                  d="M35.21,19a1.45,1.45,0,0,0-2-1.78c-.89.59-1.08,1.26-.49,2.07A1.53,1.53,0,0,0,35.21,19Z"/>
            <path class="cls-13"
                  d="M21.09,19.42a1.44,1.44,0,0,0-2-1.76c-.88.58-1.07,1.24-.48,2A1.52,1.52,0,0,0,21.09,19.42Z"/>
            <polygon class="cls-16" points="12.07 18.19 10.59 23.39 12 24.5 13.35 19.9 12.07 18.19"/>
            <g class="cls-17">
                <path class="cls-18"
                      d="M26.23,15.17c.68-.16,1.69-.32,2,.32.53,1,2.17,5.81,2.12,7.64a2,2,0,0,1-.19.84,2.38,2.38,0,0,1-1.77-.58c-1.13-.92-1.88-3.93-2.1-5.87A8.83,8.83,0,0,1,26.23,15.17Z"/>
            </g>
            <path class="cls-13" d="M30.23,24.53a.55.55,0,0,0-.78-.68c-.34.22-.41.48-.18.79A.58.58,0,0,0,30.23,24.53Z"/>
            <path class="cls-13" d="M28.19,24.82a.55.55,0,0,0,0-1c-.39-.11-.63,0-.71.37A.58.58,0,0,0,28.19,24.82Z"/>
            <path class="cls-19"
                  d="M29.82,22.92c.13-.47-.12-.82-.29-.63a.72.72,0,0,0-.14.69C29.47,23.27,29.73,23.25,29.82,22.92Z"/>
            <path class="cls-20"
                  d="M12.36,19.14c.56,1.09,2.07,3.65,4.37,4.44a7.29,7.29,0,0,0,8.38-2.85A6.42,6.42,0,0,0,26.29,16c.63,0,1.26,0,1.9-.06.34,1.31.74,4.16,2.9,5.89,2.52,2,5.6,2.09,7.54.22a16.17,16.17,0,0,0,3.16-4.23c.28-.26.49-.59.29-.8s-3-2.8-14.5-2.58-15.44,3-15.51,3.73A1.5,1.5,0,0,0,12.36,19.14ZM29.77,16a32.33,32.33,0,0,1,7.25.72,23,23,0,0,1,2.9,1,27.31,27.31,0,0,1-2.08,2.77,4,4,0,0,1-5.68.09A9.51,9.51,0,0,1,29.77,16ZM14.14,18.89a21.6,21.6,0,0,1,6.33-2.21,38.58,38.58,0,0,1,4.1-.55,7,7,0,0,1-1.14,3.4,5.84,5.84,0,0,1-5.88,2.27C16.3,21.56,14.93,20,14.14,18.89Z"/>
            <path class="cls-21"
                  d="M12.86,24c-.95-.71-3.16-1.86-4.81.72s.79,3.74,2.09,3.74,2.22.14,3.3-1.58A1.89,1.89,0,0,0,12.86,24Z"/>
            <path class="cls-22" d="M12.27,26.3c.53-1-2-2.36-2.78-1.3s.18,1.66,1,1.89S11.85,27.07,12.27,26.3Z"/>
        </g>
    </g>
</svg>