<!--
  - Created by Anup Shrestha (anup.stha012@gmail.com)
  - Copyright (c) 2022.  All rights reserved.
  - Last modified 4/28/22, 1:27 PM
  -
  -->

<svg xmlns:xlink="http://www.w3.org/1999/xlink" xmlns="http://www.w3.org/2000/svg" viewBox="0 0 51.99 78.51">
    <defs>
        <style>
            .cls-1{mask:url(#mask);filter:url(#luminosity-noclip-2);}.cls-18,.cls-2{mix-blend-mode:multiply;}.cls-2{fill:url(#linear-gradient);}.cls-3{fill:none;}.cls-4{isolation:isolate;}.cls-5{fill:#e57200;}.cls-6{fill:#bc5900;}.cls-7{fill:#dd8d3e;}.cls-8{fill:#5e0200;}.cls-9{fill:#ed9f4a;}.cls-10{fill:#770800;}.cls-11{fill:#2d1900;}.cls-12{fill:url(#linear-gradient-2);}.cls-13{fill:url(#linear-gradient-3);}.cls-14{fill:#173e5e;}.cls-15{fill:url(#linear-gradient-4);}.cls-16{clip-path:url(#clip-path);}.cls-17,.cls-21{fill:#fff;}.cls-18{opacity:0.21;fill:url(#linear-gradient-5);}.cls-19{mask:url(#mask-2);}.cls-20{opacity:0.26;fill:url(#linear-gradient-6);}.cls-21{opacity:0.36;}.cls-22{fill:#284d72;}.cls-23{filter:url(#luminosity-noclip);}
        </style>
        <filter id="luminosity-noclip" x="27.71" y="-8273.2" width="2.66" height="32766" filterUnits="userSpaceOnUse"
                color-interpolation-filters="sRGB">
            <feFlood flood-color="#fff" result="bg"/>
            <feBlend in="SourceGraphic" in2="bg"/>
        </filter>
        <mask id="mask" x="27.71" y="-8273.2" width="2.66" height="32766" maskUnits="userSpaceOnUse">
            <g class="cls-23"/>
        </mask>
        <linearGradient id="linear-gradient" x1="29.5" y1="23.86" x2="27.88" y2="19.15" gradientUnits="userSpaceOnUse">
            <stop offset="0" stop-color="#fff"/>
            <stop offset="1"/>
        </linearGradient>
        <linearGradient id="linear-gradient-2" x1="40.44" y1="22.59" x2="43.77" y2="22.27"
                        gradientUnits="userSpaceOnUse">
            <stop offset="0" stop-color="#e5523e"/>
            <stop offset="1" stop-color="#ff986b"/>
        </linearGradient>
        <linearGradient id="linear-gradient-3" x1="30.13" y1="24.29" x2="28.67" y2="18.53"
                        xlink:href="#linear-gradient-2"/>
        <linearGradient id="linear-gradient-4" x1="13.87" y1="23.97" x2="11.11" y2="24.54"
                        xlink:href="#linear-gradient-2"/>
        <clipPath id="clip-path">
            <path class="cls-3"
                  d="M14.45,22.69a5.27,5.27,0,0,0,3.44,2.55,25.46,25.46,0,0,0,10.88,1.38c5.56-.33,7.82-.85,9.16-1.87s1.89-1.92,2-1.76a24,24,0,0,1,.56,5.39c.1,3.37-.53,7-2.13,9s-8.89,4.45-14.25,2.81-8.7-6.89-9.35-12S14.23,22.5,14.45,22.69Z"/>
        </clipPath>
        <linearGradient id="linear-gradient-5" x1="42.35" y1="3.34" x2="37.16" y2="9.59" gradientUnits="userSpaceOnUse">
            <stop offset="0" stop-color="#e5bd6d"/>
            <stop offset="0.16" stop-color="#d8ae5b"/>
            <stop offset="1" stop-color="#966200"/>
        </linearGradient>
        <filter id="luminosity-noclip-2" x="27.71" y="16.91" width="2.66" height="7.37" filterUnits="userSpaceOnUse"
                color-interpolation-filters="sRGB">
            <feFlood flood-color="#fff" result="bg"/>
            <feBlend in="SourceGraphic" in2="bg"/>
        </filter>
        <mask id="mask-2" x="27.71" y="16.91" width="2.66" height="7.37" maskUnits="userSpaceOnUse">
            <g class="cls-1">
                <path class="cls-2"
                      d="M29.52,20.73a12,12,0,0,1-1.12-3.82l-.3.07c-.36.09-.27,1.73-.37,3.52a6.33,6.33,0,0,0,.64,3.74,1.52,1.52,0,0,0,1.79-.87C30.58,22.52,30.37,22.14,29.52,20.73Z"/>
            </g>
        </mask>
        <linearGradient id="linear-gradient-6" x1="29.5" y1="23.86" x2="27.88" y2="19.15"
                        gradientUnits="userSpaceOnUse">
            <stop offset="0" stop-color="#fff"/>
            <stop offset="1" stop-color="#ff986b"/>
        </linearGradient>
    </defs>
    <g class="cls-4">
        <g id="Layer_2" data-name="Layer 2">
            <g id="Layer_13" data-name="Layer 13">
                <path class="cls-5"
                      d="M51.93,60.4c.89-4-8.46-8.47-20.77-8.67S11,50.79,3.41,58.38,2,73.3,11.54,77.1,48.08,77.6,51.93,60.4Z"/>
                <path class="cls-6"
                      d="M33.74,60.68C36,58.07,36.22,53,31.07,52.9s-10.53-1.42-13.44,1.81.73,7.87,4.18,8.63S30.36,64.57,33.74,60.68Z"/>
                <path class="cls-7"
                      d="M33.46,43.48s-.82,5.84-.13,9.66A6.82,6.82,0,0,1,28.71,61c-3.54.89-8.94.57-9-4.71s3.1-12.84,3.1-12.84Z"/>
                <path class="cls-8"
                      d="M12.83,23.31c-.55-1.26-.95-7,.55-11S18.64,7.46,21.55,8s3.14,1.77,3.23,2,.17,3.11-.19,3.11-3.53-1.35-6.51.78S14.81,17.5,15,19a61.86,61.86,0,0,1-.31,7.12l-.36,1.44S14.53,27.2,12.83,23.31Z"/>
                <path class="cls-8"
                      d="M40.87,13.44a5.38,5.38,0,0,1,1.86,4.21,11.11,11.11,0,0,1-1,4.23L39.44,23s1.1-3.27.67-5.23a12.16,12.16,0,0,1-.22-3.61Z"/>
                <path class="cls-9"
                      d="M14.13,29c-.47-2.19-3-11.38,1.76-15.11a19.55,19.55,0,0,1,18.18-3.27c6.93,2.16,6.7,3.35,6.87,4.45.63,4.18-1,5.75.19,10.33S45,38.7,46.23,40.72c2,3.4-2.9,10.22-10.48,9.57S17.13,43,14.13,29Z"/>
                <path class="cls-9"
                      d="M39,22.52c.4-1,2.5-2.64,4-1.92a2.29,2.29,0,0,1,.78,3.4c-.65.85-2.68,1.9-3.53,1.51A2.81,2.81,0,0,1,39,22.52Z"/>
                <path class="cls-10"
                      d="M21.88,11.48c-1-1.39-.4-3.21,3-4.48,3.08-1.16,5.67-.71,8.32-1.59S37.08,3.93,37,2.29A5.78,5.78,0,0,0,36.26,0c.13-.07,1.11.42,2.26,1.73A17.79,17.79,0,0,1,42.05,8c.75,2.61.75,5.29-.43,6.86s-3.92,1.77-9.84.52S23.18,13.31,21.88,11.48Z"/>
                <path class="cls-11"
                      d="M17.63,15.89a7,7,0,0,1,1.74-1.49c.16,0,.81.84.81.94a11.11,11.11,0,0,1-1.9,1.24A1.46,1.46,0,0,1,17.63,15.89Z"/>
                <path class="cls-11"
                      d="M36.31,15a4.42,4.42,0,0,1,1.14-.6A9.13,9.13,0,0,1,39,16.2c0,.16-.7.5-.77.45C37.78,16.33,36.21,15.41,36.31,15Z"/>
                <path class="cls-11"
                      d="M19.42,20.57c0-.66,3.44-.85,3.58-.77s.22.51,0,.51a15.19,15.19,0,0,0-2.51.3C19.79,20.81,19.46,21,19.42,20.57Z"/>
                <path class="cls-11"
                      d="M33.84,19.74c.08-.25.29-.38,1.11-.15a11.15,11.15,0,0,1,2.65,1,.33.33,0,0,1-.21.54c-.26,0-1.65-.7-2.5-.9S33.74,20,33.84,19.74Z"/>
                <path class="cls-12"
                      d="M40.48,22c.24-.65,1.47-1.77,2.22-.56a1.51,1.51,0,0,1-.62,2.42C41.23,24.3,40.22,22.73,40.48,22Z"/>
                <path class="cls-13"
                      d="M29.72,17.07c.17.6.41,3.15,1.26,4.55s1.06,1.79.64,2.64-1.24,1.25-2.52.62-1.47-2.58-1.37-4.38,0-3.43.37-3.52S29.62,16.71,29.72,17.07Z"/>
                <path class="cls-14" d="M11.64,22.37s1.14-3.79,1.87-4.19,1.17,1.39,1.17,1.39L12.94,22.5Z"/>
                <path class="cls-9"
                      d="M14.19,22.43a2.45,2.45,0,0,0-3.4.26c-1.24,1.12-.19,3.6,1.7,3.93S16,26.16,16,24.92,14.89,22.91,14.19,22.43Z"/>
                <path class="cls-15"
                      d="M13.45,23c-.71-.38-2.25-.1-2.09,1.14s1.41,1.9,2.13,1.15A1.65,1.65,0,0,0,13.45,23Z"/>
                <path class="cls-11"
                      d="M29.76,24.77a.31.31,0,0,1-.29.51c-.24-.05-.35-.18-.29-.41A.35.35,0,0,1,29.76,24.77Z"/>
                <path class="cls-11"
                      d="M31.12,24.59a.31.31,0,0,1-.29.51c-.25-.05-.35-.18-.29-.41A.35.35,0,0,1,31.12,24.59Z"/>
                <path class="cls-11"
                      d="M14.45,22.69a8.52,8.52,0,0,0,4.19,2.88A22.76,22.76,0,0,0,28.9,26.81c5.56-.32,7.69-1,9-2.06s1.89-1.92,2-1.76a24,24,0,0,1,.56,5.39c.1,3.37-.89,6.8-2.49,8.76s-8.17,4.19-13.53,2.55a14,14,0,0,1-9.71-11.5C14.09,23.09,14.23,22.5,14.45,22.69Z"/>
                <g class="cls-16">
                    <path class="cls-17"
                          d="M38,23.94a3.54,3.54,0,0,1,.33,2.71c-.3,1.11-.92,1.81-.72,2.24.09.17,1.86,1.29,2.55,2s.88,1,.68,2a10.28,10.28,0,0,1-9.93,8.5c-8.24.45-12.13-1-14.26-5.33s-2-5.27-1.67-5.62a22.28,22.28,0,0,1,2.65-2.42c.46-.2,1-.33.92-.49s-1.67-2.91-1.24-3.6,2.61.36,4.28,1S38,23.94,38,23.94Z"/>
                </g>
                <path class="cls-11"
                      d="M21.68,30.41a11.38,11.38,0,0,0,7,1.86,14.25,14.25,0,0,0,7.85-2.91,7.27,7.27,0,0,0,2-2.22l.4,1s-.82.66-2.16,1.7a13.47,13.47,0,0,1-8.62,2.88C23.88,32.59,20.72,30.59,21.68,30.41Z"/>
                <path class="cls-18"
                      d="M41.62,14.88c1.18-1.57,1.18-4.25.43-6.86a17.79,17.79,0,0,0-3.53-6.28C37.37.43,36.39-.06,36.26,0s0,0,0,.13a7.38,7.38,0,0,1,2.87,6.77c-.49,3.33-1,4.79-3.49,6.25-2.29,1.33-2.84,1.78-4.86,2l1,.2C37.7,16.65,40.44,16.45,41.62,14.88Z"/>
                <g class="cls-19">
                    <path class="cls-20"
                          d="M29.52,20.73a12,12,0,0,1-1.12-3.82l-.3.07c-.36.09-.27,1.73-.37,3.52a6.33,6.33,0,0,0,.64,3.74,1.52,1.52,0,0,0,1.79-.87C30.58,22.52,30.37,22.14,29.52,20.73Z"/>
                </g>
                <path class="cls-21"
                      d="M28.51,23c-.13-.47.12-.81.28-.63a.74.74,0,0,1,.14.7C28.85,23.39,28.59,23.37,28.51,23Z"/>
                <path class="cls-22"
                      d="M41.52,17.76c-.16-.23-10.23-1.47-16.24-1.21a61.72,61.72,0,0,0-11.77,1.63c-.24.14.12.94.46,1.28a9.64,9.64,0,0,0,4.47,3.95A6.89,6.89,0,0,0,26,22a5.33,5.33,0,0,0,1.88-4.25c.65,0,1.3,0,2,0a9.44,9.44,0,0,0,2.11,3.68c1.73,2,4.09,2.65,5.95,1.87a5,5,0,0,0,3-2.78,5.84,5.84,0,0,0,.54-1.34A2.61,2.61,0,0,0,41.52,17.76Zm-16.6,3.1a6.62,6.62,0,0,1-6,1.31,6,6,0,0,1-3.13-2.75c1.79-.29,5-.85,9.41-1.43.4-.06.82-.1,1.24-.13A5.45,5.45,0,0,1,24.92,20.86Zm12.59,1.31a4.47,4.47,0,0,1-4.32-1.38,7.07,7.07,0,0,1-1.61-2.89,67,67,0,0,1,8.57,1.26C39.73,20.28,38.85,21.9,37.51,22.17Z"/>
            </g>
        </g>
    </g>
</svg>