<svg xmlns="http://www.w3.org/2000/svg" xmlns:xlink="http://www.w3.org/1999/xlink" viewBox="0 0 59.11 77.8"><defs><style>.cls-1{mask:url(#mask);filter:url(#luminosity-noclip-2);}.cls-16,.cls-17,.cls-2{mix-blend-mode:multiply;}.cls-2{fill:url(#linear-gradient);}.cls-3{fill:none;}.cls-4{isolation:isolate;}.cls-5{fill:#ed3b3b;}.cls-6{fill:#ce2828;}.cls-7{fill:#ffd399;}.cls-8{fill:#774e2a;}.cls-9{fill:#8e653c;}.cls-10,.cls-20{fill:#fff;}.cls-11{fill:url(#linear-gradient-2);}.cls-12{fill:url(#linear-gradient-3);}.cls-13{fill:#2d1900;}.cls-14{fill:url(#linear-gradient-4);}.cls-15{clip-path:url(#clip-path);}.cls-16{opacity:0.18;fill:url(#linear-gradient-5);}.cls-17{opacity:0.23;fill:url(#linear-gradient-6);}.cls-18{mask:url(#mask-2);}.cls-19{opacity:0.26;fill:url(#linear-gradient-7);}.cls-20{opacity:0.36;}.cls-21{fill:url(#linear-gradient-8);}.cls-22{fill:url(#linear-gradient-9);}.cls-23{fill:#0c314a;}.cls-24{filter:url(#luminosity-noclip);}</style><filter id="luminosity-noclip" x="26.54" y="-8371.88" width="4.18" height="32766" filterUnits="userSpaceOnUse" color-interpolation-filters="sRGB"><feFlood flood-color="#fff" result="bg"/><feBlend in="SourceGraphic" in2="bg"/></filter><mask id="mask" x="26.54" y="-8371.88" width="4.18" height="32766" maskUnits="userSpaceOnUse"><g class="cls-24"/></mask><linearGradient id="linear-gradient" x1="27.46" y1="30.97" x2="29.11" y2="25.77" gradientUnits="userSpaceOnUse"><stop offset="0" stop-color="#fff"/><stop offset="1"/></linearGradient><linearGradient id="linear-gradient-2" x1="24.14" y1="32.97" x2="26.84" y2="31.93" gradientUnits="userSpaceOnUse"><stop offset="0" stop-color="#c88f54"/><stop offset="1" stop-color="#916e37"/></linearGradient><linearGradient id="linear-gradient-3" x1="32.73" y1="33.31" x2="30.16" y2="32.57" xlink:href="#linear-gradient-2"/><linearGradient id="linear-gradient-4" x1="28.23" y1="30.6" x2="29.82" y2="25.02" gradientUnits="userSpaceOnUse"><stop offset="0" stop-color="#e5523e"/><stop offset="1" stop-color="#ff986b"/></linearGradient><clipPath id="clip-path"><path class="cls-3" d="M20,31.35c.43-.07,1.29,2.59,4.16,3.16a22.88,22.88,0,0,0,8.9.29c3.09-.57,4.53-1.79,5-1.51s.21,4.45-1.51,6.9-4.31,3.8-6.32,3.66-6.53-.22-8.9-2.73S19.56,31.43,20,31.35Z"/></clipPath><linearGradient id="linear-gradient-5" x1="42.46" y1="1.27" x2="31.61" y2="13.46" gradientUnits="userSpaceOnUse"><stop offset="0" stop-color="#e5bd6d"/><stop offset="0.16" stop-color="#d8ae5b"/><stop offset="1" stop-color="#966200"/></linearGradient><linearGradient id="linear-gradient-6" x1="36.9" y1="36.91" x2="30.89" y2="50.76" xlink:href="#linear-gradient-5"/><filter id="luminosity-noclip-2" x="26.54" y="22.37" width="4.18" height="8.96" filterUnits="userSpaceOnUse" color-interpolation-filters="sRGB"><feFlood flood-color="#fff" result="bg"/><feBlend in="SourceGraphic" in2="bg"/></filter><mask id="mask-2" x="26.54" y="22.37" width="4.18" height="8.96" maskUnits="userSpaceOnUse"><g class="cls-1"><path class="cls-2" d="M30.67,22.52c-.69-.17-1.69-.32-2,.32-.53,1.05-2.17,5.8-2.12,7.64a2,2,0,0,0,.19.84,2.39,2.39,0,0,0,1.76-.58c1.14-.92,1.89-3.93,2.1-5.87A9.45,9.45,0,0,0,30.67,22.52Z"/></g></mask><linearGradient id="linear-gradient-7" x1="27.46" y1="30.97" x2="29.11" y2="25.77" gradientUnits="userSpaceOnUse"><stop offset="0" stop-color="#fff"/><stop offset="1" stop-color="#ff986b"/></linearGradient><linearGradient id="linear-gradient-8" x1="43.16" y1="32.91" x2="49.97" y2="33.4" gradientUnits="userSpaceOnUse"><stop offset="0" stop-color="#ffd399"/><stop offset="0.22" stop-color="#ffc98f"/><stop offset="1" stop-color="#ffa46d"/></linearGradient><linearGradient id="linear-gradient-9" x1="43.32" y1="33.1" x2="48.35" y2="33.22" xlink:href="#linear-gradient-4"/></defs><g class="cls-4"><g id="Layer_2" data-name="Layer 2"><g id="Layer_17" data-name="Layer 17"><path class="cls-5" d="M2.78,59.25c-.91-4.07,8.66-8.68,21.27-8.87s20.64-1,28.42,6.8S54,72.46,44.14,76.35,6.72,76.87,2.78,59.25Z"/><path class="cls-6" d="M21.4,59.54c-2.32-2.68-2.53-7.87,2.74-8s10.78-1.45,13.76,1.85-.75,8.06-4.28,8.84S24.86,63.52,21.4,59.54Z"/><path class="cls-7" d="M21.69,41.92s.84,6,.13,9.9a7,7,0,0,0,4.74,8.07c3.62.91,9.15.58,9.26-4.82s-3.17-13.15-3.17-13.15Z"/><path class="cls-7" d="M18.05,34.15A7,7,0,0,1,16.9,28.7c.65-2.8-.58-3.15.57-6.6s2.59-7.83,14-6.32S45,23.39,45.26,29.42,41,44.28,38.37,47.72s-10,4-15.94,1.44-6.1-6.1-5.46-9.69S18.57,35.1,18.05,34.15Z"/><path class="cls-8" d="M45.19,31.71c-.21-1-.43-4.66-1.58-7.39s-4.88-5-4.81-5.53,3.3-3.95,4.59-3.3A9.35,9.35,0,0,1,47.81,24c-.14,5-.68,7.16-.9,7.59S45.4,32.72,45.19,31.71Z"/><path class="cls-8" d="M17,24.47a8.66,8.66,0,0,1,2.54-4.75c1.79-1.57,3.3-1.29,3.37-1.79s-2.3-3.66-3-3.59-3,3.23-3.39,5.31a11.84,11.84,0,0,0,.08,5.1C17,25.83,16.73,25.69,17,24.47Z"/><path class="cls-9" d="M35.14,9.46c3.64.48,6.6,1.43,8.25,4.59s-1.94,5.89-5.6,6.61-13.85,2.08-17.87-2.95-1.41-12.6,2-15.18c3.84-2.9,5.92-3,7.84-1.83,2.08,1.26.28,3.59,0,3.59s.58-1.58-.43-2.15a1.61,1.61,0,0,0-2.44,1.72C27.17,5.65,28.67,8.6,35.14,9.46Z"/><path class="cls-8" d="M17.14,32.42c.29.44,1.52,2,1.38,2.61a12.79,12.79,0,0,0-.61,5.37c.28,2.87,1.72,4.74,3.66,5A4,4,0,0,0,24.89,44a3.79,3.79,0,0,1,2.56.67c.38,1,.56,1.64,3.45,1.86,3,.24,4.71-.67,6.17-3,.71-1.13,1.08-4.09,1.51-4.24a7.25,7.25,0,0,0,3.66-1.5c1.44-1.3,1.31-4,1.53-4s1.51.54,1.51.86A31.37,31.37,0,0,1,43,43.34c-1.78,4-5.33,10.29-10.39,11.47s-12.33-.27-15.78-5.38-1.56-12-1.13-13.09S17.14,32.42,17.14,32.42Z"/><path class="cls-10" d="M34.83,27.23a2.56,2.56,0,0,1,.07-3.52,2.35,2.35,0,0,1,3.72.61c.83,1.31.81,2.64-.31,3.29S36,28.55,34.83,27.23Z"/><path class="cls-10" d="M20.53,26.8a2.35,2.35,0,0,1,.32-3.3,2.52,2.52,0,0,1,3.89.6c.83,1.32.81,1.76-.41,3A2.58,2.58,0,0,1,20.53,26.8Z"/><path class="cls-11" d="M23.2,31.18a1.6,1.6,0,0,0,1.86.87c1.34-.32,1.77-2,2.44-1.69s1.14.21,1.1,1.43-1,2.65-3.38,2.37A2.41,2.41,0,0,1,23.2,31.18Z"/><path class="cls-12" d="M33.22,31.48a1.61,1.61,0,0,1-1.86.88c-1.34-.32-1.77-2-2.44-1.69s-1.14.21-1.1,1.43.95,2.65,3.38,2.36A2.4,2.4,0,0,0,33.22,31.48Z"/><path class="cls-13" d="M20.5,20c0-.23,1.27-.94,2.15-1.65s1,0,1.3.36.42.75-.82,1.24S20.71,21.13,20.5,20Z"/><path class="cls-13" d="M35.83,19.78c-.25-.56,1.15-1.58,1.51-1.37s2.78,2,2.85,2.45-.15,1.08-.5,1.08S36.19,20.57,35.83,19.78Z"/><path class="cls-13" d="M20,31.35c.43-.07,1.26,2.88,4.13,3.45a23.13,23.13,0,0,0,8.91.25c3.09-.58,4.63-2.21,5.06-1.92.25.16.09,4.5-1.63,6.94a8,8,0,0,1-6.62,3.43c-2-.14-6.25-.1-8.62-2.61S19.56,31.43,20,31.35Z"/><path class="cls-14" d="M28.66,22.84c-.53,1.05-2.17,5.8-2.12,7.64s1.72,1.83,2.85.91,1.89-3.93,2.1-5.87.16-2.74-.27-2.85S29.09,22,28.66,22.84Z"/><g class="cls-15"><path class="cls-10" d="M36.64,32.58a32.75,32.75,0,0,1,.79,7.17c-.14,1-2.65,5-9.4,4.53s-7.34-3-7.34-3,.56-3.42.78-4.21-.18-1.22-.25-1.8-.94-3.32-.08-4S36.64,32.58,36.64,32.58Z"/></g><path class="cls-13" d="M22.65,37.38c.17-.13.9,1.63,5.09,2a14.53,14.53,0,0,0,7-1c2.46-1,2.9-2.72,2.9-2.16,0,1.07-.82,1.87-2.76,2.81a14.81,14.81,0,0,1-7.65.87C24.7,39.5,22,37.91,22.65,37.38Z"/><path class="cls-13" d="M21.69,26.36a1.45,1.45,0,0,1,2-1.78c.89.59,1.08,1.25.49,2.07A1.54,1.54,0,0,1,21.69,26.36Z"/><path class="cls-13" d="M35.81,26.77a1.44,1.44,0,0,1,2-1.76c.87.58,1.06,1.23.48,2A1.52,1.52,0,0,1,35.81,26.77Z"/><path class="cls-16" d="M40.14,17.28a2.48,2.48,0,0,1,.33,2.47c2.46-1.22,4.16-3.34,2.92-5.7-1.65-3.16-4.61-4.11-8.25-4.59-6.47-.86-8-3.81-8.26-5.6A1.53,1.53,0,0,1,28,2c-1-.07-2.45.08-3.18,3.29-.82,3.6,1,6.78,5.8,8.33S38,14.83,40.14,17.28Z"/><path class="cls-17" d="M43.77,33.81c-.22,0-.09,2.71-1.53,4a7.25,7.25,0,0,1-3.66,1.5c-.43.15-.8,3.11-1.51,4.24a6.15,6.15,0,0,1-2.64,2.54,5.16,5.16,0,0,1-1,5c-2.7,3.6-9,3.19-11.85,2.29l-.61-.2a17,17,0,0,0,11.59,1.62c5.06-1.18,8.61-7.43,10.39-11.47a31.37,31.37,0,0,0,2.32-8.67C45.28,34.35,44,33.81,43.77,33.81Z"/><g class="cls-18"><path class="cls-19" d="M30.67,22.52c-.69-.17-1.69-.32-2,.32-.53,1.05-2.17,5.8-2.12,7.64a2,2,0,0,0,.19.84,2.39,2.39,0,0,0,1.76-.58c1.14-.92,1.89-3.93,2.1-5.87A9.45,9.45,0,0,0,30.67,22.52Z"/></g><path class="cls-13" d="M26.67,31.87a.54.54,0,0,1,.77-.67c.34.22.41.47.19.78A.58.58,0,0,1,26.67,31.87Z"/><path class="cls-13" d="M28.71,32.17a.55.55,0,0,1,0-1c.4-.11.63,0,.72.37A.58.58,0,0,1,28.71,32.17Z"/><path class="cls-20" d="M27.08,30.27c-.13-.48.12-.82.28-.64a.69.69,0,0,1,.14.7C27.43,30.61,27.17,30.59,27.08,30.27Z"/><path class="cls-21" d="M44,31.34c.95-.71,3.16-1.86,4.81.72s-.79,3.73-2.08,3.73-2.22.15-3.3-1.58A1.88,1.88,0,0,1,44,31.34Z"/><path class="cls-22" d="M44.63,33.65c-.53-1,2-2.36,2.78-1.3s-.18,1.65-1,1.89S45,34.42,44.63,33.65Z"/><path class="cls-23" d="M19.08,75.51s-3.59-24.85-5.59-23.84S.54,53.33,0,58,7.82,78.51,19.08,75.51Z"/><path class="cls-23" d="M43.31,77.8c.83-1.45.75-26,.75-26s14.78,5,15,9.39S55,73,51.2,74.94A34.89,34.89,0,0,1,43.31,77.8Z"/></g></g></g></svg>