<svg xmlns:xlink="http://www.w3.org/1999/xlink" xmlns="http://www.w3.org/2000/svg" viewBox="0 0 49.93 75.77">
    <defs>
        <style>
            .cls-1{mask:url(#mask);filter:url(#luminosity-noclip-2);}.cls-2,.cls-20,.cls-6{mix-blend-mode:multiply;}.cls-2{fill:url(#linear-gradient);}.cls-3{fill:none;}.cls-4{isolation:isolate;}.cls-5{fill:#8c4200;}.cls-6{opacity:0.5;fill:url(#linear-gradient-2);}.cls-7{fill:#2d1900;}.cls-8{fill:#4f2605;}.cls-9{fill:#f9b76e;}.cls-10{fill:#ffc988;}.cls-11{fill:#b25900;}.cls-12{fill:url(#linear-gradient-3);}.cls-13,.cls-23{fill:#fff;}.cls-14{fill:#1a3d5b;}.cls-15{fill:url(#linear-gradient-4);}.cls-16{clip-path:url(#clip-path);}.cls-17{fill:url(#linear-gradient-5);}.cls-18{fill:url(#linear-gradient-6);}.cls-19{fill:url(#linear-gradient-7);}.cls-20,.cls-22{opacity:0.26;}.cls-20{fill:url(#linear-gradient-8);}.cls-21{mask:url(#mask-2);}.cls-22{fill:url(#linear-gradient-9);}.cls-23{opacity:0.36;}.cls-24{fill:#284d72;}.cls-25{filter:url(#luminosity-noclip);}
        </style>
        <filter id="luminosity-noclip" x="22.34" y="-8073.48" width="3.36" height="32766" filterUnits="userSpaceOnUse"
                color-interpolation-filters="sRGB">
            <feFlood flood-color="#fff" result="bg"/>
            <feBlend in="SourceGraphic" in2="bg"/>
        </filter>
        <mask id="mask" x="22.34" y="-8073.48" width="3.36" height="32766" maskUnits="userSpaceOnUse">
            <g class="cls-25"/>
        </mask>
        <linearGradient id="linear-gradient" x1="23.59" y1="27.31" x2="24.27" y2="24.48" gradientUnits="userSpaceOnUse">
            <stop offset="0" stop-color="#fff"/>
            <stop offset="1"/>
        </linearGradient>
        <linearGradient id="linear-gradient-2" x1="10.93" y1="9.58" x2="37.48" y2="9.58" gradientUnits="userSpaceOnUse">
            <stop offset="0" stop-color="#e5bd6d"/>
            <stop offset="0.16" stop-color="#d8ae5b"/>
            <stop offset="1" stop-color="#966200"/>
        </linearGradient>
        <linearGradient id="linear-gradient-3" x1="12.13" y1="28.88" x2="8.62" y2="29.13"
                        gradientUnits="userSpaceOnUse">
            <stop offset="0" stop-color="#ffd399"/>
            <stop offset="0.22" stop-color="#ffc98f"/>
            <stop offset="1" stop-color="#ffa46d"/>
        </linearGradient>
        <linearGradient id="linear-gradient-4" x1="24.55" y1="27.66" x2="24.24" y2="22.12"
                        gradientUnits="userSpaceOnUse">
            <stop offset="0" stop-color="#e5523e"/>
            <stop offset="1" stop-color="#ff986b"/>
        </linearGradient>
        <clipPath id="clip-path">
            <path class="cls-3"
                  d="M18.34,32.76c.21-.29.84.33,3.47.33a38,38,0,0,0,6.39-.28c1.08-.28,1.31-.56,1.41-.33a4.54,4.54,0,0,1-1,3.54,6.36,6.36,0,0,1-4.06,2.09c-2.76.12-4.27-1-4.88-1.82S18.1,33.09,18.34,32.76Z"/>
        </clipPath>
        <linearGradient id="linear-gradient-5" x1="10.61" y1="28.96" x2="8.64" y2="29.45"
                        xlink:href="#linear-gradient-4"/>
        <linearGradient id="linear-gradient-6" x1="34.23" y1="27.08" x2="40.7" y2="27.33"
                        gradientUnits="userSpaceOnUse">
            <stop offset="0" stop-color="#ffd399"/>
            <stop offset="0.52" stop-color="#ffc98f"/>
            <stop offset="1" stop-color="#ffa46d"/>
        </linearGradient>
        <linearGradient id="linear-gradient-7" x1="36.29" y1="27.18" x2="39.17" y2="27.18"
                        xlink:href="#linear-gradient-4"/>
        <linearGradient id="linear-gradient-8" x1="38.84" y1="34.05" x2="31.57" y2="38.61"
                        xlink:href="#linear-gradient-2"/>
        <filter id="luminosity-noclip-2" x="22.34" y="20.17" width="3.36" height="8.45" filterUnits="userSpaceOnUse"
                color-interpolation-filters="sRGB">
            <feFlood flood-color="#fff" result="bg"/>
            <feBlend in="SourceGraphic" in2="bg"/>
        </filter>
        <mask id="mask-2" x="22.34" y="20.17" width="3.36" height="8.45" maskUnits="userSpaceOnUse">
            <g class="cls-1">
                <path class="cls-2"
                      d="M25.1,20.73a3.79,3.79,0,0,0-.14-.56,3.17,3.17,0,0,0-1.17.32c-.75.38-2.06,6.76-1.12,7.84l.07.08a1.82,1.82,0,0,0,2.59-1.11C26.18,25.38,25.33,22.14,25.1,20.73Z"/>
            </g>
        </mask>
        <linearGradient id="linear-gradient-9" x1="23.59" y1="27.31" x2="24.27" y2="24.48"
                        gradientUnits="userSpaceOnUse">
            <stop offset="0" stop-color="#fff"/>
            <stop offset="1" stop-color="#ff986b"/>
        </linearGradient>
    </defs>
    <g class="cls-4">
        <g id="Layer_2" data-name="Layer 2">
            <g id="Layer_3" data-name="Layer 3">
                <path class="cls-5"
                      d="M37.28,21.1c.27-4.72.7-8.44-2.09-13.31S20.19-.51,20,.14c0,0,3.83,3.22,1.69,4.51S10.76-.55,10.76,0c0,.37,1.63.93,1.83,5.81s-11,.32-11.12.82,6,2.64,4.72,6.59C5,17,0,14.87,0,15.61c0,.37,6.58,2.66,4.16,6.27C3,23.56,2.16,22.68,2,23c-.27.52,6.59,5.62,13.18,6.27C25.32,30.31,37,26.22,37.28,21.1Z"/>
                <path class="cls-6"
                      d="M20,.14s3.83,3.22,1.69,4.51C19.68,5.84,12.15.46,10.93,0A19.09,19.09,0,0,1,17,6.15c3.26,6.19,2.29,7.52,2.29,7.52s13.49,3.78,18.11,5.46c.22-3.84.19-7.17-2.2-11.34C32.41,2.93,20.19-.51,20,.14Z"/>
                <path class="cls-7"
                      d="M49.87,58.47c.85-3.79-8.08-8.09-19.85-8.28s-19.25-.9-26.5,6.35S2.13,70.8,11.28,74.42,46.19,74.91,49.87,58.47Z"/>
                <path class="cls-8"
                      d="M32.5,58.74c2.16-2.49,2.36-7.34-2.56-7.43S19.88,50,17.11,53s.69,7.53,4,8.25S29.27,62.46,32.5,58.74Z"/>
                <path class="cls-9"
                      d="M32.23,42.3s-.79,5.59-.13,9.24a6.5,6.5,0,0,1-4.41,7.53c-3.39.85-8.55.54-8.65-4.5S22,42.3,22,42.3Z"/>
                <path class="cls-10"
                      d="M12.33,31.45c-1-3.36-4.32-13-.88-17.72s8.26-5.44,14.71-4.94S35.55,12.17,37,16s-.12,11.2-1.06,15.52S31.17,42.59,24.16,42.22,14.52,39,12.33,31.45Z"/>
                <path class="cls-5" d="M20.45,31.56c-.14-.29,1.59-3,2.86-3.24s1.46.94.85,2S20.73,32.17,20.45,31.56Z"/>
                <path class="cls-5" d="M27.77,31.4c-.24.22-2.81,0-3.42-1.45s.28-1.69,1.17-1.41S28.24,31,27.77,31.4Z"/>
                <path class="cls-11"
                      d="M11.25,29.05c0-.37,1.78-.51,1.78-.09s.62,5,1.89,7.34c2.13,3.91,3.94,4.51,5.42,4.36s1.94-1.84,2.18-1.84a4,4,0,0,0,1.69.42c1,0,1.59-.58,1.88-.35s-.15,1.34,1.36,1.57,4.15-1.89,5.21-4.36c1.52-3.58,2.34-8.17,2.49-8.17s1.78-.24,2.06.8-.37,8.73-1.41,12.53a10.66,10.66,0,0,1-10.45,7.66c-5.82.12-9-2.45-11-6.58S11.23,30.42,11.25,29.05Z"/>
                <path class="cls-12"
                      d="M12.14,27.25C10.5,25.89,8,26.13,7.57,28.44s2,3.51,4.76,3S14,28.82,12.14,27.25Z"/>
                <path class="cls-13"
                      d="M14.48,25.75a3.7,3.7,0,0,1,3.05-3.81c2.2-.38,3.26,1.21,3.14,3.29s-1.28,3.56-3,3.41S14.79,28.13,14.48,25.75Z"/>
                <path class="cls-13"
                      d="M28.89,26.33a3.22,3.22,0,0,1,.1-4.41c1.47-1.47,3.14-.83,4.18.82s.94,3.42-.47,4.24S30.42,28,28.89,26.33Z"/>
                <path class="cls-7"
                      d="M18.34,32.76c.21-.29,1,.4,3.6.4a34.66,34.66,0,0,0,6.26-.35c1.08-.28,1.31-.56,1.41-.33a5.67,5.67,0,0,1-.73,3.13A8.09,8.09,0,0,1,24.73,38c-1.45.14-4.47-.91-5.08-1.7S18.1,33.09,18.34,32.76Z"/>
                <path class="cls-7"
                      d="M11.16,21.66c.09-.17.88-3.66,3.45-5.66s4.14-2.41,4.67-2.33.81.19,1.44.88.65,2.12.21,2.18a9.89,9.89,0,0,0-4.72,1.34,9.56,9.56,0,0,0-3.74,3.47C12.43,21.64,11,22,11.16,21.66Z"/>
                <path class="cls-7"
                      d="M26.85,16.8c-.46-.43-.05-3,1-3.13.63,0,1.91.19,4.85,2.2a11.89,11.89,0,0,1,3.94,5.2c.06.37-.42.16-.86.16s-2.4-2.05-4.34-3.05S27.17,17.1,26.85,16.8Z"/>
                <path class="cls-7"
                      d="M23.38,35.17c.07-.25,1.44.82,3.19-.09s2-1.47,2-1.47l0,1a12.13,12.13,0,0,1-1.78.85C26,35.74,23.19,35.8,23.38,35.17Z"/>
                <polygon class="cls-14" points="37.83 22.73 38.72 25.26 37.36 25.63 36.56 24.09 37.83 22.73"/>
                <path class="cls-15"
                      d="M25.2,20.16s.57-.18.8,1.22S27.08,26,26.24,28s-2.63,1.45-3.57.37.37-7.46,1.12-7.84A3.11,3.11,0,0,1,25.2,20.16Z"/>
                <g class="cls-16">
                    <path class="cls-13"
                          d="M28.24,32.06c.19.66.49,1.07.43,1.46-.14.79.42.75.51,1.64s-1.41,2.44-2.63,3.05a5.42,5.42,0,0,1-4.17.38,7.07,7.07,0,0,1-3.29-2.54c-.28-.38.42-1.17.56-1.74s-.75-2,.05-2S28.24,32.06,28.24,32.06Z"/>
                </g>
                <path class="cls-17"
                      d="M10.64,28.29a1.12,1.12,0,0,0-1.86.53c-.28.94.24,1.61,1.31,1.46S11.35,29.05,10.64,28.29Z"/>
                <path class="cls-7"
                      d="M21.69,35a13.87,13.87,0,0,0,2.43.33,15.63,15.63,0,0,0,3.32-.66,5.4,5.4,0,0,1-3.37.94C22.51,35.44,21.36,35.07,21.69,35Z"/>
                <path class="cls-7" d="M23.24,29.28a.39.39,0,0,1,0-.72c.27-.08.44,0,.5.26A.41.41,0,0,1,23.24,29.28Z"/>
                <path class="cls-7"
                      d="M17.34,26.07a1.1,1.1,0,0,1,0-2.05c.78-.21,1.25,0,1.42.75A1.15,1.15,0,0,1,17.34,26.07Z"/>
                <path class="cls-7" d="M25,29.28a.39.39,0,0,1,0-.72c.28-.08.44,0,.51.26A.41.41,0,0,1,25,29.28Z"/>
                <path class="cls-7"
                      d="M30.59,25.1a1.07,1.07,0,0,1,0-2c.76-.2,1.22,0,1.38.73A1.12,1.12,0,0,1,30.59,25.1Z"/>
                <path class="cls-18"
                      d="M35.4,26.35c1.19-1.22,3.46-2.31,4.7-.54s-1,4.07-2.78,3.72S33.44,28.35,35.4,26.35Z"/>
                <path class="cls-19"
                      d="M36.6,26.34a1.68,1.68,0,0,1,2.44.4c.58,1.14-.89,1.93-1.84,1.53A1.18,1.18,0,0,1,36.6,26.34Z"/>
                <path class="cls-20"
                      d="M30.09,47.87a10.29,10.29,0,0,0,5.71-6.61c1-3.8,1.69-11.5,1.41-12.53s-1.92-.8-2.06-.8-1,4.59-2.49,8.17a7.16,7.16,0,0,1-.61,1.12,11.47,11.47,0,0,1,.44,6.21A7.42,7.42,0,0,1,30.09,47.87Z"/>
                <g class="cls-21">
                    <path class="cls-22"
                          d="M25.1,20.73a3.79,3.79,0,0,0-.14-.56,3.17,3.17,0,0,0-1.17.32c-.75.38-2.06,6.76-1.12,7.84l.07.08a1.82,1.82,0,0,0,2.59-1.11C26.18,25.38,25.33,22.14,25.1,20.73Z"/>
                </g>
                <path class="cls-23"
                      d="M22.68,27c-.13-.48.12-.82.28-.63a.68.68,0,0,1,.14.69C23,27.39,22.77,27.37,22.68,27Z"/>
                <path class="cls-24"
                      d="M37.5,23.51h0a2.35,2.35,0,0,0,.33-.78c0-.23-.69-.8-3.55-1.68s-6.88-2-14.35-1.06c-6.57.83-10.34,3.15-11.3,3.82a1.18,1.18,0,0,0-.25.17c-.18.19,1.6,3.81,4.32,5.17a7.17,7.17,0,0,0,8.78-2,11.18,11.18,0,0,0,2.28-5.52H25.6a18.93,18.93,0,0,0,.95,3.08c1.41,3.66,6.06,4,7.66,2.63a23.4,23.4,0,0,0,3.12-3.57l.06-.08ZM20.21,26.14c-2,1.84-3.43,2.61-6.46,1.48A6.65,6.65,0,0,1,10.69,25c1.77-.91,5.82-2.83,9.2-3.19.78-.08,1.62-.14,2.5-.17A8.77,8.77,0,0,1,20.21,26.14Zm13.29-.47c-1.6,1-3.66.94-5.07-1.31a7.35,7.35,0,0,1-1-2.68,24,24,0,0,1,6.11.94c.93.34,1.57.63,2,.85A7.23,7.23,0,0,1,33.5,25.67Z"/>
            </g>
        </g>
    </g>
</svg>