<svg xmlns="http://www.w3.org/2000/svg" viewBox="0 0 449.13 452.69">
    <defs>
        <style>
            .cls-1{fill:#e0e0e0;}.cls-2{fill:#f5f5f5;}.cls-3{fill:#ebebeb;}.cls-4{fill:#263238;}.cls-5{fill:#b78876;}.cls-6{fill:#aa6550;}.cls-7{fill:#455a64;}.cls-8{fill:#46ae66;}.cls-9{opacity:0.3;}.cls-10{fill:#fafafa;}.cls-11,.cls-13{fill:#fff;}.cls-11{isolation:isolate;}.cls-11,.cls-12{opacity:0.6;}.cls-14{opacity:0.8;}.cls-15{fill:none;}.cls-16{opacity:0.5;}
        </style>
    </defs>
    <g id="Layer_2" data-name="Layer 2">
        <g id="Layer_1-2" data-name="Layer 1">
            <g id="freepik--background-complete--inject-183">
                <path class="cls-1" d="M64.86,369.56V336.07a33.5,33.5,0,1,1-33.48,34.27Z"/>
                <path class="cls-2"
                      d="M56.7,360.53l-33.5.76a35.39,35.39,0,0,1,9.49-24.12,34.52,34.52,0,0,1,23.49-10.12Z"/>
                <path class="cls-2" d="M415.54,43.5l25.11-3.83a25.37,25.37,0,1,1-22.32-21.41Z"/>
                <path class="cls-1" d="M423.69,18.34,420.64,37.8l19.11-3.59S436.94,23.31,423.69,18.34Z"/>
                <rect class="cls-1" x="30.48" y="29.34" width="13.91" height="55.56"/>
                <rect class="cls-1" x="50.94" y="41.46" width="13.91" height="43.44"/>
                <rect class="cls-1" x="71.71" y="51.38" width="13.91" height="33.52"/>
                <rect class="cls-1" x="90.93" y="64.99" width="13.91" height="19.9"/>
                <path class="cls-2"
                      d="M271.16,231.74a30.93,30.93,0,1,1,31.43,30.58A30.93,30.93,0,0,1,271.16,231.74Zm45.72-.74a14.79,14.79,0,1,0-14.55,15.1A14.77,14.77,0,0,0,316.88,231Z"/>
                <path class="cls-1"
                      d="M271.16,231.74a31.05,31.05,0,0,1,30.44-31.57l.26,16.22a14.86,14.86,0,0,0,.47,29.71l.26,16.22a31,31,0,0,1-31.43-30.56Z"/>
                <path class="cls-3"
                      d="M298.82,197.68A35.34,35.34,0,0,1,335,232.17c0,.24,0,.47,0,.71l-18.88.31c-.16-9.58-7.45-15.62-17-15.47Z"/>
            </g>
            <g id="freepik--Floor--inject-183">
                <path class="cls-4"
                      d="M436.9,436.38c0,.15-93.08.26-207.89.26s-207.92-.11-207.92-.26,93.07-.26,207.92-.26S436.9,436.24,436.9,436.38Z"/>
            </g>
            <g id="freepik--Character--inject-183">
                <path class="cls-5"
                      d="M265.14,184.22l-4.38,6.24-1.19,5,4.46,6.4,8.46-5.2,7.37-7.24a1.33,1.33,0,0,0,.14-1.75L278.8,186l.15-.35a2.21,2.21,0,0,0-.75-2.73l-1.07-.75,4-5.12a2.06,2.06,0,0,0,.06-2.49h0L271,182.31l-4.4-.09Z"/>
                <path class="cls-6"
                      d="M279,185.85a4.87,4.87,0,0,1-1.4,1.19,10.33,10.33,0,0,1-1.74,1,2.11,2.11,0,0,1-1.29.14,1.36,1.36,0,0,1-1-1,1.92,1.92,0,0,1,.3-1.38,6.94,6.94,0,0,1,.76-.94l1.35-1.45a6.51,6.51,0,0,1,1.33-1.24,5.9,5.9,0,0,1-1.06,1.48L275,185.17c-.48.56-1.06,1.19-.92,1.9a.85.85,0,0,0,.66.64,1.56,1.56,0,0,0,1-.09,13.26,13.26,0,0,0,1.72-.88A9.56,9.56,0,0,1,279,185.85Z"/>
                <path class="cls-6"
                      d="M280.1,188.9a13.14,13.14,0,0,1-1.3,1.31,8.24,8.24,0,0,1-1.62,1.25,1.79,1.79,0,0,1-2.48-.54h0a1.6,1.6,0,0,1,.16-1.44,7.39,7.39,0,0,1,.74-1,10.24,10.24,0,0,1,1.48-1.39,4.43,4.43,0,0,1,1.62-.92,13.3,13.3,0,0,1-1.39,1.2,14,14,0,0,0-1.35,1.42,7.55,7.55,0,0,0-.66.91,1.14,1.14,0,0,0-.14,1,1.07,1.07,0,0,0,.82.53,1.8,1.8,0,0,0,1-.2,8.9,8.9,0,0,0,1.6-1.1A6.23,6.23,0,0,1,280.1,188.9Z"/>
                <path class="cls-6"
                      d="M268,192.58a7.52,7.52,0,0,0,1.32-1.8,5.05,5.05,0,0,0,.45-2.39,4.77,4.77,0,0,0-.79-2.86l-.39-.51.63.11a5.45,5.45,0,0,0,1.71,0,4.87,4.87,0,0,0,2.2-.91,2.67,2.67,0,0,0,1.06-1.73l.22.24c-1.51,0-2.76-.1-3.64-.15a5.76,5.76,0,0,1-1.37-.16,5.85,5.85,0,0,1,1.38-.11h3.87v.24a3,3,0,0,1-1.2,2.07,5.19,5.19,0,0,1-2.42,1,5.34,5.34,0,0,1-1.87,0l.23-.4a5,5,0,0,1,.84,3.17,5.18,5.18,0,0,1-.59,2.53,4.41,4.41,0,0,1-1.09,1.34C268.25,192.51,268.05,192.6,268,192.58Z"/>
                <path class="cls-4"
                      d="M224.49,148.1a3,3,0,0,1-.18-1.33,3.86,3.86,0,0,1,.52-1.47,11.2,11.2,0,0,1,1.36-1.63,8.53,8.53,0,0,0,1.62-2.12,7.55,7.55,0,0,0,.32-6.32,20.17,20.17,0,0,0-1.69-3.18,15.21,15.21,0,0,1-1.57-3.12,6,6,0,0,1-.25-3.14c.43-2,1.53-3.64,2-5.19a6,6,0,0,0,.28-3.8,3.43,3.43,0,0,0-.44-1c-.14-.2-.23-.29-.25-.28a5.27,5.27,0,0,1,.06,4.9c-.54,1.48-1.67,3.07-2.17,5.22a6.45,6.45,0,0,0,.23,3.4,16.87,16.87,0,0,0,1.61,3.24,20.48,20.48,0,0,1,1.67,3.09,7,7,0,0,1,.51,3.14,7.14,7.14,0,0,1-.74,2.79,8.91,8.91,0,0,1-1.5,2.06,9.83,9.83,0,0,0-1.34,1.74,3.77,3.77,0,0,0-.48,1.6,2.46,2.46,0,0,0,.18,1C224.38,148,224.48,148.11,224.49,148.1Z"/>
                <path class="cls-4"
                      d="M196.23,140a4.8,4.8,0,0,1-4.24,3.15,5.79,5.79,0,0,1-4.84-2.35,7.38,7.38,0,0,1-1.32-5.31A8.35,8.35,0,0,0,186,133c-.2-1.18-1.13-2.12-1.49-3.26-.65-2.06.75-4.35,2.69-5.3a9.69,9.69,0,0,1,6.35-.35"/>
                <path class="cls-4"
                      d="M225.13,114.18c2,1.82,1.44,4.39.64,6.15s-1.77,3.55-1.68,5.49,1.27,3.7,1.92,5.57a10.54,10.54,0,0,1-.16,7.32c-.69,1.75-1.84,3.28-2.54,5s-.87,3.9.3,5.37a3.39,3.39,0,0,1-2.47-1.76,6.81,6.81,0,0,1-.73-3c-.14-4,1.55-7.95.85-11.87-.41-2.28-1.61-4.42-1.59-6.73s1.27-4.43,2.13-6.59,1.3-4.81-.12-6.65"/>
                <path class="cls-4"
                      d="M220,106.91a7.63,7.63,0,0,1,6,3.28,5,5,0,0,1-.83,6.43c-1.76,1.38-4.37,1.11-6.32,0A7.33,7.33,0,0,1,215.6,113a5.19,5.19,0,0,1,.46-4.73,4,4,0,0,1,4.34-1.6"/>
                <path class="cls-4"
                      d="M221.91,106.56a10.52,10.52,0,0,0-6.77-5.67,17.49,17.49,0,0,0-9,.07,52.1,52.1,0,0,0-8.52,3.21,19.23,19.23,0,0,0-5.69,3.35,13.12,13.12,0,0,0-3.24,5.63c-1.2,3.94-1.1,6.76.77,10.43.82,1.59.33,3.45,1.07,5.08s3.86,3.45,3,5"/>
                <path class="cls-5"
                      d="M215.54,155.93c.11-8,.1-11,.11-11s6.89-1.16,8.29-10.15c.7-4.47.46-11.81.07-17.8-.35-5.39-3.94-12-9.31-11.42l-16.78,4.28a3.15,3.15,0,0,0-2.82,3.21h0v42.86"/>
                <path class="cls-4"
                      d="M222,123.13a1.16,1.16,0,0,1-1.11,1.17,1.11,1.11,0,0,1-1.19-1,1.16,1.16,0,0,1,1.1-1.17A1.11,1.11,0,0,1,222,123.13Z"/>
                <path class="cls-4"
                      d="M222.43,120.23c-.14.15-1-.5-2.26-.49s-2.15.63-2.28.48.08-.34.47-.63a3.25,3.25,0,0,1,1.83-.57,3,3,0,0,1,1.8.58C222.37,119.89,222.5,120.16,222.43,120.23Z"/>
                <path class="cls-4"
                      d="M210.25,123.13a1.15,1.15,0,0,1-1.11,1.17,1.11,1.11,0,0,1-1.19-1,1.17,1.17,0,0,1,1.11-1.17A1.1,1.1,0,0,1,210.25,123.13Z"/>
                <path class="cls-4"
                      d="M210.23,121.07c-.14.15-1-.5-2.26-.49s-2.15.63-2.28.48.08-.34.47-.63a3.25,3.25,0,0,1,1.83-.57,3,3,0,0,1,1.8.58C210.17,120.73,210.3,121,210.23,121.07Z"/>
                <path class="cls-4"
                      d="M214.76,130.26a8.6,8.6,0,0,1,2-.37c.32,0,.62-.09.67-.31a1.63,1.63,0,0,0-.21-.94l-.95-2.41a42.1,42.1,0,0,1-2.11-6.31,42.84,42.84,0,0,1,2.62,6.12q.48,1.27.9,2.43a1.84,1.84,0,0,1,.17,1.24.79.79,0,0,1-.52.47,2.35,2.35,0,0,1-.54.07A8.11,8.11,0,0,1,214.76,130.26Z"/>
                <path class="cls-6" d="M215.65,144.94a22.81,22.81,0,0,1-12.05-3.18s3.05,6.17,12.05,5.31Z"/>
                <path class="cls-4"
                      d="M210.78,117.43c-.13.34-1.37.18-2.82.36s-2.63.58-2.83.28c-.08-.15.12-.46.59-.79a5,5,0,0,1,4.3-.49C210.56,117,210.83,117.27,210.78,117.43Z"/>
                <path class="cls-4"
                      d="M222,117.22c-.22.28-1.08,0-2.11,0s-1.89.19-2.1-.1.05-.43.43-.7a3.06,3.06,0,0,1,1.71-.46,2.87,2.87,0,0,1,1.68.56C221.94,116.79,222.06,117.08,222,117.22Z"/>
                <path class="cls-6"
                      d="M214.23,133.12a2.13,2.13,0,0,0-1.87-.78,2,2,0,0,0-1.32.71,1.22,1.22,0,0,0-.08,1.38,1.37,1.37,0,0,0,1.51.38,4.28,4.28,0,0,0,1.48-.88,1,1,0,0,0,.33-.35.38.38,0,0,0,0-.43"/>
                <path class="cls-4"
                      d="M211.31,131.13c.19,0,.19,1.25,1.27,2.14s2.41.75,2.42.92-.29.25-.86.26a3.13,3.13,0,0,1-2-.7,2.75,2.75,0,0,1-1-1.79C211.08,131.44,211.22,131.13,211.31,131.13Z"/>
                <path class="cls-4"
                      d="M222.19,109c-.43,2.84-4.92,3.31-7.75,2.76a9.12,9.12,0,0,1-8.06,3.47,2.57,2.57,0,0,0-1.23,0,2.64,2.64,0,0,0-.93.92,8,8,0,0,1-4.89,3.06,7.21,7.21,0,0,1-5.47,5.94s-.93-.46-.6-4.09a107.29,107.29,0,0,0-.07-11.2L203,105.4l11.77-2.2S222.92,104.14,222.19,109Z"/>
                <path class="cls-7"
                      d="M189.61,124a9.54,9.54,0,0,1,.61-2.53,6.48,6.48,0,0,1,5.26-3.84h.15v-.16a8,8,0,0,1,2.33-4.12,4.57,4.57,0,0,1,4.92-.84l.28.14.1-.3.11-.32a7.09,7.09,0,0,1,5.8-4.49,7.23,7.23,0,0,1,1.74,0,4.07,4.07,0,0,0,1.77-.09,3.25,3.25,0,0,0,1.34-1,5.91,5.91,0,0,1,1-1,5,5,0,0,1,4.06-.78,7,7,0,0,1,1.48.59,2.47,2.47,0,0,0-.33-.28,4.41,4.41,0,0,0-1.1-.51,5,5,0,0,0-4.34.68c-.83.52-1.32,1.57-2.26,1.89s-2.14-.19-3.42,0a7.55,7.55,0,0,0-6.25,4.8l-.12.35.38-.16a5.07,5.07,0,0,0-5.5.92,8.36,8.36,0,0,0-2.43,4.41l.19-.18a6.73,6.73,0,0,0-3.67,1.64,6.57,6.57,0,0,0-2.17,4.47A2.09,2.09,0,0,0,189.61,124Z"/>
                <path class="cls-7"
                      d="M205.14,114.47a2.08,2.08,0,0,0,.75.25,7.27,7.27,0,0,0,2.13.11,8.66,8.66,0,0,0,6.13-3.3l-.33.08.29.13a6.77,6.77,0,0,0,4,.38,6.5,6.5,0,0,0,2.94-1.5,5.93,5.93,0,0,0,1.37-1.74,1.63,1.63,0,0,0,.28-.77,10.54,10.54,0,0,1-1.89,2.22,6.34,6.34,0,0,1-2.8,1.31,6.49,6.49,0,0,1-3.72-.38l-.27-.13-.2-.09-.13.17a8.77,8.77,0,0,1-5.74,3.26A18.83,18.83,0,0,1,205.14,114.47Z"/>
                <path class="cls-7"
                      d="M210.21,109.15c0,.16,1.32,0,2.85.41s2.65,1,2.74.87a4.31,4.31,0,0,0-2.62-1.39A4.39,4.39,0,0,0,210.21,109.15Z"/>
                <path class="cls-7"
                      d="M213.61,108.86c.12.09.58-.29,1.16-.7s1.08-.74,1-.88-.7,0-1.34.45S213.5,108.77,213.61,108.86Z"/>
                <path class="cls-7"
                      d="M199.64,114.09c.05.14,1.19-.23,2.63-.18s2.55.46,2.61.32a4.79,4.79,0,0,0-5.24-.14Z"/>
                <path class="cls-7"
                      d="M197.15,118.9a6.7,6.7,0,0,0,3.65-.48,6.63,6.63,0,0,0,3.15-1.91c-.09-.12-1.46.76-3.33,1.41S197.14,118.75,197.15,118.9Z"/>
                <path class="cls-7"
                      d="M191,122.34a19.16,19.16,0,0,1,2.34-1.31,17,17,0,0,1,2.64-.46,4.17,4.17,0,0,0-5,1.77Z"/>
                <path class="cls-7"
                      d="M191.18,109.43a8.13,8.13,0,0,1,.47-.78,5.41,5.41,0,0,1,1.81-1.59,17.53,17.53,0,0,1,7.85-1.76,31.89,31.89,0,0,1,8.08,1.07,31.9,31.9,0,0,0,3.31.82,3,3,0,0,0-.83-.38c-.56-.22-1.37-.5-2.38-.8a27.7,27.7,0,0,0-8.19-1.24,16.35,16.35,0,0,0-8,2,5,5,0,0,0-1.8,1.8A2,2,0,0,0,191.18,109.43Z"/>
                <path class="cls-7"
                      d="M190.45,114.3a15.92,15.92,0,0,1,1.39-2.53,10.94,10.94,0,0,1,5.67-3.78,20.49,20.49,0,0,1,6.93-.53,26.22,26.22,0,0,0,2.93.2,12.23,12.23,0,0,0-2.89-.57,18.19,18.19,0,0,0-7.12.39,10.64,10.64,0,0,0-5.83,4.07,7.32,7.32,0,0,0-.94,2A2.12,2.12,0,0,0,190.45,114.3Z"/>
                <path class="cls-7"
                      d="M224.14,118.06a3.17,3.17,0,0,0,1.66-1.24,5.37,5.37,0,0,0-2.29-8.51,3.21,3.21,0,0,0-2.07-.24,13.74,13.74,0,0,1,1.92.58,5.19,5.19,0,0,1,2.14,7.94A14.53,14.53,0,0,1,224.14,118.06Z"/>
                <path class="cls-4"
                      d="M187.44,132.18c.05-.09-.89-.51-2.23-1.4a6.66,6.66,0,0,1-1.92-2,3.61,3.61,0,0,1-.33-3.15,4.26,4.26,0,0,1,2.18-2.37,4.84,4.84,0,0,1,2.68-.32,9.42,9.42,0,0,1,2.43.88,2.49,2.49,0,0,0-.54-.49,5.41,5.41,0,0,0-1.82-.76,5,5,0,0,0-2.95.24,4.66,4.66,0,0,0-2.48,2.64,4,4,0,0,0,.41,3.59,6.5,6.5,0,0,0,2.14,2,11.88,11.88,0,0,0,1.75.87C187.18,132.14,187.42,132.21,187.44,132.18Z"/>
                <path class="cls-4"
                      d="M187,132.25a3.42,3.42,0,0,0-.37.8,20.06,20.06,0,0,0-.71,2.28,12.19,12.19,0,0,0-.37,3.56,7.68,7.68,0,0,0,1.45,4.16,5.46,5.46,0,0,0,3.85,2.15,3.92,3.92,0,0,0,3.32-1.35,3.47,3.47,0,0,0,.93-2.24,1.58,1.58,0,0,0-.16-.88,6.16,6.16,0,0,0-.05.86,3.67,3.67,0,0,1-4,3.12,5.1,5.1,0,0,1-3.47-2,7.49,7.49,0,0,1-1.38-3.87,12.87,12.87,0,0,1,.25-3.45A27.34,27.34,0,0,0,187,132.25Z"/>
                <path class="cls-4"
                      d="M199.47,119.25c1.21,2.11.52,4.78-.47,7s-2.3,4.42-2.25,6.85c.07,4.07,3.9,7.45,3.62,11.51a6.06,6.06,0,0,1-4.29,5.29c1.85-1.4,1.87-4.23,1-6.38s-4.73-7.74-5.38-10c-2.15-7.48-1.46-8.4,1-11.22"/>
                <path class="cls-7"
                      d="M192.47,125.06c0,.07.54.16,1.41,0a5.85,5.85,0,0,0,4.54-4.7,3.52,3.52,0,0,0,0-1.41,11.77,11.77,0,0,0-.34,1.33,6.37,6.37,0,0,1-4.27,4.41A10.66,10.66,0,0,0,192.47,125.06Z"/>
                <path class="cls-7"
                      d="M196.89,147.44a1.41,1.41,0,0,0,.26-.19,3.91,3.91,0,0,0,.6-.69,5.16,5.16,0,0,0,.85-3.26,4.67,4.67,0,0,0-.72-2.26,10.35,10.35,0,0,0-1.8-2,7.65,7.65,0,0,1-1.77-2.19,6.77,6.77,0,0,1-.71-2.89,6.33,6.33,0,0,1,.67-2.9,17.38,17.38,0,0,1,1.57-2.4,16.82,16.82,0,0,0,2.51-4.29,8.89,8.89,0,0,0,.64-3.3,3.65,3.65,0,0,0-.16-1.23,11.2,11.2,0,0,1-.83,4.39,17.27,17.27,0,0,1-2.56,4.13,17,17,0,0,0-1.63,2.47,6.8,6.8,0,0,0-.74,3.13,7.1,7.1,0,0,0,.78,3.13,8,8,0,0,0,1.89,2.31,9.51,9.51,0,0,1,1.77,1.87,4.46,4.46,0,0,1,.71,2,5.15,5.15,0,0,1-.64,3.12C197.19,147.11,196.86,147.41,196.89,147.44Z"/>
                <path class="cls-7"
                      d="M191.57,124.83a2.45,2.45,0,0,0-.53.5,6.35,6.35,0,0,0-1,1.73,9.44,9.44,0,0,0,.08,6.48,16.26,16.26,0,0,0,3.6,5.43,10.25,10.25,0,0,0,2,1.78,20.6,20.6,0,0,0-1.74-2,18.2,18.2,0,0,1-3.37-5.35,9.83,9.83,0,0,1-.23-6.18A13.66,13.66,0,0,1,191.57,124.83Z"/>
                <path class="cls-8"
                      d="M259.71,190.58l-7.53,3.57-9.5,5.11c-3.94-11.53-3.77-23.82-5.18-28.48-4.43-14.64-12.63-15.92-12.63-15.92V155a3,3,0,0,0-.77-.4l-6.92-2.15-.22-3.76-23.39.55-.2,4.72L186,155.17a14.57,14.57,0,0,0-10.75,7.76c-.15.29-.28.6-.41.91-4.82,11.82-15.37,37.83-16.19,40.58-2.84,9.63,7.39,18.08,16.32,16.11a49.75,49.75,0,0,0,5.17-2,8.36,8.36,0,0,0,2.71,6.3,4.16,4.16,0,0,0,2.55,1.25l42.89.25c1.16,0,2.38-1,3.36-2.07a9.87,9.87,0,0,0,6.23.45h0c3.71-.75,7.58-2.84,8.48-3.74l21.75-20.46Zm-75.17,6.54-.39,1.88-2.39.16,2.83-9.45v6.83A2.28,2.28,0,0,1,184.54,197.12Z"/>
                <path class="cls-4"
                      d="M195.65,198.24l-1,.1-2.92.26-9.91.81h-.39l.13-.37c.31-.93.61-1.89.92-2.89,1.34-4.48,2.48-8.58,3.4-11.51.46-1.47.85-2.65,1.14-3.46a6.14,6.14,0,0,1,.52-1.24,7.29,7.29,0,0,1-.33,1.3c-.26.93-.58,2.1-1,3.5-.82,3-1.9,7.07-3.26,11.56-.3,1-.61,2-.93,2.9l-.26-.34c4-.29,7.44-.51,9.93-.63S195.69,198.11,195.65,198.24Z"/>
                <path class="cls-4"
                      d="M200.46,209a5.26,5.26,0,0,1-1,.59l-2.86,1.47c-2.42,1.22-5.7,3-9.41,4.91a52.42,52.42,0,0,1-9.92,3.86c-1.31.34-2.39.6-3.14.73a4.19,4.19,0,0,1-1.17.17c0-.08,1.62-.47,4.21-1.26a60.4,60.4,0,0,0,9.79-4c3.69-1.86,7-3.63,9.48-4.77,1.23-.58,2.23-1,2.94-1.32A6,6,0,0,1,200.46,209Z"/>
                <path class="cls-4"
                      d="M227.35,195.43c-.09-.05.8-1.31,1.66-3.61a19.9,19.9,0,0,0,1.1-9.36,47.68,47.68,0,0,0-1.06-5.16,42.41,42.41,0,0,1-.89-4.25,18.09,18.09,0,0,1-.2-2.94,3.53,3.53,0,0,1,.13-1.07c.08,1.34.22,2.67.43,4s.58,2.62,1,4.19a38.77,38.77,0,0,1,1.11,5.22,18.83,18.83,0,0,1-1.27,9.56,16.12,16.12,0,0,1-1.35,2.61A3.66,3.66,0,0,1,227.35,195.43Z"/>
                <path class="cls-4"
                      d="M227.57,196.15a11.35,11.35,0,0,0-.59,4.73,16.67,16.67,0,0,0,1.33,5c.75,1.82,1.8,3.73,2.76,5.82a19,19,0,0,1,1.84,6.24,9,9,0,0,1-1,5.22,6.75,6.75,0,0,1-2.4,2.66,4.49,4.49,0,0,1-.88.43c-.21.07-.32.1-.33.08s.42-.2,1.1-.68a7.07,7.07,0,0,0,2.19-2.66,8.89,8.89,0,0,0,.82-5,18.66,18.66,0,0,0-1.83-6.06c-1-2.07-2-4-2.73-5.86a16.4,16.4,0,0,1-1.26-5.16,9.91,9.91,0,0,1,.41-3.55,6,6,0,0,1,.37-.91C227.49,196.25,227.55,196.15,227.57,196.15Z"/>
                <path class="cls-4"
                      d="M227.69,157.45a13.11,13.11,0,0,1-.27,7.48,31.11,31.11,0,0,1,.16-3.74A31.09,31.09,0,0,1,227.69,157.45Z"/>
                <path class="cls-4"
                      d="M239.5,212.5a6,6,0,0,1-.42-2,16.32,16.32,0,0,1,2-9.52,5.6,5.6,0,0,1,1.2-1.65A22.17,22.17,0,0,0,239.5,212.5Z"/>
                <path class="cls-4"
                      d="M188.3,164.93c-.1,0-.1-.64-.54-1.54a8.17,8.17,0,0,0-2.54-2.91,8.53,8.53,0,0,0-3.49-1.65q-.31,0-.66-.06h-.5c-.14,0-.41.11-.43.08s.1-.12.37-.28a3.58,3.58,0,0,1,.54-.14,4.33,4.33,0,0,1,.72,0,7.68,7.68,0,0,1,3.77,1.61,7.3,7.3,0,0,1,2.56,3.18A2.59,2.59,0,0,1,188.3,164.93Z"/>
                <g class="cls-9">
                    <path d="M187.57,196.22a48.81,48.81,0,0,1-1.16-12.29l-.38.75-1.44,5-.44,9.29,8.3-.36A9.72,9.72,0,0,0,187.57,196.22Z"/>
                </g>
                <path class="cls-4"
                      d="M216.87,153.12a1.24,1.24,0,0,1,0,1A3,3,0,0,1,215,156a27.74,27.74,0,0,1-8.82,1.31,30.32,30.32,0,0,1-8.81-1.35,25.63,25.63,0,0,1-2.53-.94,4.34,4.34,0,0,1-.88-.46c0-.08,1.34.45,3.52,1a34.61,34.61,0,0,0,8.7,1.18,31.47,31.47,0,0,0,8.69-1.13,2.85,2.85,0,0,0,1.88-1.62A3.2,3.2,0,0,0,216.87,153.12Z"/>
                <path class="cls-10"
                      d="M176.76,184.67a9.28,9.28,0,0,1-1.41-2.79,10.16,10.16,0,0,1-.93-3,9.17,9.17,0,0,1,1.41,2.79A9.35,9.35,0,0,1,176.76,184.67Z"/>
                <path class="cls-10"
                      d="M172,198.09a12.65,12.65,0,0,1-3.32,1.29,12.36,12.36,0,0,1-3.46.8,12.86,12.86,0,0,1,3.31-1.29A11.91,11.91,0,0,1,172,198.09Z"/>
                <path class="cls-10"
                      d="M170.85,211.77a8.65,8.65,0,0,1-.17-3,8.94,8.94,0,0,1,.34-3,8.42,8.42,0,0,1,.18,3A8.7,8.7,0,0,1,170.85,211.77Z"/>
                <path class="cls-10"
                      d="M187.46,207.74a14.37,14.37,0,0,1-2.33-1.94,13.19,13.19,0,0,1-2.19-2.1,11.27,11.27,0,0,1,4.52,4Z"/>
                <path class="cls-10"
                      d="M199.18,200.73c.1.1-.53.94-1.42,1.88s-1.69,1.62-1.8,1.52.53-.94,1.42-1.88S199.07,200.63,199.18,200.73Z"/>
                <path class="cls-10" d="M182.79,166.92a18.46,18.46,0,0,1-5.2,3.33A18,18,0,0,1,182.79,166.92Z"/>
                <path class="cls-10"
                      d="M196.08,163.81a14.36,14.36,0,0,1-1.36-2.92,14.49,14.49,0,0,1-1.14-3,7.92,7.92,0,0,1,1.62,2.81A8.28,8.28,0,0,1,196.08,163.81Z"/>
                <path class="cls-10"
                      d="M197.31,180.46a9.15,9.15,0,0,1-3.06-1.6,9,9,0,0,1-2.59-2.28,16.63,16.63,0,0,1,2.88,1.85A16.3,16.3,0,0,1,197.31,180.46Z"/>
                <path class="cls-10"
                      d="M206.85,188.56a18.07,18.07,0,0,1-3.77,2.29,18.11,18.11,0,0,1-4,1.83,19.94,19.94,0,0,1,3.78-2.29A19.71,19.71,0,0,1,206.85,188.56Z"/>
                <path class="cls-10"
                      d="M211.32,178.85a8.3,8.3,0,0,1-.9-2.69,7.82,7.82,0,0,1-.39-2.8,7.85,7.85,0,0,1,.9,2.69A7.4,7.4,0,0,1,211.32,178.85Z"/>
                <path class="cls-10"
                      d="M223.42,188.06a10,10,0,0,1-1.68-2.71,10.43,10.43,0,0,1-1.21-2.95,9.8,9.8,0,0,1,1.68,2.72A10.09,10.09,0,0,1,223.42,188.06Z"/>
                <path class="cls-10"
                      d="M221.71,161.6a9.52,9.52,0,0,1-2.44,2.07,10,10,0,0,1-2.74,1.64,19.73,19.73,0,0,1,5.18-3.71Z"/>
                <path class="cls-10"
                      d="M210.41,162.36c-.13.07-.6-.64-1-1.58s-.71-1.74-.58-1.8.6.64,1,1.58S210.54,162.3,210.41,162.36Z"/>
                <path class="cls-10"
                      d="M203.6,152.37c0,.14-.78.3-1.76.34s-1.78,0-1.79-.18.78-.3,1.77-.34S203.6,152.23,203.6,152.37Z"/>
                <path class="cls-10"
                      d="M211.51,152.53c-.11-.09.23-.73.76-1.45s1.06-1.22,1.18-1.13-.23.73-.76,1.45S211.63,152.62,211.51,152.53Z"/>
                <path class="cls-10"
                      d="M233.34,173a9.77,9.77,0,0,1-.61-3.12,9.38,9.38,0,0,1-.09-3.17A19.66,19.66,0,0,1,233.34,173Z"/>
                <path class="cls-10"
                      d="M235.9,185.45c-.1.1-1.08-.7-2-1.91a6,6,0,0,1-1.4-2.41,34.86,34.86,0,0,1,3.44,4.32Z"/>
                <path class="cls-10"
                      d="M232.32,198.2a9.79,9.79,0,0,1,1.22-2.79,9.59,9.59,0,0,1,1.68-2.54,8.69,8.69,0,0,1-1.22,2.79A8.45,8.45,0,0,1,232.32,198.2Z"/>
                <path class="cls-10"
                      d="M236.63,216.74a12.66,12.66,0,0,1-1.5-3.28,13.41,13.41,0,0,1-1-3.47,12,12,0,0,1,1.5,3.28A12.67,12.67,0,0,1,236.63,216.74Z"/>
                <path class="cls-10" d="M249.6,210a13.84,13.84,0,0,1-4.84-2.26A13.68,13.68,0,0,1,249.6,210Z"/>
                <path class="cls-10"
                      d="M256.89,203.05a6.8,6.8,0,0,1,.14-3.17,6.92,6.92,0,0,1,1.11-3,16.28,16.28,0,0,1-.6,3.08A17.15,17.15,0,0,1,256.89,203.05Z"/>
                <path class="cls-10"
                      d="M214,198.55a9.05,9.05,0,0,1,1-2.85,8.89,8.89,0,0,1,1.53-2.63,9.08,9.08,0,0,1-1.06,2.85A8.74,8.74,0,0,1,214,198.55Z"/>
                <path class="cls-10"
                      d="M193.27,222.26a8.14,8.14,0,0,1-1.9-2.19,8.63,8.63,0,0,1-1.49-2.49,16.06,16.06,0,0,1,3.39,4.68Z"/>
                <path class="cls-10" d="M203.08,219.67a23,23,0,0,1,2.45-6.17,20.34,20.34,0,0,1-2.42,6.14Z"/>
                <path class="cls-10"
                      d="M218.93,222.44a10.85,10.85,0,0,1-5.8-3.25,20.13,20.13,0,0,1,2.9,1.63A22.17,22.17,0,0,1,218.93,222.44Z"/>
                <path class="cls-10"
                      d="M225.41,212.25a12.47,12.47,0,0,1-1.5-6.61,17.74,17.74,0,0,1,.8,3.29A18.85,18.85,0,0,1,225.41,212.25Z"/>
                <g class="cls-9">
                    <path d="M180.29,220.35a10.45,10.45,0,0,0,7.45.68,25.18,25.18,0,0,0,6.92-3.2,12.67,12.67,0,0,1,4-1.85,12.29,12.29,0,0,1,4.83.34c3.75.75,7.66,1.36,11.36.41s7.16-3.83,7.65-7.62c.19-1.53-.32-3.38-1.78-3.87a13.53,13.53,0,0,0-3-.85c-15.9,1.29-37.52,14.17-37.5,14.61"/>
                </g>
                <polygon class="cls-5" points="252.21 400.64 256.24 431.94 242.06 432.84 234.76 402.81 252.21 400.64"/>
                <path class="cls-8"
                      d="M240.72,426.77s10.84,5.67,14.8-1l1.65,2.77,8.47,20.21a2.83,2.83,0,0,1-1.12,3.58,2.74,2.74,0,0,1-2.95-.16c-4.6-3.32-21.43-15.6-21.55-17.56l-.64-5.16a2.67,2.67,0,0,1,1.34-2.63Z"/>
                <path class="cls-11"
                      d="M264.05,452.48l-24.28-19.71.16,1.12c.06,1.24.66,1.65,1.34,2.35,2,2.08,7.49,6.61,20.22,15.89a2.73,2.73,0,0,0,2.56.35Z"/>
                <g class="cls-12">
                    <path class="cls-13"
                          d="M242.43,429a1.66,1.66,0,0,1,.75,2.08,1.6,1.6,0,0,1-2.06.77,1.79,1.79,0,0,1-.79-2.22,1.65,1.65,0,0,1,2.23-.55"/>
                </g>
                <path class="cls-4"
                      d="M256.36,441.74c.17.05.57-1.42,2-2.39a8.44,8.44,0,0,1,3-1c0-.07-.35-.23-1-.23a4.3,4.3,0,0,0-2.32.76,4.35,4.35,0,0,0-1.55,1.87C256.28,441.33,256.3,441.73,256.36,441.74Z"/>
                <path class="cls-4"
                      d="M258.75,445c.14.1.87-.88,2.19-1.47a25.33,25.33,0,0,1,2.55-.7,3.06,3.06,0,0,0-2.79.17C259.2,443.7,258.6,445,258.75,445Z"/>
                <path class="cls-4"
                      d="M252.21,437.68a28.63,28.63,0,0,1,3.23-2.49c1.95-1.12,3.82-1.29,3.8-1.47a7.51,7.51,0,0,0-7,4Z"/>
                <path class="cls-4"
                      d="M250.87,431.36c.1.15,1.47-.67,3.37-1s3.47-.09,3.51-.26A6.82,6.82,0,0,0,250.87,431.36Z"/>
                <path class="cls-4"
                      d="M255.32,430.15a2.21,2.21,0,0,0-.28-1,6.9,6.9,0,0,0-1.6-2.26,3.05,3.05,0,0,0-1.74-1,1.13,1.13,0,0,0-1.11.63,1.88,1.88,0,0,0,0,1.28,3.89,3.89,0,0,0,4.36,2.33,4.49,4.49,0,0,0,3.45-3.62,1.55,1.55,0,0,0-.33-1.26,1.07,1.07,0,0,0-1.26-.18,3.79,3.79,0,0,0-1.39,1.42,8.45,8.45,0,0,0-1.08,2.55,2.59,2.59,0,0,0-.1,1,13.16,13.16,0,0,1,1.53-3.32A3.71,3.71,0,0,1,257,425.5a.57.57,0,0,1,.68.1,1,1,0,0,1,.18.84,4,4,0,0,1-3,3.11,3.37,3.37,0,0,1-3.72-1.93,1.39,1.39,0,0,1,0-.9.6.6,0,0,1,.61-.35,2.78,2.78,0,0,1,1.49.81A10.18,10.18,0,0,1,255.32,430.15Z"/>
                <polygon class="cls-5" points="208.65 399.26 209.04 431.33 191.72 430.67 189.16 399.64 208.65 399.26"/>
                <path class="cls-8"
                      d="M191.42,426.8h0S172.2,434,172,437.51l37.17-.07v-9.72l-1.36.32A27.6,27.6,0,0,1,191.42,426.8Z"/>
                <g class="cls-12">
                    <path class="cls-13"
                          d="M204.9,429.55a1.51,1.51,0,0,1,1,1.73,1.45,1.45,0,0,1-1.71,1.06,1.6,1.6,0,0,1-1.1-1.84,1.52,1.52,0,0,1,1.9-.9"/>
                </g>
                <g class="cls-12">
                    <path class="cls-13" d="M209.16,437.44v-3l-35.74,1.19s-1.65.72-1.46,1.89Z"/>
                </g>
                <path class="cls-4"
                      d="M190.81,426.61c0,.18.92.26,1.81.84s1.37,1.35,1.54,1.27-.1-1.12-1.2-1.8S190.77,426.44,190.81,426.61Z"/>
                <path class="cls-4"
                      d="M186.92,428.23c0,.17.74.48,1.36,1.25s.8,1.58,1,1.57.29-1-.49-2S186.92,428.05,186.92,428.23Z"/>
                <path class="cls-4"
                      d="M184.71,432.9c.17,0,.42-.87-.05-1.86s-1.32-1.39-1.39-1.24.45.68.82,1.5S184.53,432.88,184.71,432.9Z"/>
                <path class="cls-4"
                      d="M191.22,426.5a3.46,3.46,0,0,0,1.86,0,8.17,8.17,0,0,0,1.95-.6,9.78,9.78,0,0,0,1.06-.57,1.89,1.89,0,0,0,.57-.44.79.79,0,0,0,.08-1,1,1,0,0,0-.8-.41,2.42,2.42,0,0,0-.7.1,6.81,6.81,0,0,0-1.15.4,6.33,6.33,0,0,0-1.72,1.13c-.86.8-1.15,1.48-1.09,1.51s.5-.51,1.38-1.17a7.17,7.17,0,0,1,1.66-.94,6.83,6.83,0,0,1,1.06-.33c.4-.1.73-.11.83.07s0,.09,0,.21a1.62,1.62,0,0,1-.41.32,10.73,10.73,0,0,1-1,.56,11.15,11.15,0,0,1-1.8.69A12.63,12.63,0,0,0,191.22,426.5Z"/>
                <path class="cls-4"
                      d="M191.45,426.76a3,3,0,0,0,.49-1.8,5.87,5.87,0,0,0-.73-3.13,1.52,1.52,0,0,0-1.19-.94.89.89,0,0,0-.78.52,3.28,3.28,0,0,0-.19.68,4.3,4.3,0,0,0,.8,3.18c.73,1,1.49,1.17,1.5,1.11a7.63,7.63,0,0,1-1.13-1.36,4.49,4.49,0,0,1-.59-1.75,4.88,4.88,0,0,1,0-1.08c.06-.39.21-.71.36-.67a1.3,1.3,0,0,1,.65.61,5.32,5.32,0,0,1,.46,1,6.21,6.21,0,0,1,.37,1.85C191.55,426.05,191.36,426.73,191.45,426.76Z"/>
                <path class="cls-4"
                      d="M242.35,262.62c-.77-17.33-14.08-36.26-14.08-36.26l-20.48-1.72v-.07h-.43l-23.55,1.92s-10.38,22.62-7.68,49.58S187.94,402.2,187.94,402.2h21.6L210,258.72l21.87,148.37H253.5S243.12,280,242.35,262.62Z"/>
                <polygon class="cls-7" points="185.31 399.78 188.32 414.4 210.32 414.33 211.66 400.86 185.31 399.78"/>
                <polygon class="cls-7" points="230.43 404.45 235.25 420.93 255.72 418.07 254.66 399.54 230.43 404.45"/>
                <path class="cls-7"
                      d="M210.88,258.59h-.32a2.17,2.17,0,0,1-.85-.38,4.93,4.93,0,0,1-1.63-2.93c-.5-2.79-1-6.64-1.44-10.91s-.77-8.14-1-10.94c-.1-1.41-.17-2.54-.2-3.33a5,5,0,0,1,0-1.22,5.56,5.56,0,0,1,.2,1.21c.09.88.22,2,.36,3.3.3,2.91.69,6.72,1.12,10.93s.88,8.13,1.29,10.88a5,5,0,0,0,1.39,2.86A4,4,0,0,0,210.88,258.59Z"/>
                <path class="cls-7"
                      d="M209.05,227.85a1.18,1.18,0,0,1,.52-.18A2.3,2.3,0,0,1,211,228a2.71,2.71,0,0,1,1.27,1.85,2,2,0,0,1-.23,1.37,2.21,2.21,0,0,1-1.15,1,2.4,2.4,0,0,1-2.68-.57,2.49,2.49,0,0,1-.45-2.2,2.52,2.52,0,0,1,.77-1.29c.28-.22.47-.27.48-.25a3.34,3.34,0,0,0-.89,1.61,2.21,2.21,0,0,0,.45,1.82,2,2,0,0,0,2.13.4,1.6,1.6,0,0,0,1.1-1.77,2.44,2.44,0,0,0-1-1.62A3.45,3.45,0,0,0,209.05,227.85Z"/>
                <path class="cls-7"
                      d="M198,197.44l-2.09-10.17a1.31,1.31,0,0,1,1-1.54l.26,0,26.31.13a1.31,1.31,0,0,1,1.31,1.31.66.66,0,0,1,0,.14l-2.72,23.3a1.8,1.8,0,0,1-1.82,1.6l-17.16-.13a1.84,1.84,0,0,1-1.75-1.37Z"/>
                <path class="cls-5"
                      d="M195.65,192.09h0a2.76,2.76,0,0,1,2.59,1.76c.43,1.12,1.06,2.44,1.76,2.82,1.29.7,3.52,1.27,4.7.69s5.87-4.8,6.69-4.33,1.53,1.52.71,2.46-5.17,3.76-4.35,4.7,10-3.19,11.4-2.83,2.23,1.23,1.41,1.8-7.05,2.91-7.4,3.73c0,0,9.39-2.46,9.75-1.88s.94,1.53,0,1.88-9,2.47-9.75,2.82a16.81,16.81,0,0,1-3.63,1.06c-.25,0-2.09.62-3.78,1.2a8.3,8.3,0,0,1-5.85-.15l-1-.39a3.76,3.76,0,0,1-2.32-3.68l.2-3.2-1-2.65Z"/>
                <path class="cls-10" d="M211.44,189.62a1,1,0,0,1-2,0,1,1,0,0,1,1-1h0A1,1,0,0,1,211.44,189.62Z"/>
            </g>
            <g id="freepik--Data--inject-183">
                <path class="cls-8"
                      d="M4.66,302.64l.4-.31,1.22-.91L11,297.94l17.82-13,61.81-44.85-.09.28a139.4,139.4,0,0,1-8.12-46.78,148,148,0,0,1,.84-15.75,145.36,145.36,0,0,1,2.56-15.09,134.19,134.19,0,0,1,9.28-27.37,139.35,139.35,0,0,1,54.11-60.1l4.5-2.58c1.31-.74,2.46-1.28,3.37-1.75l2.08-1c.47-.24.72-.34.72-.34s-.23.14-.7.39l-2,1.09c-.9.49-2.05,1-3.35,1.79l-4.46,2.62a140.44,140.44,0,0,0-53.78,60.13,133.83,133.83,0,0,0-9.22,27.28,143.61,143.61,0,0,0-2.54,15A146.85,146.85,0,0,0,83,193.6a139,139,0,0,0,8,46.6l.06.18-.15.11L29,285.19,11.1,298.07c-2.09,1.48-3.69,2.63-4.79,3.42l-1.24.87Z"/>
                <path class="cls-8"
                      d="M119.64,41.62l-.57.3-1.68.82-2.73,1.33c-1.09.52-2.28,1.24-3.66,2a125.6,125.6,0,0,0-21.57,15.2A140.23,140.23,0,0,0,76.55,74.19,152.34,152.34,0,0,0,64,90.89a161.51,161.51,0,0,0-19.59,43.64,211.27,211.27,0,0,0-7.63,47.32,261.12,261.12,0,0,0,.9,39.15,133.92,133.92,0,0,0,5.09,26c.93,3,1.78,5.26,2.37,6.79l.69,1.74.22.6s-.1-.19-.27-.58L45,253.78c-.62-1.52-1.5-3.79-2.46-6.77a130.25,130.25,0,0,1-5.27-25.93,257.24,257.24,0,0,1-1.05-39.25,209.46,209.46,0,0,1,7.61-47.44A161.6,161.6,0,0,1,63.51,90.63,153,153,0,0,1,76.19,73.89,137.85,137.85,0,0,1,89.19,61a123.29,123.29,0,0,1,21.72-15.1c1.38-.73,2.58-1.43,3.68-1.93l2.76-1.29,1.7-.78Z"/>
                <path class="cls-8"
                      d="M152.07,0a1.22,1.22,0,0,1,.13.17l.35.51,1.3,2,4.85,7.66c4.14,6.62,10,16,16.87,26.93l-.27-.1a179,179,0,0,1,28.75-5.4A182.6,182.6,0,0,1,232.59,31a176.59,176.59,0,0,1,23.16,2.78l2.39.44,2.25.49,4.13.92c2.55.67,4.75,1.2,6.54,1.71l4.09,1.24,1.06.34a1.33,1.33,0,0,1,.35.13,2.74,2.74,0,0,1-.37-.08l-1.07-.29L271,37.54c-1.79-.48-4-1-6.55-1.63L260.32,35l-2.25-.47-2.39-.42a179.1,179.1,0,0,0-23.11-2.67,184.18,184.18,0,0,0-28.47.79,181.41,181.41,0,0,0-28.67,5.34h-.18l-.09-.15c-6.81-11-12.6-20.39-16.71-27-2-3.3-3.62-5.92-4.73-7.74L152.48.62l-.31-.54Z"/>
                <path class="cls-8"
                      d="M405.94,133.9a1.36,1.36,0,0,1-.11-.28l-.27-.85-1-3.25c-.43-1.39-.91-3.15-1.62-5.12l-1.08-3.18c-.2-.56-.39-1.14-.6-1.73l-.7-1.8c-1-2.45-2-5.16-3.28-8-.65-1.41-1.25-2.9-2-4.38L393,100.79a160.25,160.25,0,0,0-11.92-19.26,167.45,167.45,0,0,0-14.64-17.29c-1.23-1.24-2.43-2.44-3.59-3.62s-2.38-2.22-3.51-3.28c-2.24-2.15-4.47-4-6.46-5.71l-1.47-1.26L350,49.23l-2.62-2.1c-1.62-1.33-3.08-2.39-4.26-3.28l-2.71-2-.7-.54-.23-.2s.1,0,.26.15l.73.51,2.77,2c1.2.86,2.68,1.9,4.32,3.21l2.65,2,1.45,1.13,1.47,1.25c2,1.71,4.27,3.53,6.52,5.67,1.14,1.06,2.35,2.12,3.54,3.27l3.61,3.61a165.24,165.24,0,0,1,14.72,17.32,154.89,154.89,0,0,1,11.92,19.35l2.28,4.58c.73,1.48,1.33,3,2,4.39,1.31,2.83,2.28,5.55,3.23,8,.24.62.47,1.22.69,1.81s.39,1.18.58,1.74c.37,1.13.72,2.2,1,3.19.69,2,1.15,3.74,1.54,5.16s.68,2.5.89,3.29c.09.35.16.63.22.85Z"/>
                <path class="cls-8"
                      d="M368.37,411.48s-.06-.09-.16-.28l-.42-.84c-.38-.77-.91-1.87-1.6-3.29-1.4-2.91-3.41-7.11-5.93-12.38-5.05-10.61-12.14-25.54-20.38-42.89l-.09-.18.17-.13a193.88,193.88,0,0,0,21.73-19.16c1.18-1.15,2.28-2.35,3.37-3.55l3.27-3.56,3.08-3.62c1-1.21,2-2.38,3-3.61,1.89-2.45,3.82-4.81,5.52-7.25l2.58-3.59c.82-1.2,1.6-2.41,2.39-3.59a194.21,194.21,0,0,0,14.68-26.38c1.84-3.89,3.26-7.52,4.55-10.68s2.2-6,3-8.24,1.3-4,1.69-5.28c.2-.58.35-1,.46-1.37.05-.16.11-.31.17-.46a1.56,1.56,0,0,1-.12.48c-.12.32-.23.79-.41,1.38-.37,1.24-.91,3-1.6,5.31s-1.74,5.07-2.92,8.28-2.67,6.83-4.49,10.73a193,193,0,0,1-14.62,26.5c-.79,1.18-1.56,2.4-2.39,3.6l-2.58,3.6c-1.7,2.46-3.63,4.82-5.53,7.27-.93,1.24-2,2.42-3,3.63s-2.05,2.41-3.08,3.64l-3.28,3.56c-1.09,1.2-2.19,2.41-3.37,3.56a192.27,192.27,0,0,1-21.82,19.2l.08-.3,20.21,43,5.8,12.41c.66,1.44,1.18,2.55,1.53,3.33l.39.87Z"/>
                <g class="cls-14">
                    <path class="cls-13"
                          d="M4.66,302.64l.4-.31,1.22-.91L11,297.94l17.82-13,61.81-44.85-.09.28a139.4,139.4,0,0,1-8.12-46.78,148,148,0,0,1,.84-15.75,145.36,145.36,0,0,1,2.56-15.09,134.19,134.19,0,0,1,9.28-27.37,139.35,139.35,0,0,1,54.11-60.1l4.5-2.58c1.31-.74,2.46-1.28,3.37-1.75l2.08-1c.47-.24.72-.34.72-.34s-.23.14-.7.39l-2,1.09c-.9.49-2.05,1-3.35,1.79l-4.46,2.62a140.44,140.44,0,0,0-53.78,60.13,133.83,133.83,0,0,0-9.22,27.28,143.61,143.61,0,0,0-2.54,15A146.85,146.85,0,0,0,83,193.6a139,139,0,0,0,8,46.6l.06.18-.15.11L29,285.19,11.1,298.07c-2.09,1.48-3.69,2.63-4.79,3.42l-1.24.87Z"/>
                    <path class="cls-13"
                          d="M119.64,41.62l-.57.3-1.68.82-2.73,1.33c-1.09.52-2.28,1.24-3.66,2a125.6,125.6,0,0,0-21.57,15.2A140.23,140.23,0,0,0,76.55,74.19,152.34,152.34,0,0,0,64,90.89a161.51,161.51,0,0,0-19.59,43.64,211.27,211.27,0,0,0-7.63,47.32,261.12,261.12,0,0,0,.9,39.15,133.92,133.92,0,0,0,5.09,26c.93,3,1.78,5.26,2.37,6.79l.69,1.74.22.6s-.1-.19-.27-.58L45,253.78c-.62-1.52-1.5-3.79-2.46-6.77a130.25,130.25,0,0,1-5.27-25.93,257.24,257.24,0,0,1-1.05-39.25,209.46,209.46,0,0,1,7.61-47.44A161.6,161.6,0,0,1,63.51,90.63,153,153,0,0,1,76.19,73.89,137.85,137.85,0,0,1,89.19,61a123.29,123.29,0,0,1,21.72-15.1c1.38-.73,2.58-1.43,3.68-1.93l2.76-1.29,1.7-.78Z"/>
                    <path class="cls-13"
                          d="M152.07,0a1.22,1.22,0,0,1,.13.17l.35.51,1.3,2,4.85,7.66c4.14,6.62,10,16,16.87,26.93l-.27-.1a179,179,0,0,1,28.75-5.4A182.6,182.6,0,0,1,232.59,31a176.59,176.59,0,0,1,23.16,2.78l2.39.44,2.25.49,4.13.92c2.55.67,4.75,1.2,6.54,1.71l4.09,1.24,1.06.34a1.33,1.33,0,0,1,.35.13,2.74,2.74,0,0,1-.37-.08l-1.07-.29L271,37.54c-1.79-.48-4-1-6.55-1.63L260.32,35l-2.25-.47-2.39-.42a179.1,179.1,0,0,0-23.11-2.67,184.18,184.18,0,0,0-28.47.79,181.41,181.41,0,0,0-28.67,5.34h-.18l-.09-.15c-6.81-11-12.6-20.39-16.71-27-2-3.3-3.62-5.92-4.73-7.74L152.48.62l-.31-.54Z"/>
                    <path class="cls-13"
                          d="M405.94,133.9a1.36,1.36,0,0,1-.11-.28l-.27-.85-1-3.25c-.43-1.39-.91-3.15-1.62-5.12l-1.08-3.18c-.2-.56-.39-1.14-.6-1.73l-.7-1.8c-1-2.45-2-5.16-3.28-8-.65-1.41-1.25-2.9-2-4.38L393,100.79a160.25,160.25,0,0,0-11.92-19.26,167.45,167.45,0,0,0-14.64-17.29c-1.23-1.24-2.43-2.44-3.59-3.62s-2.38-2.22-3.51-3.28c-2.24-2.15-4.47-4-6.46-5.71l-1.47-1.26L350,49.23l-2.62-2.1c-1.62-1.33-3.08-2.39-4.26-3.28l-2.71-2-.7-.54-.23-.2s.1,0,.26.15l.73.51,2.77,2c1.2.86,2.68,1.9,4.32,3.21l2.65,2,1.45,1.13,1.47,1.25c2,1.71,4.27,3.53,6.52,5.67,1.14,1.06,2.35,2.12,3.54,3.27l3.61,3.61a165.24,165.24,0,0,1,14.72,17.32,154.89,154.89,0,0,1,11.92,19.35l2.28,4.58c.73,1.48,1.33,3,2,4.39,1.31,2.83,2.28,5.55,3.23,8,.24.62.47,1.22.69,1.81s.39,1.18.58,1.74c.37,1.13.72,2.2,1,3.19.69,2,1.15,3.74,1.54,5.16s.68,2.5.89,3.29c.09.35.16.63.22.85Z"/>
                    <path class="cls-13"
                          d="M368.37,411.48s-.06-.09-.16-.28l-.42-.84c-.38-.77-.91-1.87-1.6-3.29-1.4-2.91-3.41-7.11-5.93-12.38-5.05-10.61-12.14-25.54-20.38-42.89l-.09-.18.17-.13a193.88,193.88,0,0,0,21.73-19.16c1.18-1.15,2.28-2.35,3.37-3.55l3.27-3.56,3.08-3.62c1-1.21,2-2.38,3-3.61,1.89-2.45,3.82-4.81,5.52-7.25l2.58-3.59c.82-1.2,1.6-2.41,2.39-3.59a194.21,194.21,0,0,0,14.68-26.38c1.84-3.89,3.26-7.52,4.55-10.68s2.2-6,3-8.24,1.3-4,1.69-5.28c.2-.58.35-1,.46-1.37.05-.16.11-.31.17-.46a1.56,1.56,0,0,1-.12.48c-.12.32-.23.79-.41,1.38-.37,1.24-.91,3-1.6,5.31s-1.74,5.07-2.92,8.28-2.67,6.83-4.49,10.73a193,193,0,0,1-14.62,26.5c-.79,1.18-1.56,2.4-2.39,3.6l-2.58,3.6c-1.7,2.46-3.63,4.82-5.53,7.27-.93,1.24-2,2.42-3,3.63s-2.05,2.41-3.08,3.64l-3.28,3.56c-1.09,1.2-2.19,2.41-3.37,3.56a192.27,192.27,0,0,1-21.82,19.2l.08-.3,20.21,43,5.8,12.41c.66,1.44,1.18,2.55,1.53,3.33l.39.87Z"/>
                </g>
                <circle class="cls-8" cx="303.08" cy="120.51" r="4.29"/>
                <path class="cls-8" d="M281.42,39.14a4.3,4.3,0,1,1-4.3-4.3h0a4.29,4.29,0,0,1,4.29,4.29Z"/>
                <path class="cls-8" d="M409.83,134.07a4.3,4.3,0,1,1-4.31-4.29h0a4.29,4.29,0,0,1,4.29,4.29Z"/>
                <path class="cls-8" d="M187.9,334.74a4.29,4.29,0,1,1-4.29-4.3,4.28,4.28,0,0,1,4.29,4.3Z"/>
                <circle class="cls-8" cx="128.76" cy="331.63" r="4.29"/>
                <circle class="cls-8" cx="364.07" cy="241.29" r="4.29"/>
                <path class="cls-8" d="M46.53,136.29A4.29,4.29,0,1,1,42.24,132h0A4.29,4.29,0,0,1,46.53,136.29Z"/>
                <path class="cls-8" d="M287.42,170.6a4.29,4.29,0,1,1-4.29-4.3,4.28,4.28,0,0,1,4.29,4.3Z"/>
                <circle class="cls-8" cx="370.4" cy="168.85" r="4.29"/>
                <path class="cls-8" d="M93.08,152.5a4.29,4.29,0,1,1-4.29-4.29h0A4.3,4.3,0,0,1,93.08,152.5Z"/>
                <circle class="cls-8" cx="92.14" cy="95.67" r="4.29"/>
                <path class="cls-8" d="M48.2,258.23a2.15,2.15,0,1,1-2.15-2.15h0a2.13,2.13,0,0,1,2.15,2.13Z"/>
                <path class="cls-8" d="M84.5,196a2.15,2.15,0,1,1-2.15-2.15h0A2.13,2.13,0,0,1,84.5,196Z"/>
                <path class="cls-8" d="M126.13,271.23a2.15,2.15,0,1,1-2.15-2.15h0a2.13,2.13,0,0,1,2.15,2.13Z"/>
                <path class="cls-8" d="M104.22,195a2.15,2.15,0,1,1-2.15-2.15h0a2.13,2.13,0,0,1,2.15,2.13Z"/>
                <path class="cls-8" d="M134.9,146.7a2.15,2.15,0,1,1-2.16-2.14h0A2.14,2.14,0,0,1,134.9,146.7Z"/>
                <circle class="cls-8" cx="58.63" cy="195.98" r="2.15"/>
                <path class="cls-8" d="M346.84,280.64a2.15,2.15,0,1,1-2.15-2.15h0A2.15,2.15,0,0,1,346.84,280.64Z"/>
                <path class="cls-8" d="M331.87,269.4a2.15,2.15,0,1,1-2.15-2.15h0a2.14,2.14,0,0,1,2.14,2.14Z"/>
                <path class="cls-8" d="M362.9,290.77a2.15,2.15,0,1,1-2.15-2.15h0a2.13,2.13,0,0,1,2.15,2.13Z"/>
                <path class="cls-8" d="M278.38,292.78a2.15,2.15,0,1,1-2.15-2.15h0A2.15,2.15,0,0,1,278.38,292.78Z"/>
                <path class="cls-8" d="M292,325.78a2.15,2.15,0,1,1-2.15-2.15h0A2.15,2.15,0,0,1,292,325.78Z"/>
                <path class="cls-8" d="M268.16,315.8a2.15,2.15,0,1,1-2.16-2.14h0a2.14,2.14,0,0,1,2.14,2.14Z"/>
                <path class="cls-8" d="M129.27,122.65a2.15,2.15,0,1,1-2.16-2.14h0A2.14,2.14,0,0,1,129.27,122.65Z"/>
                <path class="cls-8" d="M180,97.71a2.15,2.15,0,1,1-2.16-2.14h0A2.14,2.14,0,0,1,180,97.71Z"/>
                <path class="cls-8" d="M242.79,91.81a2.15,2.15,0,1,1-2.15-2.15h0A2.15,2.15,0,0,1,242.79,91.81Z"/>
                <path class="cls-8" d="M341.58,40.33a2.15,2.15,0,1,1-2.16-2.14h0A2.14,2.14,0,0,1,341.58,40.33Z"/>
                <path class="cls-8" d="M176.62,36.84a2.15,2.15,0,1,1-2.15-2.15h0A2.15,2.15,0,0,1,176.62,36.84Z"/>
                <path class="cls-8"
                      d="M152.07,273.12s-.09-.08-.25-.25l-.71-.75-2.67-2.93c-.58-.65-1.25-1.34-1.91-2.15l-2.15-2.66c-.76-1-1.61-1.95-2.44-3.07l-2.56-3.58a112.13,112.13,0,0,1-10.72-18.82,101.59,101.59,0,0,1-7.47-25.42c-.44-2.32-.59-4.65-.86-6.93l-.21-3.41c0-.56-.07-1.13-.1-1.68s0-1.12,0-1.68v-3.3l.12-3.24c0-1.07.1-2.13.19-3.17s.18-2.07.26-3.09a111.28,111.28,0,0,1,4.42-21.2,103,103,0,0,1,5.31-13.6c.75-1.56,1.38-2.74,1.83-3.53.22-.4.4-.69.52-.89s.19-.3.2-.29a1.77,1.77,0,0,1-.15.31l-.48.92c-.42.8-1,2-1.73,3.56a108.67,108.67,0,0,0-5.15,13.63A113.29,113.29,0,0,0,121,187c-.08,1-.17,2-.25,3.08s-.16,2.09-.18,3.15-.08,2.14-.12,3.22,0,2.19,0,3.29v1.67c0,.56.07,1.11.1,1.67l.21,3.4c.28,2.27.43,4.58.86,6.89a102,102,0,0,0,7.4,25.31,114.57,114.57,0,0,0,10.58,18.8l2.52,3.59c.82,1.12,1.66,2.13,2.41,3.09l2.11,2.68c.65.82,1.31,1.52,1.87,2.17l2.6,3,.67.79C152,273,152.08,273.11,152.07,273.12Z"/>
                <path class="cls-8"
                      d="M58.57,201.32a1.41,1.41,0,0,1,0-.29v-.85c0-.79,0-1.89.07-3.28,0-.71,0-1.51.06-2.37s.11-1.8.18-2.81c.14-2,.24-4.32.54-6.85.14-1.26.28-2.59.42-4s.39-2.81.6-4.29c.37-3,1-6.11,1.58-9.42a192.7,192.7,0,0,1,13.24-41.67c1.43-3,2.74-6,4.15-8.61.69-1.33,1.32-2.63,2-3.84l2-3.49c1.21-2.24,2.46-4.18,3.5-5.91.54-.86,1-1.67,1.49-2.4l1.31-2,1.84-2.72.48-.7.18-.22a.67.67,0,0,1-.13.25l-.45.73-1.75,2.77-1.27,2-1.45,2.41c-1,1.74-2.24,3.69-3.43,5.94l-1.91,3.49c-.67,1.22-1.29,2.53-2,3.86-1.38,2.64-2.68,5.56-4.09,8.61q-4.38,10-7.76,20.42a217,217,0,0,0-5.44,21.14c-.62,3.3-1.24,6.43-1.64,9.39-.21,1.48-.45,2.9-.62,4.28s-.3,2.7-.45,4c-.33,2.52-.45,4.82-.62,6.83-.08,1-.15,1.94-.22,2.81s-.08,1.64-.11,2.36c-.07,1.39-.13,2.48-.17,3.27V201A1.2,1.2,0,0,1,58.57,201.32Z"/>
                <path class="cls-8"
                      d="M263.33,77.62a4.17,4.17,0,0,1-.75-.2l-2.14-.66c-.92-.31-2.05-.66-3.38-1s-2.83-.81-4.53-1.17L249.88,74c-.92-.21-1.89-.37-2.89-.56-2-.41-4.15-.69-6.42-1a121,121,0,0,0-14.86-.89,123.19,123.19,0,0,0-14.85,1.11c-2.26.36-4.41.67-6.4,1.11-1,.21-2,.38-2.89.6l-2.64.66c-1.69.38-3.18.87-4.5,1.24s-2.46.74-3.37,1.06l-2.13.7a4.61,4.61,0,0,1-.75.21,3.82,3.82,0,0,1,.72-.31l2.09-.79c.91-.35,2-.75,3.35-1.15s2.81-.91,4.5-1.32l2.64-.69c.92-.23,1.89-.41,2.89-.63,2-.46,4.16-.79,6.43-1.16a106.84,106.84,0,0,1,29.83-.23c2.27.34,4.44.63,6.44,1.06,1,.21,2,.37,2.9.59l2.65.65c1.7.38,3.19.87,4.52,1.25s2.46.76,3.37,1.1l2.1.75A3.7,3.7,0,0,1,263.33,77.62Z"/>
                <path class="cls-8"
                      d="M302.34,123.17a3.68,3.68,0,0,1-.5-.54c-.35-.4-.8-.93-1.36-1.6l-1-1.16c-.36-.41-.78-.84-1.22-1.32-.89-.93-1.85-2-3-3.15l-1.84-1.77c-.65-.61-1.37-1.19-2.08-1.82-1.42-1.28-3.06-2.5-4.76-3.81a83,83,0,0,0-24.83-12.56c-2.07-.59-4-1.19-5.9-1.57-.93-.21-1.82-.44-2.7-.6l-2.51-.43c-1.6-.32-3.07-.43-4.35-.59-.64-.08-1.24-.16-1.79-.21L243,92l-2.09-.15a3,3,0,0,1-.73-.09,4.45,4.45,0,0,1,.73,0h3.62c.56,0,1.16.1,1.8.16,1.29.13,2.77.22,4.38.51l2.53.41c.88.14,1.78.37,2.72.57,1.89.36,3.86,1,5.94,1.53a80.71,80.71,0,0,1,25,12.63c1.7,1.34,3.35,2.57,4.76,3.87.71.65,1.43,1.24,2.07,1.86l1.83,1.8c1.18,1.12,2.13,2.26,3,3.22.42.48.84.92,1.19,1.35s.66.83.94,1.2c.54.68,1,1.24,1.29,1.66A4,4,0,0,1,302.34,123.17Z"/>
                <path class="cls-8"
                      d="M323.73,96a1.68,1.68,0,0,1-.21-.18l-.59-.56-2.22-2.19-1.6-1.59c-.6-.57-1.27-1.15-2-1.8-1.44-1.27-3-2.8-4.93-4.28l-3-2.39c-1-.83-2.17-1.6-3.31-2.45-2.26-1.73-4.84-3.35-7.52-5.1A141.77,141.77,0,0,0,280,65.83a145.4,145.4,0,0,0-19.73-6.58c-3.12-.71-6.08-1.44-8.9-1.86-1.4-.23-2.75-.52-4.06-.68l-3.77-.46c-2.4-.35-4.59-.42-6.51-.58-1-.06-1.85-.14-2.68-.18H232.1L229,55.41h-1.09a.66.66,0,0,1,.28,0h6.19c.83,0,1.72.08,2.69.13,1.92.13,4.12.18,6.53.5l3.79.43c1.31.16,2.67.43,4.08.65,2.83.41,5.8,1.13,8.93,1.82A128.39,128.39,0,0,1,298.66,75c2.68,1.77,5.26,3.41,7.52,5.16,1.14.86,2.27,1.64,3.3,2.48l2.94,2.43c1.91,1.5,3.47,3,4.9,4.35.71.65,1.38,1.25,2,1.83l1.57,1.63,2.16,2.26.55.6A.71.71,0,0,1,323.73,96Z"/>
                <path class="cls-8"
                      d="M393.16,194.75a1.13,1.13,0,0,1,0-.26v-.79c0-.72,0-1.73-.06-3v-2.17c0-.79-.08-1.66-.12-2.59-.11-1.85-.15-4-.4-6.28-.1-1.16-.2-2.38-.32-3.65s-.31-2.58-.48-3.94c-.3-2.72-.82-5.61-1.33-8.65A175.55,175.55,0,0,0,385.59,144a177.35,177.35,0,0,0-7.15-18.73c-1.32-2.79-2.53-5.46-3.84-7.87-.64-1.21-1.22-2.41-1.85-3.51l-1.82-3.18c-1.12-2-2.28-3.81-3.25-5.39l-1.37-2.19-1.22-1.8-1.67-2.5-.43-.66-.13-.23a124.46,124.46,0,0,1,8.39,12.58l1.85,3.17c.64,1.11,1.23,2.3,1.88,3.51,1.33,2.41,2.56,5.08,3.89,7.87a167.9,167.9,0,0,1,7.21,18.78,170.74,170.74,0,0,1,4.78,19.54c.49,3,1,5.94,1.28,8.68.16,1.37.35,2.68.45,4s.2,2.5.29,3.66A126.31,126.31,0,0,1,393.16,194.75Z"/>
                <path class="cls-8"
                      d="M371.12,168.85a2.67,2.67,0,0,1,.08.48c.05.35.11.82.18,1.42.13,1.25.44,3.09.59,5.48a158.81,158.81,0,0,1,.42,20.23c-.15,4.28-.54,8.95-1.09,13.95a144.39,144.39,0,0,1-2.65,15.83c-.28,1.39-.59,2.79-1,4.19l-1.07,4.26c-.83,2.84-1.63,5.76-2.66,8.66a121.76,121.76,0,0,1-7.37,17.57,136.41,136.41,0,0,1-10,16.22,155.46,155.46,0,0,1-11.19,13.78,162.81,162.81,0,0,1-22.16,20.23,147.08,147.08,0,0,1-16.88,11.16c-2.05,1.23-3.74,2-4.85,2.61l-1.27.65c-.29.15-.44.21-.44.21s.13-.09.41-.25l1.25-.7c1.09-.63,2.76-1.44,4.8-2.69A158.14,158.14,0,0,0,313,310.86a166.29,166.29,0,0,0,22-20.27,154.28,154.28,0,0,0,11.12-13.75,136.61,136.61,0,0,0,9.95-16.16,121.84,121.84,0,0,0,7.35-17.49c1-2.89,1.83-5.8,2.66-8.63.36-1.43.72-2.85,1.08-4.25s.68-2.79,1-4.17c1.25-5.5,2-10.81,2.69-15.78A135.25,135.25,0,0,0,372,196.45a164.2,164.2,0,0,0-.26-20.21c-.11-2.38-.39-4.22-.48-5.47-.06-.61-.1-1.09-.13-1.43A2.54,2.54,0,0,1,371.12,168.85Z"/>
                <path class="cls-8"
                      d="M325.64,125.76a2.88,2.88,0,0,1,.27.3l.76.9c.64.81,1.67,2,2.84,3.55a112.57,112.57,0,0,1,9.1,14c1.73,3.08,3.4,6.57,5.07,10.37a120.28,120.28,0,0,1,4.51,12.46,112.61,112.61,0,0,1,3.34,14.26,110.92,110.92,0,0,1,1.56,15.65,124.88,124.88,0,0,1-.57,15.71A119.8,119.8,0,0,1,350,227.4,111.33,111.33,0,0,1,333,265c-1.1,1.64-2.08,2.82-2.69,3.66l-.73.93a2.42,2.42,0,0,1-.25.31,1.94,1.94,0,0,1,.21-.34l.68-1c.58-.85,1.54-2.05,2.61-3.71a114.85,114.85,0,0,0,8.37-14.4,110.67,110.67,0,0,0,8.34-23.21A119.84,119.84,0,0,0,352,212.91a123.93,123.93,0,0,0,.56-15.65,118.5,118.5,0,0,0-4.85-29.78,121.68,121.68,0,0,0-4.44-12.43c-1.66-3.79-3.3-7.28-5-10.36a117.1,117.1,0,0,0-8.93-14.06c-1.14-1.61-2.14-2.77-2.76-3.6l-.72-.94A2.7,2.7,0,0,1,325.64,125.76Z"/>
                <path class="cls-8"
                      d="M283.13,358.76l-.54.13-1.58.33c-1.39.28-3.45.73-6.11,1.17a222.21,222.21,0,0,1-22.72,2.77,230.11,230.11,0,0,1-33.93-.07c-6.37-.48-13.05-1.22-19.91-2.36a207.48,207.48,0,0,1-21.05-4.52,131.43,131.43,0,0,1-37.86-16.9,163,163,0,0,1-14.61-10.77C120.41,325,116.51,321.35,113,318c-7-6.72-12.16-12.56-15.71-16.64-1.77-2-3.11-3.65-4-4.75l-1-1.25-.33-.43.38.4,1.06,1.22c.93,1.07,2.3,2.66,4.1,4.68,3.58,4,8.84,9.83,15.8,16.51,3.5,3.33,7.4,6.9,11.81,10.47a167.6,167.6,0,0,0,14.6,10.7,135.92,135.92,0,0,0,17.53,9.58,132.83,132.83,0,0,0,20.21,7.22,206.54,206.54,0,0,0,21,4.52c6.85,1.14,13.51,1.89,19.87,2.38a233.48,233.48,0,0,0,33.87.18c9.63-.63,17.38-1.73,22.7-2.6,2.67-.41,4.73-.82,6.13-1.07l1.59-.28Z"/>
                <path class="cls-8"
                      d="M227.83,341.88a105.56,105.56,0,0,1-13.66-.17l-3.31-.26c-1.15-.09-2.33-.27-3.57-.42-2.47-.26-5.08-.75-7.83-1.22a129.65,129.65,0,0,1-34.35-11.6c-2.47-1.29-4.85-2.49-7-3.78-1.07-.63-2.12-1.21-3.1-1.83l-2.78-1.8a103.88,103.88,0,0,1-11-8.15l.2.13.58.41,2.18,1.62,1.56,1.19c.58.42,1.23.85,1.92,1.33,1.38.94,2.91,2.07,4.72,3.16l2.79,1.77c1,.61,2,1.17,3.1,1.8,2.13,1.27,4.5,2.44,7,3.72a134.2,134.2,0,0,0,34.23,11.56c2.74.48,5.34,1,7.8,1.26,1.23.16,2.41.35,3.55.45l3.3.3c2.09.22,4,.25,5.67.34.84,0,1.61.09,2.33.11h5.43Z"/>
                <path class="cls-8"
                      d="M193.77,315.38a4.74,4.74,0,0,1-.87-.12l-2.48-.45-1.79-.33c-.65-.14-1.35-.32-2.11-.5-1.5-.39-3.24-.75-5.1-1.36l-2.94-.9c-1-.32-2.06-.73-3.14-1.12-2.19-.74-4.44-1.74-6.82-2.75a105.19,105.19,0,0,1-28.07-18.44c-1.87-1.79-3.68-3.45-5.23-5.16-.78-.85-1.58-1.63-2.27-2.44l-2-2.34c-1.31-1.47-2.33-2.92-3.28-4.15-.47-.62-.92-1.19-1.3-1.73l-1-1.52L124,270a5.73,5.73,0,0,1-.45-.75,5.22,5.22,0,0,1,.54.7l1.47,2,1,1.48c.4.53.86,1.09,1.33,1.7,1,1.21,2,2.64,3.33,4.09l2,2.31c.7.8,1.49,1.57,2.28,2.41,1.55,1.69,3.37,3.34,5.25,5.11a108.08,108.08,0,0,0,27.94,18.35c2.37,1,4.6,2,6.77,2.79,1.08.39,2.1.81,3.12,1.14l2.91.92c1.85.64,3.58,1,5.07,1.43.75.2,1.45.4,2.1.55l1.77.38,2.46.53A3.78,3.78,0,0,1,193.77,315.38Z"/>
                <path class="cls-8"
                      d="M232.28,387.36a1.64,1.64,0,0,1-.32.05l-1,.08-3.65.3-2.64.19c-1,0-2,.06-3.15.09-2.26,0-4.84.17-7.69,0l-4.46-.13c-1.56-.05-3.17-.23-4.84-.35-3.34-.19-6.89-.7-10.62-1.18a162.45,162.45,0,0,1-46.72-14.23c-3.37-1.69-6.6-3.24-9.48-4.94-1.45-.84-2.89-1.59-4.21-2.41l-3.78-2.38c-2.44-1.47-4.5-3-6.36-4.31-.92-.66-1.79-1.25-2.57-1.83l-2.08-1.64-2.87-2.28-.74-.6c-.16-.14-.25-.21-.24-.22s.1,0,.27.18l.77.56,2.93,2.2,2.11,1.6c.78.57,1.66,1.14,2.59,1.79,1.87,1.26,3.94,2.79,6.39,4.23l3.79,2.35c1.32.81,2.75,1.55,4.21,2.38,2.88,1.68,6.11,3.22,9.47,4.89A166.67,166.67,0,0,0,194,386c3.72.49,7.25,1,10.59,1.22,1.66.13,3.27.32,4.82.38l4.45.16c2.84.17,5.41,0,7.67,0h3.15l2.64-.16,3.66-.19h1Z"/>
                <path class="cls-8"
                      d="M88.79,152.5c-.05.14-9.55-3.38-21.22-7.86s-21.09-8.22-21-8.35,9.55,3.39,21.23,7.86S88.84,152.37,88.79,152.5Z"/>
                <path class="cls-8"
                      d="M127.79,121.69a2.75,2.75,0,0,1-.2.25l-.63.7c-.54.63-1.42,1.48-2.41,2.71a79.11,79.11,0,0,0-7.75,10.78A94.76,94.76,0,0,0,108.65,154a118.59,118.59,0,0,0-5.2,23.54A115,115,0,0,0,102.7,196v.27h-.26l-31.37-.1L62,196.06H59.58L59,196h3l9.08-.08,31.37-.09-.25.27a114.11,114.11,0,0,1,.73-18.48A117.21,117.21,0,0,1,108.25,154a92.13,92.13,0,0,1,8.29-18,74.19,74.19,0,0,1,7.91-10.73c1-1.21,1.92-2,2.49-2.64l.66-.67C127.7,121.76,127.78,121.68,127.79,121.69Z"/>
                <line class="cls-15" x1="84.92" y1="218.47" x2="123.52" y2="212.45"/>
                <path class="cls-8"
                      d="M150.67,274.56a6.4,6.4,0,0,1-.82,1.06c-.56.66-1.38,1.59-2.42,2.73-2.07,2.28-5,5.36-8.41,8.62s-6.6,6.07-9,8c-1.19,1-2.16,1.77-2.84,2.3a6,6,0,0,1-1.09.78,7.38,7.38,0,0,1,1-.94l2.72-2.42c2.3-2.05,5.46-4.9,8.85-8.15s6.36-6.28,8.5-8.49l2.54-2.62A7.27,7.27,0,0,1,150.67,274.56Z"/>
                <path class="cls-8"
                      d="M142.05,310.35c.12.07-5.66,9.56-12.91,21.19s-13.23,21-13.35,20.93,5.66-9.57,12.91-21.2S141.93,310.27,142.05,310.35Z"/>
                <path class="cls-8"
                      d="M190.36,317.27a8.29,8.29,0,0,1-.51,1.5c-.39,1.05-.91,2.41-1.53,4.05-1.3,3.42-3.07,8.14-4.93,13.39s-3.47,10-4.61,13.51l-1.36,4.11a8.13,8.13,0,0,1-.56,1.49,13.91,13.91,0,0,1,.36-1.55c.27-1,.68-2.41,1.21-4.16,1-3.5,2.6-8.31,4.47-13.57s3.69-10,5.08-13.35c.69-1.7,1.27-3.06,1.69-4A9.31,9.31,0,0,1,190.36,317.27Z"/>
                <path class="cls-8"
                      d="M278.73,359.62a1.63,1.63,0,0,1-.18-.43c-.11-.35-.25-.77-.42-1.27l-1.46-4.71c-1.2-4-2.84-9.48-4.61-15.57S268.71,326,267.59,322c-.53-1.95-1-3.55-1.3-4.75L266,316c0-.15-.06-.3-.08-.46a3.36,3.36,0,0,1,.19.43c.11.29.25.77.42,1.27.37,1.19.86,2.78,1.45,4.71,1.21,4,2.85,9.48,4.62,15.57s3.35,11.61,4.47,15.62c.53,1.94,1,3.54,1.29,4.75l.33,1.3A1.26,1.26,0,0,1,278.73,359.62Z"/>
                <path class="cls-8"
                      d="M288.93,324.79c-.14,0-3.09-7.36-6.59-16.56s-6.24-16.7-6.11-16.75,3.09,7.36,6.59,16.56S289.06,324.74,288.93,324.79Z"/>
                <path class="cls-8"
                      d="M360.83,290.36a9.4,9.4,0,0,1-1.39-.6c-.88-.41-2.14-1-3.67-1.85-3.08-1.61-7.26-4-11.68-6.9A129.57,129.57,0,0,1,333.17,273c-1.35-1.1-2.42-2-3.14-2.66a7.35,7.35,0,0,1-1.09-1,9.77,9.77,0,0,1,1.22.89l3.24,2.52c2.74,2.12,6.57,5,11,7.9s8.54,5.32,11.56,7l3.59,2A7.8,7.8,0,0,1,360.83,290.36Z"/>
                <path class="cls-8"
                      d="M407.31,252.07c0,.14-10.34-2.29-23-5.42s-22.93-5.79-22.89-5.93,10.33,2.29,23,5.42S407.34,251.93,407.31,252.07Z"/>
                <path class="cls-8"
                      d="M395.36,195.34c0,.15-9,.37-20.1.5s-20.11.12-20.12,0,9-.37,20.11-.5S395.36,195.2,395.36,195.34Z"/>
                <path class="cls-8"
                      d="M370.4,168.74c0,.14-19.53.6-43.63,1s-43.64.65-43.64.51,19.53-.6,43.64-1S370.4,168.6,370.4,168.74Z"/>
                <path class="cls-8"
                      d="M405.94,133.9a2.11,2.11,0,0,1-.43.2l-1.27.46-4.66,1.66c-3.94,1.4-9.37,3.36-15.32,5.64s-11.31,4.45-15.17,6l-4.58,1.88-1.25.5a1.69,1.69,0,0,1-.45.14,2.77,2.77,0,0,1,.41-.24l1.21-.58c1.06-.5,2.6-1.2,4.52-2,3.83-1.68,9.16-3.9,15.12-6.19s11.42-4.19,15.39-5.5c2-.65,3.6-1.16,4.72-1.5l1.29-.37A1.58,1.58,0,0,1,405.94,133.9Z"/>
                <path class="cls-8"
                      d="M329.33,95.86c.09.11-5.71,5.37-12.95,11.75s-13.2,11.47-13.29,11.36,5.7-5.37,12.94-11.75S329.23,95.75,329.33,95.86Z"/>
                <path class="cls-8"
                      d="M338.52,40.81c.12.09-5.74,8.51-13.08,18.82s-13.39,18.59-13.51,18.51,5.74-8.51,13.09-18.82S338.4,40.73,338.52,40.81Z"/>
                <path class="cls-8"
                      d="M227.09,53.11a2,2,0,0,1,0-.49c0-.38,0-.84,0-1.4.06-1.3.13-3,.23-5.16.17-4.36.3-10.38.16-17s-.53-12.67-.89-17l-.44-5.14-.12-1.4a2,2,0,0,1,0-.49,1.13,1.13,0,0,1,.11.48c.06.37.12.83.21,1.39.17,1.2.38,3,.61,5.13.45,4.34.9,10.37,1,17s0,12.7-.32,17.06c-.13,2.18-.26,3.94-.39,5.16l-.15,1.4A1.82,1.82,0,0,1,227.09,53.11Z"/>
                <path class="cls-8"
                      d="M177.58,97.57a7.07,7.07,0,0,1-.81-1.06c-.49-.7-1.17-1.72-2-3-1.65-2.56-3.84-6.17-6.09-10.25s-4.12-7.87-5.4-10.64c-.64-1.38-1.15-2.51-1.47-3.3a7.72,7.72,0,0,1-.47-1.24,5.74,5.74,0,0,1,.65,1.16l1.62,3.22c1.37,2.73,3.29,6.47,5.53,10.55s4.38,7.7,6,10.31L177,96.41A6,6,0,0,1,177.58,97.57Z"/>
                <path class="cls-8"
                      d="M297.2,157.11v-1.34c0-.86,0-2.07-.05-3.61,0-3.14-.06-7.62-.11-13.11l.2.2-34.06.06c-.23.24.32-.31.26-.25h0v18l-.25-.25,24.42.12,7.07.07h.1l-7,.06-24.58.12H263V138.94h0c-.06.05.49-.5.26-.27l34.06.07h.2v.19c0,5.54-.08,10.06-.11,13.23,0,1.52,0,2.71-.05,3.57v.92A1.25,1.25,0,0,1,297.2,157.11Z"/>
                <path class="cls-8"
                      d="M291.21,145.38c0,.14-5.29.26-11.82.26s-11.81-.12-11.81-.26,5.29-.26,11.81-.26S291.21,145.24,291.21,145.38Z"/>
                <path class="cls-8"
                      d="M291.21,149.26c0,.14-5.29.26-11.82.26s-11.81-.12-11.81-.26,5.29-.26,11.81-.26S291.21,149.12,291.21,149.26Z"/>
                <path class="cls-8"
                      d="M283.13,156.71a22.68,22.68,0,0,1,.26,4.87,22.62,22.62,0,0,1-.26,4.86,24,24,0,0,1-.26-4.86A24,24,0,0,1,283.13,156.71Z"/>
                <path class="cls-8"
                      d="M421.53,236v-1.34c0-.86,0-2.07,0-3.61,0-3.14-.06-7.61-.1-13.11l.19.2-34,.06c-.24.24.31-.31.26-.25h0v18l-.24-.25,24.41.12,7.07.07h2.57c-.2,0-.4,0-.61,0h-1.85l-7,.06-24.58.12h-.25V218h0c-.06,0,.49-.5.26-.27l34,.07h.2v.2c0,5.55-.08,10.06-.11,13.23v4.49A.81.81,0,0,1,421.53,236Z"/>
                <path class="cls-8"
                      d="M415.54,224.27c0,.14-5.29.26-11.81.26s-11.82-.12-11.82-.26,5.29-.26,11.82-.26S415.54,224.13,415.54,224.27Z"/>
                <path class="cls-8"
                      d="M415.54,228.15c0,.15-5.29.26-11.81.26s-11.82-.11-11.82-.26,5.29-.26,11.82-.26S415.54,228,415.54,228.15Z"/>
                <rect class="cls-13" x="395.12" y="66.36" width="34.06" height="18.01"/>
                <path class="cls-8"
                      d="M429.17,84.37V83c0-.87,0-2.08-.05-3.61,0-3.15-.06-7.62-.1-13.11l.19.19-34,.07c-.24.23.31-.32.26-.26h0v18l-.24-.24,24.41.12,7.07.06h2.57c-.2,0-.4,0-.61,0h-1.85l-7,.07-24.58.12h-.25V66.37h0l.26-.26,34.05.06h.2v.2c0,5.54-.08,10-.1,13.23v4.48A.88.88,0,0,1,429.17,84.37Z"/>
                <path class="cls-8"
                      d="M423.19,72.65c0,.14-5.3.26-11.82.26s-11.82-.12-11.82-.26,5.29-.26,11.82-.26S423.19,72.5,423.19,72.65Z"/>
                <path class="cls-8"
                      d="M423.19,76.53c0,.14-5.3.26-11.82.26s-11.82-.12-11.82-.26,5.29-.26,11.82-.26S423.19,76.38,423.19,76.53Z"/>
                <path class="cls-8"
                      d="M405.77,84.29c.15,0,.26,10.64.26,23.75s-.11,23.76-.26,23.76-.26-10.64-.26-23.76S405.63,84.29,405.77,84.29Z"/>
                <path class="cls-8"
                      d="M34.28,131a1.93,1.93,0,0,1,0-.34v-4.57c0-3.14-.06-7.61-.1-13.1l.2.19-34.06.07L.58,113h0v18l-.24-.24,24.41.12,7.07.06h.11l-7,.07-24.58.12H0V113H0c-.06,0,.49-.5.26-.26l34.06.06h.19v.2c0,5.54-.08,10-.1,13.23v4.48C34.41,131,34.28,131,34.28,131Z"/>
                <path class="cls-8"
                      d="M28.29,119.25c0,.15-5.29.26-11.82.26s-11.81-.11-11.81-.26S9.94,119,16.47,119,28.29,119.11,28.29,119.25Z"/>
                <path class="cls-8"
                      d="M28.29,123.14c0,.14-5.29.26-11.82.26s-11.81-.12-11.81-.26,5.28-.26,11.81-.26S28.29,123,28.29,123.14Z"/>
                <rect class="cls-13" x="61.47" y="321.46" width="34.06" height="18.01"/>
                <path class="cls-8"
                      d="M95.53,339.47a1.93,1.93,0,0,1,0-.34v-4.57c0-3.14-.06-7.61-.11-13.1l.2.19-34.06.07.26-.26h0v18l-.24-.24,24.42.12,7.06.06h2.58c-.2,0-.41,0-.62,0H93.17l-7,.07-24.58.12h-.24V321.34h0l.26-.26,34.06.06h.2v.2c0,5.54-.08,10.05-.1,13.22,0,1.52,0,2.72,0,3.58v.91A1.33,1.33,0,0,1,95.53,339.47Z"/>
                <path class="cls-8"
                      d="M89.54,327.74c0,.15-5.29.26-11.82.26s-11.81-.11-11.81-.26,5.29-.26,11.81-.26S89.54,327.6,89.54,327.74Z"/>
                <path class="cls-8"
                      d="M89.54,331.63c0,.14-5.29.26-11.82.26s-11.81-.12-11.81-.26,5.29-.26,11.81-.26S89.54,331.48,89.54,331.63Z"/>
                <path class="cls-8"
                      d="M299.17,20.2V18.86c0-.87,0-2.08-.05-3.61,0-3.15-.06-7.62-.1-13.11l.19.2-34,.06c-.24.23.31-.32.25-.26h0v18l-.25-.25,24.42.12,7.07.07h.11l-7,.07-24.58.12h-.24V2.2h0c-.05.06.5-.49.27-.26L299.26,2h.2v.19c0,5.54-.08,10.06-.11,13.23,0,1.52,0,2.71-.05,3.57v.92A.84.84,0,0,1,299.17,20.2Z"/>
                <path class="cls-8"
                      d="M293.18,8.47c0,.14-5.29.26-11.81.26s-11.82-.12-11.82-.26,5.29-.26,11.82-.26S293.18,8.32,293.18,8.47Z"/>
                <path class="cls-8"
                      d="M293.18,12.35c0,.14-5.29.26-11.81.26s-11.82-.12-11.82-.26,5.29-.26,11.82-.26S293.18,12.21,293.18,12.35Z"/>
                <path class="cls-8"
                      d="M42.24,135a5,5,0,0,1-1.17.11l-3.19.08c-2.7,0-6.42.07-10.53.07-4.31,0-8.19,0-10.88-.08h-.18V135c0-1.16.06-2.15.08-2.95a5.46,5.46,0,0,1,.1-1.07,3.51,3.51,0,0,1,.1,1.07c0,.8,0,1.79.08,2.95l-.18-.17c2.69-.05,6.57-.09,10.88-.09,4.11,0,7.83,0,10.53.08l3.19.08A5.66,5.66,0,0,1,42.24,135Z"/>
                <path class="cls-8"
                      d="M267.65,75.65a2.64,2.64,0,0,1,.14-.57c.12-.41.28-.94.48-1.58l1.78-5.82c1.47-4.91,3.38-11.75,5.12-19.38.84-3.68,1.57-7.21,2.19-10.43h0c-.1-5.15-.19-9.56-.25-12.76V21.45a8.08,8.08,0,0,1,.05-1.3,8.05,8.05,0,0,1,.11,1.3c0,.92.1,2.14.16,3.65.11,3.2.26,7.61.44,12.76h0c-.59,3.23-1.31,6.77-2.15,10.45C274,56,272,62.8,270.44,67.69c-.78,2.45-1.46,4.42-1.94,5.77L267.93,75A2.21,2.21,0,0,1,267.65,75.65Z"/>
                <path class="cls-8"
                      d="M126.13,331.63c0,.14-6.46.26-14.42.26s-14.43-.12-14.43-.26,6.46-.26,14.43-.26S126.13,331.48,126.13,331.63Z"/>
            </g>
            <g id="freepik--Plant--inject-183">
                <path class="cls-8"
                      d="M416.87,372.63c.86-3,2.7-5.86,5.54-7.09s6.4-.55,9.43.55,6,2.58,9.23,2.78,6.85-1.33,7.81-4.41c.91-2.89-.83-6-3-8.08a19.1,19.1,0,0,0-31.26,7.5"/>
                <g class="cls-16">
                    <path d="M416.87,372.63c.86-3,2.7-5.86,5.54-7.09s6.4-.55,9.43.55,6,2.58,9.23,2.78,6.85-1.33,7.81-4.41c.91-2.89-.83-6-3-8.08a19.1,19.1,0,0,0-31.26,7.5"/>
                </g>
                <path class="cls-8"
                      d="M391.36,385.56c-4.72-4.49-4.49-12.3-2.13-18.37s7.5-10.74,13.24-13.81A42,42,0,0,1,439,352.19a17.39,17.39,0,0,0-14,8.24c-2.58,4.3-3.16,9.51-5.3,14.05a22.13,22.13,0,0,1-28.33,11.08"/>
                <path class="cls-8"
                      d="M389.09,358.6c-5.23-6.17-5.93-16.08-5.16-24.13s2.64-16.16,1.37-24.15c-.75-4.73-2.59-9.25-3.21-14s.26-10.12,3.94-13.19c4.23-3.53,10.9-2.7,15.3.61s7,8.52,8.82,13.7c4.1,11.39,5.6,24,2.24,35.64s-11.26,22-22.85,25.53"/>
                <path class="cls-4"
                      d="M386.58,409.25a4.21,4.21,0,0,1,0-.71v-2c.06-1.77.24-4.33.63-7.48a104.31,104.31,0,0,1,2-10.95,50.69,50.69,0,0,1,5-12.67,52.71,52.71,0,0,1,16.72-18c1.31-.91,2.57-1.59,3.66-2.23s2.09-1.06,2.88-1.45l1.89-.79a5.92,5.92,0,0,1,.66-.25,3.13,3.13,0,0,1-.63.33l-1.84.86c-.79.41-1.75.91-2.84,1.51a38.76,38.76,0,0,0-3.61,2.27,54,54,0,0,0-16.52,18c-4.8,8.41-6.12,17.25-7.08,23.45-.43,3.13-.65,5.68-.76,7.45l-.12,2A3.66,3.66,0,0,1,386.58,409.25Z"/>
                <path class="cls-8"
                      d="M341.47,334.25c-9.67,5.84-9.64,11.15-8,16.17S341,358.92,346,357c2.78-1.06,4.8-3.48,6.52-5.91s3.34-5,5.75-6.78,5.92-2.41,8.34-.68"/>
                <g class="cls-16">
                    <path d="M341.47,334.25c-9.67,5.84-9.64,11.15-8,16.17S341,358.92,346,357c2.78-1.06,4.8-3.48,6.52-5.91s3.34-5,5.75-6.78,5.92-2.41,8.34-.68"/>
                </g>
                <path class="cls-8"
                      d="M334.23,340.65c2.53-3.49,8.78-4.51,12.73-2.76s6.83,5.2,9.42,8.65,5.11,7.1,8.69,9.51,8.59,3.27,12.16.85a10.43,10.43,0,0,0,4.14-7.16,23.93,23.93,0,0,0-.57-8.43c-.86-4.06-2.25-8.3-5.5-10.88-3.62-2.87-8.64-3-13.26-2.85-5.3.17-10.68.57-15.65,2.4s-10.05,5.81-12.16,10.67"/>
                <path class="cls-4"
                      d="M378.54,401.5a.74.74,0,0,1,0-.21v-.62c0-.59-.05-1.39-.09-2.41-.06-2.12-.14-5.13-.25-8.83s-.27-8.16-.54-13.09-.64-10.33-1.38-16a50,50,0,0,0-1.61-8.11,42.72,42.72,0,0,0-6.7-13,36.9,36.9,0,0,0-4.09-4.48,29.65,29.65,0,0,0-7.24-4.94c-.47-.21-.88-.43-1.25-.58l-.95-.36-.58-.24c-.13-.05-.19-.08-.19-.09l.2,0,.6.19,1,.33c.38.14.8.34,1.28.55a28.61,28.61,0,0,1,7.38,4.86,38.36,38.36,0,0,1,4.16,4.49,40.62,40.62,0,0,1,3.71,6,41.12,41.12,0,0,1,3,7.15,49.54,49.54,0,0,1,1.62,8.18c.75,5.65,1.11,11.07,1.36,16s.37,9.37.45,13.1.1,6.75.11,8.84v3.23Z"/>
                <path class="cls-4"
                      d="M382,405.87a28.05,28.05,0,0,1-1.06-4.15,43.46,43.46,0,0,1-.44-11.67,77.85,77.85,0,0,1,3.68-16.94c2-6.23,4.68-12.88,7-20a89.72,89.72,0,0,0,2.77-10.6,90.62,90.62,0,0,0,1.38-10.11,149.06,149.06,0,0,0,.31-17.3c-.17-4.93-.43-8.91-.6-11.67-.08-1.35-.14-2.42-.18-3.17v-.83a1.31,1.31,0,0,1,0-.28,1.31,1.31,0,0,1,0,.28c0,.21.05.48.08.82.07.76.16,1.82.27,3.17.22,2.75.52,6.73.73,11.67a139.35,139.35,0,0,1-.22,17.34,86.3,86.3,0,0,1-4.13,20.81c-2.31,7.18-5,13.83-7,20a79.66,79.66,0,0,0-3.76,16.84,45.21,45.21,0,0,0,.3,11.62c.24,1.35.46,2.4.65,3.1l.2.81A.76.76,0,0,1,382,405.87Z"/>
                <polygon class="cls-7" points="406.01 410.25 360.57 410.25 359.55 401.5 406.01 401.5 406.01 410.25"/>
                <polygon class="cls-7" points="365.45 409.25 371.13 435.48 395.82 435.48 401.13 409.25 365.45 409.25"/>
                <path class="cls-7"
                      d="M406,410.25c0,.12-10,.18-22.31.15s-22.31-.16-22.31-.28,10-.19,22.31-.15S406,410.13,406,410.25Z"/>
                <path class="cls-4"
                      d="M398.21,423.19a18.85,18.85,0,0,0-4-2.29,14.49,14.49,0,0,0-4.87-1,17.09,17.09,0,0,0-6,1.1c-2.07.7-4,1.52-5.89,2a14.5,14.5,0,0,1-5.09.15,10.51,10.51,0,0,1-3.27-1,5.42,5.42,0,0,1-.78-.5c-.18-.13-.26-.2-.25-.21s.39.22,1.11.56a11.91,11.91,0,0,0,3.24.89,14.44,14.44,0,0,0,4.95-.24c1.82-.46,3.76-1.28,5.84-2a16.89,16.89,0,0,1,6.13-1.08,13.4,13.4,0,0,1,5,1.09,12.91,12.91,0,0,1,3,1.72,6.91,6.91,0,0,1,.71.61C398.14,423.1,398.22,423.18,398.21,423.19Z"/>
                <path class="cls-13"
                      d="M397.86,425a18.75,18.75,0,0,0-3.84-2.27,13,13,0,0,0-4.69-1,16.84,16.84,0,0,0-5.79,1c-2,.67-3.88,1.44-5.67,1.93a14.4,14.4,0,0,1-4.89.54,8.24,8.24,0,0,1-3.21-.85,6.14,6.14,0,0,1-.76-.49c-.16-.12-.25-.19-.24-.2s.38.21,1.08.53a8.81,8.81,0,0,0,3.15.71,14.74,14.74,0,0,0,4.76-.63c1.76-.49,3.62-1.28,5.65-1.95a16.65,16.65,0,0,1,5.93-1,13,13,0,0,1,4.8,1.08,12.44,12.44,0,0,1,2.84,1.72,6.28,6.28,0,0,1,.67.59C397.81,424.85,397.88,425,397.86,425Z"/>
                <path class="cls-13"
                      d="M398.66,421.45a22.29,22.29,0,0,0-4.11-2.42,15.07,15.07,0,0,0-5-1.2,16.3,16.3,0,0,0-6.17,1.09,55.59,55.59,0,0,1-6.09,2,15.48,15.48,0,0,1-5.26,0,11.58,11.58,0,0,1-3.38-1.07,6.79,6.79,0,0,1-.81-.5c-.18-.14-.27-.21-.26-.22s.4.23,1.15.57a12.63,12.63,0,0,0,3.35.92,15.77,15.77,0,0,0,5.13-.1,59.43,59.43,0,0,0,6-2,16.16,16.16,0,0,1,6.34-1.07,15.06,15.06,0,0,1,8.11,3.14,5.5,5.5,0,0,1,.73.63C398.59,421.36,398.67,421.44,398.66,421.45Z"/>
                <path class="cls-4"
                      d="M406.41,410.28c0,.12-10.22.22-22.83.22s-22.82-.1-22.82-.22,10.22-.21,22.82-.21S406.41,410.16,406.41,410.28Z"/>
            </g>
        </g>
    </g>
</svg>