<!--
  - Created by Anup Shrestha (anup.stha012@gmail.com)
  - Copyright (c) 2022.  All rights reserved.
  - Last modified 4/28/22, 1:27 PM
  -
  -->

<svg xmlns="http://www.w3.org/2000/svg" viewBox="0 0 428.64 423.3">
    <defs>
        <style>
            .cls-1{fill:#ebebeb;}.cls-2{fill:#dbdbdb;}.cls-3{fill:#c7c7c7;}.cls-12,.cls-4{fill:#263238;}.cls-5{fill:#70a680;}.cls-6{fill:#a6a6a6;}.cls-7{fill:#455a64;}.cls-8{fill:#fff;}.cls-12,.cls-9{isolation:isolate;}.cls-9{opacity:0.1;}.cls-10{fill:#37474f;}.cls-11{fill:#f7a9a0;}.cls-12{opacity:0.3;}.cls-13{fill:#d3766a;}.cls-14{fill:#ff9cbd;}
        </style>
    </defs>
    <g id="Layer_2" data-name="Layer 2">
        <g id="Layer_1-2" data-name="Layer 1">
            <g id="freepik--background-complete--inject-29">
                <path class="cls-1" d="M197.07,299.06a35.75,35.75,0,1,1-35.35-41V293.8Z"/>
                <path class="cls-2"
                      d="M204.74,286.54a35.34,35.34,0,0,1-.39,5.24L169,286.54V250.8a35.71,35.71,0,0,1,35.74,35.68Z"/>
                <path class="cls-1" d="M386.09,82.26v29.47L367,134.14a29.47,29.47,0,0,1,19.12-51.88Z"/>
                <path class="cls-1"
                      d="M421.56,114.73A29.47,29.47,0,0,1,373,137.14l19.12-22.41V85.26a29.46,29.46,0,0,1,29.47,29.43Z"/>
                <path class="cls-2"
                      d="M421.56,114.73A29.47,29.47,0,0,1,373,137.14l19.12-22.41V85.26a29.46,29.46,0,0,1,29.47,29.43Z"/>
                <rect class="cls-3" x="372.47" y="59.35" width="1" height="38.01"/>
                <path class="cls-3"
                      d="M373,59.85a3.17,3.17,0,1,1,3.16-3.18v0A3.18,3.18,0,0,1,373,59.85Zm0-5.33a2.17,2.17,0,1,0,2.16,2.18h0A2.18,2.18,0,0,0,373,54.52Z"/>
                <rect class="cls-3" x="381.04" y="54.02" width="29.53" height="1.33"/>
                <rect class="cls-3" x="381.04" y="56.69" width="16.71" height="1.33"/>
                <rect class="cls-3" x="179.85" y="313.12" width="38.01" height="1"/>
                <path class="cls-3"
                      d="M220.53,316.78a3.17,3.17,0,1,1,3.16-3.18v0A3.18,3.18,0,0,1,220.53,316.78Zm0-5.33a2.17,2.17,0,1,0,2.16,2.18h0A2.18,2.18,0,0,0,220.53,311.45Z"/>
                <rect class="cls-3" x="230.19" y="311.62" width="29.53" height="1.33"/>
                <rect class="cls-3" x="230.19" y="314.28" width="16.71" height="1.33"/>
            </g>
            <g id="freepik--Shadow--inject-29">
                <ellipse class="cls-1" cx="214.32" cy="402.73" rx="214.32" ry="20.57"/>
            </g>
            <g id="freepik--Floor--inject-29">
                <polygon class="cls-4"
                         points="1.75 359.43 54.9 359.18 108.04 359.1 214.32 358.93 320.6 359.1 373.74 359.18 426.89 359.43 373.74 359.67 320.6 359.76 214.32 359.93 108.04 359.76 54.9 359.67 1.75 359.43"/>
            </g>
            <g id="freepik--Board--inject-29">
                <rect class="cls-1" x="81.49" y="7.8" width="265.65" height="196.02"/>
                <rect class="cls-4" x="349.07" y="7.26" width="1" height="140.3"/>
                <polygon class="cls-4" points="351.37 152.28 347.77 152.28 348.67 147.11 350.47 147.11 351.37 152.28"/>
                <rect class="cls-4" x="352.72" y="7.26" width="1" height="113.57"/>
                <polygon class="cls-4" points="355.02 124.63 351.42 124.63 352.33 119.46 354.12 119.46 355.02 124.63"/>
                <rect class="cls-3" x="71.77" width="285.11" height="14.53"/>
                <rect class="cls-3" x="159.68" y="32.96" width="109.29" height="2.42"/>
                <rect class="cls-3" x="178.36" y="38.02" width="71.91" height="2.42"/>
                <path class="cls-4" d="M247.05,91.67A17.39,17.39,0,1,1,238.67,59V76.43Z"/>
                <path class="cls-5" d="M249,62.4l-10.31,14V59A17.24,17.24,0,0,1,249,62.4Z"/>
                <path class="cls-6"
                      d="M256.06,76.4a17.26,17.26,0,0,1-4.61,11.78L238.67,76.4,249,62.4A17.32,17.32,0,0,1,256.06,76.4Z"/>
                <path class="cls-7" d="M257.7,96.25a17.32,17.32,0,0,1-4.38,3.42L245,84.43Z"/>
                <path class="cls-6" d="M191.74,59.67,187,76.4V93.79a17.39,17.39,0,1,1,4.77-34.12Z"/>
                <path class="cls-4" d="M197.26,90.4A17.25,17.25,0,0,1,187,93.79V76.4Z"/>
                <path class="cls-7"
                      d="M204.32,76.4a17.33,17.33,0,0,1-7.09,14l-10.29-14,13.52-10.93A17.26,17.26,0,0,1,204.32,76.4Z"/>
                <path class="cls-5" d="M204.32,59.84,190.83,70.77,195.61,54A17.38,17.38,0,0,1,204.32,59.84Z"/>
                <path class="cls-7" d="M135.26,59V76.4L123.55,89.25A17.39,17.39,0,0,1,135.26,59Z"/>
                <path class="cls-5" d="M147.71,64.26,135.26,76.4V59A17.33,17.33,0,0,1,147.71,64.26Z"/>
                <path class="cls-6"
                      d="M152.65,76.4a17.3,17.3,0,0,1-6.41,13.47l-11-13.47,12.45-12.14A17.33,17.33,0,0,1,152.65,76.4Z"/>
                <path class="cls-4" d="M146.24,94.43a17.39,17.39,0,0,1-22.69-.62L135.26,81Z"/>
                <path class="cls-5" d="M290.38,59V93.79a17.39,17.39,0,1,1,0-34.78Z"/>
                <path class="cls-4" d="M294.77,59.57,290.38,76.4V59A17.56,17.56,0,0,1,294.77,59.57Z"/>
                <path class="cls-7"
                      d="M310.77,75.4a17.37,17.37,0,0,1-1.21,6.37L293.38,75.4l4.39-16.83A17.4,17.4,0,0,1,310.77,75.4Z"/>
                <path class="cls-6" d="M306.56,82.77a17.4,17.4,0,0,1-16.18,11V76.4Z"/>
                <rect class="cls-3" x="127.24" y="104.01" width="20.3" height="1.95"/>
                <rect class="cls-3" x="127.24" y="108.08" width="13.47" height="1.95"/>
                <rect class="cls-7" x="117.87" y="103.99" width="6.08" height="6.08"/>
                <rect class="cls-3" x="178.95" y="104.01" width="20.3" height="1.95"/>
                <rect class="cls-3" x="178.95" y="108.08" width="13.47" height="1.95"/>
                <rect class="cls-6" x="169.58" y="103.99" width="6.08" height="6.08"/>
                <rect class="cls-3" x="230.66" y="104.01" width="20.3" height="1.95"/>
                <rect class="cls-3" x="230.66" y="108.08" width="13.47" height="1.95"/>
                <rect class="cls-4" x="221.29" y="103.99" width="6.08" height="6.08"/>
                <rect class="cls-3" x="282.37" y="104.01" width="20.3" height="1.95"/>
                <rect class="cls-3" x="282.37" y="108.08" width="13.47" height="1.95"/>
                <rect class="cls-5" x="273" y="103.99" width="6.08" height="6.08"/>
                <path class="cls-3" d="M116.53,128.44l47-.12c15.66,0,31.33,0,47,.12-15.66.11-31.33.08-47,.13Z"/>
                <path class="cls-3" d="M116.53,132.27l47-.12c15.66,0,31.33,0,47,.12-15.66.11-31.33.09-47,.13Z"/>
                <path class="cls-3" d="M116.53,136.11l47-.13c15.66.05,31.33,0,47,.13-15.66.1-31.33.08-47,.12Z"/>
                <path class="cls-3" d="M116.53,139.94l47-.13c15.66.05,31.33,0,47,.13-15.66.11-31.33.08-47,.12Z"/>
                <path class="cls-3" d="M116.53,143.77l47-.12c15.66,0,31.33,0,47,.12-15.66.11-31.33.08-47,.13Z"/>
                <path class="cls-3" d="M116.53,147.6l47-.12c15.66,0,31.33,0,47,.12-15.66.11-31.33.09-47,.13Z"/>
                <path class="cls-3" d="M116.53,151.44l47-.13c15.66.05,31.33,0,47,.13-15.66.1-31.33.08-47,.12Z"/>
                <path class="cls-3" d="M116.53,155.27l47-.13c15.66.05,31.33,0,47,.13-15.66.11-31.33.08-47,.12Z"/>
                <path class="cls-3" d="M116.53,159.1l47-.12c15.66,0,31.33,0,47,.12-15.66.11-31.33.08-47,.13Z"/>
                <path class="cls-3" d="M116.53,162.93l47-.12c15.66,0,31.33,0,47,.12-15.66.11-31.33.09-47,.13Z"/>
                <path class="cls-3" d="M116.53,166.77l47-.13c15.66.05,31.33,0,47,.13-15.66.1-31.33.08-47,.12Z"/>
                <path class="cls-3" d="M116.53,170.6l47-.13c15.66,0,31.33,0,47,.13-15.66.11-31.33.08-47,.12Z"/>
                <path class="cls-3" d="M116.53,174.43l47-.12c15.66,0,31.33,0,47,.12-15.66.11-31.33.08-47,.13Z"/>
                <path class="cls-3" d="M116.53,178.26l47-.12c15.66,0,31.33,0,47,.12-15.66.11-31.33.09-47,.13Z"/>
                <path class="cls-3" d="M116.53,182.1l47-.13c15.66,0,31.33,0,47,.13-15.66.1-31.33.08-47,.12Z"/>
                <rect class="cls-5" x="126.47" y="155.27" width="7.13" height="31.3"/>
                <rect class="cls-7" x="139.69" y="142.03" width="7.13" height="44.53"/>
                <rect class="cls-6" x="152.91" y="151.57" width="7.13" height="35"/>
                <rect class="cls-5" x="166.13" y="139.94" width="7.13" height="46.63"/>
                <rect class="cls-7" x="179.35" y="146.19" width="7.13" height="40.37"/>
                <rect class="cls-6" x="192.57" y="169.07" width="7.13" height="17.5"/>
                <path class="cls-3"
                      d="M119.08,125.75l.19,15.21.14,15.2c.09,10.13.11,20.27.13,30.4l-.46-.46h22.86l22.86.06,22.85.15,22.86.28-22.86.27L164.8,187l-22.86.06H118.61v-.47q0-15.19.13-30.4l.13-15.2Z"/>
                <rect class="cls-3" x="126.47" y="189.78" width="7.13" height="0.64"/>
                <rect class="cls-3" x="139.69" y="189.78" width="7.13" height="0.64"/>
                <rect class="cls-3" x="152.91" y="189.78" width="7.13" height="0.64"/>
                <rect class="cls-3" x="166.13" y="189.78" width="7.13" height="0.64"/>
                <rect class="cls-3" x="179.35" y="189.78" width="7.13" height="0.64"/>
                <rect class="cls-3" x="192.57" y="189.78" width="7.13" height="0.64"/>
                <rect class="cls-8" x="231.75" y="142.58" width="78.45" height="8.52"/>
                <rect class="cls-7" x="234.59" y="145" width="34.49" height="3.69"/>
                <path class="cls-4"
                      d="M220.76,147.11a1,1,0,0,1-2,.11h0V147a2.64,2.64,0,0,1,.14-.84,1.48,1.48,0,0,1,.53-.7,1.19,1.19,0,0,1,.61-.19.23.23,0,0,1,.24.22h0a.24.24,0,0,1-.22.24.71.71,0,0,0-.64.4l-.06.1a1.1,1.1,0,0,1,.4-.08A1,1,0,0,1,220.76,147.11Zm-.45,0a.54.54,0,0,0-1.08,0h0a.54.54,0,0,0,1.08,0Z"/>
                <path class="cls-4"
                      d="M221.4,146.67a1.78,1.78,0,0,1,.28-1,.87.87,0,0,1,1.18-.34.92.92,0,0,1,.34.34,1.7,1.7,0,0,1,.27,1,1.77,1.77,0,0,1-.27,1A.87.87,0,0,1,222,148a.92.92,0,0,1-.34-.34A1.78,1.78,0,0,1,221.4,146.67Zm1.62,0a1.26,1.26,0,0,0-.2-.73.51.51,0,0,0-.38-.25.52.52,0,0,0-.39.25,1.5,1.5,0,0,0,0,1.46.52.52,0,0,0,.39.25.51.51,0,0,0,.38-.25,1.34,1.34,0,0,0,.2-.73Z"/>
                <path class="cls-4"
                      d="M224.32,145.94h0a.68.68,0,1,1,1.35-.16.43.43,0,0,1,0,.16h0a.69.69,0,0,1-.65.73h0a.67.67,0,0,1-.67-.69Zm1,0h0a.39.39,0,0,0-.32-.42c-.19,0-.31.19-.31.41h0c0,.23.13.41.32.41s.25-.17.25-.4Zm-.52,1.92,1.88-2.57a.15.15,0,0,1,.14-.07.16.16,0,0,1,.16.16h0a.17.17,0,0,1,0,.1l-1.88,2.57a.18.18,0,0,1-.15.07.16.16,0,0,1-.16-.16h0a.19.19,0,0,1,0-.1Zm1.26-.45h0a.69.69,0,0,1,.65-.73h0a.67.67,0,0,1,.67.69v0h0a.68.68,0,1,1-1.35.16A.43.43,0,0,1,226.06,147.41Zm1,0h0c0-.23-.13-.41-.32-.41s-.3.18-.3.41h0c0,.24.13.42.31.42s.24-.16.24-.42Z"/>
                <rect class="cls-8" x="231.75" y="130.07" width="78.45" height="8.52"/>
                <rect class="cls-5" x="234.59" y="132.49" width="17.01" height="3.69"/>
                <path class="cls-4"
                      d="M220.32,133.85a1,1,0,0,1,0,1.41l0,0a1,1,0,0,1-.72.3,1,1,0,0,1-.71-.3.24.24,0,0,1,0-.33.22.22,0,0,1,.31,0h0a.56.56,0,0,0,.95-.39.48.48,0,0,0-.16-.39.55.55,0,0,0-.39-.16.21.21,0,0,1-.17-.08h0a.24.24,0,0,1,0-.33h0l.42-.43h-.67a.23.23,0,1,1,0-.46h1.21a.23.23,0,0,1,.23.23h0a.21.21,0,0,1,0,.11v.06l-.51.53A1,1,0,0,1,220.32,133.85Z"/>
                <path class="cls-4"
                      d="M221.32,134.16a1.78,1.78,0,0,1,.28-1,.86.86,0,0,1,1.16-.36.89.89,0,0,1,.36.36,1.77,1.77,0,0,1,.27,1,1.86,1.86,0,0,1-.27,1,.87.87,0,0,1-1.18.34.92.92,0,0,1-.34-.34A1.78,1.78,0,0,1,221.32,134.16Zm1.62,0a1.26,1.26,0,0,0-.2-.73c-.12-.17-.25-.26-.38-.25a.5.5,0,0,0-.39.25,1.48,1.48,0,0,0,0,1.45.47.47,0,0,0,.39.26.48.48,0,0,0,.38-.26,1.29,1.29,0,0,0,.15-.72Z"/>
                <path class="cls-4"
                      d="M224.14,133.43h0a.68.68,0,1,1,1.35-.16.43.43,0,0,1,0,.16h0a.69.69,0,0,1-.65.73h0a.67.67,0,0,1-.67-.69Zm1,0h0c0-.23-.13-.42-.31-.42s-.31.19-.31.41h0c0,.23.13.41.32.41s.28-.16.28-.4Zm-.51,1.92,1.88-2.57a.16.16,0,0,1,.14-.08.16.16,0,0,1,.16.16h0a.21.21,0,0,1,0,.11l-1.88,2.57a.15.15,0,0,1-.14.07.16.16,0,0,1-.16-.16h0a.12.12,0,0,1,0-.1Zm1.26-.45h0a.68.68,0,1,1,1.35-.16.43.43,0,0,1,0,.16h0a.68.68,0,1,1-1.35.16A.43.43,0,0,1,225.89,134.9Zm1,0h0c0-.23-.13-.42-.32-.42s-.31.19-.31.41h0a.39.39,0,0,0,.32.42c.16,0,.28-.19.28-.41Z"/>
                <rect class="cls-8" x="231.75" y="180.12" width="78.45" height="8.52"/>
                <rect class="cls-5" x="234.59" y="182.54" width="58.86" height="3.69"/>
                <path class="cls-4"
                      d="M218.78,183.76a1,1,0,0,1,2-.1h0v.23a2.39,2.39,0,0,1-.14.84,1.42,1.42,0,0,1-.53.7,1.2,1.2,0,0,1-.61.2.23.23,0,1,1,0-.46.71.71,0,0,0,.64-.4.37.37,0,0,0,.05-.11.86.86,0,0,1-.39.09,1,1,0,0,1-1-1Zm.45,0a.54.54,0,1,0,.54-.54A.54.54,0,0,0,219.23,183.76Z"/>
                <path class="cls-4"
                      d="M221.4,184.21a1.78,1.78,0,0,1,.28-1,.86.86,0,0,1,1.16-.36.89.89,0,0,1,.36.36,1.7,1.7,0,0,1,.27,1,1.77,1.77,0,0,1-.27,1,.87.87,0,0,1-1.18.34.92.92,0,0,1-.34-.34A1.87,1.87,0,0,1,221.4,184.21Zm1.62,0a1.26,1.26,0,0,0-.2-.73c-.12-.17-.25-.26-.38-.25a.55.55,0,0,0-.39.25,1.5,1.5,0,0,0,0,1.45.53.53,0,0,0,.39.26.48.48,0,0,0,.38-.26,1.23,1.23,0,0,0,.2-.72Z"/>
                <path class="cls-4"
                      d="M224.32,183.48h0a.68.68,0,1,1,1.35-.16.43.43,0,0,1,0,.16h0a.68.68,0,1,1-1.35.16A.43.43,0,0,1,224.32,183.48Zm1,0h0a.38.38,0,0,0-.32-.41c-.19,0-.31.18-.31.41h0c0,.24.13.42.32.42s.25-.23.25-.42Zm-.52,1.91,1.88-2.56a.16.16,0,0,1,.14-.08.16.16,0,0,1,.16.16h0a.21.21,0,0,1,0,.11l-1.88,2.57a.18.18,0,0,1-.15.07.16.16,0,0,1-.16-.16h0a.22.22,0,0,1,0-.11Zm1.26-.44h0a.69.69,0,0,1,.65-.73h0a.67.67,0,0,1,.67.69v0h0a.68.68,0,1,1-1.35.16.43.43,0,0,1,0-.16Zm1,0h0c0-.23-.13-.42-.32-.42s-.3.19-.3.41h0c0,.23.13.42.31.42s.24-.19.24-.41Z"/>
                <rect class="cls-8" x="231.75" y="167.61" width="78.45" height="8.52"/>
                <rect class="cls-7" x="234.59" y="170.02" width="52.9" height="3.69"/>
                <path class="cls-4"
                      d="M220.69,172.15a1,1,0,1,1-1.56-.81.68.68,0,1,1,1.08,0A1,1,0,0,1,220.69,172.15Zm-.45,0a.53.53,0,1,0-.53.53h0A.53.53,0,0,0,220.24,172.15Zm-.76-1.22a.23.23,0,1,0,.24-.22h0A.24.24,0,0,0,219.48,170.93Z"/>
                <path class="cls-4"
                      d="M221.32,171.67a1.87,1.87,0,0,1,.28-1,.87.87,0,0,1,1.18-.34.92.92,0,0,1,.34.34,1.93,1.93,0,0,1,0,2A.86.86,0,0,1,222,173a.89.89,0,0,1-.36-.36A1.78,1.78,0,0,1,221.32,171.67Zm1.62,0a1.34,1.34,0,0,0-.2-.73.48.48,0,0,0-.38-.25.52.52,0,0,0-.39.25,1.5,1.5,0,0,0,0,1.46.52.52,0,0,0,.39.25.48.48,0,0,0,.38-.25,1.29,1.29,0,0,0,.23-.73Z"/>
                <path class="cls-4"
                      d="M224.22,171h0a.68.68,0,1,1,1.35-.16.43.43,0,0,1,0,.16h0a.68.68,0,1,1-1.35.16A.43.43,0,0,1,224.22,171Zm1,0h0c0-.23-.13-.42-.32-.42s-.31.19-.31.41h0c0,.23.13.42.32.42s.3-.19.3-.41Zm-.52,1.91,1.88-2.57a.15.15,0,0,1,.14-.07.16.16,0,0,1,.16.16h0a.21.21,0,0,1,0,.11L225,173.07a.18.18,0,0,1-.15.08.16.16,0,0,1-.16-.16h0a.21.21,0,0,1,0-.11Zm1.26-.45h0a.7.7,0,0,1,.66-.74h0a.67.67,0,0,1,.67.69v0h0a.69.69,0,0,1-.65.73h0a.67.67,0,0,1-.68-.68v0Zm1,0h0c0-.23-.13-.42-.32-.42s-.3.19-.3.41h0c0,.23.13.41.31.41s.29-.16.29-.4Z"/>
                <rect class="cls-8" x="231.75" y="155.09" width="78.45" height="8.52"/>
                <rect class="cls-5" x="234.59" y="157.51" width="44.9" height="3.69"/>
                <path class="cls-4"
                      d="M220.61,158.06l-1,2.42a.2.2,0,0,1-.21.13h-.08a.22.22,0,0,1-.12-.3l.88-2.1H219a.22.22,0,0,1-.22-.22h0a.22.22,0,0,1,.22-.22h1.54v.13Z"/>
                <path class="cls-4"
                      d="M221.09,159.18a1.78,1.78,0,0,1,.28-1,.93.93,0,0,1,.77-.45.91.91,0,0,1,.75.45,1.93,1.93,0,0,1,0,2,.91.91,0,0,1-.75.45.93.93,0,0,1-.77-.45A1.78,1.78,0,0,1,221.09,159.18Zm1.62,0a1.42,1.42,0,0,0-.19-.73.42.42,0,0,0-.55-.22.43.43,0,0,0-.22.22,1.42,1.42,0,0,0,0,1.46.42.42,0,0,0,.55.22.43.43,0,0,0,.22-.22,1.42,1.42,0,0,0,.19-.73Z"/>
                <path class="cls-4"
                      d="M224,158.46h0a.7.7,0,0,1,.66-.74h0a.67.67,0,0,1,.67.69v0h0a.68.68,0,1,1-1.35.16.43.43,0,0,1,0-.16Zm1,0h0c0-.23-.13-.42-.32-.42s-.3.19-.3.41h0c0,.23.13.42.31.42s.3-.2.3-.41Zm-.52,1.91,1.88-2.57a.15.15,0,0,1,.14-.07.17.17,0,0,1,.17.16.17.17,0,0,1,0,.1l-1.88,2.57a.17.17,0,0,1-.15.07.14.14,0,0,1-.15-.13v0a.14.14,0,0,1,0-.11Zm1.26-.45h0a.69.69,0,0,1,.65-.73h0a.67.67,0,0,1,.67.69v0h0a.69.69,0,0,1-.64.74h0a.69.69,0,0,1-.69-.69v-.05Zm1,0h0c0-.23-.13-.41-.31-.41s-.31.18-.31.41h0c0,.24.13.42.31.42s.29-.2.29-.42Z"/>
            </g>
            <g id="freepik--character-2--inject-29">
                <path class="cls-4"
                      d="M315.76,395c-26.65,0-48.33-27.06-48.33-60.33s21.68-60.32,48.33-60.32,48.33,27.06,48.33,60.32S342.41,395,315.76,395Zm0-115.81c-24,0-43.5,24.89-43.5,55.48s19.52,55.49,43.5,55.49,43.49-24.89,43.49-55.49S339.74,279.19,315.76,279.19Z"/>
                <path class="cls-3"
                      d="M319.57,388.15c-23.57,0-42.75-24-42.75-53.48S296,281.2,319.57,281.2s42.75,24,42.75,53.47S343.15,388.15,319.57,388.15Zm0-103.5c-21.67,0-39.3,22.44-39.3,50s17.63,50,39.3,50,39.31-22.44,39.31-50-17.63-50-39.31-50Z"/>
                <path class="cls-3"
                      d="M324.86,334.67c0,4.83-3.1,8.75-6.93,8.75S311,339.5,311,334.67s3.11-8.74,6.94-8.74S324.86,329.84,324.86,334.67Z"/>
                <ellipse class="cls-2" cx="320.15" cy="334.67" rx="6.93" ry="8.74"/>
                <rect class="cls-3" x="320.15" y="332.95" width="62.77" height="3.45"/>
                <ellipse class="cls-3" cx="247.44" cy="385.28" rx="9.02" ry="11.37"/>
                <ellipse class="cls-2" cx="250.33" cy="385.28" rx="9.02" ry="11.37"/>
                <rect class="cls-6" x="248.97" y="254.56" width="71.42" height="27.57"/>
                <path class="cls-3"
                      d="M308.81,348.46H249V345h59.84a9.83,9.83,0,0,0,9.82-9.81V201.43a13.28,13.28,0,0,1,13.27-13.27H340v3.45H331.9a9.84,9.84,0,0,0-9.82,9.82V335.19A13.29,13.29,0,0,1,308.81,348.46Z"/>
                <path class="cls-3"
                      d="M250.69,373.91h-3.45V253.13a12,12,0,0,1,11.95-11.94h61.13v3.48H259.19a8.5,8.5,0,0,0-8.5,8.49Z"/>
                <rect class="cls-4" x="329.26" y="186.33" width="21.4" height="6.87"/>
                <rect class="cls-4" x="321.9" y="210.6" width="61.02" height="66.17"/>
                <rect class="cls-4" x="233.07" y="379.25" width="80.15" height="10.34"/>
                <path class="cls-1"
                      d="M209.55,378c2,.69,60,1.43,62.2.09.26-.14.44-5.39.56-12.58v-1.84a7.25,7.25,0,0,1,.05-1c.12-3,.36-7.93.62-13.31l-37-.85-.81,10.8s-7.89,3.15-14.78,6.28h0a82.18,82.18,0,0,0-8.78,4.33C209.43,371.67,207.58,377.32,209.55,378Z"/>
                <path class="cls-5"
                      d="M209.32,378.21c2,.7,60.16,1.3,62.39-.08.85-.52,1.81-9.47,1.12-19.39l-37.51-.34s-21.64,9.74-23.93,11.52S207.32,377.51,209.32,378.21Z"/>
                <path class="cls-4"
                      d="M210.16,375.9c9.75-.14,49.08.22,58.73.82.08,0,.08.06,0,.06-9.66.35-49-.33-58.73-.72C210,376.05,210,375.9,210.16,375.9Z"/>
                <path class="cls-4"
                      d="M232.32,359.34c3.9,0,8.41,1.41,10.8,4.63.09.12-.09.25-.2.19a54.65,54.65,0,0,0-10.67-4.34.25.25,0,0,1-.14-.33A.27.27,0,0,1,232.32,359.34Z"/>
                <path class="cls-4"
                      d="M229.24,360.49c3.91,0,8.41,1.41,10.81,4.62.09.13-.09.26-.21.2A52.85,52.85,0,0,0,229.17,361a.25.25,0,0,1-.14-.33A.27.27,0,0,1,229.24,360.49Z"/>
                <path class="cls-4"
                      d="M226.22,361.67c3.9,0,8.41,1.41,10.8,4.62.09.13-.08.26-.2.2a54,54,0,0,0-10.67-4.34.25.25,0,0,1-.14-.33A.27.27,0,0,1,226.22,361.67Z"/>
                <path class="cls-4"
                      d="M223.2,362.77c3.9,0,8.41,1.41,10.8,4.63.09.12-.09.25-.2.19a54.65,54.65,0,0,0-10.67-4.34.25.25,0,0,1-.14-.33A.27.27,0,0,1,223.2,362.77Z"/>
                <path class="cls-9"
                      d="M271.7,378.13c-1.21.75-18.88.91-35.12.79l17.92-20.35,18.32.17C273.51,368.67,272.55,377.61,271.7,378.13Z"/>
                <path class="cls-10"
                      d="M355,212.75H326.05l-6,14.28s-54.65,6.25-68,23.41c-15.31,19.71-20.78,106.9-20.78,106.9h42.93s6.78-77.13,11.26-83,65.79-10.54,77.76-19.46,3.67-42.14,3.67-42.14Z"/>
                <path class="cls-4"
                      d="M273.84,349.47a38.9,38.9,0,0,0-3.89-.27c-1.28-.06-2.57-.09-3.86-.14-2.63-.1-5.27-.12-7.9-.15-5.27-.08-10.54-.14-15.81-.12H238a33.07,33.07,0,0,0-4.44.2.06.06,0,0,0,0,.12,71.35,71.35,0,0,0,7.73.41c2.63.08,5.27.16,7.9.21q7.91.13,15.81.18h4.44a40.91,40.91,0,0,0,4.43-.18C273.93,349.67,274,349.49,273.84,349.47Z"/>
                <path class="cls-4"
                      d="M360.85,249.2c-9.08,3.73-18.72,5.92-28.38,7.54s-19.53,2.69-29.3,4a101.3,101.3,0,0,0-14.66,2.57,16.26,16.26,0,0,0-5.93,2.68,9.58,9.58,0,0,0-3,5.61c-1.12,5-1.95,10.18-2.83,15.27s-1.69,10.38-2.47,15.59c-1.57,10.47-2.91,21-4.26,31.48q-.24,1.9-.45,3.81c0,.13.18.18.2.05,1.55-10.34,2.94-20.7,4.49-31s3.24-20.66,5.18-30.93A29.15,29.15,0,0,1,281.1,269a8.42,8.42,0,0,1,4.94-4.18c4.61-1.8,9.62-2.43,14.49-3.11,9.63-1.34,19.3-2.37,28.89-3.94a155,155,0,0,0,28.15-7.1c1.11-.41,2.21-.84,3.31-1.28C361,249.29,360.93,249.17,360.85,249.2Z"/>
                <path class="cls-1"
                      d="M241.9,380.27c2,.7,60,1.44,62.2.1.26-.14.44-5.4.57-12.58V365c.13-3,.36-7.93.63-13.31l-37-.85-.82,10.8s-7.89,3.14-14.78,6.28h0a82.33,82.33,0,0,0-8.79,4.33C241.78,373.94,239.94,379.59,241.9,380.27Z"/>
                <path class="cls-5"
                      d="M241.66,380.49c2,.7,60.16,1.3,62.39-.08.85-.52,1.81-9.47,1.12-19.39l-37.48-.35s-21.64,9.74-23.92,11.51S239.64,379.79,241.66,380.49Z"/>
                <path class="cls-4"
                      d="M242.52,378.17c9.74-.13,49.07.22,58.72.83.08,0,.08.05,0,.06-9.66.35-49-.33-58.73-.73C242.32,378.33,242.32,378.18,242.52,378.17Z"/>
                <path class="cls-4"
                      d="M264.62,361.67c3.9,0,8.41,1.41,10.8,4.63.09.12-.08.25-.2.19a54.65,54.65,0,0,0-10.67-4.34.25.25,0,0,1-.14-.33A.27.27,0,0,1,264.62,361.67Z"/>
                <path class="cls-4"
                      d="M261.6,362.77c3.9,0,8.41,1.4,10.8,4.62.09.12-.09.25-.2.19a54,54,0,0,0-10.67-4.33.25.25,0,0,1-.14-.33A.27.27,0,0,1,261.6,362.77Z"/>
                <path class="cls-4"
                      d="M258.57,363.91c3.91,0,8.41,1.41,10.8,4.62.1.13-.08.26-.2.2a52.85,52.85,0,0,0-10.67-4.34.25.25,0,0,1-.14-.33A.27.27,0,0,1,258.57,363.91Z"/>
                <path class="cls-4"
                      d="M255.55,365.05c3.9,0,8.41,1.41,10.8,4.63.09.12-.08.25-.2.19a54,54,0,0,0-10.67-4.34.25.25,0,0,1-.14-.33A.27.27,0,0,1,255.55,365.05Z"/>
                <path class="cls-10"
                      d="M265.12,359.61l41.91.67s-3.23-82.36,4.71-87.94c6.91-4.85,41.64-5.42,59.1-17.54,14.19-9.84,2.41-42.07,2.41-42.07H335.61s-5.3,11.66-6.22,15.2c0,0-41.05,10.38-52.7,24.57C263.64,268.41,265.12,359.61,265.12,359.61Z"/>
                <path class="cls-4"
                      d="M336.59,223.28c-.61-.16-1.21-.39-1.83-.51s-1.26-.21-1.89-.29c-1.23-.16-2.47-.3-3.71-.42-2.53-.23-5.06-.25-7.6-.41-.07,0-.07.11,0,.12,2.55.16,5.09.62,7.61,1,1.23.18,2.45.37,3.67.57.63.1,1.26.2,1.89.28s1.2,0,1.8.11A.23.23,0,0,0,336.59,223.28Z"/>
                <path class="cls-4"
                      d="M340.15,213.37c-.85,1.22-1.64,2.49-2.46,3.73l-1.2,1.83a14.67,14.67,0,0,1-1.12,1.59c-.75.84-2.39,1.39-2.8-.08a2.77,2.77,0,0,1,.26-1.81c.25-.61.55-1.2.85-1.79.71-1.38,1.54-2.68,2.33-4,0-.06-.06-.13-.11-.08a21.13,21.13,0,0,0-2.77,3.8c-.71,1.19-1.67,2.61-1.33,4.07a2,2,0,0,0,2.41,1.48,2.23,2.23,0,0,0,.43-.16c1.3-.61,2-2.19,2.65-3.36,1-1.7,2-3.38,3-5.11a.09.09,0,0,0,0-.12A.09.09,0,0,0,340.15,213.37Z"/>
                <path class="cls-4"
                      d="M306.18,353.09a34.85,34.85,0,0,0-3.82-.27l-3.79-.14c-2.59-.1-5.18-.12-7.77-.16-5.18-.08-10.36-.14-15.54-.12H270.9a33.4,33.4,0,0,0-4.36.19.06.06,0,0,0,0,.12,68.69,68.69,0,0,0,7.59.43q3.89.12,7.77.2,7.77.15,15.54.2h4.36a39.63,39.63,0,0,0,4.36-.17A.14.14,0,0,0,306.18,353.09Z"/>
                <path class="cls-4"
                      d="M329.32,227.25a297,297,0,0,0-31.53,11.63,91.78,91.78,0,0,0-13.62,6.66,28.18,28.18,0,0,0-9.56,9.94,43.94,43.94,0,0,0-4.46,13.19c-1,5-1.52,10.12-2.09,15.19-1.29,11.43-2.24,22.89-2.72,34.37s-.53,23.06-.19,34.59c0,1.45.12,2.9.16,4.35a.08.08,0,0,0,.16,0c-.21-11.36.09-22.75.59-34.09s1.31-22.7,2.47-34c.56-5.41,1.15-10.83,2-16.21A57.42,57.42,0,0,1,274,259.4a27,27,0,0,1,8.22-11,57.91,57.91,0,0,1,12.68-6.95q15.19-6.61,30.94-11.8l3.9-1.3a.56.56,0,0,0-.37-1.05Z"/>
                <path class="cls-4"
                      d="M371,219.47q-.51-2.22-1.2-4.38a.13.13,0,0,0-.18,0,.13.13,0,0,0-.06.11,81.34,81.34,0,0,1,2.78,18.15,37.4,37.4,0,0,1-.49,8.84,15.78,15.78,0,0,1-3.88,7.46c-3.78,3.8-9,6.21-14,7.7-5.75,1.7-11.69,2.71-17.55,4-6.09,1.29-25.48,6-26.77,6.5a4.43,4.43,0,0,0-2.43,2.13,18.79,18.79,0,0,0-1.21,3.79c-3.09,11.68-3.57,22.82-3.85,34.83q-.45,19,0,38.06c0,1.54.08,3.07.1,4.61a.08.08,0,0,0,.16,0c-.06-6.37.07-12.74.17-19.11s.18-12.73.3-19.1c.24-12.17.41-23.5,3-35.45.33-1.52,1.7-7.29,2.64-8.24s20.59-5.6,26.73-6.9c5.85-1.23,11.77-2.23,17.55-3.8a40.78,40.78,0,0,0,14.74-7.09,16.19,16.19,0,0,0,4.17-6.06,20.26,20.26,0,0,0,1.34-8.15A78.37,78.37,0,0,0,371,219.47Z"/>
                <path class="cls-4"
                      d="M368.23,227.6c-2.79-1-6.16-1.43-8.38-3.56a7.8,7.8,0,0,1-2-3.67,16.66,16.66,0,0,1-.41-2.43,23,23,0,0,1-.26-2.62c0-.1-.15-.09-.16,0,0,1-.23,1.9-.23,2.86a12.76,12.76,0,0,0,.22,2.54,8.15,8.15,0,0,0,2,4.06,8.31,8.31,0,0,0,4,2.11,27.62,27.62,0,0,0,5.17,1C368.37,227.9,368.37,227.67,368.23,227.6Z"/>
                <path class="cls-11"
                      d="M331.44,169.56c-1.29,18.59-2.57,33.05-7,37.38-3.53,3.5-28.07,14.16-33,15.58-1.94.56-3.56,1-4.71,1.31-2.85.77-11.4-17.33-9.83-20.06.37-.63,2.19-1.42,4.78-2.29,8.75-2.94,27.43-6.91,28.28-8.13s5.06-10,10.79-21.42c3.95-7.92,6.86-10.66,9-9.11C331,163.67,331.69,166,331.44,169.56Z"/>
                <path class="cls-11"
                      d="M291.48,222.52a76.25,76.25,0,0,1-8.58,5.28c-2.39,1.13-9.37,4.22-10.88,1.71-1-1.71,2.85-4,5.57-5.69,1.43-.89,3.05-2.81,2.44-3.72-1.07-1.59-4.74.78-7.09,2.71-4.54,3.74-10.37,10.08-13.85,8-1.32-.77-.26-2.74,1.43-4.78-2.87,2.52-6,4.72-7.5,3.92a1.72,1.72,0,0,1-.75-2.23,2.25,2.25,0,0,1-2.53,0c-1.21-.92-1-2.6-.1-4.43a1.25,1.25,0,0,1-1-.47c-2.75-3,6.69-14.41,10.35-15.94a85.56,85.56,0,0,1,22.84-5.46C286.76,204.27,291.49,222.51,291.48,222.52Z"/>
                <path class="cls-4"
                      d="M273.32,214.77a18.4,18.4,0,0,0-7,4.09c-2.33,2.22-4,5-6.09,7.44,0,.06.06.15.11.08,1-1.24,2.06-2.38,3.07-3.57s1.95-2.38,3-3.48a18.49,18.49,0,0,1,6.9-4.52S273.32,214.76,273.32,214.77Z"/>
                <path class="cls-4"
                      d="M270.44,210.35a46.33,46.33,0,0,0-8.2,4.43c-2.74,2-4.67,4.88-6.58,7.64-1.15,1.67-2.26,3.35-3.33,5.06-.05.07,0,.16.1.09q2.9-4.27,6.05-8.38a24.3,24.3,0,0,1,7.11-6.28c1.58-.92,3.23-1.71,4.87-2.51C270.5,210.39,270.48,210.34,270.44,210.35Z"/>
                <path class="cls-4"
                      d="M266.62,206.67a23.48,23.48,0,0,0-7.46,3.91,40.94,40.94,0,0,0-6.64,7.92c-1,1.54-2,3.12-3,4.71,0,.06.07.13.11.07a94.85,94.85,0,0,1,7.31-10.06,19.28,19.28,0,0,1,4.36-4,34.5,34.5,0,0,1,5.3-2.56Z"/>
                <path class="cls-5"
                      d="M286.94,199.78l7.86,22.48s26-8.59,31.33-15.29,5.82-30,6.06-38.82-4.69-9.27-10.11,0-12.08,24.34-12.68,25S286.94,199.78,286.94,199.78Z"/>
                <path class="cls-8"
                      d="M319.64,172.91c.15,0,.3-.06.45-.1a1.06,1.06,0,0,1,.5,0,1,1,0,0,1,.6.85.67.67,0,0,0,.32.6.82.82,0,0,0,.38.13l.45.09-.45.09a.81.81,0,0,1-.51,0,.93.93,0,0,1-.57-.86.68.68,0,0,0-.34-.59.87.87,0,0,0-.38-.11ZM318,185.5a.87.87,0,0,1,.38.11.72.72,0,0,1,.35.59.9.9,0,0,0,.56.86.81.81,0,0,0,.51.05l.45-.09-.45-.09a.82.82,0,0,1-.38-.13.67.67,0,0,1-.32-.6.92.92,0,0,0-.6-.85,1.06,1.06,0,0,0-.5,0,1.46,1.46,0,0,0-.45.1Zm11.66,11.77a.85.85,0,0,0-.5,0l-.45.09.45.09a.89.89,0,0,1,.38.12l.16.13a2.29,2.29,0,0,1,.07-.34A.31.31,0,0,0,329.64,197.27Zm-26.41.62a.87.87,0,0,1,.38.11.72.72,0,0,1,.34.59.92.92,0,0,0,.57.86.78.78,0,0,0,.5.05l.45-.09a2.39,2.39,0,0,1-.45-.09.82.82,0,0,1-.37-.13.73.73,0,0,1-.33-.6.91.91,0,0,0-.59-.85,1.06,1.06,0,0,0-.5,0,1.46,1.46,0,0,0-.46.1A2.49,2.49,0,0,1,303.23,197.89Zm7.41,16a1,1,0,0,1,.38.11.68.68,0,0,1,.34.59,1,1,0,0,0,.57.87.85.85,0,0,0,.5,0,3.4,3.4,0,0,0,.46-.09,2.66,2.66,0,0,1-.46-.09.81.81,0,0,1-.37-.12.68.68,0,0,1-.32-.61,1,1,0,0,0-.6-.85.85.85,0,0,0-.5,0,.81.81,0,0,0-.45.09Zm6-6.67a1,1,0,0,1,.38.11.68.68,0,0,1,.34.59.93.93,0,0,0,.57.86.89.89,0,0,0,.51,0,.81.81,0,0,0,.45-.09l-.45-.09a.82.82,0,0,1-.38-.13.67.67,0,0,1-.32-.6,1,1,0,0,0-.6-.85,1.06,1.06,0,0,0-.5,0,.74.74,0,0,0-.45.1Zm15.07-27.43a.82.82,0,0,0-.39.32c-.09.13-.18.25-.26.38.14-.07.26-.17.39-.25a.73.73,0,0,1,.3-.16v-.31Zm-3.59-11.45a.92.92,0,0,1-.35.19.7.7,0,0,1-.66-.18.93.93,0,0,0-1-.21.94.94,0,0,0-.39.32c-.08.13-.18.25-.25.39l.38-.26a.88.88,0,0,1,.35-.17.7.7,0,0,1,.66.2.94.94,0,0,0,1,.18,1.1,1.1,0,0,0,.38-.33c.09-.13.18-.25.26-.39a2,2,0,0,0-.39.26ZM324.38,202a.89.89,0,0,1-.12.38.68.68,0,0,1-.59.34,1,1,0,0,0-.86.57.89.89,0,0,0-.05.51,1.8,1.8,0,0,0,.09.45,2.39,2.39,0,0,1,.09-.45.82.82,0,0,1,.13-.38.68.68,0,0,1,.61-.32.92.92,0,0,0,.84-.6,1.06,1.06,0,0,0,0-.5,1.8,1.8,0,0,0-.09-.45,3.47,3.47,0,0,0-.06.45Zm-25.67,2.37a.89.89,0,0,1-.12.38.69.69,0,0,1-.59.35.94.94,0,0,0-.86.56.89.89,0,0,0-.05.51,1.8,1.8,0,0,0,.09.45,1.82,1.82,0,0,1,.1-.45.73.73,0,0,1,.73-.7.92.92,0,0,0,.85-.59,1.1,1.1,0,0,0,0-.51,1.8,1.8,0,0,0-.09-.45c0,.15,0,.3-.07.45Zm26.47-26.21a1,1,0,0,1-.11.39.72.72,0,0,1-.59.34.92.92,0,0,0-.86.57.78.78,0,0,0-.05.5,1.8,1.8,0,0,0,.09.45,2.39,2.39,0,0,1,.09-.45.82.82,0,0,1,.13-.37.73.73,0,0,1,.6-.33.9.9,0,0,0,.84-.63.89.89,0,0,0,0-.51,3.58,3.58,0,0,0-.09-.45,3.28,3.28,0,0,1-.06.49Zm5.66,9.19a.92.92,0,0,0-.86.57.85.85,0,0,0,0,.5.81.81,0,0,0,.09.45,2.39,2.39,0,0,1,.09-.45.82.82,0,0,1,.13-.37.73.73,0,0,1,.6-.33,1.06,1.06,0,0,0,.31,0h0a1.21,1.21,0,0,1,.05-.42.68.68,0,0,1-.42.1Zm-13.67,9.28a.89.89,0,0,1-.12.38.72.72,0,0,1-.59.35.94.94,0,0,0-.86.56.89.89,0,0,0,0,.51.81.81,0,0,0,.09.45c.05-.15.06-.3.1-.45a.72.72,0,0,1,.73-.7.92.92,0,0,0,.85-.6,1.06,1.06,0,0,0,0-.5.81.81,0,0,0-.09-.45A2.93,2.93,0,0,0,317.17,196.67Zm-13.68,14.15a.89.89,0,0,1-.12.38.68.68,0,0,1-.59.34,1,1,0,0,0-.86.57.86.86,0,0,0-.05.5,2,2,0,0,0,.09.46,3.73,3.73,0,0,0,.09-.46.82.82,0,0,1,.13-.37.68.68,0,0,1,.61-.32.9.9,0,0,0,.9-.9.68.68,0,0,0,0-.2,1.87,1.87,0,0,0-.09-.46c0,.16-.06.31-.09.47Zm7.63-18.88a.78.78,0,0,1,.35-.18.67.67,0,0,1,.66.17.93.93,0,0,0,1,.21.82.82,0,0,0,.39-.32c.09-.13.18-.25.26-.39-.14.08-.26.17-.39.26a.88.88,0,0,1-.35.17.7.7,0,0,1-.66-.2.94.94,0,0,0-1-.18,1.12,1.12,0,0,0-.38.34c-.09.12-.18.25-.26.38a4.13,4.13,0,0,0,.38-.25ZM322.51,193a.8.8,0,0,1,.35-.19.69.69,0,0,1,.66.18,1,1,0,0,0,1,.21,1,1,0,0,0,.39-.33c.08-.13.18-.25.25-.38-.13.07-.25.17-.38.25a.78.78,0,0,1-.35.18.7.7,0,0,1-.66-.2.91.91,0,0,0-1-.18.87.87,0,0,0-.38.33c-.09.13-.18.25-.26.39a4.13,4.13,0,0,0,.38-.25Zm-14.8,11.46a.8.8,0,0,1,.35-.19.7.7,0,0,1,.66.17.93.93,0,0,0,1,.21.94.94,0,0,0,.39-.32c.09-.13.18-.25.26-.39-.14.08-.26.18-.39.26a.78.78,0,0,1-.35.18.71.71,0,0,1-.66-.21.92.92,0,0,0-1-.17.87.87,0,0,0-.38.33c-.09.13-.18.25-.26.38a4,4,0,0,0,.38-.24ZM296.32,216.9a.92.92,0,0,1,.35-.19.69.69,0,0,1,.66.18.92.92,0,0,0,1.29,0l.12-.15.25-.38c-.13.08-.26.16-.38.25a.82.82,0,0,1-.36.18.7.7,0,0,1-.66-.2.9.9,0,0,0-1-.18,1.1,1.1,0,0,0-.38.33c-.08.13-.18.25-.25.39Zm-4.55-16.84a1.08,1.08,0,0,1,.35-.19.69.69,0,0,1,.66.18.93.93,0,0,0,1,.21.84.84,0,0,0,.39-.33c.09-.12.18-.25.26-.38-.14.08-.26.17-.39.26a.88.88,0,0,1-.35.17.7.7,0,0,1-.66-.2.91.91,0,0,0-1-.18,1.1,1.1,0,0,0-.38.33c-.08.13-.18.25-.25.39Z"/>
                <polygon class="cls-5" points="292.76 224.99 299.05 222.66 289.82 197.03 283.66 198.88 292.76 224.99"/>
                <path class="cls-4"
                      d="M294.74,209.74c-.69-1.76-1.37-3.51-2.08-5.26s-1.33-3.53-2.16-5.21a.08.08,0,0,0-.11,0,.07.07,0,0,0,0,.08c.48,1.75,1.16,3.46,1.77,5.17s1.31,3.62,2,5.43c1.31,3.58,2.77,7.08,4.28,10.58,0,.08.16,0,.13-.06C297.32,216.84,296.11,213.27,294.74,209.74Z"/>
                <path class="cls-5"
                      d="M318.73,227.61c1.44,1.15,59.78.65,60,.25s-17.19-61.92-38.68-69.14c-3.41-1.14-12.22-.09-13.15,1.21C319.19,170.74,317.82,226.89,318.73,227.61Z"/>
                <path class="cls-4"
                      d="M321.71,176.93c-.43,2.57-.72,5.17-1,7.76,0-1.16-.06-2.32-.11-3.48a.07.07,0,0,0-.14,0c0,1.7,0,3.4.08,5.1v.26c-.34,3.33-.65,6.67-.94,10-.56,6.62-1,13.27-1.12,19.93-.08,3.71,0,7.42,0,11.14,0,.1.15.1.16,0,.15-3.31.42-6.62.6-9.93s.35-6.6.53-9.9c.38-6.6.75-13.2,1.23-19.79.28-3.69.66-7.39.82-11.1C321.81,176.89,321.72,176.88,321.71,176.93Z"/>
                <path class="cls-8"
                      d="M340.54,184.82l.45-.09a.85.85,0,0,1,.5,0,.89.89,0,0,1,.6.84.75.75,0,0,0,.32.61.91.91,0,0,0,.38.13.81.81,0,0,1,.45.09l-.45.09a.89.89,0,0,1-.51-.05.94.94,0,0,1-.56-.86.72.72,0,0,0-.35-.59.89.89,0,0,0-.38-.12A3.44,3.44,0,0,1,340.54,184.82Zm8.81,30a.73.73,0,0,1,.38.11.68.68,0,0,1,.34.59.93.93,0,0,0,.57.86.78.78,0,0,0,.5.05,1.79,1.79,0,0,0,.46-.09,2.66,2.66,0,0,1-.46-.09.82.82,0,0,1-.37-.13.68.68,0,0,1-.32-.61.94.94,0,0,0-.6-.84,1.06,1.06,0,0,0-.5,0l-.45.09a1.38,1.38,0,0,1,.42.05Zm10.4-28.28a1,1,0,0,1,.38.11.72.72,0,0,1,.35.59.92.92,0,0,0,.56.87,1.1,1.1,0,0,0,.51,0,.74.74,0,0,0,.45-.1l-.45-.09a.89.89,0,0,1-.38-.12.68.68,0,0,1-.32-.61.92.92,0,0,0-.6-.85.85.85,0,0,0-.5,0,.81.81,0,0,0-.45.09Zm-26.59-15.2a.87.87,0,0,1,.38.11.68.68,0,0,1,.34.59.93.93,0,0,0,.57.86.78.78,0,0,0,.5,0,1.87,1.87,0,0,0,.46-.09,2.49,2.49,0,0,1-.46-.09.82.82,0,0,1-.37-.13.67.67,0,0,1-.32-.6,1,1,0,0,0-.6-.85,1.06,1.06,0,0,0-.5,0,1.59,1.59,0,0,0-.46.1Zm16.37-.35a.89.89,0,0,1,.38.12.72.72,0,0,1,.34.59,1,1,0,0,0,.57.86.86.86,0,0,0,.5.05l.46-.09-.46-.09a.82.82,0,0,1-.37-.13.68.68,0,0,1-.32-.61.92.92,0,0,0-.6-.84.85.85,0,0,0-.5,0,1.87,1.87,0,0,0-.46.09,3.57,3.57,0,0,0,.46,0Zm-20.39,26.44a.89.89,0,0,1,.38.12.72.72,0,0,1,.35.59.93.93,0,0,0,.56.86,1,1,0,0,0,.51.05l.45-.09a3.63,3.63,0,0,0-.45-.1.71.71,0,0,1-.38-.12.68.68,0,0,1-.32-.61.92.92,0,0,0-.6-.85.85.85,0,0,0-.5,0l-.45.09Zm18.58,27.24a.89.89,0,0,1,.38.12.72.72,0,0,1,.34.59,1,1,0,0,0,.57.86.86.86,0,0,0,.5,0l.46-.09-.46-.09a.82.82,0,0,1-.37-.13.68.68,0,0,1-.32-.61.92.92,0,0,0-.6-.84.85.85,0,0,0-.5,0,1.87,1.87,0,0,0-.46.09A3.59,3.59,0,0,0,347.72,224.67Zm-23.47-3.1a.87.87,0,0,1,.38.11.68.68,0,0,1,.34.59.93.93,0,0,0,.57.86.81.81,0,0,0,.51.05l.45-.09-.45-.09a.82.82,0,0,1-.38-.13.67.67,0,0,1-.32-.6,1,1,0,0,0-.6-.85,1.06,1.06,0,0,0-.5,0,1.46,1.46,0,0,0-.45.1Zm13.95-11.46a.89.89,0,0,1,.38.12.72.72,0,0,1,.35.59.93.93,0,0,0,.56.86.89.89,0,0,0,.51,0,1.8,1.8,0,0,0,.45-.09,3.58,3.58,0,0,0-.45-.09.82.82,0,0,1-.38-.13.71.71,0,0,1-.32-.61.93.93,0,0,0-.6-.85,1.06,1.06,0,0,0-.5,0,.81.81,0,0,0-.45.09Zm7.49-12.31a.89.89,0,0,1,.38.12.68.68,0,0,1,.34.59.93.93,0,0,0,.57.86.85.85,0,0,0,.5,0,.81.81,0,0,0,.45-.09,1.82,1.82,0,0,1-.45-.1.81.81,0,0,1-.37-.12.71.71,0,0,1-.33-.61.92.92,0,0,0-.59-.85.85.85,0,0,0-.5,0,.83.83,0,0,0-.46.09c.15,0,.3.06.46.09ZM366.48,218a.89.89,0,0,1,.38.12.68.68,0,0,1,.34.59.91.91,0,0,0,1.07.91,1.87,1.87,0,0,0,.46-.09c-.15,0-.31-.06-.46-.1a.81.81,0,0,1-.37-.12.68.68,0,0,1-.32-.61.9.9,0,0,0-.9-.9.68.68,0,0,0-.2,0l-.46.09Zm-8.26-12.28a.89.89,0,0,1,.39.12.68.68,0,0,1,.34.59.94.94,0,0,0,.56.86,1,1,0,0,0,.51,0l.45-.09a3.63,3.63,0,0,0-.45-.1.73.73,0,0,1-.7-.73.91.91,0,0,0-.59-.85.89.89,0,0,0-.51,0l-.45.09Zm17.55,17.93a1,1,0,0,1,.38.11.68.68,0,0,1,.34.59.93.93,0,0,0,.57.86.78.78,0,0,0,.5.05,1.79,1.79,0,0,0,.46-.09,2.66,2.66,0,0,1-.46-.09.82.82,0,0,1-.37-.13.67.67,0,0,1-.32-.6,1,1,0,0,0-.6-.85.85.85,0,0,0-.5,0l-.45.09Zm-42-43.62a.8.8,0,0,1-.35.19.7.7,0,0,1-.66-.17.93.93,0,0,0-1-.21.82.82,0,0,0-.39.32c-.09.13-.18.25-.26.38.14-.07.26-.17.39-.25a.78.78,0,0,1,.35-.18.71.71,0,0,1,.66.21.92.92,0,0,0,1,.17.87.87,0,0,0,.38-.33c.09-.13.18-.25.26-.38C334,179.8,333.85,179.9,333.72,180Zm-5.61-11.64a.92.92,0,0,1-.35.19.7.7,0,0,1-.66-.18.93.93,0,0,0-1-.21.94.94,0,0,0-.39.32c-.08.13-.18.25-.25.39l.38-.26a.88.88,0,0,1,.35-.17.7.7,0,0,1,.66.2.94.94,0,0,0,1,.18,1.1,1.1,0,0,0,.38-.33c.09-.13.18-.25.26-.39A2.29,2.29,0,0,0,328.11,168.34Zm30,29.22a.8.8,0,0,1-.35.19.7.7,0,0,1-.66-.17.93.93,0,0,0-1-.21.94.94,0,0,0-.39.32c-.08.13-.18.25-.26.38.14-.07.26-.17.39-.25a.78.78,0,0,1,.35-.18.71.71,0,0,1,.66.21.92.92,0,0,0,1,.17.87.87,0,0,0,.47-.35c.09-.13.18-.25.26-.38-.18.09-.26.19-.43.27Zm-15.24-32.73a.92.92,0,0,1-.35.19.7.7,0,0,1-.66-.17.93.93,0,0,0-1-.21.83.83,0,0,0-.4.32l-.25.38c.14-.07.25-.17.38-.25a.82.82,0,0,1,.36-.18.77.77,0,0,1,.66.2.9.9,0,0,0,1,.18A.87.87,0,0,0,343,165l.25-.38a1.78,1.78,0,0,1-.33.25Zm-.3,9.7a.89.89,0,0,1-.12.38.72.72,0,0,1-.59.34.93.93,0,0,0-.86.57.86.86,0,0,0-.05.5,1.8,1.8,0,0,0,.09.45,2.39,2.39,0,0,1,.09-.45.82.82,0,0,1,.13-.37.71.71,0,0,1,.61-.33.92.92,0,0,0,.85-.59,1.06,1.06,0,0,0,0-.5,1.79,1.79,0,0,0-.09-.46,1.2,1.2,0,0,1,0,.46ZM339,201.09a.89.89,0,0,1-.12.38.68.68,0,0,1-.59.34.91.91,0,0,0-.91,1.07,1.79,1.79,0,0,0,.09.46,2,2,0,0,1,.1-.46.81.81,0,0,1,.12-.37.68.68,0,0,1,.61-.32.9.9,0,0,0,.9-.9.68.68,0,0,0,0-.2,1.8,1.8,0,0,0-.09-.45,2.3,2.3,0,0,1-.05.45Zm34.88,12.3a.87.87,0,0,1-.11.38.72.72,0,0,1-.59.35.93.93,0,0,0-.86.56.81.81,0,0,0-.05.51,1.8,1.8,0,0,0,.09.45,2.39,2.39,0,0,1,.09-.45.82.82,0,0,1,.13-.37.71.71,0,0,1,.61-.33.91.91,0,0,0,.84-.59,1.1,1.1,0,0,0,0-.51,3.63,3.63,0,0,0-.1-.45,1,1,0,0,1,0,.45ZM357.69,178.2a.89.89,0,0,1-.12.39.68.68,0,0,1-.59.34.93.93,0,0,0-.86.57.85.85,0,0,0,0,.5.81.81,0,0,0,.09.45c.05-.15.06-.3.1-.45a.73.73,0,0,1,.73-.7.92.92,0,0,0,.85-.59,1.1,1.1,0,0,0,0-.51.81.81,0,0,0-.09-.45c0,.15,0,.3-.07.45Zm0,42.65a.89.89,0,0,1-.12.38.69.69,0,0,1-.59.35.94.94,0,0,0-.86.56.89.89,0,0,0,0,.51.81.81,0,0,0,.09.45c.05-.15.06-.3.1-.45a.73.73,0,0,1,.73-.7.92.92,0,0,0,.85-.59,1.1,1.1,0,0,0,0-.51.81.81,0,0,0-.09-.45c0,.15,0,.27-.07.45Zm8.2-24.42a.87.87,0,0,1-.11.38.72.72,0,0,1-.59.35.93.93,0,0,0-.86.56.81.81,0,0,0-.05.51,1.8,1.8,0,0,0,.09.45,2.39,2.39,0,0,1,.09-.45.82.82,0,0,1,.13-.38.75.75,0,0,1,.61-.32.92.92,0,0,0,.84-.6,1.06,1.06,0,0,0,0-.5,1.46,1.46,0,0,0-.1-.45,1,1,0,0,1,0,.45ZM324.33,202a.89.89,0,0,1-.12.38.68.68,0,0,1-.59.34,1,1,0,0,0-.86.57.89.89,0,0,0-.05.51,1.8,1.8,0,0,0,.09.45,2.39,2.39,0,0,1,.09-.45.82.82,0,0,1,.13-.38.68.68,0,0,1,.61-.32.92.92,0,0,0,.84-.6,1.06,1.06,0,0,0,0-.5,1.8,1.8,0,0,0-.09-.45,3.38,3.38,0,0,0,0,.45Zm.8-23.84a1,1,0,0,1-.11.39.72.72,0,0,1-.59.34.92.92,0,0,0-.86.57.78.78,0,0,0-.05.5,1.8,1.8,0,0,0,.09.45,2.39,2.39,0,0,1,.09-.45.82.82,0,0,1,.13-.37.73.73,0,0,1,.6-.33.92.92,0,0,0,.89-.63.89.89,0,0,0,0-.51,3.58,3.58,0,0,0-.09-.45,3.28,3.28,0,0,1-.06.49Zm8.7-15.49a.89.89,0,0,1-.12.38.72.72,0,0,1-.59.35.93.93,0,0,0-.86.56.89.89,0,0,0-.05.51,1.8,1.8,0,0,0,.09.45,3.58,3.58,0,0,0,.09-.45.82.82,0,0,1,.13-.38.71.71,0,0,1,.61-.32.93.93,0,0,0,.85-.6,1.06,1.06,0,0,0,0-.5,1.8,1.8,0,0,0-.09-.45.92.92,0,0,1,0,.41Zm-2.34,24a1,1,0,0,1-.11.39.72.72,0,0,1-.59.34.92.92,0,0,0-.86.57.85.85,0,0,0,0,.5.81.81,0,0,0,.09.45,2.39,2.39,0,0,1,.09-.45.82.82,0,0,1,.13-.37.73.73,0,0,1,.6-.33.91.91,0,0,0,.85-.59,1.1,1.1,0,0,0,0-.51.74.74,0,0,0-.1-.45c0,.1,0,.25-.06.41Zm21,3.22a1,1,0,0,1-.11.39.72.72,0,0,1-.59.34.94.94,0,0,0-.87.57.85.85,0,0,0,0,.5,1.8,1.8,0,0,0,.09.45,2.39,2.39,0,0,1,.09-.45,1.15,1.15,0,0,1,.12-.37.71.71,0,0,1,.61-.33.91.91,0,0,0,.85-.59.89.89,0,0,0,0-.51,3.58,3.58,0,0,0-.09-.45,1.79,1.79,0,0,0-.1.4Zm-19.37,26.9a1,1,0,0,1-.11.38.72.72,0,0,1-.59.35,1,1,0,0,0-.87.56.89.89,0,0,0,0,.51,3.58,3.58,0,0,0,.09.45,2.39,2.39,0,0,1,.09-.45.81.81,0,0,1,.12-.37.71.71,0,0,1,.61-.33.91.91,0,0,0,.85-.59.89.89,0,0,0,0-.51,1.8,1.8,0,0,0-.09-.45,2.6,2.6,0,0,0-.1.4Zm-5.34,11.11-.06.28h.12a1.91,1.91,0,0,0-.06-.33Zm14.09-.13a1.8,1.8,0,0,0-.09-.45,2.39,2.39,0,0,1-.09.45.89.89,0,0,1-.12.39.54.54,0,0,1-.14.16h.39a.89.89,0,0,0,.05-.6Zm7.51-46.19a.92.92,0,0,1,.35-.19.7.7,0,0,1,.66.18.93.93,0,0,0,1,.21,1,1,0,0,0,.39-.33c.09-.12.17-.25.25-.38l-.38.26a.88.88,0,0,1-.35.17.7.7,0,0,1-.66-.2.94.94,0,0,0-1-.18.87.87,0,0,0-.38.33c-.09.13-.18.25-.26.39a3.45,3.45,0,0,1,.38-.31Zm-12.23,11a.92.92,0,0,1,.35-.19.7.7,0,0,1,.66.17.93.93,0,0,0,1,.21.82.82,0,0,0,.39-.32c.09-.13.18-.25.26-.39-.14.08-.26.17-.39.26a.76.76,0,0,1-.35.17.7.7,0,0,1-.66-.2.92.92,0,0,0-1-.17.87.87,0,0,0-.38.33c-.08.13-.18.25-.26.38A2.75,2.75,0,0,1,337.15,192.67ZM328.87,209a.8.8,0,0,1,.35-.19.69.69,0,0,1,.66.18,1,1,0,0,0,1,.21,1,1,0,0,0,.39-.33c.08-.13.18-.25.26-.38-.14.07-.26.17-.39.25a.78.78,0,0,1-.35.18.7.7,0,0,1-.66-.2.91.91,0,0,0-1-.18.87.87,0,0,0-.38.33c-.09.13-.18.25-.26.39l.38-.28Zm3.58,17a.92.92,0,0,1,.35-.19.69.69,0,0,1,.66.18.93.93,0,0,0,1,.21.94.94,0,0,0,.39-.32c.08-.13.18-.25.26-.39-.14.08-.26.17-.39.26a.88.88,0,0,1-.35.17.7.7,0,0,1-.66-.2.94.94,0,0,0-1-.18,1.1,1.1,0,0,0-.38.33c-.09.13-.18.25-.26.39a1.87,1.87,0,0,1,.38-.33Zm16-18.63a.82.82,0,0,1,.36-.18.7.7,0,0,1,.66.17.93.93,0,0,0,1,.21.94.94,0,0,0,.39-.32c.08-.13.18-.25.25-.39l-.38.26a1,1,0,0,1-.36.17.69.69,0,0,1-.65-.2.94.94,0,0,0-1-.18,1.1,1.1,0,0,0-.38.33c-.09.13-.18.25-.26.39a3.09,3.09,0,0,0,.39-.33Zm11,6.76a.8.8,0,0,1,.35-.19.7.7,0,0,1,.66.17.93.93,0,0,0,1,.21.94.94,0,0,0,.39-.32c.08-.13.18-.25.25-.39l-.38.26a.88.88,0,0,1-.35.17.7.7,0,0,1-.66-.2.94.94,0,0,0-1-.18.84.84,0,0,0-.38.34c-.09.13-.18.24-.26.38Zm-18.56,5.12a.92.92,0,0,1,.35-.19.69.69,0,0,1,.66.18,1,1,0,0,0,1,.21.84.84,0,0,0,.39-.33c.09-.13.18-.25.26-.38-.14.07-.26.17-.39.25a.78.78,0,0,1-.35.18.7.7,0,0,1-.66-.2.91.91,0,0,0-1-.18,1.1,1.1,0,0,0-.38.33c-.08.13-.18.25-.25.39Zm-18.44-4.42a.8.8,0,0,1,.35-.19.7.7,0,0,1,.66.17.93.93,0,0,0,1,.21.82.82,0,0,0,.39-.32c.09-.13.18-.25.26-.39-.14.08-.26.17-.39.26a.68.68,0,0,1-.35.17.7.7,0,0,1-.66-.2.92.92,0,0,0-1-.17.87.87,0,0,0-.38.33c-.09.13-.18.25-.26.38.19-.14.31-.24.44-.32ZM364.82,226a1.08,1.08,0,0,1,.35-.19.69.69,0,0,1,.66.18.93.93,0,0,0,1,.21,1,1,0,0,0,.4-.32c.08-.13.17-.25.25-.39l-.38.26a1,1,0,0,1-.36.17.7.7,0,0,1-.66-.2.91.91,0,0,0-1-.18,1.1,1.1,0,0,0-.38.33c-.08.13-.17.25-.25.39Zm2.7-18.24a1,1,0,0,1,.36-.19.7.7,0,0,1,.66.17.93.93,0,0,0,1,.21.94.94,0,0,0,.39-.32c.08-.13.18-.25.25-.38-.13.07-.25.17-.38.25a.78.78,0,0,1-.35.18.71.71,0,0,1-.66-.21.92.92,0,0,0-1-.17.81.81,0,0,0-.38.33c-.09.13-.18.25-.26.38a4.35,4.35,0,0,0,.43-.32ZM318.61,221.3a.54.54,0,0,1-.18.11v.3a1,1,0,0,0,.31-.28c.08-.13.18-.25.25-.39Zm3.84-28.2a.8.8,0,0,1,.35-.19.69.69,0,0,1,.66.18,1,1,0,0,0,1,.21,1,1,0,0,0,.39-.33c.08-.13.18-.25.25-.38-.13.07-.25.17-.38.25a.78.78,0,0,1-.35.18.7.7,0,0,1-.66-.2.91.91,0,0,0-1-.18.87.87,0,0,0-.38.33c-.09.13-.18.25-.26.39l.44-.33Z"/>
                <polygon class="cls-4"
                         points="332.39 173.61 330.05 169.29 326.43 173.24 327.47 176.51 330.92 176.78 332.39 173.61"/>
                <polygon class="cls-4"
                         points="330.92 176.78 334.49 215.17 330.52 227.54 324.92 214.98 327.47 176.51 330.92 176.78"/>
                <path class="cls-11"
                      d="M330.32,168.45c3.25.43,8.2-5,10-9.15a65.53,65.53,0,0,0-1.29-6.53c-.41-2.09-.83-4.43-1-6.59-.05-.45-1.47.52-1.47.52l-2.73,1-9,3.2a35.08,35.08,0,0,1,2.17,8.17,4.41,4.41,0,0,1,0,.89.38.38,0,0,0,0,.15C326.81,161.8,327.2,168,330.32,168.45Z"/>
                <path class="cls-4"
                      d="M326.91,159.93a.38.38,0,0,0,0,.15,7.26,7.26,0,0,0,1.4-.07c9.1-1.15,9-12.87,9-12.87l-3.59.53-9,3.2a35.08,35.08,0,0,1,2.17,8.17A4.42,4.42,0,0,1,326.91,159.93Z"/>
                <path class="cls-11"
                      d="M340.4,131.86c1.36,4.87-1.54,18.76-5,21.79-5.09,4.39-13.26,4.62-16.94-1.46-3.57-5.9.52-23.94,4.42-26.67C328.59,121.49,338.4,124.67,340.4,131.86Z"/>
                <path class="cls-12"
                      d="M317.32,141c-.51,4.54-.29,8.9,1.17,11.27,3.72,6.06,11.88,5.77,17,1.36a13.07,13.07,0,0,0,2.82-5,53.37,53.37,0,0,0,.86-7.13c0-1.35-2.56-1.08-2.56-1.08a10.71,10.71,0,0,1-2.31,5.42c-1.87,1.7-5.44,1-6.67.6s-3.52-1.92-6.12-1.58c-1.16.15-2.3.81-3.25.14S317.32,141.2,317.32,141Z"/>
                <path class="cls-4"
                      d="M325.67,139.87s.07.06.06.1c-.24.91-.37,2,.4,2.51v.05C325.12,142.15,325.32,140.67,325.67,139.87Z"/>
                <path class="cls-4" d="M326.72,139.09c1.52.23,1,3.24-.46,3S325.45,138.9,326.72,139.09Z"/>
                <path class="cls-4"
                      d="M320.38,139s-.08,0-.09.07c-.15.94-.47,2-1.37,2.14h0C320,141.35,320.39,140,320.38,139Z"/>
                <path class="cls-4" d="M319.73,137.91c-1.48-.4-2.16,2.59-.79,3S321,138.24,319.73,137.91Z"/>
                <path class="cls-4"
                      d="M328.17,137.94a11.84,11.84,0,0,1-1.09-.63,2.15,2.15,0,0,1-1-.86.66.66,0,0,1,.24-.78,1.62,1.62,0,0,1,1.63.14,2.35,2.35,0,0,1,1.14,1.26.68.68,0,0,1-.41.88A.69.69,0,0,1,328.17,137.94Z"/>
                <path class="cls-4"
                      d="M318.85,136.17a10.66,10.66,0,0,0,1.26-.08,2,2,0,0,0,1.26-.33.62.62,0,0,0,.11-.78,1.6,1.6,0,0,0-1.51-.6,2.45,2.45,0,0,0-1.59.62.69.69,0,0,0,0,1A.79.79,0,0,0,318.85,136.17Z"/>
                <path class="cls-4"
                      d="M325.32,148.52c-.22.22-.45.53-.79.56a2.61,2.61,0,0,1-1-.23h0a1.27,1.27,0,0,0,1.21.5,1,1,0,0,0,.74-.84C325.39,148.5,325.32,148.48,325.32,148.52Z"/>
                <path class="cls-4"
                      d="M324.62,145.61a3.26,3.26,0,0,1-2.39,1,3.72,3.72,0,0,1-1.15-.16l-.42-.14a.23.23,0,0,1-.14-.24h0l.44-2c-.29.08-1.74.43-1.65.06a48.18,48.18,0,0,1,3-9.36.1.1,0,0,1,.12-.06.1.1,0,0,1,.05.12h0c-.63,3-1.78,5.83-2.45,8.81a5.63,5.63,0,0,1,1.58-.17c.05,0-.6,2.42-.6,2.44a4.5,4.5,0,0,0,3.48-.4C324.62,145.47,324.69,145.55,324.62,145.61Z"/>
                <path class="cls-4"
                      d="M320.4,129.11c.21-.4.77-1.38,1.32-1.34s1,1.22,2.3,1.69c1.77.68,5.15-1,7.59-.11s3.71,3.44,3.79,8,3.25,8.43,4.52,5.59a2.28,2.28,0,0,1,.24-.55c.77-4.24,1-8.54.29-10.81-2.16-7.15-12.06-10.12-17.72-6A8.73,8.73,0,0,0,320.4,129.11Z"/>
                <path class="cls-11"
                      d="M336.21,143.58s3.35-4.37,5.35-3.15-.67,7.65-3.11,8.43a2.44,2.44,0,0,1-3.17-1.36.42.42,0,0,1,0-.1Z"/>
                <path class="cls-4"
                      d="M340.75,142.25v.07a6.21,6.21,0,0,0-3.36,3.72,1.35,1.35,0,0,1,1.87-.38l.13.1s0,.1-.05.09a1.51,1.51,0,0,0-1.68.45,8.54,8.54,0,0,0-.85,1.3c-.08.15-.35.06-.29-.11h0C336.63,145.3,338.43,142.37,340.75,142.25Z"/>
                <path class="cls-5"
                      d="M326.93,159.67l3.43,7.82,9.53-10.34,2.89,3.13s-9.12,16.23-9.21,15.52l-3.48-6.73-4.56,4.9V162Z"/>
                <path class="cls-4"
                      d="M325.19,168c.07-2,.08-4,.24-5.93a.07.07,0,0,1,.13,0c.46,1.89.16,9.43.23,11.23h0c.19-.21,4.24-4.32,4.28-4.26.74,1.06,3.3,6,3.48,6.41,1.44-2.58,7.59-12.76,9.31-15.21.05-.07.16,0,.12.06-1.26,2.72-9.19,16.15-9.31,16.12a79.58,79.58,0,0,1-3.65-7.12c-.67.89-4.74,5.51-4.77,5.22A64.46,64.46,0,0,1,325.19,168Z"/>
                <path class="cls-7" d="M292,195.85s2.55-4.76-.84-6.24-5.14,3.64-5.14,3.64Z"/>
                <path class="cls-7"
                      d="M270.93,227.89h0l.38,5.28.11,1.74,1.37-1.1,4.12-3.32h0l15.18-34.82-6-2.6-15.17,34.84Z"/>
                <polygon class="cls-10" points="271.31 233.17 271.43 234.91 272.79 233.81 271.31 233.17"/>
                <rect class="cls-10" x="288.1" y="191.08" width="1.51" height="7.61"
                      transform="translate(-5.14 381.91) rotate(-66.47)"/>
                <rect class="cls-10" x="287.49" y="192.57" width="1.51" height="7.61"
                      transform="translate(-6.9 382.2) rotate(-66.46)"/>
                <polygon class="cls-10" points="291.4 198.6 289.15 197.62 284.9 210.76 285.75 211.08 291.4 198.6"/>
                <path class="cls-11"
                      d="M351.23,172c11.13,19.84,16.09,48.61,11.3,55.76-3.45,5.15-33.51,5-51,4.46-3.23-.1,1-26.49,4.39-26.16,6.16.59,26.43-.87,26.85-.86.9,0-1.44-18.29-2-30.17C340,159.85,346.24,163.08,351.23,172Z"/>
                <path class="cls-11"
                      d="M276,210.18c.27,3.08,7.82,1.78,7.82,1.78a5.73,5.73,0,0,0-2,3.31c-.37,2.32,3.12,3.92,3.12,3.92a7,7,0,0,0-1.59,3.83c-.13,2.26,3.16,4.37,3.16,4.37a6.12,6.12,0,0,0,.73,4.25c2.13,3.35,8.18,3.3,12,3.31s14.78-3.57,16.93-4l.27-24.71s-17.25-5-21.78-4.32C290.85,202.4,275.6,205.46,276,210.18Z"/>
                <path class="cls-4"
                      d="M283.87,211.87a51.68,51.68,0,0,1,12.35-2.67.07.07,0,1,1,0,.14c-4.12.48-8.21,2.08-12.31,2.72C283.81,212.08,283.77,211.91,283.87,211.87Z"/>
                <path class="cls-4"
                      d="M285,218.86a11.41,11.41,0,0,1,2.84-.42c1-.07,2-.14,3.05-.18,2-.09,4.07-.14,6.11-.12a.07.07,0,1,1,0,.14h0c-2,.09-4.05.22-6.07.4l-3,.29a13.15,13.15,0,0,1-2.87.17.16.16,0,0,1-.14-.16A.17.17,0,0,1,285,218.86Z"/>
                <path class="cls-4"
                      d="M286.57,227.38a7.45,7.45,0,0,1,2.57-.24l2.79-.08c1.85-.07,3.71-.13,5.56-.26a.07.07,0,1,1,0,.14c-1.88.14-3.76.31-5.65.43-.92.07-1.84.12-2.77.17a7.17,7.17,0,0,1-2.53-.06.06.06,0,0,1,0-.08Z"/>
                <path class="cls-4"
                      d="M281.32,205.31a15.12,15.12,0,0,0-2.81,1.27,8,8,0,0,0-2.23,1.83,2.52,2.52,0,0,0-.51,2.44c.36.82,1.34,1.05,2.1,1.22.12,0,.19-.08.08-.1-.74-.18-1.65-.65-1.75-1.47a2.85,2.85,0,0,1,.84-2.16,10.08,10.08,0,0,1,1.91-1.6,15.3,15.3,0,0,1,2.39-1.38S281.38,205.3,281.32,205.31Z"/>
                <path class="cls-4"
                      d="M283.63,223.94a3.76,3.76,0,0,1,.07-2.32,5.34,5.34,0,0,1,.49-1.09,12.81,12.81,0,0,1,.74-1.3v-.15a7.43,7.43,0,0,1-2.2-1.65,2.88,2.88,0,0,1-.78-2.63c0-.25,0-.24-.06-.11a3,3,0,0,0,.43,2.87,6.15,6.15,0,0,0,2.43,1.62c-.24.31-.57.73-.79,1.06a6.29,6.29,0,0,0-.6,1.15,3.93,3.93,0,0,0-.18,2.51c.42,1.43,2.1,2.84,3.35,3.53h0C285.57,226.47,284.07,225.27,283.63,223.94Z"/>
                <path class="cls-5"
                      d="M318.48,205.57l.41,27.6s38.31.75,43.68-4.11,1.13-34-9.22-54.36c-5.67-11.15-13.73-17.92-13,2.08s2,27.35,1.91,27.57S318.48,205.57,318.48,205.57Z"/>
                <path class="cls-8"
                      d="M343.24,186.44l-.45.09a.89.89,0,0,1-.51-.05.94.94,0,0,1-.56-.86.72.72,0,0,0-.35-.59.89.89,0,0,0-.38-.12.68.68,0,0,1-.34-.06v-.06l.34-.06a.85.85,0,0,1,.5,0,.89.89,0,0,1,.6.84.75.75,0,0,0,.32.61.91.91,0,0,0,.38.13A2.54,2.54,0,0,0,343.24,186.44Zm6.08,28.37a.73.73,0,0,1,.38.11.68.68,0,0,1,.34.59.93.93,0,0,0,.57.86.78.78,0,0,0,.5,0,1.79,1.79,0,0,0,.46-.09,2.66,2.66,0,0,1-.46-.09.82.82,0,0,1-.37-.13.68.68,0,0,1-.32-.61.94.94,0,0,0-.6-.84,1.06,1.06,0,0,0-.5,0l-.45.09A1.82,1.82,0,0,1,349.32,214.81ZM349.5,171a.89.89,0,0,1,.38.12.72.72,0,0,1,.34.59,1,1,0,0,0,.57.86.86.86,0,0,0,.5,0l.46-.09-.46-.09a.82.82,0,0,1-.37-.13.68.68,0,0,1-.32-.61.92.92,0,0,0-.6-.84.85.85,0,0,0-.5,0,1.87,1.87,0,0,0-.46.09,4.07,4.07,0,0,0,.49,0ZM320.17,230.3a.82.82,0,0,1-.37-.13.68.68,0,0,1-.32-.61.92.92,0,0,0-.6-.84h-.09V229a.68.68,0,0,1,.3.56.91.91,0,0,0,1.07.91,1.87,1.87,0,0,0,.46-.09,1.55,1.55,0,0,0-.42-.12Zm27.55-5.63a.89.89,0,0,1,.38.12.72.72,0,0,1,.34.59,1,1,0,0,0,.57.86.86.86,0,0,0,.5,0l.46-.09-.46-.09a.82.82,0,0,1-.37-.13.68.68,0,0,1-.32-.61.92.92,0,0,0-.6-.84.85.85,0,0,0-.5,0,1.87,1.87,0,0,0-.46.09A3.59,3.59,0,0,0,347.72,224.67Zm-23.47-3.1a.87.87,0,0,1,.38.11.68.68,0,0,1,.34.59.93.93,0,0,0,.57.86.81.81,0,0,0,.51.05l.45-.09-.45-.09a.82.82,0,0,1-.38-.13.67.67,0,0,1-.32-.6,1,1,0,0,0-.6-.85,1.06,1.06,0,0,0-.5,0,1.46,1.46,0,0,0-.45.1Zm13.95-11.46a.89.89,0,0,1,.38.12.72.72,0,0,1,.35.59.93.93,0,0,0,.56.86.89.89,0,0,0,.51,0,1.8,1.8,0,0,0,.45-.09,3.58,3.58,0,0,0-.45-.09.82.82,0,0,1-.38-.13.71.71,0,0,1-.32-.61.93.93,0,0,0-.6-.85,1.06,1.06,0,0,0-.5,0,.81.81,0,0,0-.45.09Zm-19.67-1.44v.14l.35-.07Zm37.37,20.19a.89.89,0,0,1,.38.12.72.72,0,0,1,.34.59.91.91,0,0,0,1.07.91,1.87,1.87,0,0,0,.46-.09,2.49,2.49,0,0,1-.46-.09.82.82,0,0,1-.37-.13.68.68,0,0,1-.32-.61.92.92,0,0,0-.6-.84.85.85,0,0,0-.5,0,1.87,1.87,0,0,0-.46.09A3.59,3.59,0,0,0,355.9,228.86Zm-10.21-31.08a.89.89,0,0,1,.38.12.68.68,0,0,1,.34.59.93.93,0,0,0,.57.86.85.85,0,0,0,.5,0,.81.81,0,0,0,.45-.09,1.82,1.82,0,0,1-.45-.1.81.81,0,0,1-.37-.12.71.71,0,0,1-.33-.61.92.92,0,0,0-.59-.85.85.85,0,0,0-.5,0,.83.83,0,0,0-.46.09A2.37,2.37,0,0,0,345.69,197.78Zm12.53,7.89a.89.89,0,0,1,.39.12.68.68,0,0,1,.34.59.94.94,0,0,0,.56.86,1,1,0,0,0,.51,0l.45-.09a3.63,3.63,0,0,0-.45-.1.73.73,0,0,1-.7-.73.91.91,0,0,0-.59-.85.89.89,0,0,0-.51,0l-.45.09Zm-.07-8.07a.8.8,0,0,1-.35.19.7.7,0,0,1-.66-.17.93.93,0,0,0-1-.21.94.94,0,0,0-.39.32c-.08.13-.18.25-.26.38.14-.07.26-.17.39-.25a.78.78,0,0,1,.35-.18.71.71,0,0,1,.66.21.92.92,0,0,0,1,.17.78.78,0,0,0,.43-.39c.09-.13.18-.25.26-.38-.18.09-.26.19-.43.27Zm-15.24-32.73a.92.92,0,0,1-.35.19.72.72,0,0,1-.5-.06,1.94,1.94,0,0,0-.21.29.83.83,0,0,0,.81,0A.87.87,0,0,0,343,165l.25-.38-.38.25Zm-.3,9.7a.89.89,0,0,1-.12.38.72.72,0,0,1-.59.34.93.93,0,0,0-.86.57.86.86,0,0,0-.05.5,1.8,1.8,0,0,0,.09.45,2.39,2.39,0,0,1,.09-.45.82.82,0,0,1,.13-.37.71.71,0,0,1,.61-.33.92.92,0,0,0,.85-.59,1.06,1.06,0,0,0,0-.5,1.79,1.79,0,0,0-.09-.46c0,.11,0,.26-.06.42Zm15.12,46.32a.89.89,0,0,1-.12.38.69.69,0,0,1-.59.35.94.94,0,0,0-.86.56.89.89,0,0,0,0,.51.81.81,0,0,0,.09.45c.05-.15.06-.3.1-.45a.73.73,0,0,1,.73-.7.92.92,0,0,0,.85-.59,1.1,1.1,0,0,0,0-.51.81.81,0,0,0-.09-.45,1.27,1.27,0,0,0-.11.41Zm-5.24-31a1,1,0,0,1-.11.39.72.72,0,0,1-.59.34.94.94,0,0,0-.87.57.85.85,0,0,0,0,.5,1.8,1.8,0,0,0,.09.45,2.39,2.39,0,0,1,.09-.45,1.15,1.15,0,0,1,.12-.37.71.71,0,0,1,.61-.33.91.91,0,0,0,.85-.59.89.89,0,0,0,0-.51,3.58,3.58,0,0,0-.09-.45,3.13,3.13,0,0,0-.1.44Zm-19.37,26.9a1,1,0,0,1-.11.38.72.72,0,0,1-.59.35,1,1,0,0,0-.87.56.89.89,0,0,0,0,.51,3.58,3.58,0,0,0,.09.45,2.39,2.39,0,0,1,.09-.45.81.81,0,0,1,.12-.37.71.71,0,0,1,.61-.33.91.91,0,0,0,.85-.59.89.89,0,0,0,0-.51,1.8,1.8,0,0,0-.09-.45c-.05.14-.07.33-.1.44Zm-5.43,11.56a.89.89,0,0,1-.12.38.72.72,0,0,1-.59.35.93.93,0,0,0-.86.56.89.89,0,0,0-.05.51,1.8,1.8,0,0,0,.09.45,2.39,2.39,0,0,1,.09-.45.82.82,0,0,1,.13-.38.68.68,0,0,1,.61-.32.93.93,0,0,0,.85-.6,1.06,1.06,0,0,0,0-.5,1.8,1.8,0,0,0-.09-.45,3.56,3.56,0,0,1-.06.44Zm14-.58a.89.89,0,0,1-.12.39.68.68,0,0,1-.59.34.93.93,0,0,0-.86.57,1,1,0,0,0-.05.5,3.63,3.63,0,0,0,.1.45,2.39,2.39,0,0,1,.09-.45.81.81,0,0,1,.12-.37.71.71,0,0,1,.61-.33.91.91,0,0,0,.85-.59.89.89,0,0,0,0-.51,1.8,1.8,0,0,0-.09-.45,3.56,3.56,0,0,1-.06.44Zm7.69-46.19a.92.92,0,0,1,.35-.19.7.7,0,0,1,.66.18.93.93,0,0,0,1,.21,1,1,0,0,0,.39-.33c.09-.12.17-.25.25-.38l-.38.26a.88.88,0,0,1-.35.17.7.7,0,0,1-.66-.2.94.94,0,0,0-1-.18.87.87,0,0,0-.38.33c-.09.13-.18.25-.26.39l.38-.27ZM328.87,209a.8.8,0,0,1,.35-.19.69.69,0,0,1,.66.18,1,1,0,0,0,1,.21,1,1,0,0,0,.39-.33c.08-.13.18-.25.26-.38-.14.07-.26.17-.39.25a.78.78,0,0,1-.35.18.7.7,0,0,1-.66-.2.91.91,0,0,0-1-.18.87.87,0,0,0-.38.33c-.09.13-.18.25-.26.39l.38-.27Zm3.58,17a.92.92,0,0,1,.35-.19.69.69,0,0,1,.66.18.93.93,0,0,0,1,.21.94.94,0,0,0,.39-.32c.08-.13.18-.25.26-.39-.14.08-.26.17-.39.26a.88.88,0,0,1-.35.17.7.7,0,0,1-.66-.2.94.94,0,0,0-1-.18,1.1,1.1,0,0,0-.38.33c-.09.13-.18.25-.26.39a2.15,2.15,0,0,1,.38-.32Zm16-18.63a.82.82,0,0,1,.36-.18.7.7,0,0,1,.66.17.93.93,0,0,0,1,.21.94.94,0,0,0,.39-.32c.08-.13.18-.25.25-.39l-.38.26a1,1,0,0,1-.36.17.69.69,0,0,1-.65-.2.94.94,0,0,0-1-.18,1.1,1.1,0,0,0-.38.33c-.09.13-.18.25-.26.39a3,3,0,0,0,.39-.32Zm11,6.76a.8.8,0,0,1,.35-.19.7.7,0,0,1,.66.17.93.93,0,0,0,1,.21.94.94,0,0,0,.39-.32c.08-.13.18-.25.25-.39l-.38.26a.88.88,0,0,1-.35.17.7.7,0,0,1-.66-.2.94.94,0,0,0-1-.18.84.84,0,0,0-.38.34c-.09.13-.18.24-.26.38Zm-18.56,5.12a.92.92,0,0,1,.35-.19.69.69,0,0,1,.66.18,1,1,0,0,0,1,.21.84.84,0,0,0,.39-.33c.09-.13.18-.25.26-.38-.14.07-.26.17-.39.25a.78.78,0,0,1-.35.18.7.7,0,0,1-.66-.2.91.91,0,0,0-1-.18,1.1,1.1,0,0,0-.38.33c-.08.13-.18.25-.25.39Zm-18.44-4.42a.8.8,0,0,1,.35-.19.7.7,0,0,1,.66.17.93.93,0,0,0,1,.21.82.82,0,0,0,.39-.32c.09-.13.18-.25.26-.39-.14.08-.26.17-.39.26a.68.68,0,0,1-.35.17.7.7,0,0,1-.66-.2.92.92,0,0,0-1-.17.87.87,0,0,0-.38.33c-.09.13-.18.25-.26.38.19-.13.31-.23.44-.31Zm-3.8,6.46v.25l.08-.09c.08-.13.18-.25.25-.39a1.47,1.47,0,0,0-.27.17Z"/>
                <polygon class="cls-5" points="316.06 234.32 322.76 234.01 321.66 203.88 315.23 203.72 316.06 234.32"/>
                <path class="cls-4"
                      d="M322.53,218.94q-.18-3.12-.4-6.24c-.14-2.07-.21-4.18-.49-6.23a.08.08,0,0,0-.16,0c-.07,2,.07,4.05.13,6.06s.16,4.26.25,6.39c.18,4.21.51,8.4.9,12.6,0,.1.15.08.15,0C322.87,227.3,322.77,223.12,322.53,218.94Z"/>
                <path class="cls-4"
                      d="M364.59,209.5a100.91,100.91,0,0,0-4.78-19.68,2.83,2.83,0,0,0-.11-.31c-.13-.81-.25-1.62-.4-2.42-.23-1.29-.55-2.57-.87-3.84a.05.05,0,0,0-.1,0c.17,1.28.34,2.58.6,3.85a2.74,2.74,0,0,0,.13.55c-1.05-2.91-2.18-5.79-3.43-8.61h-.09c2.23,6.29,4.37,12.57,6,19.06a97.19,97.19,0,0,1,2.78,19.57c.07,1.82.11,3.65,0,5.47a11.26,11.26,0,0,1-1.11,5.2.08.08,0,0,0,.14.08,12.61,12.61,0,0,0,1.47-4.16,32.66,32.66,0,0,0,.35-4.74A68.49,68.49,0,0,0,364.59,209.5Z"/>
                <path class="cls-4"
                      d="M344.25,204.35c-.61-.07-1.22-.12-1.83-.16a88.4,88.4,0,0,0-.63-10.29c-.37-3.52-.75-7-1.21-10.53h-.07c.09,2.22.21,4.44.34,6.67-.24-1.08-.43-2.17-.63-3.25,0-.07-.13,0-.13,0a21.79,21.79,0,0,0,.48,3c.11.41.22.82.34,1.23l.18,3a88.53,88.53,0,0,0,1.1,10.14,86.55,86.55,0,0,0-9.25.2,102.25,102.25,0,0,0-11.18,1,6,6,0,0,0,.08-1.84c-.19-.24-5.37-.21-7,0a18.8,18.8,0,0,0,.29,2.24.08.08,0,0,0,.16,0c0-.68-.06-1.06-.07-1.8h6.14a9.53,9.53,0,0,0,.21,1.68s7.62-.38,11.37-.55c1.85-.08,3.71-.14,5.57-.2s3.79,0,5.69-.24C344.37,204.67,344.43,204.37,344.25,204.35Z"/>
                <rect class="cls-6" x="313.26" y="254.6" width="71.52" height="27.57"/>
                <path class="cls-3"
                      d="M373.11,348.5H313.26v-3.45h59.85a9.83,9.83,0,0,0,9.81-9.82V201.47a13.29,13.29,0,0,1,13.27-13.27h8.07v3.47h-8.07a9.82,9.82,0,0,0-9.81,9.81V335.23A13.29,13.29,0,0,1,373.11,348.5Z"/>
                <path class="cls-3"
                      d="M315,384.23h-3.45v-131a12,12,0,0,1,11.95-11.95h61.16v3.39H323.49a8.52,8.52,0,0,0-8.5,8.5Z"/>
                <rect class="cls-4" x="393.56" y="186.37" width="21.4" height="6.87"/>
                <path class="cls-4"
                      d="M379.24,395c-26.65,0-48.33-27.06-48.33-60.33s21.68-60.32,48.33-60.32,48.34,27.06,48.34,60.32S405.9,395,379.24,395Zm0-115.81c-24,0-43.49,24.89-43.49,55.48s19.51,55.49,43.49,55.49,43.5-24.89,43.5-55.49S403.23,279.19,379.24,279.19Z"/>
                <path class="cls-3"
                      d="M383.06,388.15c-23.58,0-42.76-24-42.76-53.48s19.18-53.47,42.76-53.47,42.76,24,42.76,53.47S406.64,388.15,383.06,388.15Zm0-103.5c-21.67,0-39.3,22.44-39.3,50s17.63,50,39.3,50,39.26-22.4,39.26-50-17.59-50-39.26-50Z"/>
                <ellipse class="cls-3" cx="381.42" cy="334.67" rx="6.93" ry="8.74"/>
                <ellipse class="cls-2" cx="383.64" cy="334.67" rx="6.93" ry="8.74"/>
                <ellipse class="cls-3" cx="312.51" cy="385.28" rx="9.02" ry="11.37"/>
                <ellipse class="cls-2" cx="315.4" cy="385.28" rx="9.02" ry="11.37"/>
            </g>
            <g id="freepik--character-1--inject-29">
                <path class="cls-13"
                      d="M121.74,396.36c-2,.61-59.12-.62-61.21-2-.8-.51,4.1-54.65,4.1-54.65l36.25.69-4.12,36.21s21.09,10,23.22,11.77S123.69,395.76,121.74,396.36Z"/>
                <path class="cls-4"
                      d="M121.74,396.36c-2,.61-59.12-.63-61.21-2-.25-.16-.33-5.65.58-12.81,10.37,1.73,47.37,7.41,50.25,5.72,2-1.18.23-3-1.42-4.27,4.73,2.36,9.13,4.62,10,5.38C122.1,390.13,123.69,395.76,121.74,396.36Z"/>
                <path class="cls-13"
                      d="M97.78,367.91l-35.59-.5s7-85.24,6.75-86.88c-.37-2.1-25.62-101.1-25.62-101.1h34S104.07,271.67,105,280.6C106.59,295,97.78,367.91,97.78,367.91Z"/>
                <path class="cls-13"
                      d="M79.05,396.49c-2,.61-59.12-.62-61.2-2C17,394,20,339.8,20,339.8l35.77.69-1.73,36.25s21.09,10,23.22,11.76S81,395.89,79.05,396.49Z"/>
                <path class="cls-4"
                      d="M79.05,396.49c-2,.61-59.12-.62-61.2-2-.26-.15-.2-5.51,0-12.82,10.37,1.74,47.94,7.43,50.82,5.73,2-1.18.23-3-1.41-4.27,4.72,2.36,9.13,4.62,10,5.39C79.42,390.26,81,395.89,79.05,396.49Z"/>
                <path class="cls-7"
                      d="M79.37,390.67a6.23,6.23,0,0,0-2.84-2.94c-1.56-.88-3.16-1.67-4.76-2.47s-3.24-1.65-5.07-2.46c-.09,0-.16,0-.07.06a51,51,0,0,1,4.49,2.57c1.43.87,2.91,1.66,4.38,2.46a7.36,7.36,0,0,1,3.29,2.83,12.31,12.31,0,0,1,1.11,4.37c0,.12.09.12.09,0A12.05,12.05,0,0,0,79.37,390.67Z"/>
                <path class="cls-13"
                      d="M76.19,179.41s-1,16.25-4.87,29.07c-.31,1.06-.65,2.1-1,3.1a61.13,61.13,0,0,0-9.85,4.91s-2.45,62.12-2.41,66c.16,14.43-3.53,84.73-3.53,84.73l-35.88-.34s3.72-79.5,3.73-84.78c0-8.5,7.53-102.65,7.53-102.65Z"/>
                <path class="cls-10"
                      d="M77.32,179.43H29.9a66.87,66.87,0,0,0-2.53,34.24l-6.61,89.11s32,4.81,51.65,4.81S106,301.12,106,301.12s.13-15.06-.42-20.59S77.32,179.43,77.32,179.43Z"/>
                <path class="cls-4"
                      d="M81.23,147.53l-6.34-.1a19.52,19.52,0,0,1-1.57-11.71c.15-.91-2.22,4.26-1.65,11.66-6.69-.1-15.79-.24-23.74-.44,0-3.11-.2-6-.2-6a33.75,33.75,0,0,1-1.53,5.95L43,146.81A121.65,121.65,0,0,0,43,133.58a42.43,42.43,0,0,1-4.45,13.09c-5-.18-8.36-.39-8.13-.62,8-8.45,2.58-13.71,5-21.33,3-9.13,11-10.28,11-17.23,0-5.64-.26-15.91,7-17.82a13.74,13.74,0,0,1,15-2.27c11.1,4.76,6,22,6.59,25.55.89,5.1,3.23,7,4.8,12.81s-1.21,9.68-1.66,13.62S82.49,147.56,81.23,147.53Z"/>
                <path class="cls-4"
                      d="M30.2,144.8A19.84,19.84,0,0,0,32.84,140a10.43,10.43,0,0,0,.19-5.29,53.09,53.09,0,0,1-.71-5.61,14.8,14.8,0,0,1,.78-5.79,13,13,0,0,1,3.22-4.89,35.33,35.33,0,0,1,4.48-3.51A21,21,0,0,0,45,111.31a10,10,0,0,0,2.22-5,9.45,9.45,0,0,1-1.67,5.37,19.44,19.44,0,0,1-4,4,42.67,42.67,0,0,0-4.18,3.65,12.43,12.43,0,0,0-2.81,4.43,14.56,14.56,0,0,0-.73,5.24c0,1.81.3,3.63.47,5.52a19.79,19.79,0,0,1,.07,2.88,8.78,8.78,0,0,1-.75,2.84A16.41,16.41,0,0,1,30.2,144.8Z"/>
                <path class="cls-4"
                      d="M74.53,94.13a28.47,28.47,0,0,1,1.27,6.79c.19,2.3.28,4.61.34,6.9l.11,3.43a16.51,16.51,0,0,0,.39,3.28,18.25,18.25,0,0,0,2.84,6,27.44,27.44,0,0,1,1.73,3.09A16.41,16.41,0,0,1,82.33,127a23.33,23.33,0,0,1,.35,3.54,14.19,14.19,0,0,1-.33,3.56,29,29,0,0,1-1,3.35,17.47,17.47,0,0,0-.65,3.28,7.06,7.06,0,0,0,2.62,6,7.19,7.19,0,0,1-3.26-6,17,17,0,0,1,.44-3.49c.24-1.15.57-2.24.74-3.33a18.21,18.21,0,0,0-.27-6.58,15.33,15.33,0,0,0-1.06-3.1,25.24,25.24,0,0,0-1.66-2.9,34.7,34.7,0,0,1-1.77-3,14.63,14.63,0,0,1-1.2-3.4,18.48,18.48,0,0,1-.31-3.56v-3.45c0-2.3.11-4.59.09-6.87A33.54,33.54,0,0,0,74.53,94.13Z"/>
                <path class="cls-13"
                      d="M60.43,132.5c3.09,6.92,26.28,39.54,38,40.55,12.23,1,41.78-18.62,44.61-20.26,7.76-4.48-13.51-25.76-17.27-22.06-6.28,6.18-21.26,17.8-24.88,17-7.62-1.75-23.38-15.28-34.58-22.35C59.51,121.07,57,124.84,60.43,132.5Z"/>
                <path class="cls-13"
                      d="M141.14,153.85c1.34-.87,12.11-6.7,16.19-12.39,2.15-3,7.15-12,5.49-13.51s-3.5.7-3.5.7,2.17-4,0-6-5.29,1.81-5.29,1.81,1.93-4.3-.34-6.07-4.81,2.52-4.81,2.52,2-3.85-.54-4.52c-3-.81-5.78,6.68-8.72,9.54-.67.65-14.47,12.21-14.47,12.21Z"/>
                <path class="cls-4"
                      d="M148.75,121c-2.07,5.51-3.92,7.56-8.53,11.06-.09.07,0,.22.09.15,4.83-3,7.53-5.25,8.71-11.12C149.08,120.75,148.85,120.67,148.75,121Z"/>
                <path class="cls-4"
                      d="M153.89,124.48c-2.64,5.53-4.63,7.78-9.19,11.8-.06,0,0,.17.1.12,4.8-3.57,7.44-5.87,9.35-11.74C154.24,124.39,154,124.23,153.89,124.48Z"/>
                <path class="cls-4"
                      d="M159.09,128.84c-2.94,5.17-5,7.73-10,11.06a.1.1,0,0,0,0,.15.1.1,0,0,0,.15,0h0c5.35-2.91,8-6.08,10-11.14C159.38,128.6,159.32,128.52,159.09,128.84Z"/>
                <path class="cls-13"
                      d="M120.56,136.45s3.11-6.68,5.12-9.31,13.13-9.69,14.79-7.37c2.14,3-3.47,8.32-6.56,10.57,0,0,5,6.91,1.76,11.61S120.56,136.45,120.56,136.45Z"/>
                <path class="cls-4"
                      d="M140.79,120.78c0,4.13-4.26,6.83-7.1,9.24a.35.35,0,0,0-.07.49.23.23,0,0,0,.07.07c1.89,3,3.67,7.86,2.18,11.33a.08.08,0,0,0,.08.1.07.07,0,0,0,.07,0c2.1-3.5.74-8.39-1.54-11.58,3-2.42,7.09-5.32,6.32-9.63C140.82,120.75,140.79,120.75,140.79,120.78Z"/>
                <path class="cls-1"
                      d="M60.73,134.46c3.58,7.34,24.62,38.74,36.16,39.36S136.32,158,136.32,158l-15.77-23.08S103,146.43,101,146.48,72.85,128.79,66.81,125,54.89,122.51,60.73,134.46Z"/>
                <path class="cls-5"
                      d="M60.73,134.46c3.58,7.34,24.62,38.74,36.16,39.36s34.18-11.56,34.18-11.56l-16-24.9s-12.5,8.82-14.45,8.87S72.81,128.79,66.77,125,54.89,122.51,60.73,134.46Z"/>
                <path class="cls-9"
                      d="M112.66,170.49c-5.63,2-11.47,3.56-15.76,3.33-11.55-.61-32.58-32-36.17-39.36-3.15-6.44-2.89-9.82-1-11Z"/>
                <path class="cls-4"
                      d="M111,141.93a21.05,21.05,0,0,0,1.58,2.77c.58.92,1.08,1.82,1.65,2.72,1.08,1.74,2.19,3.45,3.31,5.16s2.24,3.42,3.37,5.13,2.26,3.62,3.56,5.29a.07.07,0,0,0,.12-.08c-1-1.88-2.19-3.65-3.3-5.45s-2.19-3.54-3.3-5.31-2.22-3.52-3.36-5.27c-.56-.86-1.13-1.7-1.72-2.54s-1.16-1.7-1.8-2.51C111.08,141.77,111,141.86,111,141.93Z"/>
                <path class="cls-5"
                      d="M80,167.23l3.57,28.56s-46.42-.25-57.93-1.29c0,0,10.47-53.05,23.13-66.25,6.33-6.6,13.59-6,18.14-1.16,1.14,1.22,14.77,20,16.1,27.09C84.17,160.45,80,167.23,80,167.23Z"/>
                <path class="cls-4"
                      d="M82.87,153a22.84,22.84,0,0,0-2.35-5.3c-.71-1.27-1.45-2.52-2.2-3.77-.23-.43-.42-.87-.63-1.31s-.38-.76-.56-1.13c-.41-.82-.83-1.63-1.26-2.44h-.08c.33.82.67,1.62,1.06,2.41-1.11-1.81-2.2-3.64-3.39-5.4h0c2.4,4.47,5.14,8.75,7.35,13.33a18.29,18.29,0,0,1,1.89,6.87,19.1,19.1,0,0,1-.88,7.16c0,.09.1.17.14.07a17.69,17.69,0,0,0,1.37-5.2A14.52,14.52,0,0,0,82.87,153Z"/>
                <path class="cls-13"
                      d="M55,126c.32.88,5.37,6.22,9.49,5.52,1.34-.23.4-7.6.4-7.6v-.56l.77-7.84L56,110.89l-1.39-.6s-.07,2.16-.12,4.85v4A53.14,53.14,0,0,0,55,126Z"/>
                <path class="cls-4"
                      d="M54.54,115.14A15.79,15.79,0,0,0,65,123.38l.77-7.84-9.67-4.65-1.39-.6S54.59,112.45,54.54,115.14Z"/>
                <path class="cls-13"
                      d="M75.77,104.05c1,13.79-7.14,16-10.11,16.16-2.7.19-11.91.51-14.34-13.1S55,88.68,61.14,87.91,74.76,90.27,75.77,104.05Z"/>
                <path class="cls-4"
                      d="M72.92,101.13A5,5,0,0,1,72,101a1.56,1.56,0,0,1-.92-.37.48.48,0,0,1,0-.6,1.24,1.24,0,0,1,1.2-.3,1.74,1.74,0,0,1,1.13.61.52.52,0,0,1-.08.73A.5.5,0,0,1,72.92,101.13Z"/>
                <path class="cls-4"
                      d="M64.06,101.31a4.45,4.45,0,0,0,.93-.21,1.54,1.54,0,0,0,.91-.4.51.51,0,0,0,0-.6,1.25,1.25,0,0,0-1.21-.27,1.83,1.83,0,0,0-1.11.66.53.53,0,0,0,.12.73A.56.56,0,0,0,64.06,101.31Z"/>
                <path class="cls-4"
                      d="M66,104.76s-.07,0-.07.09c.07.94,0,2-.85,2.37h0C66.09,107.09,66.18,105.67,66,104.76Z"/>
                <path class="cls-4" d="M65.08,103.82c-1.52-.06-1.51,3-.1,3S66.32,103.86,65.08,103.82Z"/>
                <path class="cls-4"
                      d="M64.49,104c-.27.17-.53.47-.85.51s-.65-.28-.89-.59h0c0,.58.21,1.17.84,1.26s1-.44,1.12-1C64.69,104.07,64.59,103.91,64.49,104Z"/>
                <path class="cls-4"
                      d="M71.16,104.61a.07.07,0,0,1,.07.08c0,.94.08,2,.93,2.34h0C71.11,106.93,71,105.49,71.16,104.61Z"/>
                <path class="cls-4" d="M72,103.67c1.52-.11,1.62,2.93.22,3S70.73,103.72,72,103.67Z"/>
                <path class="cls-4"
                      d="M72.64,103.81c.25.15.49.43.78.44s.57-.32.77-.64h0c0,.58-.14,1.19-.69,1.32s-.9-.37-1-.94C72.47,103.91,72.54,103.74,72.64,103.81Z"/>
                <path class="cls-4"
                      d="M65.76,112.42c.21.23.42.55.76.59a2.47,2.47,0,0,0,1-.19h0a1.27,1.27,0,0,1-1.21.46,1,1,0,0,1-.71-.87S65.72,112.39,65.76,112.42Z"/>
                <path class="cls-4"
                      d="M70,108.8s.21,1.41.22,2.07c0,.06-.16.09-.38.11h0a3.16,3.16,0,0,1-3.08-1.13.07.07,0,1,1,.1-.1,4.77,4.77,0,0,0,2.89.79,23.34,23.34,0,0,1-.34-2.4,5.57,5.57,0,0,1,1.51.32c-.36-2.94-1.19-5.79-1.5-8.72a.1.1,0,0,1,.11-.06.09.09,0,0,1,.06.06,47.05,47.05,0,0,1,2,9.32C71.62,109.39,70.25,108.91,70,108.8Z"/>
                <path class="cls-4"
                      d="M69.63,110.86a3.76,3.76,0,0,1-1.48,1.23,1.72,1.72,0,0,1-1,.09c-.76-.17-.8-.86-.68-1.45a4.25,4.25,0,0,1,.31-.91A4.92,4.92,0,0,0,69.63,110.86Z"/>
                <path class="cls-14"
                      d="M68.15,112.09a1.72,1.72,0,0,1-1,.09c-.76-.17-.8-.86-.68-1.45A1.78,1.78,0,0,1,68.15,112.09Z"/>
                <path class="cls-4"
                      d="M51.94,106.43c1.48-.1,5.34-4.2,5.44-11.38,0,0-.53,6.44-1,7.39s2.15-2.31,2.31-8.11a23.31,23.31,0,0,0,6,3.07c2.74.75,4.42.72,4.61.53s-3.83-1.46-4.93-2.71c0,0,7.29,3.36,10.65,3.6.38,0,.82-8-4.37-11.32S57.25,87.82,55,90c0,0-2.59.38-5.39,4.22S50.32,106.53,51.94,106.43Z"/>
                <path class="cls-5"
                      d="M63.67,109.92a4.29,4.29,0,1,1,4.6-5h0a4.27,4.27,0,0,1-3.48,5A4.21,4.21,0,0,1,63.67,109.92Zm.69-8a3.62,3.62,0,0,0-.93,0,3.75,3.75,0,1,0,.93,0Z"/>
                <path class="cls-5"
                      d="M73.51,109.56c-1.63-.14-3-1.94-3-4.18a5.05,5.05,0,0,1,.81-3,2.67,2.67,0,0,1,3.65-1,2.59,2.59,0,0,1,.93.87,5.14,5.14,0,0,1,1,3c.07,2.37-1.3,4.34-3.06,4.39Zm.26-8h-.22a2.29,2.29,0,0,0-1.79,1.11,4.5,4.5,0,0,0-.72,2.69c.07,2,1.29,3.68,2.74,3.64s2.57-1.75,2.5-3.8a4.57,4.57,0,0,0-.88-2.64,2.39,2.39,0,0,0-1.63-1Z"/>
                <path class="cls-5"
                      d="M68.14,105.44l-.38-.42c.64-.57,2.12-1.35,3.2-.26l-.41.4C69.59,104.18,68.2,105.39,68.14,105.44Z"/>
                <path class="cls-5"
                      d="M49.06,107.14l-.52-.25c.12-.24,1.17-2.36,2.44-2.61s8.9.25,9.23.27v.58c-2.22-.14-8.17-.47-9.09-.29S49.32,106.56,49.06,107.14Z"/>
                <path class="cls-13" d="M53.59,108s-3-4.35-4.93-3.3.21,7.33,2.5,8.22a2.36,2.36,0,0,0,3.12-1.16l0-.1Z"/>
                <path class="cls-4"
                      d="M49.32,106.55a6,6,0,0,1,3,3.74,1.29,1.29,0,0,0-1.76-.49l-.16.11V110a1.44,1.44,0,0,1,1.57.52,7.18,7.18,0,0,1,.74,1.29c.08.15.34.07.29-.09h0c.09-2-1.47-5-3.68-5.23Z"/>
                <path class="cls-13"
                      d="M54.32,111.67a2.52,2.52,0,0,1-1.18,1.23,1.72,1.72,0,0,1-.43.16,2.41,2.41,0,0,1-1,0l-.47-.14h0c-2.28-.88-4.48-7.17-2.49-8.21S53.67,108,53.67,108Z"/>
                <path class="cls-4"
                      d="M49.32,106.55a6,6,0,0,1,3,3.74,1.29,1.29,0,0,0-1.76-.49l-.16.11V110a1.44,1.44,0,0,1,1.57.52,7.18,7.18,0,0,1,.74,1.29c.08.15.34.07.29-.09h0c.09-2-1.47-5-3.68-5.23Z"/>
                <path class="cls-1"
                      d="M64.86,123.93l-1.25,6.41-8.84-6.13L53.13,127s9.52,10.59,9.47,10l1.47-5.6,4.23,2.9-2-8.91Z"/>
                <path class="cls-4"
                      d="M67.56,129.91c-.38-1.46-.72-2.94-1.17-4.39h-.1c0,1.48,1.45,7.06,1.71,8.42h0c-.18-.13-3.89-2.52-3.91-2.47-.37.92-1.46,5-1.52,5.36-1.51-1.68-7.8-8.25-9.5-9.79,0-.05-.12,0-.07.07,1.39,1.81,9.55,10.51,9.64,10.47a60.2,60.2,0,0,0,1.51-5.91,40.92,40.92,0,0,0,4.43,3.1A44.62,44.62,0,0,0,67.56,129.91Z"/>
                <polygon class="cls-6" points="87.21 197.66 118.76 197.23 124.12 152.51 92.57 152.93 87.21 197.66"/>
                <polygon class="cls-3" points="88.76 197.64 120.3 197.21 125.67 152.49 94.13 152.91 88.76 197.64"/>
                <path class="cls-8"
                      d="M111.32,173.05a3.42,3.42,0,0,1-3.29,3.12,2.79,2.79,0,0,1-2.86-2.7c0-.1,0-.2,0-.3a3.44,3.44,0,0,1,3.3-3.12,2.76,2.76,0,0,1,2.85,2.67C111.33,172.83,111.33,172.94,111.32,173.05Z"/>
                <path class="cls-13"
                      d="M46.24,132.39c-7,13.74-22.27,49.41-15.45,54.88,11.22,9,35.59,14.23,43.05,15,3.22.35,10-23.87,6.75-25.16-3.85-1.55-28-4.74-28.26-6.85-.15-1.19.5-14.45.58-27.56C53,127.54,48.65,127.67,46.24,132.39Z"/>
                <path class="cls-13"
                      d="M69.19,177.67s8.8-4.44,14.68-7.08c3.29-1.47,9.14-3.48,12-3.46,4.35,0,22.51,3,21.89,7.38-.55,4-15.83-.49-15.83-.49s15.82,3.17,14.26,7.86S98,179.2,98,179.2s16.19,3.62,13.82,8.21c-1.79,3.46-17.2-2.37-17.2-2.37s13.89,3.21,12.21,6.85c-1.87,4-16.43-.46-16.43-.46-5.85,8.54-12.82,11.66-17.61,10.79C71.77,202,69.19,177.67,69.19,177.67Z"/>
                <path class="cls-4"
                      d="M97.32,172.72c11.83,1.45,17.19,5.78,17,5.7a73.06,73.06,0,0,0-12.31-4.3c-1.84-.47-2.9-.86-4.73-1.33C97.25,172.78,97.32,172.72,97.32,172.72Z"/>
                <path class="cls-4"
                      d="M94.75,179.16a40.75,40.75,0,0,1,13.91,3.61c.16.09.08.13-.1.08-2.32-.66-11.48-3.09-13.82-3.64Z"/>
                <path class="cls-4"
                      d="M92.17,184.55a29.83,29.83,0,0,1,10.68,3.12c.17.08.05.15-.13.1-3.53-1.11-6.3-2-10.57-3.09,0,0-.06,0-.05-.07A.06.06,0,0,1,92.17,184.55Z"/>
                <path class="cls-1"
                      d="M72.65,174.8l-6.33,27.68S31.89,193.77,28.48,185s13-45.06,16.34-51.09c.94-1.7,3.61-5.68,5.28-5.59,1.89.1,2.2,2.79,3.25,9,1.39,8.21-.84,31.92-.18,32.75S72.65,174.8,72.65,174.8Z"/>
                <path class="cls-5"
                      d="M66.32,172.78l-7.4,28.28s-27-7.29-30.37-16.08,13-45.06,16.34-51.09c.94-1.7,3.61-5.68,5.28-5.59,1.89.1,2.2,2.79,3.25,9,1.39,8.21-.84,31.92-.18,32.75S66.32,172.78,66.32,172.78Z"/>
                <path class="cls-4"
                      d="M66.15,172.67c-2.27-.71-13-3-13-3h0s.33-4.19.42-6.22.15-4.18.21-6.27c0-1.32.07-2.64.11-4l.63-2.33c.34-1.29.6-2.6.89-3.9,0,0-.06-.08-.08,0a32.61,32.61,0,0,0-1.25,3.85c-.06.25-.1.49-.16.74V147.7c0-1.07.08-2,0-3,0-.06-.1,0-.11,0-.16,1-.16,2.13-.24,3.18s-.16,2.12-.22,3.18c-.13,2.09-.22,4.18-.32,6.26s-.2,4.18-.27,6.27a55.62,55.62,0,0,0-.11,6.71c0,.1,10.76,2.26,13.32,2.69C66.32,173.09,66.32,172.74,66.15,172.67Z"/>
                <path class="cls-4"
                      d="M43.81,195.67a53.92,53.92,0,0,1-9.9-5.39c-3-2-6.1-4.69-5.8-8.61h0c-.69,3.76,2.11,6.93,5,8.88a56.05,56.05,0,0,0,10.71,5.27C43.85,195.88,43.89,195.75,43.81,195.67Z"/>
                <path class="cls-4"
                      d="M54.68,198c.42-1,.66-2,1-3s.61-2,.9-3.06c.55-2,1.07-3.95,1.57-5.92s1-4,1.52-6,1.14-4.11,1.5-6.19c0-.1-.11-.13-.14,0-.74,2-1.22,4.08-1.8,6.11s-1.13,4-1.69,6-1.11,4-1.63,6c-.25,1-.5,2-.71,3a28.09,28.09,0,0,0-.64,3C54.54,198.11,54.65,198.11,54.68,198Z"/>
            </g>
            <g id="freepik--Desk--inject-29">
                <polygon class="cls-7" points="105.2 243.25 82.62 400.64 78.16 400.64 92.11 243.25 105.2 243.25"/>
                <polygon class="cls-4" points="105.2 243.25 103.04 257.42 90.77 257.42 92.1 243.25 105.2 243.25"/>
                <polygon class="cls-7" points="324.88 243.25 347.46 400.64 351.92 400.64 337.97 243.25 324.88 243.25"/>
                <polygon class="cls-4" points="324.88 243.25 327.04 257.42 339.31 257.42 337.98 243.25 324.88 243.25"/>
                <rect class="cls-7" x="69.76" y="232.72" width="290.55" height="7.45"/>
                <rect class="cls-4" x="73.98" y="240.17" width="282.12" height="3.08"/>
            </g>
            <g id="freepik--Device--inject-29">
                <rect class="cls-3" x="244.63" y="230.25" width="55" height="2.47"/>
                <rect class="cls-6" x="244.63" y="230.25" width="27.68" height="2.47"/>
                <polygon class="cls-3" points="269.33 232.72 215.73 232.72 208.72 196.31 262.32 196.31 269.33 232.72"/>
                <path class="cls-6"
                      d="M242.32,214.51a2.93,2.93,0,0,1-2.6,3.24,2.68,2.68,0,0,1-.4,0,3.64,3.64,0,0,1-3.55-3.26,2.93,2.93,0,0,1,2.6-3.24,2.68,2.68,0,0,1,.4,0A3.64,3.64,0,0,1,242.32,214.51Z"/>
            </g>
        </g>
    </g>
</svg>