<svg xmlns:xlink="http://www.w3.org/1999/xlink" xmlns="http://www.w3.org/2000/svg" viewBox="0 0 2128.44 1308.7">
    <defs>
        <style>
            .cls-1{fill:url(#Gradiente_sem_nome_8);}.cls-2{fill:url(#Gradiente_sem_nome_7);}.cls-3{fill:url(#Gradiente_sem_nome_7-2);}.cls-4{fill:url(#Gradiente_sem_nome_7-3);}.cls-5{fill:url(#Gradiente_sem_nome_7-4);}.cls-6{fill:url(#Gradiente_sem_nome_7-5);}.cls-7{fill:url(#Gradiente_sem_nome_7-6);}.cls-8{fill:url(#Gradiente_sem_nome_7-7);}.cls-9{fill:url(#Gradiente_sem_nome_7-8);}.cls-10{fill:url(#Gradiente_sem_nome_7-9);}.cls-11{fill:url(#Gradiente_sem_nome_7-10);}.cls-12{fill:url(#Gradiente_sem_nome_7-11);}.cls-13{fill:url(#Gradiente_sem_nome_7-12);}.cls-14{fill:url(#Gradiente_sem_nome_7-13);}.cls-15{fill:url(#Gradiente_sem_nome_7-14);}.cls-16{fill:url(#Gradiente_sem_nome_7-15);}.cls-17{fill:url(#Gradiente_sem_nome_7-16);}.cls-18{fill:url(#Gradiente_sem_nome_7-17);}.cls-19{fill:url(#Gradiente_sem_nome_7-18);}.cls-20{fill:url(#Gradiente_sem_nome_7-19);}.cls-21{fill:url(#Gradiente_sem_nome_7-20);}.cls-22{fill:url(#Gradiente_sem_nome_7-21);}.cls-23{fill:url(#Gradiente_sem_nome_7-22);}.cls-24{fill:url(#Gradiente_sem_nome_7-23);}.cls-25{fill:url(#Gradiente_sem_nome_7-24);}.cls-26{fill:url(#Gradiente_sem_nome_7-25);}.cls-27{fill:url(#Gradiente_sem_nome_7-26);}.cls-28{fill:url(#Gradiente_sem_nome_7-27);}.cls-29{fill:url(#Gradiente_sem_nome_7-28);}.cls-30{fill:url(#Gradiente_sem_nome_7-29);}.cls-31{fill:url(#Gradiente_sem_nome_7-30);}.cls-32{fill:url(#Gradiente_sem_nome_7-31);}.cls-33{fill:url(#Gradiente_sem_nome_7-32);}.cls-34{fill:url(#Gradiente_sem_nome_7-33);}.cls-35{fill:url(#Gradiente_sem_nome_7-34);}.cls-36{fill:#1d4018;}.cls-37{fill:url(#Gradiente_sem_nome_6);}.cls-38{fill:#2c764f;}.cls-39{fill:url(#Gradiente_sem_nome_5);}.cls-40{fill:url(#Gradiente_sem_nome_5-2);}.cls-41{fill:url(#Gradiente_sem_nome_4);}.cls-42{fill:url(#Gradiente_sem_nome_4-2);}.cls-43{fill:#ea9804;}.cls-44{fill:url(#Gradiente_sem_nome_4-3);}.cls-45{fill:#fff;}.cls-46{fill:url(#Gradiente_sem_nome_2);}.cls-47{fill:url(#Gradiente_sem_nome_4-4);}.cls-48{fill:url(#Gradiente_sem_nome_2-2);}.cls-49{fill:url(#Gradiente_sem_nome_2-3);}.cls-50{fill:#b4583d;}.cls-51{fill:url(#Gradiente_sem_nome_2-4);}.cls-52{fill:url(#Gradiente_sem_nome_2-5);}.cls-53{fill:url(#Gradiente_sem_nome_3);}.cls-54{fill:url(#Gradiente_sem_nome_2-6);}.cls-55{fill:url(#Gradiente_sem_nome_2-7);}.cls-56{fill:url(#Gradiente_sem_nome_2-8);}.cls-57{fill:url(#Gradiente_sem_nome_2-9);}.cls-58{fill:url(#Gradiente_sem_nome_2-10);}.cls-59{fill:#2b993a;}.cls-60,.cls-61{fill:none;stroke:#1d4018;}.cls-60{stroke-miterlimit:10;stroke-width:0.5px;stroke-dasharray:3
            3;}.cls-61{stroke-linecap:round;stroke-linejoin:round;stroke-width:2px;}
        </style>
        <linearGradient id="Gradiente_sem_nome_8" x1="1070.16" y1="1226.52" x2="1070.16" y2="76.2"
                        gradientTransform="matrix(1.03, 0.04, -0.04, 1, -14.8, -68.63)" gradientUnits="userSpaceOnUse">
            <stop offset="0" stop-color="#f6ead4" stop-opacity="0"/>
            <stop offset="0.11" stop-color="#f6ead4" stop-opacity="0.02"/>
            <stop offset="0.23" stop-color="#f6ead4" stop-opacity="0.08"/>
            <stop offset="0.37" stop-color="#f6ead4" stop-opacity="0.17"/>
            <stop offset="0.51" stop-color="#f6ead4" stop-opacity="0.31"/>
            <stop offset="0.66" stop-color="#f6ead4" stop-opacity="0.48"/>
            <stop offset="0.81" stop-color="#f6ead4" stop-opacity="0.69"/>
            <stop offset="0.96" stop-color="#f6ead4" stop-opacity="0.94"/>
            <stop offset="1" stop-color="#f6ead4"/>
        </linearGradient>
        <linearGradient id="Gradiente_sem_nome_7" x1="1529.38" y1="826.29" x2="1529.38" y2="445.66"
                        gradientUnits="userSpaceOnUse">
            <stop offset="0" stop-color="#2b993a" stop-opacity="0"/>
            <stop offset="0.11" stop-color="#2d9b3b" stop-opacity="0.02"/>
            <stop offset="0.24" stop-color="#339f3c" stop-opacity="0.08"/>
            <stop offset="0.38" stop-color="#3ca73e" stop-opacity="0.19"/>
            <stop offset="0.53" stop-color="#4ab242" stop-opacity="0.33"/>
            <stop offset="0.69" stop-color="#5bc046" stop-opacity="0.52"/>
            <stop offset="0.84" stop-color="#70d14c" stop-opacity="0.74"/>
            <stop offset="1" stop-color="#88e552"/>
        </linearGradient>
        <linearGradient id="Gradiente_sem_nome_7-2" x1="1383.37" y1="826.29" x2="1383.37" y2="445.66"
                        xlink:href="#Gradiente_sem_nome_7"/>
        <linearGradient id="Gradiente_sem_nome_7-3" x1="1495.55" y1="826.29" x2="1495.55" y2="445.67"
                        xlink:href="#Gradiente_sem_nome_7"/>
        <linearGradient id="Gradiente_sem_nome_7-4" x1="1330.26" y1="826.29" x2="1330.26" y2="445.66"
                        xlink:href="#Gradiente_sem_nome_7"/>
        <linearGradient id="Gradiente_sem_nome_7-5" x1="1594.44" y1="826.26" x2="1594.44" y2="445.66"
                        xlink:href="#Gradiente_sem_nome_7"/>
        <linearGradient id="Gradiente_sem_nome_7-6" x1="1308.39" y1="826.29" x2="1308.39" y2="445.66"
                        xlink:href="#Gradiente_sem_nome_7"/>
        <linearGradient id="Gradiente_sem_nome_7-7" x1="1455.85" y1="826.29" x2="1455.85" y2="445.66"
                        xlink:href="#Gradiente_sem_nome_7"/>
        <linearGradient id="Gradiente_sem_nome_7-8" x1="1425.5" y1="826.29" x2="1425.5" y2="445.67"
                        xlink:href="#Gradiente_sem_nome_7"/>
        <linearGradient id="Gradiente_sem_nome_7-9" x1="1606.3" y1="826.29" x2="1606.3" y2="445.66"
                        xlink:href="#Gradiente_sem_nome_7"/>
        <linearGradient id="Gradiente_sem_nome_7-10" x1="1633.91" y1="826.29" x2="1633.91" y2="445.67"
                        xlink:href="#Gradiente_sem_nome_7"/>
        <linearGradient id="Gradiente_sem_nome_7-11" x1="1545.65" y1="826.29" x2="1545.65" y2="445.67"
                        xlink:href="#Gradiente_sem_nome_7"/>
        <linearGradient id="Gradiente_sem_nome_7-12" x1="1619.71" y1="826.29" x2="1619.71" y2="445.66"
                        xlink:href="#Gradiente_sem_nome_7"/>
        <linearGradient id="Gradiente_sem_nome_7-13" x1="1569.65" y1="826.29" x2="1569.65" y2="445.66"
                        xlink:href="#Gradiente_sem_nome_7"/>
        <linearGradient id="Gradiente_sem_nome_7-14" x1="1530.61" y1="826.28" x2="1530.61" y2="445.6"
                        xlink:href="#Gradiente_sem_nome_7"/>
        <linearGradient id="Gradiente_sem_nome_7-15" x1="1582.04" y1="826.29" x2="1582.04" y2="445.66"
                        xlink:href="#Gradiente_sem_nome_7"/>
        <linearGradient id="Gradiente_sem_nome_7-16" x1="1637.07" y1="826.3" x2="1637.07" y2="445.66"
                        xlink:href="#Gradiente_sem_nome_7"/>
        <linearGradient id="Gradiente_sem_nome_7-17" x1="1593.69" y1="826.29" x2="1593.69" y2="445.67"
                        xlink:href="#Gradiente_sem_nome_7"/>
        <linearGradient id="Gradiente_sem_nome_7-18" x1="784.24" y1="826.28" x2="784.24" y2="445.62"
                        xlink:href="#Gradiente_sem_nome_7"/>
        <linearGradient id="Gradiente_sem_nome_7-19" x1="635.68" y1="826.29" x2="635.68" y2="445.66"
                        xlink:href="#Gradiente_sem_nome_7"/>
        <linearGradient id="Gradiente_sem_nome_7-20" x1="769.09" y1="826.29" x2="769.09" y2="445.66"
                        xlink:href="#Gradiente_sem_nome_7"/>
        <linearGradient id="Gradiente_sem_nome_7-21" x1="660.73" y1="826.29" x2="660.73" y2="445.67"
                        xlink:href="#Gradiente_sem_nome_7"/>
        <linearGradient id="Gradiente_sem_nome_7-22" x1="580.31" y1="826.3" x2="580.31" y2="445.67"
                        xlink:href="#Gradiente_sem_nome_7"/>
        <linearGradient id="Gradiente_sem_nome_7-23" x1="702.06" y1="826.29" x2="702.06" y2="445.67"
                        xlink:href="#Gradiente_sem_nome_7"/>
        <linearGradient id="Gradiente_sem_nome_7-24" x1="819.74" y1="826.29" x2="819.74" y2="445.67"
                        xlink:href="#Gradiente_sem_nome_7"/>
        <linearGradient id="Gradiente_sem_nome_7-25" x1="682.11" y1="826.29" x2="682.11" y2="445.67"
                        xlink:href="#Gradiente_sem_nome_7"/>
        <linearGradient id="Gradiente_sem_nome_7-26" x1="635.25" y1="826.29" x2="635.25" y2="445.66"
                        xlink:href="#Gradiente_sem_nome_7"/>
        <linearGradient id="Gradiente_sem_nome_7-27" x1="597.38" y1="826.29" x2="597.38" y2="445.67"
                        xlink:href="#Gradiente_sem_nome_7"/>
        <linearGradient id="Gradiente_sem_nome_7-28" x1="552.32" y1="826.29" x2="552.32" y2="445.66"
                        xlink:href="#Gradiente_sem_nome_7"/>
        <linearGradient id="Gradiente_sem_nome_7-29" x1="593.95" y1="826.29" x2="593.95" y2="445.67"
                        xlink:href="#Gradiente_sem_nome_7"/>
        <linearGradient id="Gradiente_sem_nome_7-30" x1="516.64" y1="826.29" x2="516.64" y2="445.67"
                        xlink:href="#Gradiente_sem_nome_7"/>
        <linearGradient id="Gradiente_sem_nome_7-31" x1="662.47" y1="826.28" x2="662.47" y2="445.57"
                        xlink:href="#Gradiente_sem_nome_7"/>
        <linearGradient id="Gradiente_sem_nome_7-32" x1="507.21" y1="826.29" x2="507.21" y2="445.67"
                        xlink:href="#Gradiente_sem_nome_7"/>
        <linearGradient id="Gradiente_sem_nome_7-33" x1="493.62" y1="826.22" x2="493.62" y2="445.74"
                        xlink:href="#Gradiente_sem_nome_7"/>
        <linearGradient id="Gradiente_sem_nome_7-34" x1="556.25" y1="826.29" x2="556.25" y2="445.67"
                        xlink:href="#Gradiente_sem_nome_7"/>
        <linearGradient id="Gradiente_sem_nome_6" x1="1305.15" y1="513.9" x2="1442.34" y2="513.9"
                        gradientUnits="userSpaceOnUse">
            <stop offset="0" stop-color="#2c764f"/>
            <stop offset="0.33" stop-color="#2c7b4c"/>
            <stop offset="0.71" stop-color="#2b8944"/>
            <stop offset="1" stop-color="#2b993a"/>
        </linearGradient>
        <linearGradient id="Gradiente_sem_nome_5" x1="1105.86" y1="415.74" x2="1241.45" y2="500.17"
                        gradientUnits="userSpaceOnUse">
            <stop offset="0" stop-color="#2b993a"/>
            <stop offset="1" stop-color="#2c764f"/>
        </linearGradient>
        <linearGradient id="Gradiente_sem_nome_5-2" x1="1373.21" y1="335.27" x2="1118.03" y2="1155.18"
                        xlink:href="#Gradiente_sem_nome_5"/>
        <linearGradient id="Gradiente_sem_nome_4" x1="1093.7" y1="443.98" x2="1215.69" y2="225.84"
                        gradientUnits="userSpaceOnUse">
            <stop offset="0" stop-color="#fead02"/>
            <stop offset="1" stop-color="#fdcc23"/>
        </linearGradient>
        <linearGradient id="Gradiente_sem_nome_4-2" x1="708.05" y1="557.13" x2="646.34" y2="310.29"
                        xlink:href="#Gradiente_sem_nome_4"/>
        <linearGradient id="Gradiente_sem_nome_4-3" x1="950.21" y1="650.23" x2="747.86" y2="127.85"
                        xlink:href="#Gradiente_sem_nome_4"/>
        <linearGradient id="Gradiente_sem_nome_2" x1="951.56" y1="330.97" x2="998.92" y2="510.35"
                        gradientUnits="userSpaceOnUse">
            <stop offset="0" stop-color="#f6ead4"/>
            <stop offset="1" stop-color="#b4583d"/>
        </linearGradient>
        <linearGradient id="Gradiente_sem_nome_4-4" x1="659.11" y1="641.89" x2="743.98" y2="641.89"
                        xlink:href="#Gradiente_sem_nome_4"/>
        <linearGradient id="Gradiente_sem_nome_2-2" x1="848.35" y1="576.35" x2="681.87" y2="882.03"
                        xlink:href="#Gradiente_sem_nome_2"/>
        <linearGradient id="Gradiente_sem_nome_2-3" x1="1075.61" y1="384.28" x2="1418.61" y2="311.09"
                        xlink:href="#Gradiente_sem_nome_2"/>
        <linearGradient id="Gradiente_sem_nome_2-4" x1="1237.97" y1="345.42" x2="1316.9" y2="191.86"
                        xlink:href="#Gradiente_sem_nome_2"/>
        <linearGradient id="Gradiente_sem_nome_2-5" x1="1278.42" y1="664.7" x2="1479.33" y2="825.43"
                        xlink:href="#Gradiente_sem_nome_2"/>
        <linearGradient id="Gradiente_sem_nome_3" x1="1305.15" y1="649.14" x2="1442.34" y2="649.14"
                        gradientUnits="userSpaceOnUse">
            <stop offset="0" stop-color="#2c764f"/>
            <stop offset="1" stop-color="#2b993a"/>
        </linearGradient>
        <linearGradient id="Gradiente_sem_nome_2-6" x1="704.2" y1="336.34" x2="1023.29" y2="282.93"
                        xlink:href="#Gradiente_sem_nome_2"/>
        <linearGradient id="Gradiente_sem_nome_2-7" x1="845.93" y1="170.37" x2="850.37" y2="284.86"
                        xlink:href="#Gradiente_sem_nome_2"/>
        <linearGradient id="Gradiente_sem_nome_2-8" x1="946.31" y1="166.48" x2="950.76" y2="280.96"
                        xlink:href="#Gradiente_sem_nome_2"/>
        <linearGradient id="Gradiente_sem_nome_2-9" x1="864.14" y1="371.27" x2="940" y2="65.86"
                        xlink:href="#Gradiente_sem_nome_2"/>
        <linearGradient id="Gradiente_sem_nome_2-10" x1="1171.17" y1="333.47" x2="1145.34" y2="495.64"
                        xlink:href="#Gradiente_sem_nome_2"/>
    </defs>
    <g id="Layer_2" data-name="Layer 2">
        <g id="Layer_1-2" data-name="Layer 1">
            <path class="cls-1"
                  d="M736.27,164.56c-19.36-23.06-34.76-56.27-19.62-82.3,10.28-17.67,32.17-25.9,52.61-25.46s40,8.07,59,15.59l127.31,50.37c23.05,9.12,49,21.3,55.47,45.22,14.46,53.13-70.4,91.45-112.72,87.44C838.21,249.73,774.22,209.75,736.27,164.56ZM638,627.51c34.79,16.62,66.39,15.36,103.7,17.78,58.47,3.79,115.6,24.83,171.79,40.2,36,9.87,72.34,19.77,109.58,22.73,59.41,4.72,118.64-8.39,176.8-21.41,38.54-8.64,77.34-17.35,113.61-33a320.21,320.21,0,0,0,139.15-116.13c37.86-57,56.37-124.53,88.71-184.82,25.83-48.14,60.42-91.55,81.94-141.77s28-111.68-2.33-157.13c-39.61-59.41-128.89-67.59-192.58-35.31s-106.57,94.14-142.31,156c-10.88,18.81-21.63,38.21-37.69,52.85s-38.79,23.92-59.75,18.19c-31.36-8.59-48.75-46.72-80.75-52.48-23.64-4.26-46.58,11.24-62,29.64s-26.58,40.41-44,57c-40.52,38.59-105.42,38.3-158.19,19.71s-98.91-52.19-150.15-74.67-113.36-32.65-161.45-4C476.29,254,458.72,328.4,467.3,392.74,479.63,491.4,548.4,584.73,638,627.51Zm435.25,282.31c35.13,18.13,67.73,18.26,106.06,22.32,60.07,6.35,118,29.89,175.24,47.72,36.7,11.44,73.66,22.94,111.89,27.53,61,7.33,122.57-3.16,183-13.62,40.07-6.93,80.4-13.93,118.43-27.94,59-21.73,111.18-60.41,148.28-109.9,41.43-55.27,63.37-121.94,99.26-180.75,28.66-47,66.14-88.81,90.45-138s33.57-110.35,4.3-157.1c-38.26-61.1-129.87-73.19-196.85-43.74s-113.79,89.36-153.24,149.55c-12,18.31-23.91,37.22-41.07,51.15s-41,22.19-62.32,15.54c-31.94-10-48.22-48.82-80.94-56-24.17-5.3-48.46,9.17-65.16,26.88s-29.1,39.2-47.73,55c-43.38,36.77-110.22,33.62-163.78,12.73s-99.66-56.5-151.48-81.21-115.37-37.61-166.12-11.14c-58.87,30.71-80.14,104.27-74,168.93C915.94,766.86,982.79,863.13,1073.24,909.82ZM640.18,1208.68c35.13,18.13,67.73,18.27,106.06,22.32,60.06,6.36,118,29.89,175.24,47.73,36.69,11.44,73.65,22.93,111.89,27.53,61,7.33,122.56-3.17,183-13.62,40.06-6.93,80.4-13.93,118.43-27.94,59-21.73,111.18-60.42,148.28-109.9,41.43-55.27,63.37-121.94,99.26-180.75,28.65-47,66.14-88.82,90.45-138s33.57-110.35,4.3-157.1c-38.26-61.1-129.87-73.19-196.85-43.74S1366.48,724.54,1327,784.72C1315,803,1303.11,822,1286,835.87s-41,22.2-62.32,15.54c-31.93-9.95-48.22-48.81-80.93-56-24.18-5.29-48.46,9.18-65.16,26.88s-29.11,39.21-47.73,55C986.42,914.07,919.59,910.93,866,890s-99.65-56.49-151.47-81.2-115.38-37.61-166.12-11.14c-58.87,30.71-80.14,104.27-74,168.92C482.88,1065.73,549.73,1162,640.18,1208.68ZM166.8,864.25c35.13,18.13,67.73,18.26,106.06,22.32,60.07,6.35,118,29.89,175.24,47.72,36.69,11.44,73.66,22.94,111.89,27.53,61,7.33,122.56-3.16,183-13.62,40.06-6.93,80.4-13.93,118.43-27.94,59-21.73,111.18-60.41,148.28-109.9,41.43-55.27,63.37-121.93,99.26-180.75,28.65-47,66.14-88.81,90.45-138s33.57-110.35,4.3-157.1c-38.26-61.1-129.87-73.19-196.85-43.74S893.1,380.1,853.65,440.29c-12,18.31-23.91,37.22-41.08,51.15s-41,22.19-62.32,15.54c-31.93-10-48.22-48.82-80.93-56-24.18-5.3-48.46,9.18-65.16,26.88s-29.1,39.2-47.73,55C513,569.64,446.21,566.49,392.64,545.6S293,489.1,241.17,464.39,125.79,426.78,75.05,453.25C16.18,484-5.09,557.52,1,622.18,9.5,721.29,76.35,817.56,166.8,864.25Zm1396-471c4.81,2.31,10.47,1.25,15.69.15,8.38-1.77,17-3.67,23.93-8.78s11.47-14.37,8.47-22.4c-3.9-10.44-18.53-13.08-28.49-8.09s-14.93,15.92-22.07,24.48C1556.94,382.73,1558,391,1562.83,393.28ZM630.07,132c-13.89-.67-31.13.59-36.76,13.31-4.22,9.53,1.17,21.11,9.55,27.3,16,11.81,63.55,23.88,76.75,2.55C698.44,144.76,650.31,133,630.07,132ZM368.62,413.18c-13.89-.68-31.13.59-36.76,13.31-4.22,9.53,1.17,21.11,9.55,27.29,16,11.82,63.55,23.89,76.75,2.56C437,425.91,388.86,414.16,368.62,413.18Zm1296.07,27.51c-13.89-.67-31.14.59-36.76,13.31-4.22,9.53,1.17,21.11,9.55,27.3,16,11.82,63.55,23.88,76.75,2.55C1733.06,453.42,1684.93,441.67,1664.69,440.69Zm49.13-101.88c-13.89-.68-31.13.59-36.76,13.31-4.22,9.53,1.17,21.11,9.55,27.29,16,11.82,63.55,23.89,76.76,2.56C1782.2,351.54,1734.06,339.79,1713.82,338.81ZM1076.58,60.41c-13.89-.67-31.14.59-36.76,13.31-4.22,9.53,1.16,21.11,9.55,27.29,16,11.82,63.55,23.89,76.75,2.56C1145,73.14,1096.82,61.39,1076.58,60.41Z"/>
            <path class="cls-2"
                  d="M1476.4,512q-.37,4-.77,8.15c-.22,2.78-.48,5.56-.79,8.36-.62,5.59-1.41,11.2-2.41,16.8s-2.23,11.19-3.63,16.78-2.8,11.33-4.59,16.92c36-56.71,78.73-109,126.12-156.52l4.23-.34a305.48,305.48,0,0,0-30.78,3.89c-4.85.83-10.2,1.82-16,3s-11.78,2.89-18.28,4.69a343.63,343.63,0,0,0-42.74,14.61c-3.28,1.35-6.62,2.8-10,4.27C1477.44,469.52,1478.17,490.4,1476.4,512Z"/>
            <path class="cls-3"
                  d="M1301.54,641.21c1.76,4.3,3.83,9.79,6.44,16.44,5.15,13.25,11.11,30.49,16.91,50.17A591.89,591.89,0,0,1,1340.81,773c1,5.81,2,11.69,2.68,17.6s1.64,12,2.16,18,1,12.16,1.11,18.27c.1,3.07,0,6.11.1,9.21s.08,6.21,0,9.32c.95-3.67,1.82-7.36,2.84-11l3.25-10.89,6.49-21.8c2.29-7.22,4.86-14.36,7.28-21.54l3.68-10.76,1.85-5.37,2.06-5.3a220.14,220.14,0,0,0,9.83-33.89A227,227,0,0,0,1389.3,691c2.47-22.32,1.73-44.87.52-66-.37-5.32-.85-10.58-1.4-15.77s-1.14-10.29-1.68-15.2c-1.14-9.88-2.54-19.39-4.06-28.34-.76-4.47-1.55-8.81-2.35-13s-1.51-8.1-2.2-11.83c-1.45-7.51-2.91-14.26-4.25-20.05l5-4.71c2.25,9.57,4.91,22.11,7.34,36.55,2.66,14.59,5.35,31.22,7,48.75.88,8.79,1.91,18,2.42,27.31q.4,7,.58,14t.2,14.3a289.1,289.1,0,0,1-1.1,29.08q-.7,7.23-1.44,14.68t-2.15,14.74l5.63-13c1.86-4.33,3.72-8.66,5.84-12.87l12.28-25.46c4.19-8.44,8.79-16.67,13.17-25,2.23-4.15,4.37-8.35,6.69-12.45l7.14-12.2a164,164,0,0,0,10-20.38,170,170,0,0,0,7.66-20.68,281.93,281.93,0,0,0,8.8-42c.93-6.93,1.33-14,1.94-20.67s.84-13.35,1-19.82c.25-12.92-.3-25.25-.7-35.9-2.64,1.19-5.27,2.37-8,3.65-7.92,3.94-15.89,8.36-24.06,13.09-16.55,9.32-32.45,21-48.61,33.89-31.44,26.4-60.8,60.32-81.47,100.71a300,300,0,0,0-14.19,33.18c1-2.46,1.93-4.94,2.9-7.41C1298.46,633.87,1299.79,636.92,1301.54,641.21Z"/>
            <path class="cls-4"
                  d="M1482.17,571c4.66-3.32,9.49-6.3,14.31-9.07s9.7-5.27,14.56-7.54c2.44-1.13,4.87-2.21,7.29-3.22s5-1.88,7.44-2.74a209,209,0,0,1,54.62-11.25c-.3,1.78-.6,3.59-.9,5.4a194.23,194.23,0,0,0-32.91,5.38c-5.89,1.45-11.94,3.19-18.08,5.27a149.94,149.94,0,0,0-18.16,7.59,189,189,0,0,0-18,10q-2.22,1.4-4.42,2.86c-1.42,1-2.82,2.06-4.21,3.13q-4.18,3.21-8.22,6.73a162.71,162.71,0,0,0-15.43,15.42,144.71,144.71,0,0,0-12.8,18.5l-7.09,12.13c-2.31,4.07-4.43,8.25-6.66,12.37-4.35,8.3-8.92,16.48-13.08,24.87l-12.21,25.31c-2.11,4.18-4,8.48-5.81,12.79l-5.6,12.89q4.47-6,9.24-11.48a122.11,122.11,0,0,1,10-10.49,231.43,231.43,0,0,1,21.66-18.09,131.42,131.42,0,0,1,11.39-7.63q5.82-3.55,11.63-6.71a225.56,225.56,0,0,1,23.09-11,277.78,277.78,0,0,1,43.36-13.14,288.74,288.74,0,0,1,33.67-4.67c1.06-4.11,2.08-8.21,3.05-12.33,4.3-16.08,7.13-32.75,10.34-48.46,1.5-7.94,2.73-15.9,4-23.65s2.58-15.18,3.66-22.57c2-14.92,4.15-28.62,5.74-41.28.8-6.32,1.48-12.37,2.11-18s1.38-10.69,1.94-15.41c1.43-12.17,2.21-21.37,2.6-26.4-47.1,47.24-89.6,99.19-125.36,155.56C1473.2,578.05,1477.64,574.39,1482.17,571Z"/>
            <path class="cls-5" d="M1331.53,943.65,1329,945.8S1329.88,945.06,1331.53,943.65Z"/>
            <path class="cls-6"
                  d="M1594.56,422.18c0,.09-.09,1.25-.23,3.27C1594.48,423.42,1594.55,422.31,1594.56,422.18Z"/>
            <path class="cls-7"
                  d="M1336.18,890.71c1.44-6.73,2.42-13.45,3.19-20.12,1-6.62,1.55-13.23,1.84-19.81s.2-13.17.09-19.66-.35-12.91-.88-19.32-1.3-12.79-2.26-19.11c-.74-6.25-1.67-12.46-2.77-18.59-2.11-12.25-5.18-24.35-7.82-35.7-2.8-11.41-6-22.37-9.22-32.64s-6.17-19.64-9.22-28.18c-5.93-17-11.61-30.27-14.49-37.32a339.74,339.74,0,0,0-18.73,91.47c-.88,20.68-.88,40.39,1.38,59.25,1,9.38,2.16,18.42,3.65,27.15q2.54,13.17,5.5,25.2a342,342,0,0,0,13.47,43.11q3.57,9.48,7,17.52c2.46,5.4,4.82,10.31,7,14.71a303.66,303.66,0,0,0,15,27.13l-2.22-3.61C1329.71,925,1332.27,907.72,1336.18,890.71Z"/>
            <path class="cls-8"
                  d="M1559.41,639.86c-5.33.47-11.55,1.17-18.47,2.24-3.45.54-7.15,1.13-10.87,1.91s-7.55,1.69-11.52,2.72c-8,2-16.4,4.59-25.15,7.74-2.19.79-4.4,1.61-6.62,2.48s-4.34,1.83-6.52,2.81q-6.55,3-13.21,6.4a201.19,201.19,0,0,0-50.83,37.13,205.41,205.41,0,0,0-21,26.18,173.6,173.6,0,0,0-15.7,31.21l-2,5.27-1.83,5.34L1372,782c-2.41,7.14-5,14.23-7.24,21.41l-6.45,21.66-3.23,10.83c-1,3.63-1.88,7.3-2.83,10.94q2.15-4.1,4.44-8c1.55-2.63,3.31-5.15,5-7.65q5.19-7.49,10.83-14.34a161.41,161.41,0,0,1,11.7-13q6.23-6.1,12.68-11.59c16.82-14.73,35.81-25.51,52.63-33.64a281.06,281.06,0,0,1,45.49-16.23c6.06-1.64,11.5-2.69,15.67-3.46s7.13-1.19,8.74-1.4c3.61-6.21,7.1-12.51,10.34-19C1542.84,693.12,1552.18,666.67,1559.41,639.86Z"/>
            <path class="cls-9"
                  d="M1481.09,751.91a250.47,250.47,0,0,0-25.36,9.7,278.56,278.56,0,0,0-27.52,14.56,202.61,202.61,0,0,0-27.63,20.07c-4.5,3.83-8.95,7.89-13.3,12.19q-6.21,6.55-12.06,13.82c-3.88,4.84-7.62,9.92-11.17,15.22a170.29,170.29,0,0,0-9.35,16.78,196,196,0,0,0-7.79,18.12,171.61,171.61,0,0,0-5.27,19.49c-3.88,16.91-6.43,34.06-9.36,51.15,3.83-3.28,10.79-9.35,19.76-17.7,3.49-3.23,7.28-6.8,11.29-10.67,4.18-3.84,8.66-8,13.29-12.34,9.27-8.76,19.05-18.59,29.91-29,5.33-5.23,10.7-10.67,16-16.29,5.53-5.56,11.23-11.27,16.74-17.16,10.78-11.87,22.56-24,33-37,17-19.93,32.86-41.08,46.4-64.08-.87,1.45-1.73,2.9-2.64,4.33A235.91,235.91,0,0,0,1481.09,751.91Z"/>
            <path class="cls-10"
                  d="M1654.81,732c-.26-3.62-.58-7.12-1-10.51-.17-1.13-.35-2.22-.54-3.32-3.53,2.14-7.61,4.6-11.71,7.46a156.48,156.48,0,0,0-12.38,9.69,103.48,103.48,0,0,0-11.53,12,66,66,0,0,0-4.93,7,63.64,63.64,0,0,0-4.28,7.7,397,397,0,0,1-20.61,38.76c10.89-11,23.61-19.45,35.78-26,6-3.32,11.83-6.12,17.06-8.45s9.72-4.25,13.27-5.6l-.41,2.6a253.12,253.12,0,0,0-36.64,17.76c-14.13,8.57-28.38,19.51-38.69,35-3.24,4.91-6.67,9.71-10.05,14.53-3.57,4.67-6.94,9.51-10.69,14.05,15.09-11.91,32.88-19.42,48-24.62a240,240,0,0,1,29.86-8.32c2-3,3.85-6,5.55-9.23a129.24,129.24,0,0,0,13.76-47.72A146.22,146.22,0,0,0,1654.81,732Z"/>
            <path class="cls-11"
                  d="M1615,747.24c11.08-14.36,26.49-24.62,37.86-31.39-.25-1.39-.5-2.77-.77-4.11a144,144,0,0,0-4.45-16.89c-.81-2.48-1.6-4.79-2.39-6.91s-1.65-4.09-2.41-5.84c-3-7-5.22-10.8-5.24-10.84l.78,1.45A412.87,412.87,0,0,1,1615,747.24Z"/>
            <path class="cls-12"
                  d="M1560.37,803.19a111,111,0,0,0-1.66-12.05,102.91,102.91,0,0,0-2.66-10.27,96.73,96.73,0,0,0-5-13.14,175.16,175.16,0,0,0-9.14,27.77c-1.72,6.35-2.87,12.88-4.11,19.06-.59,3.12-1.07,6.24-1.54,9.28s-1,6-1.37,8.85c-.74,5.84-1.51,11.21-2,16.16s-1,9.36-1.35,13c-.45,4.76-.68,8.33-.78,10.29,4.58-5,9.25-9.81,13.58-15C1558.27,841.05,1561.71,820.15,1560.37,803.19Z"/>
            <path class="cls-13"
                  d="M1613,746.4a410.15,410.15,0,0,0,23.26-74.14c-1.56,1.19-4.38,3.38-8.06,6.45l-10,8.47c-3.78,3.24-7.78,6.9-12.18,10.8-.93.84-1.86,1.75-2.79,2.62C1609.3,711.37,1615.51,728.35,1613,746.4Z"/>
            <path class="cls-14"
                  d="M1555.73,843.37c3.73-4.52,7.08-9.33,10.64-14,3.36-4.79,6.77-9.56,10-14.45,10.35-15.55,12.26-33.77,10.15-49.18a100.91,100.91,0,0,0-12-35.57,152.35,152.35,0,0,0-18.73,27.44c-1.35,2.53-2.59,5.1-3.76,7.69a103.15,103.15,0,0,1,9,27.08C1563.78,806.85,1563.89,825.89,1555.73,843.37Z"/>
            <path class="cls-15" d="M1530.58,873.86s0-.45.06-1.24C1530.6,873.4,1530.58,873.86,1530.58,873.86Z"/>
            <path class="cls-16"
                  d="M1607.57,821.69c-4,1.29-8.1,2.77-12.32,4.48-17.06,6.82-35.44,16.4-49.37,32.46-4.36,5.2-9.05,10.08-13.66,15.06l-1.64.17s4.43-.35,11.92-1.78q2.82-.54,6.18-1.3t7-1.93a142,142,0,0,0,16.46-5.85c2.93-1.24,6-2.61,9.06-4.1s6.11-3.25,9.25-5.08a146.76,146.76,0,0,0,18.7-13,134.35,134.35,0,0,0,24.29-26.29c-2.89.65-8.31,1.82-15,3.75C1615.14,819.22,1611.52,820.4,1607.57,821.69Z"/>
            <path class="cls-17" d="M1636.57,672l1-.75S1637.2,671.53,1636.57,672Z"/>
            <path class="cls-18"
                  d="M1587.17,757.29c2.75,12.53,3.55,27.74-1.23,42.41a398.27,398.27,0,0,0,20.51-38.55,55.85,55.85,0,0,0,3.06-8.2,61.88,61.88,0,0,0,1.54-8.34,59.38,59.38,0,0,0-.35-16.18A70,70,0,0,0,1607,713.9a79.88,79.88,0,0,0-5.35-11.84c-.73.69-1.46,1.34-2.19,2.05-2.25,2.1-4.55,4.26-6.8,6.5-4.4,4.51-9.15,9.15-13.42,14.14q-1.67,1.86-3.3,3.76a116.83,116.83,0,0,1,5.87,11.92A111.06,111.06,0,0,1,1587.17,757.29Z"/>
            <path class="cls-19" d="M785.42,911.71l-2.35-2.4C784.59,910.88,785.42,911.71,785.42,911.71Z"/>
            <path class="cls-20"
                  d="M690.18,543.88q-1.75-8.37-2.72-16.81c-.79-5.55-1.43-11.06-1.81-16.58s-.6-11-.62-16.48c0-2.73,0-5.45.08-8.15s.07-5.34.1-7.95c.5-21,3.34-41.11,5.75-57.35-3.09-1.77-6.17-3.51-9.19-5.15A337.32,337.32,0,0,0,642,396.9q-9.13-3.63-17.16-6.43c-5.48-1.77-10.55-3.29-15.14-4.59a294.69,294.69,0,0,0-29.31-7l4,.77C625.21,430.57,661.13,485.46,690.18,543.88Z"/>
            <path class="cls-21"
                  d="M690.67,477.42c-.09,6.5-.42,13.38-.23,20.17A271.92,271.92,0,0,0,694.68,539,163.26,163.26,0,0,0,700,559.79a155.54,155.54,0,0,0,7.62,20.69l5.67,12.5c1.84,4.2,3.49,8.47,5.24,12.7,3.4,8.5,7,16.91,10.24,25.48L738.14,657c1.62,4.28,3,8.65,4.38,13l4.17,13.09c-.37-4.83-.57-9.65-.63-14.46s.05-9.63,0-14.34c.12-9.47.76-18.89,1.81-28.21q.83-7,1.61-13.79t2-13.52c1.42-8.91,3.33-17.73,5.06-26.13,3.38-16.77,7.65-32.56,11.69-46.38,3.81-13.7,7.66-25.53,10.81-34.54l4.3,5.05c-1.88,5.45-4,11.82-6.13,18.93q-1.58,5.29-3.32,11.2t-3.58,12.28c-2.37,8.49-4.67,17.54-6.76,27l-3.15,14.51q-1.57,7.44-2.92,15.1c-3.28,20.3-6.22,42-6,63.83a219.43,219.43,0,0,0,1.65,33.23,211.41,211.41,0,0,0,6.2,33.7l1.48,5.33,1.27,5.37L764.56,748c1.65,7.17,3.45,14.32,5,21.52l4.19,21.7,2.1,10.84c.64,3.63,1.13,7.28,1.71,10.92.24-3,.55-6,.91-9s.59-5.94,1-8.89q1.1-8.85,2.82-17.56c1.08-5.79,2.6-11.59,3.82-17.22s2.72-11.24,4.29-16.76a567.54,567.54,0,0,1,21.71-61.41c7.53-18.44,15-34.5,21.27-46.79s10.63-20.52,12.4-23.49c.7,2.49,1.39,5,2.08,7.45a292,292,0,0,0-10.43-33.41c-15.94-41-40.88-76.63-68.55-105.25-14.29-14.1-28.46-26.94-43.48-37.61-7.4-5.4-14.65-10.47-21.89-15.09-2.46-1.5-4.88-2.9-7.3-4.33-1.49,10.26-3.29,22.1-4.37,34.61C691.23,464.44,690.84,470.88,690.67,477.42Z"/>
            <path class="cls-22"
                  d="M663.87,612.85A220.32,220.32,0,0,1,685.1,625.8q5.31,3.63,10.58,7.64A130.39,130.39,0,0,1,705.94,642a227.06,227.06,0,0,1,19.15,19.63,116.45,116.45,0,0,1,8.63,11.13q4.06,5.79,7.8,12l-4.15-13c-1.36-4.34-2.74-8.68-4.35-12.94l-9.31-25.67c-3.2-8.52-6.81-16.88-10.19-25.33-1.74-4.21-3.38-8.46-5.2-12.62l-5.64-12.44a140.8,140.8,0,0,0-10.53-19.17,156.88,156.88,0,0,0-13.36-16.46c-9.27-10.29-20.31-18.56-31.36-25.46a148.92,148.92,0,0,0-16.78-9.19c-5.73-2.64-11.4-4.94-16.93-6.95a190.66,190.66,0,0,0-31.27-8.59c-.1-1.78-.21-3.56-.31-5.31a204.61,204.61,0,0,1,51.64,16.51c2.3,1.09,4.63,2.2,6.91,3.41s4.48,2.52,6.72,3.86c4.47,2.69,8.92,5.61,13.31,8.77s8.75,6.54,12.91,10.22,8,7.73,11.71,12c-28.88-58.07-64.59-112.63-105.13-163.21-.15,4.89-.36,13.86-.25,25.77,0,4.62.13,9.68.27,15.1s0,11.43.17,17.63c.22,12.4.89,25.87,1.29,40.51.28,7.26.68,14.68,1.23,22.2.39,7.63.78,15.46,1.42,23.29,1.51,15.54,2.57,32,5.11,48q.79,6.13,1.72,12.25a282.65,282.65,0,0,1,32.09,7.95A270.59,270.59,0,0,1,663.87,612.85Z"/>
            <path class="cls-23" d="M580.24,382.24c.09-2.12.13-3.34.13-3.34S580.32,380.07,580.24,382.24Z"/>
            <path class="cls-24"
                  d="M775,839a188.66,188.66,0,0,0-5.82-18.26,165,165,0,0,0-7.45-17.12q-4.38-8.21-9.35-15.8T742,773.3c-3.79-4.58-7.71-8.94-11.69-13.07a197.71,197.71,0,0,0-24.78-22.1,270.53,270.53,0,0,0-25.21-16.78,243.41,243.41,0,0,0-23.57-11.87,230.64,230.64,0,0,0-33-12c-.74-1.48-1.44-3-2.15-4.48,10.86,23.64,24.16,45.72,38.69,66.7,8.85,13.58,19.07,26.48,28.37,39C693.45,805,698.42,811,703.24,817c4.63,5.95,9.31,11.73,14,17.31,9.51,11.12,18,21.56,26.2,30.92,4.06,4.68,8,9.08,11.69,13.19,3.53,4.12,6.86,7.93,9.93,11.38,7.9,8.92,14.06,15.43,17.46,19-1.24-16.8-2.11-33.63-4.28-50.35A166.7,166.7,0,0,0,775,839Z"/>
            <path class="cls-25"
                  d="M830.25,654.46c-3.79,7.94-7.53,16.72-11.67,26.31s-8.28,19.88-12.1,30.63c-3.65,10.71-7.78,22.11-11,33.74q-2.47,8.73-4.47,17.7c-1.53,6-2.88,12.11-4,18.25s-2,12.34-2.7,18.59-1.48,12.63-1.78,19-.38,12.84-.09,19.33c.11,6.52.42,13.11,1.18,19.75,2.18,16.82,3.06,33.75,4.3,50.66l-2.48,3.28a295.79,295.79,0,0,0,17.08-24.83c2.54-4,5.28-8.57,8.16-13.56q4.08-7.46,8.42-16.28a335.09,335.09,0,0,0,17.1-40.39q4-11.31,7.71-23.81c2.28-8.28,4.25-16.9,6.13-25.87,4-18,5.9-37,7.05-57.05a330.81,330.81,0,0,0-9.14-90.09C844.44,626.36,837.66,638.63,830.25,654.46Z"/>
            <path class="cls-26"
                  d="M686.57,719c15.49,9.52,32.79,21.8,47.65,37.67q5.68,5.92,11.14,12.44a155.06,155.06,0,0,1,10.07,13.72c3.18,4.77,6.23,9.74,9.1,14.89,1.41,2.58,2.87,5.2,4.12,7.88s2.4,5.42,3.53,8.19c-.57-3.61-1.06-7.24-1.7-10.85l-2.09-10.78-4.17-21.56c-1.51-7.17-3.3-14.27-4.93-21.4l-2.51-10.7-1.26-5.34-1.47-5.29a168.54,168.54,0,0,0-12.15-31.72,199.34,199.34,0,0,0-17.7-27.37,196.22,196.22,0,0,0-45.48-40.94c-16-10.79-32.92-18.4-47.86-24q-5.61-2.08-10.87-3.79c-3.51-1.13-7-2.07-10.31-3-6.59-1.73-12.53-3-17.64-4,4.32,26.69,10.74,53.27,20.84,79.14,2.51,6.61,5.26,13.07,8.16,19.44a204.68,204.68,0,0,1,23.13,7.14A276,276,0,0,1,686.57,719Z"/>
            <path class="cls-27"
                  d="M608.42,779.84a126.59,126.59,0,0,0,.81,14.52A92.64,92.64,0,0,0,612.4,810c.76,2.65,1.63,5.34,2.62,8s2.25,5.21,3.57,7.8,2.77,5.16,4.35,7.69a78.57,78.57,0,0,0,5.39,7.21q2.91,3.49,6.25,6.79a81.17,81.17,0,0,0,7.35,6c6.5,4.88,13.38,9.2,20.16,13.68-.69-2.26-2-6.38-3.86-11.81l-2.44-6.85c-.86-2.49-1.78-5.18-2.75-8-2-5.53-4.27-11.68-6.68-18.29q-1.82-4.9-3.86-9.94c-1.3-3.42-2.63-6.94-4.07-10.41-3-6.85-5.82-14.2-9.29-21.11a219,219,0,0,0-16.7-30.05,108.5,108.5,0,0,0-3.16,16.52A113.92,113.92,0,0,0,608.42,779.84Z"/>
            <path class="cls-28"
                  d="M570.18,756.41a92.68,92.68,0,0,0,5.72,28.88,95.87,95.87,0,0,0,7,14,81.15,81.15,0,0,0,10.24,12.76c5,5,10.2,9.76,15.36,14.57l8,6.92c2.65,2.33,5.34,4.62,8.14,6.76a78.49,78.49,0,0,1-8.93-14.42A81.5,81.5,0,0,1,610,810.78c-3-10-3.9-20.19-4.06-28.91A128.52,128.52,0,0,1,608,759.41a95,95,0,0,1,2.77-11.29c-1.91-2.73-3.88-5.43-6-8.06a187.3,187.3,0,0,0-27.24-27.89,112.46,112.46,0,0,0-5.31,18.61A106.51,106.51,0,0,0,570.18,756.41Z"/>
            <path class="cls-29"
                  d="M560,825.08c19.28,2.74,42.16,7.3,63.07,17.3-2.82-2.16-5.53-4.46-8.2-6.81l-8.06-7c-5.19-4.85-10.44-9.64-15.46-14.67a104.47,104.47,0,0,0-12.53-10.79,107.33,107.33,0,0,0-13.42-8.82c-9-5.45-18.76-9.59-28-13.29-9.44-3.52-18.41-6.53-26.64-8.83s-15.3-4.14-20.81-5.32l-1-3.06c4.52,1,10.38,2.39,17,4.28s14.34,4,22.12,6.79c3.91,1.39,8.05,2.79,12.09,4.42s8,3.45,12.21,5.29,8.2,3.92,12.16,6.2,8,4.61,11.82,7.31a391.36,391.36,0,0,1-32.89-41.5,75.52,75.52,0,0,0-6.65-8.3,77.7,77.7,0,0,0-7.23-7.39,134.79,134.79,0,0,0-16-12.18c-5.63-3.52-11.13-6.71-16.54-9.45s-10.75-5-15.33-7c0,1.36-.07,2.72-.08,4.12.07,4.16.33,8.44.69,12.87a168.58,168.58,0,0,0,4.6,27.54c4.92,18.71,13.54,38.07,26.72,55,2.78,3.51,5.75,6.79,8.81,10,1.68,0,6.2.22,12.83.68S550.45,823.68,560,825.08Z"/>
            <path class="cls-30"
                  d="M640.4,855.59c-2.6-1.89-5.3-3.58-8-5.18s-5.36-3.19-8.13-4.58-5.6-2.6-8.39-3.8-5.59-2.34-8.44-3.34-5.71-1.91-8.6-2.72-5.65-1.7-8.48-2.43c-5.65-1.47-11.42-2.51-16.78-3.61s-10.72-1.84-15.74-2.46-9.59-1.24-13.84-1.63c-8.4-.83-15.17-1-18.76-1.22a157.56,157.56,0,0,0,35.49,26.06,169.29,169.29,0,0,0,25.68,11c4.22,1.39,8.32,2.65,12.35,3.7s8.06,1.8,11.87,2.5a156.35,156.35,0,0,0,21.08,2.47q4.74.28,8.84.34t7.65-.23a139.36,139.36,0,0,0,14.47-1.34l-2,.27C653.88,864.85,647,860.51,640.4,855.59Z"/>
            <path class="cls-31"
                  d="M532.89,731.09c-.47-2.64-.75-5.28-.95-7.88a78.09,78.09,0,0,1,.21-15.09,95.57,95.57,0,0,1,6.36-25.24c-1.25-.86-2.51-1.77-3.74-2.6l-16.2-10.8-7.15-4.57-6.08-4c-4.83-3.11-8.53-5.34-10.56-6.53a401.42,401.42,0,0,0,40.11,84.51Q533.69,735,532.89,731.09Z"/>
            <path class="cls-32" d="M662.66,869.09s-.13-.48-.38-1.3Z"/>
            <path class="cls-33"
                  d="M520.06,730c2.18,1.55,4.28,3.2,6.37,4.92s4.24,3.45,6.25,5.33a403.59,403.59,0,0,1-40.38-85.07l.73-1.84a137.94,137.94,0,0,0-4.71,13.75q-1,3.33-2,7.38c-.61,2.66-1.2,5.56-1.76,8.67A154.6,154.6,0,0,0,482,704.25c-.1,1.66-.17,3.37-.23,5.1a237.78,237.78,0,0,1,25,12.27C511.09,724.23,515.77,726.9,520.06,730Z"/>
            <path class="cls-34" d="M493.06,653.4l1.12.65Z"/>
            <path class="cls-35"
                  d="M534.26,717.13a69,69,0,0,0,2.59,19.28,74.17,74.17,0,0,0,3.44,9.61,66.74,66.74,0,0,0,5.29,9.12,389.62,389.62,0,0,0,32.68,41.23,79.44,79.44,0,0,1-5.58-12.48,109.34,109.34,0,0,1-3.42-12.76,90.36,90.36,0,0,1-1.52-12.6,101.65,101.65,0,0,1-.07-11.95,127.39,127.39,0,0,1,3.11-20.94,133.59,133.59,0,0,1,4.8-15.13q-2.26-1.89-4.58-3.72c-5.9-5-12.37-9.51-18.32-14-3-2.22-6.15-4.33-9.16-6.41-1-.7-1.95-1.34-2.92-2a89,89,0,0,0-4.43,14.91A79.76,79.76,0,0,0,534.26,717.13Z"/>
            <path class="cls-36"
                  d="M1284.46,183.65c-2.12-6.38-9.31-10.13-16.14-10.26s-13.38,2.64-19.43,5.77c-14.91,7.69-29,18.48-36,33.5s-5.28,34.81,7.46,45.62c-5.59.32-10,5.52-10.74,11s1.3,10.9,4.1,15.65,6.36,9.06,9,13.93,4.2,10.56,2.72,15.85c-2.61,9.37-13.43,13.95-18.9,22.05a22.3,22.3,0,0,0-.31,24c4.64,7.26,13.49,11.94,22,13.92A288,288,0,0,0,1328.43,380c9.07-1.11,18.41-2.79,25.92-7.91s18.66-14.54,16.06-23.14c-2.2-7.27-9.3-12.48-11-19.89-1.81-8,3.18-15.83,8.6-22s11.78-12.25,13.54-20.23c2.21-10-10.63-21.1-20.68-23.82,1.41-12.53-6.65-25.51-18.66-30-8.5-3.19-9.31-14.66-10.6-23.5C1328.19,185.85,1304.83,166.89,1284.46,183.65Z"/>
            <path class="cls-37" d="M1434.52,400.46c20.38,8.84,23.62,146.46,15,226.88,0,0-18.5-23.27-45.42-15.82V485Z"/>
            <polygon class="cls-38" points="1415.84 458.98 1404.07 611.52 1404.07 485 1415.84 458.98"/>
            <path class="cls-39" d="M1160.36,376c-21.72,4.95-31.8,63.35-31,129.17h59.46S1177.48,372.1,1160.36,376Z"/>
            <path class="cls-40"
                  d="M1371.83,373.67c49.12,19.68,58.17,25.5,62.69,26.79s-8.4,69.87-22,93.42-7.81,48.11-30.73,83,33.07,177.38,33.07,267.68H1121.83S1143.45,709,1190,641.89s9.74-69.3-1.08-102.82S1174.62,410.65,1160.36,376c0,0,25.28-6.06,71.23-15.26S1371.83,373.67,1371.83,373.67Z"/>
            <path class="cls-38"
                  d="M1139.12,765.92h220.23l-8.81-352.53H1169.65c7.27,42.72,11.24,100.92,19.22,125.68,10.82,33.52,47.59,35.69,1.08,102.82C1167.16,674.8,1150.34,724.15,1139.12,765.92Z"/>
            <path class="cls-38" d="M765.25,765.92c-3.53,51.07-6.11,78.65-6.11,78.65h270.23l-.5-75.85Z"/>
            <path class="cls-41"
                  d="M1067.72,360.42c16.39,18.17,33.83,50.79,24.73,208.53,0,0-8.34,55.36-71.29,58.39,0,0,6.07-61.43,18.2-118.3S1067.72,360.42,1067.72,360.42Z"/>
            <path class="cls-42"
                  d="M730.58,617.38c3.31-15.41,13.4-85.2,13.4-85.2l-22.2-171.76C674,413.45,660.05,580.27,659.11,613,665.48,572,720.08,598.14,730.58,617.38Z"/>
            <path class="cls-43"
                  d="M732.14,440.55l-11.4,165.86c4.41,3.58,7.89,7.4,9.84,11,3.31-15.41,13.4-85.2,13.4-85.2Z"/>
            <path class="cls-44"
                  d="M721.78,360.42s-8.32,58.64,22.2,171.76,21.27,233.74,21.27,233.74S784.68,793,879,793s149.85-24.31,149.85-24.31V606c0-51.42,57.35-189.25,38.85-245.62,0,0-41.63-45.14-164.65-45.14S721.78,360.42,721.78,360.42Z"/>
            <path class="cls-43"
                  d="M1028.87,765.92V606c0-39,32.89-127.5,40.8-192.65H764.88l-7.79,181.19c14.32,91,8.16,171.34,8.16,171.34Z"/>
            <rect class="cls-45" x="771.02" y="416.33" width="579.52" height="334.15"/>
            <rect class="cls-36" x="785.42" y="430.73" width="550.72" height="305.35"/>
            <path class="cls-46"
                  d="M934.73,416.33s26.26-26.24,31.88-26.55,34.07,2.47,48.14,26.55H999.12s-8.13,5.33-11.56,6.89S926.92,426.63,934.73,416.33Z"/>
            <path class="cls-47"
                  d="M744,669.92c-3.89-15.14-3.57-31.73-13.4-52.54-10.5-19.24-65.1-45.4-71.47-4.39.94,29.26,20.38,57.54,41,79.53C682.07,674.26,728.29,635.44,744,669.92Z"/>
            <path class="cls-48"
                  d="M834.33,750.48c3.29-4.11-3.68-7.79-8.12-9.62a14,14,0,0,1-5.71-4.27,14,14,0,0,0-4.85-3.89l-27.39-13.2a26.5,26.5,0,0,0-11.51-2.63h-7.41s-21.47-31.81-25.36-47c-15.69-34.48-61.91,4.34-43.84,22.6A319.2,319.2,0,0,0,750,735.26l32.77,30.66a9.6,9.6,0,0,0,8.28,2.43l50.52-9.18a9.87,9.87,0,0,0,7.67-6.82l.58-1.87Z"/>
            <path class="cls-49"
                  d="M1302.39,261.2a11.17,11.17,0,0,1,15.4,10c1.32,40.28,7.39,66.38,13.52,77.26,6.92,12.28,40.52,25.21,40.52,25.21s-14.21,35.54-77.55,35.54-62.69-48.47-62.69-48.47,28.44-5.17,29.09-13.57-8.41-65.27-8.41-65.27Z"/>
            <path class="cls-50"
                  d="M1331.31,348.46c-6-10.71-12-36.16-13.46-75.38A12.55,12.55,0,0,0,1300.5,262l-48.23,19.91s6.35,39.89,8,57.78c17.27,7,30.31,8.69,46-7.6,5.11-5.29,12.85,11.93,29.83,22.05A23.05,23.05,0,0,1,1331.31,348.46Z"/>
            <path class="cls-51"
                  d="M1322.54,260.76c-6.72-4.24-11.2-11.19-15.26-18s-8.06-14-14.26-18.94c-3.85-3.09-8.4-5.22-12.12-8.45s-6.64-8.13-5.54-12.94a32.83,32.83,0,0,1-22.1,17.3c-2.07.45-4.29.75-5.94,2.08-2.67,2.15-2.83,6.05-3.31,9.44a34.11,34.11,0,0,1-15,23.41c4.35,27.89,10.88,50.78,31.3,62.45,22.13,12.65,52.93-9.42,60.11-44.85,1.26,2,2.93,3.29,4.83,3.42,4.06.29,7.8-4.7,9-11.52A22.18,22.18,0,0,1,1322.54,260.76Z"/>
            <path class="cls-52"
                  d="M1382.78,669.85c-7.75,18.4-31.9,47-31.9,47h-7.41A26.53,26.53,0,0,0,1332,719.5l-27.38,13.2a14,14,0,0,0-4.85,3.89,14.06,14.06,0,0,1-5.72,4.27c-4.43,1.83-11.4,5.51-8.11,9.62h-15.52l.58,1.87a9.87,9.87,0,0,0,7.67,6.82l50.53,9.18a9.59,9.59,0,0,0,8.27-2.43l32.77-30.66c14.68-14.86,31.32-30.82,45.57-47C1417.18,673.39,1395.75,661.52,1382.78,669.85Z"/>
            <path class="cls-53"
                  d="M1404.07,611.52c-9.08,6.92-12.16,34.56-20.69,56.83-.18.49-.39,1-.6,1.5,13-8.33,34.4,3.54,33,18.37,18-20.46,32.14-41.32,33.72-60.88C1449.49,627.34,1431,604.07,1404.07,611.52Z"/>
            <path class="cls-54"
                  d="M854.84,252.35V334.1a18,18,0,0,0,6.2,13.72c6.64,5.67,19.52,12.6,42.75,12.6,25.25,0,37.44-9.17,42.93-15.72a17.78,17.78,0,0,0,4-11.42V242.55Z"/>
            <path class="cls-50"
                  d="M946.72,344.7a17.78,17.78,0,0,0,4-11.42V242.55l-95.89,9.8v41c19.74,16.67,62.83,24.26,68.58,34.12,4.66,8,6.32,18.06,5.65,28.94C938.05,353.19,943.53,348.51,946.72,344.7Z"/>
            <path class="cls-55"
                  d="M858.31,227.58c2.06,9.87-.79,18.82-6.36,20s-11.74-5.91-13.8-15.78.79-18.81,6.36-20S856.25,217.71,858.31,227.58Z"/>
            <path class="cls-56"
                  d="M938.69,227.58c-2.06,9.87.79,18.82,6.36,20s11.74-5.91,13.8-15.78-.79-18.81-6.36-20S940.75,217.71,938.69,227.58Z"/>
            <path class="cls-57"
                  d="M854.84,228.66v23.69c0,10.83,21,47.12,50,47.12s45.85-34.6,45.85-47.54V178.06S944,153,902.79,153s-47.95,23.77-47.95,23.77Z"/>
            <path class="cls-36"
                  d="M950.7,211.73a6.32,6.32,0,0,1,1.79.08,6.46,6.46,0,0,1,3.3,1.9c.75-4.51.61-16.79,1.72-20,2.38-6.89,4.38-14.37,2.4-21.38s-9.39-13-16.35-10.8a24.28,24.28,0,0,0-27.22-29.68c-6.4,1-12.18,4.45-18.51,5.79-5.57,1.18-11.34.68-17,.81s-11.67,1-16.15,4.55-6.81,10.29-3.78,15.12c-8-.69-15.67,4.95-19.1,12.23s-3.25,15.81-1.46,23.65c1.51,6.61,6.6,14.29,9.17,20.57,1,2.49,2.16,14.42,5.36,14.09,3.69-.39,4.53-10.79,4.17-13.44-3-21.67-2.74-35.09,3.25-44,6.24,5.22,12.85,10.49,20.76,12.36s17.48-.73,21.16-8a16.11,16.11,0,0,0,26.64-13.12C947,168.77,950.37,183.51,950.7,211.73Z"/>
            <path class="cls-58"
                  d="M1197.45,416.33s-26.25-26.24-31.88-26.55-34.06,2.47-48.13,26.55h15.63s8.12,5.33,11.56,6.89S1205.27,426.63,1197.45,416.33Z"/>
            <path class="cls-45"
                  d="M814.53,558.7h12.94l8.87,62,16.36-27.91L847.57,559H858.8L862,584.79,876.23,559h11.23L868,592.81l4.38,27.91,35.18-62h13.16l-45.88,75.93H864.68l-6-34-20.53,34H828Z"/>
            <path class="cls-45"
                  d="M929,558.7h48.66l-2.25,10.59H938.79l-4.6,21.6h31.66l-2,9.94H932.05L927.13,624h37.54l-2.25,10.59H912.8Z"/>
            <path class="cls-45" d="M989.8,558.7h12.08L988,624h38.18l-2.25,10.59H973.65Z"/>
            <path class="cls-45"
                  d="M1059.63,635.16a25.22,25.22,0,0,1-20.75-9.89,32.11,32.11,0,0,1-5.29-10.21,38.91,38.91,0,0,1-1.76-11.66,42.12,42.12,0,0,1,2-12.83,52.14,52.14,0,0,1,5.77-12.3,45.73,45.73,0,0,1,9-10.37,41.81,41.81,0,0,1,12-7.11,39,39,0,0,1,14.38-2.62q10.47,0,16.68,4.7a21.64,21.64,0,0,1,8.13,11.87l-10.16,6.1a16.12,16.12,0,0,0-3.85-7.38,13.58,13.58,0,0,0-5.83-3.53,24.27,24.27,0,0,0-6.9-1,25.6,25.6,0,0,0-12.78,3,28.29,28.29,0,0,0-9,8,35.32,35.32,0,0,0-5.4,10.8,39,39,0,0,0-1.77,11.38,29.39,29.39,0,0,0,2,11.07,18.22,18.22,0,0,0,6,8.08,15.91,15.91,0,0,0,9.78,3,22.29,22.29,0,0,0,7.38-1.34,27.5,27.5,0,0,0,7.49-4.06,25.27,25.27,0,0,0,6.31-7.11l8.77,5.67a34.51,34.51,0,0,1-9.09,9.84,40.82,40.82,0,0,1-11.5,5.88A38.59,38.59,0,0,1,1059.63,635.16Z"/>
            <path class="cls-45"
                  d="M1127.43,635.16a25.82,25.82,0,0,1-11.76-2.57,25,25,0,0,1-8.61-7,30.42,30.42,0,0,1-5.24-10.1,39.72,39.72,0,0,1-1.77-11.82,40.31,40.31,0,0,1,2.36-13.58,48.89,48.89,0,0,1,6.52-12.4,50.41,50.41,0,0,1,9.73-10.16,46.62,46.62,0,0,1,12-6.9,36.36,36.36,0,0,1,13.32-2.51,24.93,24.93,0,0,1,11.6,2.62,25.94,25.94,0,0,1,8.61,7.11,30.57,30.57,0,0,1,5.24,10.16,40.51,40.51,0,0,1,1.71,11.76,40.92,40.92,0,0,1-2.3,13.47,47.38,47.38,0,0,1-6.47,12.36,51.46,51.46,0,0,1-9.73,10.1,47.13,47.13,0,0,1-12,6.9A36.18,36.18,0,0,1,1127.43,635.16Zm2.35-10.8a23.24,23.24,0,0,0,11.61-3,32,32,0,0,0,9.25-8,38.53,38.53,0,0,0,6.09-10.91,34.51,34.51,0,0,0,2.14-11.81,28.41,28.41,0,0,0-2-10.7,18.49,18.49,0,0,0-5.83-7.91,15,15,0,0,0-9.51-3,23.9,23.9,0,0,0-11.61,2.94,30,30,0,0,0-9.3,7.92,39.93,39.93,0,0,0-6.1,10.91,34.19,34.19,0,0,0-2.19,11.92,28.36,28.36,0,0,0,2,10.69,18.44,18.44,0,0,0,5.88,7.92A15.28,15.28,0,0,0,1129.78,624.36Z"/>
            <path class="cls-45"
                  d="M1189.88,558.7h12.83l13.48,46.41,33.26-46.41h12.72L1246,634.63h-12.08L1245.6,580l-29.52,41.39h-6.63l-12-41.39-11.65,54.65h-12.09Z"/>
            <path class="cls-45"
                  d="M1278,558.7h48.66l-2.25,10.59h-36.57l-4.6,21.6h31.65l-2,9.94H1281.1L1276.18,624h37.54l-2.25,10.59h-49.62Z"/>
            <path class="cls-59"
                  d="M1721.62,543.2a197.24,197.24,0,0,0-17.39,13.5l-10.67,9.63c-3.81,3.43-7.63,7.4-11.82,11.39-16.52,16.29-35.78,36.8-57.2,60.64-13,14.71-25.07,29-36,42.85-10.77,13.93-20.76,27.1-29.09,39.58-17,24.79-28.59,46-34.36,60,5.76-13.91,13-37,26.14-64.65A402,402,0,0,1,1575.46,672a387,387,0,0,1,35-46.21,324.58,324.58,0,0,1,65.41-55.41c5-3.14,9.62-6.22,14.15-8.8l12.56-7.25C1710.31,549.92,1716.85,546.44,1721.62,543.2Z"/>
            <path class="cls-59"
                  d="M1654.79,665.4c-5.83,3.1-13.88,9.92-23.71,19s-21.55,20-35.5,31.6l-24.4,20.39c-7.61,6.52-14.86,12.57-21.21,18.36-12.83,11.47-22.62,21.42-27.48,28.55,4.85-7.11,10.72-19.76,20.25-34.67a225.27,225.27,0,0,1,17.11-23.51,198.3,198.3,0,0,1,23.57-23.65,160,160,0,0,1,42.63-25.1C1638.72,671.11,1649,668.5,1654.79,665.4Z"/>
            <path class="cls-59"
                  d="M1623.52,747.62c-4.9,1.22-12,5.31-20.63,10.85s-18.79,12.21-30.81,18.69c-7.32,4-14.41,7.76-21.12,11.32s-13,7-18.65,10.34c-11.38,6.57-20.28,12.68-24.71,17.57,4.42-4.86,9.81-14.2,18.56-24.78a140,140,0,0,1,15.66-16.24A123.18,123.18,0,0,1,1563,760.51a99.08,99.08,0,0,1,36.76-11C1610.4,748.31,1618.64,748.84,1623.52,747.62Z"/>
            <path class="cls-59"
                  d="M1525.87,674.56c.37,4.33,3.37,10.88,6.08,19.68a94.48,94.48,0,0,1,4.67,32.5,132.42,132.42,0,0,1-8.81,40.31c-4.12,11.06-8.37,19.4-9.61,25,1.24-5.56.86-14.93.25-26.41s-1.45-25.06-.75-39.71c.52-12,2.77-22.48,4.78-31.25S1526.24,678.9,1525.87,674.56Z"/>
            <path class="cls-59"
                  d="M470.23,537.8a194.69,194.69,0,0,1,17.39,13.51l10.67,9.63c3.82,3.43,7.64,7.4,11.82,11.39,16.52,16.28,35.78,36.8,57.2,60.64,13,14.71,25.07,29,36.05,42.85,10.77,13.93,20.76,27.09,29.1,39.58,17,24.79,28.59,46,34.36,60-5.77-13.91-13-37-26.14-64.66a403,403,0,0,0-24.29-44.13,385.39,385.39,0,0,0-34.95-46.21A324.3,324.3,0,0,0,516,564.94c-5-3.14-9.62-6.22-14.14-8.8l-12.56-7.25C481.55,544.53,475,541,470.23,537.8Z"/>
            <path class="cls-59"
                  d="M537.06,660c5.83,3.1,13.89,9.91,23.71,19s21.55,20,35.51,31.6L620.67,731c7.61,6.51,14.86,12.57,21.22,18.36,12.82,11.46,22.61,21.42,27.47,28.55-4.85-7.12-10.72-19.76-20.24-34.67A225.67,225.67,0,0,0,632,719.68,198.41,198.41,0,0,0,608.43,696a159.85,159.85,0,0,0-42.63-25.1C553.14,665.71,542.88,663.11,537.06,660Z"/>
            <path class="cls-59"
                  d="M568.33,742.23c4.9,1.22,12,5.31,20.64,10.85s18.79,12.21,30.8,18.69c7.32,4,14.41,7.76,21.12,11.32s13,7,18.66,10.33c11.37,6.58,20.28,12.69,24.71,17.58-4.42-4.87-9.81-14.2-18.56-24.78A140,140,0,0,0,650,770a122.72,122.72,0,0,0-21.23-14.86,98.84,98.84,0,0,0-36.76-11C581.45,742.92,573.22,743.45,568.33,742.23Z"/>
            <path class="cls-59"
                  d="M666,669.16c-.37,4.34-3.38,10.88-6.08,19.68a94.53,94.53,0,0,0-4.68,32.51c.73,15.47,4.67,29.29,8.82,40.31s8.37,19.4,9.61,25c-1.25-5.56-.87-14.93-.25-26.41s1.44-25.06.75-39.72c-.53-12-2.78-22.47-4.79-31.25S665.61,673.5,666,669.16Z"/>
            <path class="cls-60"
                  d="M1490.21,408.2c29.3-28.77,59.54-59,73.06-97.76s4.7-88.66-30.75-109.39c-35.67-20.86-88.54,1.17-98.84,41.19-4.64,18,4.1,42.87,22.72,42.46,20.4-.45,26.37-28.24,23.81-48.48-6.6-52.1-29.51-103.79-70.67-136.41s-102-42.4-147.47-16.12c-28.5,16.48-48.21,44.42-66.67,71.69s-37.4,55.53-65.13,73.29-67,22.09-92.29,1"/>
            <path class="cls-60"
                  d="M759.78,215.71c-29.44-25-75.69-27.66-107.8-6.18s-47.31,65.23-35.44,102c3.74,11.59,10.86,23.24,22.38,27.16s27-4.44,26-16.58c-1-12.51-16.16-18-28.63-19.4-42.95-4.78-88.28,5.08-122.5,31.47s-55.72,70.17-50.9,113.12,38.2,82.45,80.74,90"/>
            <circle class="cls-61" cx="1079.04" cy="153.01" r="22.97"/>
            <circle class="cls-61" cx="1529.38" cy="87.78" r="22.97"/>
            <path class="cls-61"
                  d="M1112.93,310.36a13.1,13.1,0,0,0,13.09-13.1,13.11,13.11,0,0,0,13.1,13.1,13.1,13.1,0,0,0-13.1,13.09A13.09,13.09,0,0,0,1112.93,310.36Z"/>
            <path class="cls-61"
                  d="M512.14,159.4a13.1,13.1,0,0,0,13.09-13.1,13.11,13.11,0,0,0,13.1,13.1,13.1,13.1,0,0,0-13.1,13.09A13.09,13.09,0,0,0,512.14,159.4Z"/>
            <path class="cls-61" d="M757.09,295.91a18.18,18.18,0,1,1-18.17-18.17A18.18,18.18,0,0,1,757.09,295.91Z"/>
            <circle class="cls-61" cx="1626.46" cy="227.14" r="26.38"/>
            <circle class="cls-61" cx="756.32" cy="71.84" r="30.5"/>
        </g>
    </g>
</svg>