<svg xmlns="http://www.w3.org/2000/svg" xmlns:xlink="http://www.w3.org/1999/xlink" viewBox="0 0 230.4 197.81"><defs><style>.cls-1{fill:none;}.cls-2{fill:url(#linear-gradient);}.cls-3{fill:#071834;}.cls-4{fill:#1cedb5;}.cls-5{fill:#e0f2f1;}.cls-6{clip-path:url(#clip-path);}.cls-7{fill:url(#linear-gradient-2);}</style><linearGradient id="linear-gradient" x1="-14.2" y1="529.65" x2="-13.2" y2="529.65" gradientTransform="matrix(0, -81.18, -81.18, 0, 43112.38, -951.34)" gradientUnits="userSpaceOnUse"><stop offset="0" stop-color="#02a3ef"/><stop offset="1" stop-color="#22ffa7"/></linearGradient><clipPath id="clip-path"><path class="cls-1" d="M85.12,45.83a30,30,0,1,1,30,30A30,30,0,0,1,85.12,45.83Z"/></clipPath><linearGradient id="linear-gradient-2" x1="-15.02" y1="530.64" x2="-14.02" y2="530.64" gradientTransform="matrix(1.34, -60, -60, -1.34, 31972.94, -114.97)" gradientUnits="userSpaceOnUse"><stop offset="0" stop-color="#00ffa6"/><stop offset="1" stop-color="#02a3ef"/></linearGradient></defs><g id="Layer_2" data-name="Layer 2"><g id="Layer_1-2" data-name="Layer 1"><path class="cls-2" d="M191.08,126.67A15.12,15.12,0,0,1,187.77,149c-23.88,15.72-64.7,40.1-70.81,43.74a3.65,3.65,0,0,1-1.68.5h-.15a3.54,3.54,0,0,1-1.82-.5c-5.88-3.51-49.36-30.87-70.58-44.25a15.13,15.13,0,0,1-3.14-23A35.84,35.84,0,0,1,66,113.91h97.59a35.83,35.83,0,0,1,27.46,12.76"/><path class="cls-3" d="M185.27,145.22c-1.05.7-2.14,1.41-3.26,2.13a1,1,0,0,1-.17.12l-2.08,1.34c-1.76,1.14-3.58,2.31-5.45,3.49-.37.23-.74.48-1.12.71v0l-2.53,1.59c-5.08,3.22-10.39,6.53-15.64,9.75L152.39,166l-.7.43-1.34.82-.36.23-1.79,1.09c-1.78,1.1-3.54,2.17-5.26,3.22l-.45.27-3.3,2-1.47.89c-.47.3-.95.59-1.43.87-.79.49-1.57,1-2.35,1.42l-1,.59-2.79,1.68-3.65,2.2-2,1.19-.79.47-.51.31-1,.6-1.4.84-.86.51-1.91,1.15-.66.39-2.32,1.38-.53-.31c-8.91-5.44-51.09-32-69.45-43.57a11.23,11.23,0,0,1-2.51-2.19,10.69,10.69,0,0,1-2.37-5.42,10.48,10.48,0,0,1,2.66-8.48,31.36,31.36,0,0,1,9.61-7.07l.11-.05a31.35,31.35,0,0,1,13.38-3h97.59a31.35,31.35,0,0,1,24,11.15,10.34,10.34,0,0,1,2.34,8.25,10.5,10.5,0,0,1-2.36,5.29,10.22,10.22,0,0,1-2.07,1.92l-.25.16m13.87-9.7a19.62,19.62,0,0,0-4.59-11.79,40.43,40.43,0,0,0-30.93-14.37H66a40.63,40.63,0,0,0-29.79,13.06,19.55,19.55,0,0,0-5.15,13,20.48,20.48,0,0,0,.17,2.81,19.69,19.69,0,0,0,9,14.1l5.62,3.54c20.17,12.7,55.62,35,63.93,40.08l.37.23.74.44a8.1,8.1,0,0,0,4.17,1.15h.32a8.12,8.12,0,0,0,3.83-1.14l1.31-.77.74-.45,2.09-1.25,1.25-.74,0,0,.76-.47c.19-.1.38-.22.57-.34,1.27-.75,2.68-1.6,4.21-2.52l1.15-.7c3.37-2,7.25-4.37,11.45-6.92l2.24-1.36,1.53-.93,1.54-.95c1.3-.78,2.62-1.59,3.94-2.4.53-.33,1.06-.66,1.6-1l6.5-4,1.64-1c4.44-2.74,8.88-5.51,13.18-8.22l2.63-1.67c2.21-1.4,4.36-2.77,6.43-4.11l.5-.31h0l1-.62,2.39-1.55.44-.29,1.07-.7c.28-.18.56-.36.83-.55l.21-.14a19.58,19.58,0,0,0,6.14-6.67,19.78,19.78,0,0,0,2.33-6.86,18.74,18.74,0,0,0,.2-2.8c0-.28,0-.55,0-.82"/><path class="cls-3" d="M42.47,143.54c22.57,15.05,64.77,40.3,72.14,44.7.19.11.37.21.53.32l2.31-1.4c.22-.11.44-.25.66-.38l1.25-.75c.21-.14.43-.27.66-.4l.87-.51,1.39-.85,1-.59.52-.32.79-.46,2-1.18c1.15-.71,2.38-1.43,3.64-2.21l2.79-1.68,1-.59,2.35-1.42,1.43-.87c.48-.28,1-.59,1.46-.89,1.08-.64,2.18-1.33,3.3-2,.16-.08.31-.18.46-.27,1.7-1.06,3.48-2.13,5.25-3.22l1.79-1.1c.12-.06.25-.14.36-.21l1.34-.83c.24-.14.48-.28.71-.43l2.61-1.61c5.25-3.25,10.57-6.56,15.65-9.75l2.52-1.61s0,0,0,0c.38-.23.75-.48,1.12-.71l5.45-3.48c.7-.46,1.4-.9,2.09-1.36a1.53,1.53,0,0,0,.16-.11c1.13-.71,2.21-1.43,3.27-2.12a2.15,2.15,0,0,0,.24-.18c.74-.48,1.46-1,2.16-1.44,2.49-1.64,4.74-3.17,6.68-4.54h0c.34-.23.68-.47,1-.7l.6-.42.21-.16.37-.28q1.33-1,2.61-2c17.77-14.08,24.93-32.14,21.26-53.71-2.69-15.72-11.31-25.9-25.61-30.27a51.91,51.91,0,0,0-10.06-2c-1.77-.17-3.4-.26-4.84-.28-1.15,0-2.18,0-3.06,0V40.23a67,67,0,0,1,8.06.23,60.72,60.72,0,0,1,12.55,2.39c12.28,3.74,27.8,13.28,31.91,37.43,4.42,25.91-5.09,48.25-27.51,64.61l-.58.42c-1.45,1-3.09,2.19-4.9,3.43s-3.78,2.55-5.88,3.93l-1,.69c-.36.22-.71.46-1.07.7l-.45.29-2.39,1.54c-.32.22-.63.42-1,.63l-.5.31c-2.07,1.35-4.22,2.72-6.42,4.12L175,162.61c-4.3,2.72-8.74,5.49-13.18,8.24l-1.64,1c-2.17,1.35-4.35,2.68-6.5,4-.54.32-1.07.65-1.6,1-1.32.81-2.64,1.62-3.94,2.4-.51.33-1,.64-1.54.95l-1.52.93-2.25,1.36c-4.19,2.55-8.08,4.9-11.45,6.92-.39.25-.77.47-1.15.7L126,192.62l-.56.34-.77.47,0,0c-.44.25-.85.51-1.25.75l-2.08,1.24-.75.45-1.23.72a.18.18,0,0,1-.07,0,8.16,8.16,0,0,1-3.84,1.14h-.32a8.11,8.11,0,0,1-4.17-1.16c-.2-.11-.45-.27-.74-.45-.12-.06-.25-.15-.37-.22-7.85-4.67-41.11-24.59-64.26-39.54-4.3-2.76-8.23-5.36-11.6-7.66-2-1.38-3.81-2.64-5.36-3.77a2.71,2.71,0,0,1-.29-.22C6.09,128.46-3.35,106.18,1.06,80.36c4.1-24.12,19.16-33.68,31.06-37.45a60.82,60.82,0,0,1,20-2.67v9.07c-.66,0-1.41,0-2.24,0C38.94,49.27,15,52.7,10,81.89c-3.66,21.48,3.43,39.48,21.08,53.56.88.72,1.78,1.41,2.72,2.09l.16.11h0l.7.52,1.36.95c1.88,1.33,4.05,2.81,6.42,4.41Z"/><path class="cls-4" d="M48.49,58.29a9.83,9.83,0,0,1-9.83-9.83V41.71a9.83,9.83,0,0,1,9.83-9.83.7.7,0,0,1,.7.7v25a.7.7,0,0,1-.7.7"/><path class="cls-3" d="M46.16,35.32a6.81,6.81,0,0,0-4.47,6.39v6.75a6.79,6.79,0,0,0,4.47,6.38Zm2.33,26A12.88,12.88,0,0,1,35.63,48.46V41.71A12.88,12.88,0,0,1,48.49,28.85a3.74,3.74,0,0,1,3.73,3.73v25a3.74,3.74,0,0,1-3.73,3.73"/><path class="cls-4" d="M179.85,58.29V31.88a10.52,10.52,0,0,1,10.53,10.53v5.35a10.53,10.53,0,0,1-10.53,10.53"/><path class="cls-3" d="M182.88,35.55V54.62a7.51,7.51,0,0,0,4.47-6.86V42.41a7.5,7.5,0,0,0-4.47-6.86m-3,25.77a3,3,0,0,1-3-3V31.88a3,3,0,0,1,3-3,13.57,13.57,0,0,1,13.56,13.56v5.35a13.57,13.57,0,0,1-13.56,13.56"/><path class="cls-5" d="M85.12,45.83a30,30,0,1,1,30,30A30,30,0,0,1,85.12,45.83Z"/><g class="cls-6"><path class="cls-7" d="M126,25.34a1.45,1.45,0,0,1,1.4,1.32l4.33,30.17,1.34-5.17c.39-.86.56-.94,1.44-1h10.59v3.1h-9.38l-3,11.56a1.6,1.6,0,0,1-3-.34l-4.11-28.64-3.1,16.33a1.45,1.45,0,0,1-1.48,1.09H110.76l-3,6.56a1.59,1.59,0,0,1-2.84-.49l-2.36-11.27L100,53.13c-.49.6-.55.6-1.26.64H85.12V50.66H97.87L102,43.26a1.61,1.61,0,0,1,2.77.6L107,54.55l1.43-3.13c.46-.68.55-.71,1.33-.75h10.06l4.59-24.25C124.78,25.47,124.94,25.32,126,25.34Z"/></g><path class="cls-3" d="M115.42.5c20.71.2,40.27,16.15,44.22,36.76a46.16,46.16,0,0,1-12.86,41A45.33,45.33,0,0,1,70.27,52.44C67.47,33.32,78.37,13,96,4.74A46,46,0,0,1,115.42.5Zm-.54,8C98,8.66,82,21.51,78.55,38.31a38,38,0,0,0,10.5,34.22,38.09,38.09,0,0,0,40.18,7.87c15.86-6.49,25.87-24.94,22.51-41.87-3.26-16.43-18.64-29.64-35.89-30Z"/><path class="cls-1" d="M115.67,0c20.53.38,40,16.08,44.32,36.43,3.61,17.16-3.64,36.31-18.1,46.55-12.77,9-30.26,11.16-44.6,5.07A46.83,46.83,0,0,1,69.75,52.29C67,33,78.11,12.37,96.05,4.15A46.66,46.66,0,0,1,115.11,0Zm-.56,1A44.49,44.49,0,0,0,89.62,9C75.32,19.25,67.52,38,71.29,55.22A45.84,45.84,0,0,0,97.68,87.13c15.13,6.42,33.83,3.51,46.51-7.19,13.71-11.57,19.43-32.11,13.15-49.09S134,1.34,115.65,1Zm.26,7c18.94.17,36.9,16.4,37.5,36.11.48,15.41-9.12,30.79-23.27,36.67C115.71,86.57,98.31,83,87.87,72.05c-10-10.44-13.47-26.89-7.77-40.4S100,8.27,114.68,8Zm-.48,1c-16.1.2-31.59,12.19-35.54,28.06a37.5,37.5,0,0,0,9.24,34.3c11,11.5,30,14.64,44,6.87,15.39-8.54,23.76-28.77,16.77-45.86-5.52-13.5-19.42-23.24-34-23.37Z"/></g></g></svg>