<!--
  - Created by Anup Shrestha (anup.stha012@gmail.com)
  - Copyright (c) 2022.  All rights reserved.
  - Last modified 4/28/22, 1:27 PM
  -
  -->

<svg xmlns="http://www.w3.org/2000/svg" viewBox="0 0 201.97 201.97">
    <defs>
        <style>
            .cls-1{isolation:isolate;}.cls-2{fill:#8485a4;}.cls-3{fill:#626584;}.cls-4{fill:#066873;}.cls-5{fill:#daaa82;}.cls-6{fill:#232022;}.cls-7{fill:#1f1e21;mix-blend-mode:overlay;opacity:0.5;}.cls-8{fill:#f3bcca;}.cls-9{fill:#eeb997;}
        </style>
    </defs>
    <g class="cls-1">
        <g id="Layer_2" data-name="Layer 2">
            <g id="OBJECTS">
                <path class="cls-2"
                      d="M202,101A101.07,101.07,0,0,1,89,201.27c-2.63-.31-5.24-.73-7.82-1.24A101,101,0,0,1,0,102.79c0-.6,0-1.2,0-1.8q0-3.8.28-7.51a101,101,0,0,1,201.46.58Q202,97.49,202,101Z"/>
                <path class="cls-3"
                      d="M101,16.76V180.24L81.2,200A101,101,0,0,1,0,102.79c0-.6,0-1.2,0-1.8q0-3.8.28-7.51L61.91,31.85a6.18,6.18,0,0,1,.76-.59,11,11,0,0,1,8-1.21c-.3-.05.56-3.39.66-3.7A13.31,13.31,0,0,1,73.1,23a13,13,0,0,1,14.58-4.52,2.57,2.57,0,0,1,.37.19c.44.26,1.12.69,1.08.76a7.69,7.69,0,0,1,4.28-3.78A9,9,0,0,1,101,16.76Z"/>
                <path class="cls-4"
                      d="M161.25,182a100.65,100.65,0,0,1-40.93,18.1A101.76,101.76,0,0,1,101,202h0a102.7,102.7,0,0,1-12-.7A100.41,100.41,0,0,1,40.73,182c5.8-21.06,23-37.6,44.79-43l2.1-.48A64.55,64.55,0,0,1,101,137.17h0a64.48,64.48,0,0,1,13.36,1.39l.84.18,1.27.3C138.24,144.44,155.45,161,161.25,182Z"/>
                <path class="cls-5"
                      d="M67.82,99.2a7.28,7.28,0,0,1-.93,1.82,8.37,8.37,0,0,1-2.55,2.1,8,8,0,0,1-4,1.49h-.11l-.29,0-.17,0-.14,0h-.06l-.33-.07h0l-.2,0a5.08,5.08,0,0,1-.8-.3l-.33-.15-.32-.18a8.36,8.36,0,0,1-1.74-1.33c-.21-.2-.41-.41-.61-.63s-.39-.45-.57-.68c-.37-.47-.71-1-1-1.46s-.48-.75-.7-1.13c-.43-.71-.84-1.42-1.24-2.14l-.57-1.09c-.38-.73-.73-1.47-1.05-2.23s-.62-1.51-.88-2.29L49,90.23c-.06-.2-.12-.4-.17-.6-.18-.65-.34-1.31-.46-2a17.35,17.35,0,0,1,0-6.66c.07-.36.16-.71.26-1.06l.09-.3a8.91,8.91,0,0,1,.59-1.46,5.79,5.79,0,0,1,.31-.54,6.29,6.29,0,0,1,1.47-1.57,7.8,7.8,0,0,1,.91-.58,8,8,0,0,1,1.86-.69,8.24,8.24,0,0,1,3.53-.08,9.29,9.29,0,0,1,1.18.31A10.36,10.36,0,0,1,60,75.6l.3.16a14.76,14.76,0,0,1,4.32,3.67,19.67,19.67,0,0,1,3.32,5.95c.09.26.18.52.26.78a22.46,22.46,0,0,1,.6,2.55v0A20,20,0,0,1,67.82,99.2Z"/>
                <path class="cls-5"
                      d="M149.5,98.55a14.08,14.08,0,0,1-4.67,5.24,5.55,5.55,0,0,1-2.77.82,8.11,8.11,0,0,1-4-1.49,8.49,8.49,0,0,1-2.55-2.1,7.59,7.59,0,0,1-.92-1.82,20.37,20.37,0,0,1,3.23-19.77A12.86,12.86,0,0,1,145,74.7a7.57,7.57,0,0,1,7.77,2.92,8.63,8.63,0,0,1,1,2.29,18,18,0,0,1-.17,9.72A35.85,35.85,0,0,1,149.5,98.55Z"/>
                <path class="cls-6"
                      d="M149.81,61.24c.77,2,1.51,4.13,1.18,6.25s-2.12,4.17-4.26,4a13.48,13.48,0,0,1,1,3.11c0,.16.06.32.08.48a13.54,13.54,0,0,1,0,4c-.32,2.06-1.32,4.24-3.27,5,.42-.16.56,2.73.52,3A5.52,5.52,0,0,1,143.6,90a9,9,0,0,0-1.81,3.18,1.43,1.43,0,0,0-.09.27c-.22.66-.4,1.35-.58,2.11-.15-1.11-.29-2.22-.44-3.33-.07-.52-.14-1-.26-1.56-.27-1.14-.46-1.61-1-1.8a3.53,3.53,0,0,0-1.15-.12H69.64l-.88,0a12.36,12.36,0,0,0-1.83,0,13.72,13.72,0,0,0-2.08.6,6,6,0,0,0-1.2.46,2.9,2.9,0,0,0-.29.19,4.05,4.05,0,0,0-1.06,1.39,15.16,15.16,0,0,0-1.7,6.43c-.09-.74-.2-1.47-.34-2.19l-.06-.35v0c-.39-2.07-1.59-4.36-1.7-6.42s.21-3.76-1.49-5.49c-.65-.66-1.44-1.15-2.14-1.76a8.86,8.86,0,0,1-2.9-6.1,8.6,8.6,0,0,1,1.33-5.28A10.18,10.18,0,0,1,52.77,54,10.44,10.44,0,0,1,60,38.47a6,6,0,0,1,1.37-6.08,4.59,4.59,0,0,1,.54-.54,6.18,6.18,0,0,1,.76-.59,11,11,0,0,1,8-1.21c-.3-.05.56-3.39.66-3.7A13.31,13.31,0,0,1,73.1,23a13,13,0,0,1,14.58-4.52,2.57,2.57,0,0,1,.37.19c.44.26,1.12.69,1.08.76a7.69,7.69,0,0,1,4.28-3.78A9,9,0,0,1,101,16.76a5.74,5.74,0,0,1,.5.36c.37.29,1.73,1.22,1.51,1.82a6.13,6.13,0,0,1,3.32-3.39,9.27,9.27,0,0,1,5.19-.49c3.12.52,6.31,2.68,6.65,5.83a7.82,7.82,0,0,1,12.33,7,5.89,5.89,0,0,1,6.36,8.85,5.54,5.54,0,0,1,6.49,2.16,7.91,7.91,0,0,1,.59,7.12c3.69-1,6.72,1.83,8.25,4.88C153.88,54.28,152.58,58.86,149.81,61.24Z"/>
                <path class="cls-5" d="M116.45,126v26A15.46,15.46,0,0,1,101,167.43h0A15.46,15.46,0,0,1,85.52,152V126Z"/>
                <path class="cls-7"
                      d="M116.45,121.88v15.47c-.41.48-.83.94-1.27,1.39A29.26,29.26,0,0,1,103,146.09c-.66.2-1.32.38-2,.53a29.59,29.59,0,0,1-6.84.81,27.2,27.2,0,0,1-8.62-1.37V121.88Z"/>
                <path class="cls-8"
                      d="M141.7,47.13v57.52a23.48,23.48,0,0,1-7.81,17.13c-4.33,4-9.71,9-14.08,13a24.81,24.81,0,0,1-3.36,2.56c-.68.43-1.38.84-2.11,1.21A29.32,29.32,0,0,1,101,141.72a29.83,29.83,0,0,1-10.27-1.81,27.49,27.49,0,0,1-3.09-1.35q-1.08-.56-2.1-1.2a25,25,0,0,1-3.37-2.57c-4.37-4-9.75-9-14.07-13a23.46,23.46,0,0,1-7.82-17.13V47.13Z"/>
                <path class="cls-9"
                      d="M141.7,47.13v57.52a23.47,23.47,0,0,1-7.81,17.13c-4.33,4-9.7,9-14.08,13a24.2,24.2,0,0,1-3.36,2.56c-.68.43-1.38.84-2.11,1.21A29.32,29.32,0,0,1,101,141.72a29.83,29.83,0,0,1-10.27-1.81,27.49,27.49,0,0,1-3.09-1.35q-1.08-.56-2.1-1.2a25,25,0,0,1-3.37-2.57c-4.37-4-9.75-9-14.07-13a23.41,23.41,0,0,1-7.81-17V47.13Z"/>
                <path class="cls-6"
                      d="M142.37,46.26l-.67,54.27a4.26,4.26,0,0,1-2.13.57c.07,0-.15-11.39-.14-12.54a8.89,8.89,0,0,0-.4-3.21,5.18,5.18,0,0,0-1.69-2.26,4.56,4.56,0,0,0-2-.66,5.36,5.36,0,0,1-3.75-3.7,7.06,7.06,0,0,1,1.16-5.89,3.37,3.37,0,0,1-2.47-.59,6.69,6.69,0,0,1-2.78-3.06,4.35,4.35,0,0,1,.29-4,4,4,0,0,1-2.63,1.33,8.57,8.57,0,0,1-3-.28,8.87,8.87,0,0,1-2.9-1.18,4.13,4.13,0,0,1-1.78-2.48,7,7,0,0,1-6.58,5,22.91,22.91,0,0,1-2.75,0,7.76,7.76,0,0,1-5-2.93c.34.44-.33,1.48-.52,1.86a4.89,4.89,0,0,1-1.51,1.63,11,11,0,0,1-4.59,2,11.45,11.45,0,0,1-8.23-1.62,7.79,7.79,0,0,1-1.76-1.63c-.41-.5-.59-1.25-1-1.69.28.29-1.47,2-1.68,2.13a6.53,6.53,0,0,1-2.63,1.25c-1.55.34-3.86.16-5.07-1a6.26,6.26,0,0,1-.8,6.74,14.26,14.26,0,0,1-2,2.06c-.28.21-2.28,1.42-2.6.88a6.38,6.38,0,0,1,.14,6.06,8.25,8.25,0,0,1-2.64,2.87c-1,.71-2.47,1.09-3.36,1.88-1.77,1.55-2.05,5.16-2.05,7.34a45.81,45.81,0,0,0,0,5.74,4.17,4.17,0,0,1-2.52-.84l-.68-54Z"/>
                <polygon class="cls-7" points="60.25 104.61 60.27 104.61 60.27 104.79 60.25 104.61"/>
                <path class="cls-7"
                      d="M138.45,116.16c-.11.19-.23.37-.35.56l-.36.56-.26.37-.53.73-.22.29c-.2.26-.41.52-.62.77l-.3.35-.3.34-.31.34c-.13.14-.26.28-.4.41l-.3.31,0,0-.25.24-.33.32c-3.53,3.28-7.73,7.2-11.53,10.68L120.64,134l-.83.76a23.78,23.78,0,0,1-2.92,2.27c-.15.1-.29.2-.45.29a23.91,23.91,0,0,1-2.1,1.21A29.35,29.35,0,0,1,101,141.72v25.71a15.35,15.35,0,0,1-5-.81l-.71-.26c-.35-.14-.7-.29-1-.45l-.66-.34q-.49-.27-1-.57l-.62-.42a14.42,14.42,0,0,1-2-1.68A15.38,15.38,0,0,1,85.52,152v4.15A15.47,15.47,0,0,0,101,171.58a17.68,17.68,0,0,0,17.68-17.68v4.74A17.68,17.68,0,0,1,101,176.32V202a100.71,100.71,0,0,1-43.65-9.9c-1-.46-1.94-.95-2.91-1.45s-1.91-1-2.85-1.55-1.88-1.07-2.8-1.63q-2.09-1.26-4.09-2.61c-1.34-.9-2.66-1.84-4-2.8a60.08,60.08,0,0,1,15.69-26.67c1-1,1.93-1.86,3-2.74l1.54-1.3a61.91,61.91,0,0,1,8.36-5.75c.58-.34,1.18-.67,1.79-1s1.2-.64,1.82-.94l.92-.45c.93-.43,1.87-.85,2.83-1.24,1.27-.53,2.57-1,3.88-1.46,1.64-.55,3.32-1,5-1.46v-1.68a25,25,0,0,1-3.37-2.57c-4.37-4-9.75-9-14.08-13l-.46-.44-.34-.34-.1-.11c-.1-.1-.2-.19-.29-.29l-.15-.17-.09-.09,0,0-.21-.23-.1-.12c-.14-.15-.27-.31-.4-.46s0,0-.05,0l-.24-.29-.17-.22-.32-.4,0,0-.26-.36c-.06-.08-.12-.15-.17-.23l-.27-.38,0,0c-.09-.13-.18-.25-.26-.38L64,117l-.16-.25-.09-.14-.07-.12-.26-.42,0-.06,0,0-.27-.48-.31-.58-.33-.65c0-.06,0-.13-.08-.19l-.12-.24,0-.09,0,0a.54.54,0,0,1,0-.11l0-.08a.05.05,0,0,1,0,0l0,0a1.22,1.22,0,0,1-.07-.17.67.67,0,0,1-.06-.12s0-.09,0-.13a.59.59,0,0,1,0-.08c0-.07,0-.13-.07-.2s-.13-.32-.19-.48l-.06-.16s0-.08,0-.11l-.12-.36c0-.1-.07-.19-.09-.29a2.29,2.29,0,0,1-.09-.28c-.06-.19-.12-.38-.17-.58l0-.08c0-.16-.09-.32-.13-.48s-.09-.38-.14-.57-.07-.38-.11-.58-.07-.38-.11-.58l-.09-.58c0-.16,0-.31-.05-.47a0,0,0,0,0,0,0V107a1.79,1.79,0,0,1,0-.24s0,0,0-.07l0-.47c0-.12,0-.23,0-.35v0s0,0,0-.07a.71.71,0,0,0,0-.15v-.35c0-.16,0-.32,0-.48v-.18h-.07l-.29,0-.17,0-.14,0h-.06l-.33-.07h0l-.2,0a5.08,5.08,0,0,1-.8-.3l-.33-.15-.32-.18a8.36,8.36,0,0,1-1.74-1.33c-.21-.2-.41-.41-.61-.63s-.39-.45-.57-.68c-.37-.47-.71-1-1-1.46s-.48-.75-.7-1.13c-.43-.71-.84-1.42-1.24-2.14l-.57-1.09c-.38-.73-.73-1.47-1.05-2.23s-.62-1.51-.88-2.29L49,90.23c-.07-.2-.12-.4-.18-.6-.18-.65-.33-1.32-.45-2a17.35,17.35,0,0,1,0-6.66c.07-.36.16-.71.26-1.06l.09-.3a8.91,8.91,0,0,1,.59-1.46,5.79,5.79,0,0,1,.31-.54c.4-.62,1.07-1,1.47-1.57a7.8,7.8,0,0,1,.91-.58,8.6,8.6,0,0,1,1.33-5.28A10.18,10.18,0,0,1,52.77,54,10.44,10.44,0,0,1,60,38.47c-1-2.58.35-5.69,2.67-7.21a11,11,0,0,1,8-1.21c-.3-.05.56-3.39.66-3.7A13.31,13.31,0,0,1,73.1,23a13,13,0,0,1,14.58-4.52,2.57,2.57,0,0,1,.37.19c-1-.56-4.67,2.39-5.38,3a19.91,19.91,0,0,0-5.5,6.76,24.77,24.77,0,0,0-1.9,14.9,25.82,25.82,0,0,0,14,19.46,20.78,20.78,0,0,0,13.25,2,3.19,3.19,0,0,1,.59-.15c.27,0,.13,0,.31.18s.43.55.69.78a8.05,8.05,0,0,0,1.59,1.13c2.24,1.21,5.71,1,7.73.35a4.72,4.72,0,0,0,1.1-.55c.37-.26.65-.48,1-.77a6.41,6.41,0,0,0,2-3.26A4,4,0,0,0,119.19,65a7.1,7.1,0,0,0,2.63,1.14c1.94.41,4.32.68,5.87-.87l-.19.35a6.2,6.2,0,0,1-3.9,3.05,6.6,6.6,0,0,1-5.85-1.36,5.9,5.9,0,0,1-.57-.55,7.1,7.1,0,0,1-3.78,3A15.47,15.47,0,0,1,108,71.1c-10,.42-7.79,12.53-7.79,19.34,0,3.85.1,7.71,0,11.55-.16,6.61.63,13.23.77,19.89,0,1.32,0,2.63,0,3.93V126a10.76,10.76,0,0,0,15.17,9.67l.3-.14h0c.72-.37,1.42-.78,2.1-1.21a24.2,24.2,0,0,0,3.36-2.56c4.38-4,9.75-9,14.08-13A25.92,25.92,0,0,0,138.45,116.16Z"/>
                <path class="cls-7" d="M141.7,100.53v.4l-.36.06,0-.27Z"/>
            </g>
        </g>
    </g>
</svg>