<!--
  - Created by Anup Shrestha (anup.stha012@gmail.com)
  - Copyright (c) 2022.  All rights reserved.
  - Last modified 4/28/22, 1:27 PM
  -
  -->

<svg xmlns="http://www.w3.org/2000/svg" viewBox="0 0 544.07 280.27">
    <defs>
        <style>
            .cls-1{fill:none;}.cls-2{fill:url(#linear-gradient);}.cls-3{fill:#071834;}.cls-4{fill:#1cedb5;}.cls-5{fill:#e0f2f1;}.cls-6{clip-path:url(#clip-path);}.cls-7{fill:url(#linear-gradient-2);}.cls-8{fill:#22f2a7;}
        </style>
        <linearGradient id="linear-gradient" x1="-36" y1="534.81" x2="-35" y2="534.81"
                        gradientTransform="matrix(0, -81.18, -81.18, 0, 43699.56, -2721.27)"
                        gradientUnits="userSpaceOnUse">
            <stop offset="0" stop-color="#02a3ef"/>
            <stop offset="1" stop-color="#22ffa7"/>
        </linearGradient>
        <clipPath id="clip-path">
            <path class="cls-1" d="M253.14,45.83a30,30,0,1,1,30,30A30,30,0,0,1,253.14,45.83Z"/>
        </clipPath>
        <linearGradient id="linear-gradient-2" x1="-36.72" y1="534.98" x2="-35.72" y2="534.98"
                        gradientTransform="matrix(1.34, -60, -60, -1.34, 32430.48, -1411.09)"
                        gradientUnits="userSpaceOnUse">
            <stop offset="0" stop-color="#00ffa6"/>
            <stop offset="1" stop-color="#02a3ef"/>
        </linearGradient>
    </defs>
    <g id="Layer_2" data-name="Layer 2">
        <g id="Layer_1-2" data-name="Layer 1">
            <g id="Layer_1-3" data-name="Layer 1">
                <path class="cls-2"
                      d="M359.11,126.67A15.12,15.12,0,0,1,355.79,149c-23.88,15.72-64.7,40.1-70.81,43.74a3.65,3.65,0,0,1-1.68.5h-.15a3.54,3.54,0,0,1-1.82-.5c-5.88-3.51-49.36-30.87-70.58-44.25a15.13,15.13,0,0,1-3.14-23,35.85,35.85,0,0,1,26.44-11.59h97.59a35.87,35.87,0,0,1,27.47,12.76"/>
                <path class="cls-3"
                      d="M353.3,145.22,350,147.35a1,1,0,0,1-.17.12l-2.08,1.34c-1.76,1.14-3.58,2.31-5.45,3.49-.37.23-.74.48-1.12.71,0,0,0,0,0,0l-2.52,1.59c-5.09,3.22-10.4,6.53-15.65,9.75L320.41,166l-.7.43c-.44.28-.89.55-1.34.82l-.36.23-1.79,1.09c-1.78,1.1-3.54,2.17-5.26,3.22-.15.09-.3.19-.45.27l-3.3,2-1.47.89c-.47.3-.95.59-1.43.87-.79.49-1.57,1-2.34,1.42l-1,.59-2.78,1.68-3.66,2.2-2,1.19-.79.47-.51.31-1,.6-1.4.84-.86.51-1.91,1.15-.66.39-2.32,1.38-.52-.31c-8.92-5.44-51.1-32-69.46-43.57a11,11,0,0,1-2.5-2.19,10.6,10.6,0,0,1,.28-13.9,31.48,31.48,0,0,1,9.61-7.07l.11-.05a31.35,31.35,0,0,1,13.38-3h97.59a31.35,31.35,0,0,1,24,11.15,10.31,10.31,0,0,1,2.35,8.25,10.6,10.6,0,0,1-2.37,5.29,10.22,10.22,0,0,1-2.07,1.92l-.24.16m13.86-9.7a19.55,19.55,0,0,0-4.58-11.79,40.45,40.45,0,0,0-30.94-14.37H234.05a40.61,40.61,0,0,0-29.78,13.06,19.51,19.51,0,0,0-5.16,13,20.48,20.48,0,0,0,.17,2.81,19.67,19.67,0,0,0,9.05,14.1l5.61,3.54c20.17,12.7,55.62,35,63.93,40.08.13.07.25.16.37.23l.74.44a8.1,8.1,0,0,0,4.17,1.15h.32a8.16,8.16,0,0,0,3.84-1.14l1.3-.77.74-.45,2.09-1.25,1.25-.74,0,0,.77-.47c.19-.1.37-.22.56-.34,1.27-.75,2.68-1.6,4.21-2.52.38-.23.76-.45,1.15-.7,3.37-2,7.26-4.37,11.45-6.92l2.25-1.36,1.52-.93,1.54-.95c1.3-.78,2.62-1.59,3.94-2.4.53-.33,1.06-.66,1.6-1l6.5-4,1.65-1c4.43-2.74,8.87-5.51,13.17-8.22l2.64-1.67c2.2-1.4,4.35-2.77,6.43-4.11.16-.11.33-.22.49-.31h0l1-.62,2.39-1.55.44-.29,1.07-.7.84-.55.2-.14a19.58,19.58,0,0,0,6.14-6.67,19.8,19.8,0,0,0,2.34-6.86,20.16,20.16,0,0,0,.19-2.8c0-.28,0-.55,0-.82"/>
                <path class="cls-3"
                      d="M210.5,143.54c22.56,15.05,64.76,40.3,72.13,44.7.19.11.37.21.53.32l2.31-1.4c.22-.11.44-.25.66-.38l1.25-.75c.21-.14.43-.27.66-.4l.87-.51,1.39-.85,1-.59.52-.32.79-.46,2-1.18c1.15-.71,2.38-1.43,3.64-2.21l2.79-1.68,1-.59,2.35-1.42,1.43-.87c.48-.28,1-.59,1.46-.89,1.08-.64,2.18-1.33,3.3-2,.16-.08.31-.18.46-.27,1.7-1.06,3.48-2.13,5.25-3.22l1.79-1.1.36-.21,1.34-.83c.24-.14.48-.28.71-.43l2.61-1.61c5.25-3.25,10.57-6.56,15.65-9.75L341.2,153s0,0,0,0c.38-.23.75-.48,1.12-.71l5.45-3.48c.7-.46,1.4-.9,2.09-1.36a1.53,1.53,0,0,0,.16-.11c1.13-.71,2.21-1.43,3.27-2.12a2.15,2.15,0,0,0,.24-.18c.74-.48,1.46-1,2.16-1.44,2.49-1.64,4.74-3.17,6.68-4.54h0c.34-.23.68-.47,1-.7l.6-.42.21-.16.37-.28q1.33-1,2.61-2c17.77-14.08,24.93-32.14,21.26-53.71-2.69-15.72-11.31-25.9-25.61-30.27a51.91,51.91,0,0,0-10.06-2c-1.77-.17-3.4-.26-4.84-.28-1.15,0-2.18,0-3.06,0V40.23a67,67,0,0,1,8.06.23,60.72,60.72,0,0,1,12.55,2.39c12.28,3.74,27.8,13.28,31.91,37.43,4.42,25.91-5.09,48.25-27.51,64.61l-.58.42c-1.45,1-3.09,2.19-4.9,3.43s-3.78,2.55-5.88,3.93l-1,.69c-.36.22-.71.46-1.07.7l-.45.29-2.39,1.54c-.32.22-.63.42-1,.63l-.5.31c-2.07,1.35-4.22,2.72-6.42,4.12L343,162.61c-4.3,2.72-8.74,5.49-13.18,8.24l-1.64,1c-2.17,1.35-4.35,2.68-6.5,4-.54.32-1.07.65-1.6,1-1.32.81-2.64,1.62-3.94,2.4-.51.33-1,.64-1.54.95l-1.52.93-2.25,1.36c-4.19,2.55-8.08,4.9-11.45,6.92-.39.25-.77.47-1.15.7l-4.21,2.52-.56.34-.77.47,0,0c-.44.25-.85.51-1.25.75l-2.08,1.24-.75.45-1.23.72a.18.18,0,0,1-.07,0,8.16,8.16,0,0,1-3.84,1.14h-.32a8.11,8.11,0,0,1-4.17-1.16c-.2-.11-.45-.27-.74-.45-.12-.06-.25-.15-.37-.22-7.85-4.67-41.11-24.59-64.26-39.54-4.3-2.76-8.23-5.36-11.59-7.66-2-1.38-3.81-2.64-5.37-3.77a2.71,2.71,0,0,1-.29-.22c-22.25-16.33-31.69-38.61-27.28-64.43,4.1-24.12,19.16-33.68,31.06-37.45a60.85,60.85,0,0,1,20-2.67v9.07c-.66,0-1.41,0-2.24,0C207,49.27,183,52.7,178,81.89c-3.66,21.48,3.43,39.48,21.09,53.56.87.72,1.78,1.41,2.72,2.09l.16.11h0l.7.52,1.35.95c1.88,1.33,4.05,2.81,6.43,4.41Z"/>
                <path class="cls-4"
                      d="M216.51,58.29a9.83,9.83,0,0,1-9.83-9.83V41.71a9.83,9.83,0,0,1,9.83-9.83.7.7,0,0,1,.7.7v25a.7.7,0,0,1-.7.7"/>
                <path class="cls-3"
                      d="M214.18,35.32a6.81,6.81,0,0,0-4.47,6.39v6.75a6.79,6.79,0,0,0,4.47,6.38Zm2.33,26a12.88,12.88,0,0,1-12.86-12.86V41.71a12.88,12.88,0,0,1,12.86-12.86,3.73,3.73,0,0,1,3.73,3.73v25a3.73,3.73,0,0,1-3.73,3.73"/>
                <path class="cls-4"
                      d="M347.88,58.29V31.88A10.52,10.52,0,0,1,358.4,42.41v5.35a10.53,10.53,0,0,1-10.52,10.53"/>
                <path class="cls-3"
                      d="M350.91,35.55V54.62a7.52,7.52,0,0,0,4.46-6.86V42.41a7.51,7.51,0,0,0-4.46-6.86m-3,25.77a3,3,0,0,1-3-3V31.88a3,3,0,0,1,.88-2.14,3,3,0,0,1,2.15-.89,13.57,13.57,0,0,1,13.55,13.56v5.35a13.57,13.57,0,0,1-13.55,13.56"/>
                <path class="cls-5" d="M253.14,45.83a30,30,0,1,1,30,30A30,30,0,0,1,253.14,45.83Z"/>
                <g class="cls-6">
                    <path class="cls-7"
                          d="M294,25.34a1.45,1.45,0,0,1,1.4,1.32l4.34,30.17,1.33-5.17c.39-.86.56-.94,1.44-1h10.59v3.1h-9.38l-3,11.56a1.6,1.6,0,0,1-3-.34L293.7,36.35l-3.09,16.33a1.47,1.47,0,0,1-1.49,1.09H278.78l-3,6.56a1.6,1.6,0,0,1-2.85-.49l-2.35-11.27-2.55,4.56c-.49.6-.54.6-1.26.64H253.14V50.66h12.75L270,43.26a1.61,1.61,0,0,1,2.77.6L275,54.55l1.43-3.13c.46-.68.56-.71,1.33-.75h10.06l4.59-24.25C292.8,25.47,293,25.32,294,25.34Z"/>
                </g>
                <path class="cls-3"
                      d="M283.44.5c20.71.2,40.27,16.15,44.22,36.76a46.16,46.16,0,0,1-12.86,41,45.33,45.33,0,0,1-76.51-25.82c-2.8-19.12,8.1-39.48,25.7-47.7A46,46,0,0,1,283.44.5Zm-.54,8c-16.86.16-32.88,13-36.33,29.81a38,38,0,0,0,10.5,34.22,38.09,38.09,0,0,0,40.18,7.87c15.86-6.49,25.87-24.94,22.51-41.87-3.26-16.43-18.64-29.64-35.89-30Z"/>
                <path class="cls-1"
                      d="M283.69,0c20.53.38,40,16.08,44.32,36.43,3.61,17.16-3.64,36.31-18.1,46.55-12.77,9-30.26,11.16-44.6,5.07a46.83,46.83,0,0,1-27.54-35.76c-2.72-19.28,8.36-39.92,26.3-48.14A46.66,46.66,0,0,1,283.13,0Zm-.56,1a44.49,44.49,0,0,0-25.49,8c-14.3,10.22-22.1,28.95-18.33,46.19A45.84,45.84,0,0,0,265.7,87.13c15.13,6.42,33.83,3.51,46.51-7.19,13.71-11.57,19.43-32.11,13.15-49.09S302,1.34,283.67,1Zm.26,7c18.94.17,36.9,16.4,37.5,36.11.48,15.41-9.12,30.79-23.27,36.67-13.89,5.79-31.29,2.17-41.73-8.73-10-10.44-13.46-26.89-7.77-40.4S268.05,8.27,282.7,8Zm-.48,1c-16.1.2-31.59,12.19-35.54,28.06a37.5,37.5,0,0,0,9.24,34.3c11,11.5,30,14.64,44,6.87,15.39-8.54,23.76-28.77,16.77-45.86C311.86,18.87,298,9.13,283.38,9Z"/>
                <path class="cls-3"
                      d="M34.76,253.06a30.58,30.58,0,0,0-6.21-3.38q-3.32-1.34-5.92-2.24a47.75,47.75,0,0,1-6.47-2.6c-1.27-.7-1.91-1.54-1.91-2.54a3,3,0,0,1,1.43-2.37q1.42-1.08,4.74-1.08a9.17,9.17,0,0,1,5.11,1.24A6,6,0,0,1,28,243a3,3,0,0,0,.81,1.33,2,2,0,0,0,1.4.43h9a1.65,1.65,0,0,0,1.24-.56,1.55,1.55,0,0,0,.45-1.26,14.73,14.73,0,0,0-1.85-6.21,15.35,15.35,0,0,0-4.32-4.85,20.86,20.86,0,0,0-6.44-3.12,28.24,28.24,0,0,0-8.13-1.1,27.27,27.27,0,0,0-8,1.1,19.21,19.21,0,0,0-6.28,3.16,14.4,14.4,0,0,0-4.09,4.94,14.2,14.2,0,0,0-1.47,6.53A12.21,12.21,0,0,0,2.12,250a17.13,17.13,0,0,0,4.52,4.74,29.22,29.22,0,0,0,6,3.29c2.19.89,4.3,1.65,6.34,2.31a39.39,39.39,0,0,1,6.63,2.73c1.35.78,2,1.71,2,2.79a2.77,2.77,0,0,1-1.4,2.12q-1.39,1-5,1a12.54,12.54,0,0,1-5.43-1,5.85,5.85,0,0,1-2.69-2.28,4.32,4.32,0,0,0-1-1.36,2.78,2.78,0,0,0-1.56-.33H1.7a1.68,1.68,0,0,0-1.24.55A1.55,1.55,0,0,0,0,265.9a13,13,0,0,0,2.11,6.18,15.44,15.44,0,0,0,4.65,4.48,22.31,22.31,0,0,0,6.63,2.77,33,33,0,0,0,8.06.94,31.23,31.23,0,0,0,8-1,20.17,20.17,0,0,0,6.38-2.87,13.16,13.16,0,0,0,5.75-11.24,12.49,12.49,0,0,0-2-7.12,19.38,19.38,0,0,0-4.88-5"/>
                <path class="cls-3"
                      d="M91.75,228.58H81.93a1.55,1.55,0,0,0-1.56,1.56v26.2q0,5.54-2.63,8.46T70,267.72q-5.07,0-7.68-2.92t-2.6-8.46v-26.2a1.55,1.55,0,0,0-1.56-1.56H48.25a1.55,1.55,0,0,0-1.56,1.56v27a27.27,27.27,0,0,0,1.49,9.1,20.71,20.71,0,0,0,4.43,7.34,20.39,20.39,0,0,0,7.28,4.91A26.4,26.4,0,0,0,70,280.27a26.25,26.25,0,0,0,10-1.79,20.39,20.39,0,0,0,11.8-12.25,26.54,26.54,0,0,0,1.53-9.1v-27a1.51,1.51,0,0,0-.46-1.1,1.47,1.47,0,0,0-1.1-.46"/>
                <path class="cls-3"
                      d="M145.38,228.58h-9.81a1.48,1.48,0,0,0-1.11.46,1.5,1.5,0,0,0-.45,1.1v25.49a.45.45,0,0,1-.3.45c-.19.09-.35,0-.48-.19l-20.87-26.07a3,3,0,0,0-2.54-1.24H102a1.57,1.57,0,0,0-1.56,1.56v47.6a1.47,1.47,0,0,0,.46,1.1,1.51,1.51,0,0,0,1.1.46h9.82a1.55,1.55,0,0,0,1.11-.46,1.5,1.5,0,0,0,.45-1.1V252.31a.47.47,0,0,1,.29-.45c.2-.09.36,0,.49.19l20.87,26a3,3,0,0,0,2.54,1.24h7.86a1.57,1.57,0,0,0,1.57-1.56v-47.6a1.51,1.51,0,0,0-.46-1.1,1.48,1.48,0,0,0-1.11-.46"/>
                <path class="cls-3"
                      d="M203.12,229a.85.85,0,0,0-.78-.42H190.12a2.72,2.72,0,0,0-2.41,1.3l-9.75,16a.68.68,0,0,1-.65.39.67.67,0,0,1-.65-.39L166.91,230a2.46,2.46,0,0,0-2.34-1.37H152.41a.85.85,0,0,0-.78.42.73.73,0,0,0,.06.88l18.47,29.72a4.82,4.82,0,0,1,.52,1.17,4.24,4.24,0,0,1,.19,1.23v15.74a1.47,1.47,0,0,0,.46,1.1,1.51,1.51,0,0,0,1.1.46h9.82a1.55,1.55,0,0,0,1.11-.46,1.5,1.5,0,0,0,.45-1.1V262a4.26,4.26,0,0,1,.2-1.23,4.47,4.47,0,0,1,.52-1.17l18.53-29.72a.76.76,0,0,0,.06-.88"/>
                <path class="cls-3"
                      d="M224.35,259.72a.8.8,0,0,1-.75.4h-8.51a.8.8,0,0,1-.75-.4,1,1,0,0,1-.1-.84l4.68-12.42a.48.48,0,0,1,.91,0l4.62,12.42a1.06,1.06,0,0,1-.1.84M226.4,230a2.22,2.22,0,0,0-.85-1,2.29,2.29,0,0,0-1.3-.39H214.5a2.31,2.31,0,0,0-2.15,1.43L193,277.87a1,1,0,0,0,.1,1,1,1,0,0,0,.87.46H205a2.06,2.06,0,0,0,1.26-.4,2.26,2.26,0,0,0,.82-1l1.82-4.75a1.73,1.73,0,0,1,1.75-1.24H228a1.73,1.73,0,0,1,1.76,1.24l1.82,4.75a2.18,2.18,0,0,0,.81,1,2.09,2.09,0,0,0,1.27.4h11a1,1,0,0,0,.88-.46,1,1,0,0,0,.1-1Z"/>
                <path class="cls-8"
                      d="M307.35,228.17h-9.89a1.55,1.55,0,0,0-1.56,1.56v16.84a1.33,1.33,0,0,1-1.3,1.3H276.53a1.33,1.33,0,0,1-1.3-1.3V229.73a1.55,1.55,0,0,0-.46-1.11,1.5,1.5,0,0,0-1.1-.45h-9.82a1.54,1.54,0,0,0-1.56,1.56v47.59a1.51,1.51,0,0,0,.45,1.11,1.54,1.54,0,0,0,1.11.45h9.82a1.5,1.5,0,0,0,1.1-.45,1.52,1.52,0,0,0,.46-1.11v-16a1.33,1.33,0,0,1,1.3-1.3H294.6a1.33,1.33,0,0,1,1.3,1.3v16a1.48,1.48,0,0,0,.46,1.11,1.5,1.5,0,0,0,1.1.45h9.89a1.5,1.5,0,0,0,1.1-.45,1.52,1.52,0,0,0,.46-1.11V229.73a1.55,1.55,0,0,0-.46-1.11,1.5,1.5,0,0,0-1.1-.45"/>
                <path class="cls-8"
                      d="M354.09,228.17H318.26a1.55,1.55,0,0,0-1.56,1.56v47.59a1.48,1.48,0,0,0,.46,1.11,1.5,1.5,0,0,0,1.1.45h35.83a1.5,1.5,0,0,0,1.1-.45,1.52,1.52,0,0,0,.46-1.11V267.9a1.57,1.57,0,0,0-1.56-1.57H331a1.26,1.26,0,0,1-.91-.39,1.24,1.24,0,0,1-.39-.91v-3.9a1.33,1.33,0,0,1,1.3-1.3h18.47a1.54,1.54,0,0,0,1.11-.45,1.52,1.52,0,0,0,.45-1.11v-8.64a1.51,1.51,0,0,0-.45-1.11,1.55,1.55,0,0,0-1.11-.46H331a1.26,1.26,0,0,1-.91-.39,1.24,1.24,0,0,1-.39-.91v-4.68a1.33,1.33,0,0,1,1.3-1.3h23.09a1.5,1.5,0,0,0,1.1-.45,1.53,1.53,0,0,0,.46-1.11v-9.49a1.55,1.55,0,0,0-.46-1.11,1.5,1.5,0,0,0-1.1-.45"/>
                <path class="cls-8"
                      d="M390,259.31a.82.82,0,0,1-.75.39h-8.52a.81.81,0,0,1-.75-.39,1,1,0,0,1-.09-.84l4.68-12.42a.46.46,0,0,1,.45-.33.47.47,0,0,1,.46.33l4.61,12.42a1,1,0,0,1-.09.84m2-29.71a2.2,2.2,0,0,0-.84-1,2.31,2.31,0,0,0-1.3-.39h-9.75a2.29,2.29,0,0,0-1.3.39,2.22,2.22,0,0,0-.85,1l-19.37,47.85a1.06,1.06,0,0,0,.09,1,1,1,0,0,0,.88.45h11.05a2.15,2.15,0,0,0,1.27-.39,2.21,2.21,0,0,0,.81-1l1.82-4.74a1.73,1.73,0,0,1,1.76-1.24h17.36a1.73,1.73,0,0,1,1.76,1.24l1.82,4.74a2.21,2.21,0,0,0,.81,1,2.15,2.15,0,0,0,1.27.39h11a1,1,0,0,0,.88-.45,1.06,1.06,0,0,0,.09-1Z"/>
                <path class="cls-8"
                      d="M454.35,266.75H432.89a1.24,1.24,0,0,1-.91-.39,1.26,1.26,0,0,1-.39-.91V230.14a1.55,1.55,0,0,0-1.56-1.56h-9.82a1.57,1.57,0,0,0-1.56,1.56v47.6a1.47,1.47,0,0,0,.46,1.1,1.51,1.51,0,0,0,1.1.46h34.14a1.57,1.57,0,0,0,1.56-1.56v-9.43a1.53,1.53,0,0,0-.46-1.11,1.5,1.5,0,0,0-1.1-.45"/>
                <path class="cls-8"
                      d="M491.22,228.58H449.73a1.47,1.47,0,0,0-1.1.46,1.51,1.51,0,0,0-.46,1.1v9.49a1.57,1.57,0,0,0,1.56,1.57h12.94a1.33,1.33,0,0,1,1.3,1.3v35.24a1.47,1.47,0,0,0,.46,1.1,1.51,1.51,0,0,0,1.1.46h9.89a1.57,1.57,0,0,0,1.56-1.56V242.5a1.33,1.33,0,0,1,1.3-1.3h12.94a1.57,1.57,0,0,0,1.56-1.57v-9.49a1.51,1.51,0,0,0-.46-1.1,1.47,1.47,0,0,0-1.1-.46"/>
                <path class="cls-8"
                      d="M543.62,229a1.51,1.51,0,0,0-1.11-.46h-9.88a1.55,1.55,0,0,0-1.56,1.56V247a1.24,1.24,0,0,1-.39.91,1.26,1.26,0,0,1-.91.39H511.69a1.33,1.33,0,0,1-1.3-1.3V230.14a1.55,1.55,0,0,0-1.56-1.56H499a1.57,1.57,0,0,0-1.56,1.56v47.6a1.47,1.47,0,0,0,.46,1.1,1.51,1.51,0,0,0,1.1.46h9.82a1.55,1.55,0,0,0,1.11-.46,1.5,1.5,0,0,0,.45-1.1v-16a1.33,1.33,0,0,1,1.3-1.3h18.08a1.26,1.26,0,0,1,.91.39,1.24,1.24,0,0,1,.39.91v16a1.5,1.5,0,0,0,.45,1.1,1.53,1.53,0,0,0,1.11.46h9.88a1.55,1.55,0,0,0,1.11-.46,1.5,1.5,0,0,0,.45-1.1v-47.6a1.5,1.5,0,0,0-.45-1.1"/>
            </g>
        </g>
    </g>
</svg>